<svg xmlns="http://www.w3.org/2000/svg" xmlns:xlink="http://www.w3.org/1999/xlink" width="40" zoomAndPan="magnify" viewBox="0 0 30 30.000001" height="40" preserveAspectRatio="xMidYMid meet" version="1.0"><defs><g/><clipPath id="2485791bdf"><path d="M 1.066406 10.78125 L 8.53125 10.78125 L 8.53125 18.25 L 1.066406 18.25 Z M 1.066406 10.78125 " clip-rule="nonzero"/></clipPath><clipPath id="adc0b633b8"><path d="M 4.796875 10.78125 C 2.734375 10.78125 1.066406 12.453125 1.066406 14.515625 C 1.066406 16.578125 2.734375 18.25 4.796875 18.25 C 6.859375 18.25 8.53125 16.578125 8.53125 14.515625 C 8.53125 12.453125 6.859375 10.78125 4.796875 10.78125 Z M 4.796875 10.78125 " clip-rule="nonzero"/></clipPath><clipPath id="3c802049f2"><path d="M 0.0664062 0.78125 L 7.53125 0.78125 L 7.53125 8.25 L 0.0664062 8.25 Z M 0.0664062 0.78125 " clip-rule="nonzero"/></clipPath><clipPath id="3f01d56410"><path d="M 3.796875 0.78125 C 1.734375 0.78125 0.0664062 2.453125 0.0664062 4.515625 C 0.0664062 6.578125 1.734375 8.25 3.796875 8.25 C 5.859375 8.25 7.53125 6.578125 7.53125 4.515625 C 7.53125 2.453125 5.859375 0.78125 3.796875 0.78125 Z M 3.796875 0.78125 " clip-rule="nonzero"/></clipPath><clipPath id="3a1f90f3fd"><rect x="0" width="8" y="0" height="9"/></clipPath><clipPath id="7e6589dd7d"><path d="M 6 13 L 7.503906 13 L 7.503906 17 L 6 17 Z M 6 13 " clip-rule="nonzero"/></clipPath><clipPath id="06a4894c86"><path d="M 2.421875 14 L 5 14 L 5 17 L 2.421875 17 Z M 2.421875 14 " clip-rule="nonzero"/></clipPath><clipPath id="2bd3c023b3"><path d="M 2.421875 12.140625 L 4 12.140625 L 4 16 L 2.421875 16 Z M 2.421875 12.140625 " clip-rule="nonzero"/></clipPath><clipPath id="85a69f3527"><path d="M 3 12.140625 L 6 12.140625 L 6 14 L 3 14 Z M 3 12.140625 " clip-rule="nonzero"/></clipPath><clipPath id="e07bfa84bb"><path d="M 4 12.140625 L 7.503906 12.140625 L 7.503906 15 L 4 15 Z M 4 12.140625 " clip-rule="nonzero"/></clipPath><clipPath id="8a06e23b26"><path d="M 0.0078125 1 L 4 1 L 4 4 L 0.0078125 4 Z M 0.0078125 1 " clip-rule="nonzero"/></clipPath><clipPath id="4b16d9d686"><path d="M 16 1 L 18.820312 1 L 18.820312 4 L 16 4 Z M 16 1 " clip-rule="nonzero"/></clipPath><clipPath id="6a68b67663"><rect x="0" width="19" y="0" height="5"/></clipPath></defs><g clip-path="url(#2485791bdf)"><g clip-path="url(#adc0b633b8)"><g transform="matrix(1, 0, 0, 1, 1, 10)"><g clip-path="url(#3a1f90f3fd)"><g clip-path="url(#3c802049f2)"><g clip-path="url(#3f01d56410)"><path fill="#dd3d93" d="M 0.0664062 0.78125 L 7.53125 0.78125 L 7.53125 8.25 L 0.0664062 8.25 Z M 0.0664062 0.78125 " fill-opacity="1" fill-rule="nonzero"/></g></g></g></g></g></g><g clip-path="url(#7e6589dd7d)"><path fill="#c7ef63" d="M 6.050781 13.984375 L 6.050781 16.535156 C 6.695312 16.136719 7.132812 15.433594 7.171875 14.632812 L 6.050781 13.984375 " fill-opacity="1" fill-rule="nonzero"/></g><path fill="#c7ef63" d="M 5.882812 15.335938 L 4.796875 15.960938 L 3.675781 16.609375 C 4.007812 16.789062 4.390625 16.890625 4.796875 16.890625 C 5.1875 16.890625 5.558594 16.796875 5.882812 16.628906 L 5.882812 15.335938 " fill-opacity="1" fill-rule="nonzero"/><g clip-path="url(#06a4894c86)"><path fill="#c7ef63" d="M 4.632812 15.867188 L 3.546875 15.238281 L 2.421875 14.589844 C 2.449219 15.398438 2.875 16.101562 3.511719 16.511719 L 4.632812 15.867188 " fill-opacity="1" fill-rule="nonzero"/></g><g clip-path="url(#2bd3c023b3)"><path fill="#c7ef63" d="M 3.546875 15.046875 L 3.546875 12.496094 C 2.902344 12.894531 2.464844 13.597656 2.425781 14.402344 L 3.546875 15.046875 " fill-opacity="1" fill-rule="nonzero"/></g><g clip-path="url(#85a69f3527)"><path fill="#c7ef63" d="M 4.796875 12.140625 C 4.40625 12.140625 4.039062 12.234375 3.710938 12.402344 L 3.710938 13.695312 L 4.796875 13.070312 L 5.921875 12.421875 C 5.585938 12.242188 5.203125 12.140625 4.796875 12.140625 " fill-opacity="1" fill-rule="nonzero"/></g><g clip-path="url(#e07bfa84bb)"><path fill="#c7ef63" d="M 6.085938 12.519531 L 4.964844 13.164062 L 6.050781 13.792969 L 7.171875 14.441406 C 7.148438 13.632812 6.71875 12.929688 6.085938 12.519531 " fill-opacity="1" fill-rule="nonzero"/></g><g transform="matrix(1, 0, 0, 1, 10, 12)"><g clip-path="url(#6a68b67663)"><g clip-path="url(#8a06e23b26)"><g fill="#dd3d93" fill-opacity="1"><g transform="translate(0.0542115, 3.833659)"><g><path d="M 3.625 -2.59375 L 2.859375 0 L 2.15625 0 L 1.84375 -1.28125 L 1.515625 0 L 0.8125 0 L 0.046875 -2.59375 L 0.8125 -2.59375 L 1.171875 -1.109375 L 1.53125 -2.59375 L 2.140625 -2.59375 L 2.5 -1.109375 L 2.859375 -2.59375 Z M 3.625 -2.59375 "/></g></g></g></g><g fill="#dd3d93" fill-opacity="1"><g transform="translate(3.728473, 3.833659)"><g><path d="M 2.390625 -1.046875 C 2.390625 -1.003906 2.382812 -0.960938 2.375 -0.921875 C 2.363281 -0.878906 2.359375 -0.835938 2.359375 -0.796875 L 1 -0.796875 C 1.050781 -0.660156 1.140625 -0.59375 1.265625 -0.59375 C 1.367188 -0.59375 1.4375 -0.640625 1.46875 -0.734375 L 2.3125 -0.59375 C 2.226562 -0.394531 2.09375 -0.238281 1.90625 -0.125 C 1.726562 -0.0078125 1.507812 0.046875 1.25 0.046875 C 0.894531 0.046875 0.617188 -0.046875 0.421875 -0.234375 C 0.222656 -0.429688 0.125 -0.703125 0.125 -1.046875 C 0.125 -1.390625 0.222656 -1.65625 0.421875 -1.84375 C 0.617188 -2.03125 0.894531 -2.125 1.25 -2.125 C 1.613281 -2.125 1.894531 -2.03125 2.09375 -1.84375 C 2.289062 -1.65625 2.390625 -1.390625 2.390625 -1.046875 Z M 1.515625 -1.234375 C 1.453125 -1.410156 1.363281 -1.5 1.25 -1.5 C 1.101562 -1.5 1.007812 -1.410156 0.96875 -1.234375 Z M 1.515625 -1.234375 "/></g></g></g><g fill="#dd3d93" fill-opacity="1"><g transform="translate(6.236963, 3.833659)"><g><path d="M 2.03125 -1.34375 C 2.34375 -1.25 2.5 -1.046875 2.5 -0.734375 C 2.5 -0.503906 2.398438 -0.320312 2.203125 -0.1875 C 2.015625 -0.0625 1.742188 0 1.390625 0 L 0.171875 0 L 0.171875 -2.59375 L 1.53125 -2.59375 C 1.789062 -2.59375 1.992188 -2.53125 2.140625 -2.40625 C 2.285156 -2.28125 2.359375 -2.097656 2.359375 -1.859375 C 2.359375 -1.617188 2.25 -1.445312 2.03125 -1.34375 Z M 1 -1.625 L 1.40625 -1.625 C 1.53125 -1.625 1.59375 -1.675781 1.59375 -1.78125 C 1.59375 -1.875 1.53125 -1.929688 1.40625 -1.953125 L 1 -1.953125 Z M 1.453125 -0.65625 C 1.609375 -0.65625 1.6875 -0.710938 1.6875 -0.828125 C 1.6875 -0.953125 1.609375 -1.015625 1.453125 -1.015625 L 1 -1.015625 L 1 -0.65625 Z M 1.453125 -0.65625 "/></g></g></g><g fill="#dd3d93" fill-opacity="1"><g transform="translate(8.891174, 3.833659)"><g><path d="M 1.25 0.046875 C 0.894531 0.046875 0.617188 -0.046875 0.421875 -0.234375 C 0.222656 -0.429688 0.125 -0.703125 0.125 -1.046875 C 0.125 -1.390625 0.222656 -1.65625 0.421875 -1.84375 C 0.617188 -2.03125 0.894531 -2.125 1.25 -2.125 C 1.613281 -2.125 1.894531 -2.03125 2.09375 -1.84375 C 2.289062 -1.65625 2.390625 -1.390625 2.390625 -1.046875 C 2.390625 -0.703125 2.289062 -0.429688 2.09375 -0.234375 C 1.894531 -0.046875 1.613281 0.046875 1.25 0.046875 Z M 1.25 -0.640625 C 1.351562 -0.640625 1.429688 -0.671875 1.484375 -0.734375 C 1.535156 -0.804688 1.5625 -0.910156 1.5625 -1.046875 C 1.5625 -1.316406 1.457031 -1.453125 1.25 -1.453125 C 1.050781 -1.453125 0.953125 -1.316406 0.953125 -1.046875 C 0.953125 -0.910156 0.976562 -0.804688 1.03125 -0.734375 C 1.082031 -0.671875 1.15625 -0.640625 1.25 -0.640625 Z M 1.25 -0.640625 "/></g></g></g><g fill="#dd3d93" fill-opacity="1"><g transform="translate(11.399664, 3.833659)"><g><path d="M 1.25 0.046875 C 0.894531 0.046875 0.617188 -0.046875 0.421875 -0.234375 C 0.222656 -0.429688 0.125 -0.703125 0.125 -1.046875 C 0.125 -1.390625 0.222656 -1.65625 0.421875 -1.84375 C 0.617188 -2.03125 0.894531 -2.125 1.25 -2.125 C 1.613281 -2.125 1.894531 -2.03125 2.09375 -1.84375 C 2.289062 -1.65625 2.390625 -1.390625 2.390625 -1.046875 C 2.390625 -0.703125 2.289062 -0.429688 2.09375 -0.234375 C 1.894531 -0.046875 1.613281 0.046875 1.25 0.046875 Z M 1.25 -0.640625 C 1.351562 -0.640625 1.429688 -0.671875 1.484375 -0.734375 C 1.535156 -0.804688 1.5625 -0.910156 1.5625 -1.046875 C 1.5625 -1.316406 1.457031 -1.453125 1.25 -1.453125 C 1.050781 -1.453125 0.953125 -1.316406 0.953125 -1.046875 C 0.953125 -0.910156 0.976562 -0.804688 1.03125 -0.734375 C 1.082031 -0.671875 1.15625 -0.640625 1.25 -0.640625 Z M 1.25 -0.640625 "/></g></g></g><g fill="#dd3d93" fill-opacity="1"><g transform="translate(13.908154, 3.833659)"><g><path d="M 2.15625 -0.625 L 1.546875 -0.875 C 1.535156 -0.71875 1.453125 -0.640625 1.296875 -0.640625 C 1.210938 -0.640625 1.144531 -0.671875 1.09375 -0.734375 C 1.039062 -0.804688 1.015625 -0.898438 1.015625 -1.015625 L 1.015625 -1.3125 L 1.4375 -1.3125 L 1.4375 -1.921875 L 1.015625 -1.921875 L 1.015625 -2.515625 L 0.171875 -2.515625 L 0.171875 -0.859375 C 0.171875 -0.566406 0.253906 -0.34375 0.421875 -0.1875 C 0.585938 -0.03125 0.828125 0.046875 1.140625 0.046875 C 1.453125 0.046875 1.695312 -0.0078125 1.875 -0.125 C 2.050781 -0.25 2.144531 -0.414062 2.15625 -0.625 Z M 2.15625 -0.625 "/></g></g></g><g clip-path="url(#4b16d9d686)"><g fill="#dd3d93" fill-opacity="1"><g transform="translate(16.151223, 3.833659)"><g><path d="M 1.625 -2.125 C 1.882812 -2.125 2.082031 -2.039062 2.21875 -1.875 C 2.363281 -1.707031 2.4375 -1.476562 2.4375 -1.1875 L 2.4375 0 L 1.59375 0 L 1.59375 -0.890625 C 1.59375 -1.054688 1.566406 -1.1875 1.515625 -1.28125 C 1.472656 -1.375 1.410156 -1.421875 1.328125 -1.421875 C 1.171875 -1.421875 1.066406 -1.289062 1.015625 -1.03125 L 1.015625 0 L 0.171875 0 L 0.171875 -2.59375 L 1.015625 -2.59375 L 1.015625 -1.75 C 1.140625 -1.988281 1.34375 -2.113281 1.625 -2.125 Z M 1.625 -2.125 "/></g></g></g></g></g></g></svg>