<svg xmlns="http://www.w3.org/2000/svg" xmlns:xlink="http://www.w3.org/1999/xlink" width="40" zoomAndPan="magnify" viewBox="0 0 30 30.000001" height="40" preserveAspectRatio="xMidYMid meet" version="1.0"><defs><g/><clipPath id="c80b1947e4"><path d="M 0.484375 8.324219 L 29.515625 8.324219 L 29.515625 20.707031 L 0.484375 20.707031 Z M 0.484375 8.324219 " clip-rule="nonzero"/></clipPath><clipPath id="b7ab55c1a5"><path d="M 2.660156 8.324219 L 27.339844 8.324219 C 28.542969 8.324219 29.515625 9.300781 29.515625 10.503906 L 29.515625 18.53125 C 29.515625 19.730469 28.542969 20.707031 27.339844 20.707031 L 2.660156 20.707031 C 1.457031 20.707031 0.484375 19.730469 0.484375 18.53125 L 0.484375 10.503906 C 0.484375 9.300781 1.457031 8.324219 2.660156 8.324219 Z M 2.660156 8.324219 " clip-rule="nonzero"/></clipPath><clipPath id="4ad77e073e"><path d="M 0.484375 0.324219 L 29.515625 0.324219 L 29.515625 12.707031 L 0.484375 12.707031 Z M 0.484375 0.324219 " clip-rule="nonzero"/></clipPath><clipPath id="5d65d108c9"><path d="M 2.660156 0.324219 L 27.339844 0.324219 C 28.542969 0.324219 29.515625 1.300781 29.515625 2.503906 L 29.515625 10.53125 C 29.515625 11.730469 28.542969 12.707031 27.339844 12.707031 L 2.660156 12.707031 C 1.457031 12.707031 0.484375 11.730469 0.484375 10.53125 L 0.484375 2.503906 C 0.484375 1.300781 1.457031 0.324219 2.660156 0.324219 Z M 2.660156 0.324219 " clip-rule="nonzero"/></clipPath><clipPath id="a3c088b2fa"><rect x="0" width="30" y="0" height="13"/></clipPath><clipPath id="13f7a4a3ee"><path d="M 0.496094 8.324219 L 29.515625 8.324219 L 29.515625 20.664062 L 0.496094 20.664062 Z M 0.496094 8.324219 " clip-rule="nonzero"/></clipPath><clipPath id="9d159b8a52"><path d="M 2.671875 8.324219 L 27.328125 8.324219 C 28.53125 8.324219 29.503906 9.300781 29.503906 10.5 L 29.503906 18.523438 C 29.503906 19.722656 28.53125 20.699219 27.328125 20.699219 L 2.671875 20.699219 C 1.46875 20.699219 0.496094 19.722656 0.496094 18.523438 L 0.496094 10.5 C 0.496094 9.300781 1.46875 8.324219 2.671875 8.324219 Z M 2.671875 8.324219 " clip-rule="nonzero"/></clipPath><clipPath id="74f0a85e3e"><path d="M 5.421875 11.109375 L 10.503906 11.109375 L 10.503906 17.640625 L 5.421875 17.640625 Z M 5.421875 11.109375 " clip-rule="nonzero"/></clipPath></defs><g clip-path="url(#c80b1947e4)"><g clip-path="url(#b7ab55c1a5)"><g transform="matrix(1, 0, 0, 1, 0, 8)"><g clip-path="url(#a3c088b2fa)"><g clip-path="url(#4ad77e073e)"><g clip-path="url(#5d65d108c9)"><path fill="#feefff" d="M 0.484375 0.324219 L 29.503906 0.324219 L 29.503906 12.707031 L 0.484375 12.707031 Z M 0.484375 0.324219 " fill-opacity="1" fill-rule="nonzero"/></g></g></g></g></g></g><g clip-path="url(#13f7a4a3ee)"><g clip-path="url(#9d159b8a52)"><path stroke-linecap="butt" transform="matrix(0.725806, 0, 0, 0.725806, 0.494144, 8.325385)" fill="none" stroke-linejoin="miter" d="M 3.00043 -0.00160632 L 36.971266 -0.00160632 C 38.628905 -0.00160632 39.969009 1.34388 39.969009 2.996137 L 39.969009 14.050652 C 39.969009 15.702909 38.628905 17.048395 36.971266 17.048395 L 3.00043 17.048395 C 1.342791 17.048395 0.00268686 15.702909 0.00268686 14.050652 L 0.00268686 2.996137 C 0.00268686 1.34388 1.342791 -0.00160632 3.00043 -0.00160632 Z M 3.00043 -0.00160632 " stroke="#dd3d93" stroke-width="2" stroke-opacity="1" stroke-miterlimit="4"/></g></g><g fill="#dd3d93" fill-opacity="1"><g transform="translate(4.85005, 16.309256)"><g/></g></g><g fill="#dd3d93" fill-opacity="1"><g transform="translate(5.986072, 16.309256)"><g/></g></g><g fill="#dd3d93" fill-opacity="1"><g transform="translate(7.122093, 16.309256)"><g/></g></g><g fill="#dd3d93" fill-opacity="1"><g transform="translate(8.258115, 16.309256)"><g/></g></g><g fill="#dd3d93" fill-opacity="1"><g transform="translate(9.394137, 16.309256)"><g/></g></g><g fill="#dd3d93" fill-opacity="1"><g transform="translate(10.530159, 16.309256)"><g/></g></g><g fill="#dd3d93" fill-opacity="1"><g transform="translate(11.66618, 16.309256)"><g/></g></g><g fill="#dd3d93" fill-opacity="1"><g transform="translate(12.811239, 16.309256)"><g><path d="M 0.3125 0 L 0.3125 -3 L 1.3125 -3 C 1.539062 -3 1.726562 -2.960938 1.875 -2.890625 C 2.03125 -2.816406 2.144531 -2.710938 2.21875 -2.578125 C 2.289062 -2.441406 2.328125 -2.289062 2.328125 -2.125 C 2.328125 -1.96875 2.289062 -1.820312 2.21875 -1.6875 C 2.15625 -1.550781 2.046875 -1.441406 1.890625 -1.359375 C 1.734375 -1.285156 1.539062 -1.25 1.3125 -1.25 L 0.671875 -1.25 L 0.671875 0 Z M 0.671875 -1.5625 L 1.296875 -1.5625 C 1.535156 -1.5625 1.707031 -1.609375 1.8125 -1.703125 C 1.914062 -1.804688 1.96875 -1.945312 1.96875 -2.125 C 1.96875 -2.3125 1.914062 -2.453125 1.8125 -2.546875 C 1.707031 -2.648438 1.535156 -2.703125 1.296875 -2.703125 L 0.671875 -2.703125 Z M 0.671875 -1.5625 "/></g></g></g><g fill="#dd3d93" fill-opacity="1"><g transform="translate(15.29333, 16.309256)"><g><path d="M 0.296875 0 L 0.296875 -2.125 L 0.625 -2.125 L 0.65625 -1.71875 C 0.71875 -1.863281 0.816406 -1.976562 0.953125 -2.0625 C 1.085938 -2.144531 1.253906 -2.1875 1.453125 -2.1875 L 1.453125 -1.796875 L 1.359375 -1.796875 C 1.234375 -1.796875 1.113281 -1.773438 1 -1.734375 C 0.894531 -1.691406 0.8125 -1.617188 0.75 -1.515625 C 0.6875 -1.410156 0.65625 -1.265625 0.65625 -1.078125 L 0.65625 0 Z M 0.296875 0 "/></g></g></g><g fill="#dd3d93" fill-opacity="1"><g transform="translate(16.767957, 16.309256)"><g><path d="M 1.265625 0.046875 C 1.066406 0.046875 0.882812 0.00390625 0.71875 -0.078125 C 0.5625 -0.171875 0.4375 -0.300781 0.34375 -0.46875 C 0.25 -0.632812 0.203125 -0.832031 0.203125 -1.0625 C 0.203125 -1.289062 0.25 -1.488281 0.34375 -1.65625 C 0.4375 -1.820312 0.5625 -1.953125 0.71875 -2.046875 C 0.882812 -2.140625 1.070312 -2.1875 1.28125 -2.1875 C 1.476562 -2.1875 1.65625 -2.140625 1.8125 -2.046875 C 1.976562 -1.953125 2.109375 -1.820312 2.203125 -1.65625 C 2.296875 -1.488281 2.34375 -1.289062 2.34375 -1.0625 C 2.34375 -0.832031 2.289062 -0.632812 2.1875 -0.46875 C 2.09375 -0.300781 1.960938 -0.171875 1.796875 -0.078125 C 1.640625 0.00390625 1.460938 0.046875 1.265625 0.046875 Z M 1.265625 -0.25 C 1.390625 -0.25 1.503906 -0.28125 1.609375 -0.34375 C 1.710938 -0.40625 1.796875 -0.492188 1.859375 -0.609375 C 1.929688 -0.734375 1.96875 -0.882812 1.96875 -1.0625 C 1.96875 -1.238281 1.9375 -1.382812 1.875 -1.5 C 1.8125 -1.625 1.722656 -1.71875 1.609375 -1.78125 C 1.503906 -1.84375 1.394531 -1.875 1.28125 -1.875 C 1.15625 -1.875 1.035156 -1.84375 0.921875 -1.78125 C 0.816406 -1.71875 0.734375 -1.625 0.671875 -1.5 C 0.609375 -1.382812 0.578125 -1.238281 0.578125 -1.0625 C 0.578125 -0.882812 0.609375 -0.734375 0.671875 -0.609375 C 0.734375 -0.492188 0.816406 -0.40625 0.921875 -0.34375 C 1.035156 -0.28125 1.148438 -0.25 1.265625 -0.25 Z M 1.265625 -0.25 "/></g></g></g><g fill="#dd3d93" fill-opacity="1"><g transform="translate(19.305776, 16.309256)"><g><path d="M 0.40625 0 L 0.40625 -1.828125 L 0.09375 -1.828125 L 0.09375 -2.125 L 0.40625 -2.125 L 0.40625 -2.5 C 0.40625 -2.707031 0.457031 -2.859375 0.5625 -2.953125 C 0.664062 -3.046875 0.816406 -3.09375 1.015625 -3.09375 L 1.234375 -3.09375 L 1.234375 -2.78125 L 1.078125 -2.78125 C 0.960938 -2.78125 0.878906 -2.757812 0.828125 -2.71875 C 0.785156 -2.675781 0.765625 -2.597656 0.765625 -2.484375 L 0.765625 -2.125 L 1.296875 -2.125 L 1.296875 -1.828125 L 0.765625 -1.828125 L 0.765625 0 Z M 0.40625 0 "/></g></g></g><g fill="#dd3d93" fill-opacity="1"><g transform="translate(20.733301, 16.309256)"><g><path d="M 0.515625 -2.609375 C 0.441406 -2.609375 0.378906 -2.628906 0.328125 -2.671875 C 0.285156 -2.722656 0.265625 -2.785156 0.265625 -2.859375 C 0.265625 -2.921875 0.285156 -2.972656 0.328125 -3.015625 C 0.378906 -3.066406 0.441406 -3.09375 0.515625 -3.09375 C 0.585938 -3.09375 0.644531 -3.066406 0.6875 -3.015625 C 0.738281 -2.972656 0.765625 -2.921875 0.765625 -2.859375 C 0.765625 -2.785156 0.738281 -2.722656 0.6875 -2.671875 C 0.644531 -2.628906 0.585938 -2.609375 0.515625 -2.609375 Z M 0.328125 0 L 0.328125 -2.125 L 0.703125 -2.125 L 0.703125 0 Z M 0.328125 0 "/></g></g></g><g fill="#dd3d93" fill-opacity="1"><g transform="translate(21.757865, 16.309256)"><g><path d="M 0.296875 0 L 0.296875 -3.09375 L 0.65625 -3.09375 L 0.65625 0 Z M 0.296875 0 "/></g></g></g><g fill="#dd3d93" fill-opacity="1"><g transform="translate(22.709544, 16.309256)"><g><path d="M 1.25 0.046875 C 1.050781 0.046875 0.875 0 0.71875 -0.09375 C 0.5625 -0.1875 0.4375 -0.3125 0.34375 -0.46875 C 0.25 -0.632812 0.203125 -0.832031 0.203125 -1.0625 C 0.203125 -1.289062 0.242188 -1.488281 0.328125 -1.65625 C 0.421875 -1.820312 0.546875 -1.953125 0.703125 -2.046875 C 0.867188 -2.140625 1.054688 -2.1875 1.265625 -2.1875 C 1.472656 -2.1875 1.648438 -2.140625 1.796875 -2.046875 C 1.953125 -1.953125 2.066406 -1.828125 2.140625 -1.671875 C 2.222656 -1.523438 2.265625 -1.363281 2.265625 -1.1875 C 2.265625 -1.15625 2.265625 -1.125 2.265625 -1.09375 C 2.265625 -1.0625 2.265625 -1.023438 2.265625 -0.984375 L 0.5625 -0.984375 C 0.570312 -0.816406 0.609375 -0.679688 0.671875 -0.578125 C 0.742188 -0.472656 0.828125 -0.390625 0.921875 -0.328125 C 1.023438 -0.273438 1.132812 -0.25 1.25 -0.25 C 1.40625 -0.25 1.53125 -0.28125 1.625 -0.34375 C 1.726562 -0.414062 1.800781 -0.515625 1.84375 -0.640625 L 2.203125 -0.640625 C 2.148438 -0.441406 2.039062 -0.273438 1.875 -0.140625 C 1.707031 -0.015625 1.5 0.046875 1.25 0.046875 Z M 1.25 -1.875 C 1.082031 -1.875 0.929688 -1.820312 0.796875 -1.71875 C 0.660156 -1.613281 0.582031 -1.460938 0.5625 -1.265625 L 1.90625 -1.265625 C 1.894531 -1.453125 1.828125 -1.597656 1.703125 -1.703125 C 1.585938 -1.816406 1.4375 -1.875 1.25 -1.875 Z M 1.25 -1.875 "/></g></g></g><g clip-path="url(#74f0a85e3e)"><path fill="#dd3d93" d="M 10.695312 17.402344 C 10.695312 15.589844 9.515625 14.117188 8.058594 14.117188 C 6.605469 14.117188 5.421875 15.589844 5.421875 17.402344 C 5.421875 17.6875 6.605469 17.917969 8.058594 17.917969 C 9.515625 17.917969 10.695312 17.6875 10.695312 17.402344 Z M 8.058594 11.113281 C 8.855469 11.113281 9.496094 11.757812 9.496094 12.550781 C 9.496094 13.34375 8.855469 13.988281 8.058594 13.988281 C 7.265625 13.988281 6.625 13.34375 6.625 12.550781 C 6.625 11.757812 7.265625 11.113281 8.058594 11.113281 Z M 8.058594 11.113281 " fill-opacity="1" fill-rule="evenodd"/></g></svg>