<svg xmlns="http://www.w3.org/2000/svg" xmlns:xlink="http://www.w3.org/1999/xlink" width="40" zoomAndPan="magnify" viewBox="0 0 30 30.000001" height="40" preserveAspectRatio="xMidYMid meet" version="1.0"><defs><g/><clipPath id="b2dcca8899"><path d="M 0.484375 10.613281 L 29.515625 10.613281 L 29.515625 18.417969 L 0.484375 18.417969 Z M 0.484375 10.613281 " clip-rule="nonzero"/></clipPath><clipPath id="8f532c178f"><path d="M 2.660156 10.613281 L 27.339844 10.613281 C 27.917969 10.613281 28.46875 10.84375 28.878906 11.253906 C 29.285156 11.660156 29.515625 12.214844 29.515625 12.792969 L 29.515625 16.242188 C 29.515625 16.816406 29.285156 17.371094 28.878906 17.78125 C 28.46875 18.1875 27.917969 18.417969 27.339844 18.417969 L 2.660156 18.417969 C 2.082031 18.417969 1.53125 18.1875 1.121094 17.78125 C 0.714844 17.371094 0.484375 16.816406 0.484375 16.242188 L 0.484375 12.792969 C 0.484375 12.214844 0.714844 11.660156 1.121094 11.253906 C 1.53125 10.84375 2.082031 10.613281 2.660156 10.613281 Z M 2.660156 10.613281 " clip-rule="nonzero"/></clipPath><clipPath id="2dee4513e1"><path d="M 0.484375 0.613281 L 29.515625 0.613281 L 29.515625 8.417969 L 0.484375 8.417969 Z M 0.484375 0.613281 " clip-rule="nonzero"/></clipPath><clipPath id="fa56223a39"><path d="M 2.660156 0.613281 L 27.339844 0.613281 C 27.917969 0.613281 28.46875 0.84375 28.878906 1.253906 C 29.285156 1.660156 29.515625 2.214844 29.515625 2.792969 L 29.515625 6.242188 C 29.515625 6.816406 29.285156 7.371094 28.878906 7.78125 C 28.46875 8.1875 27.917969 8.417969 27.339844 8.417969 L 2.660156 8.417969 C 2.082031 8.417969 1.53125 8.1875 1.121094 7.78125 C 0.714844 7.371094 0.484375 6.816406 0.484375 6.242188 L 0.484375 2.792969 C 0.484375 2.214844 0.714844 1.660156 1.121094 1.253906 C 1.53125 0.84375 2.082031 0.613281 2.660156 0.613281 Z M 2.660156 0.613281 " clip-rule="nonzero"/></clipPath><clipPath id="518c49b127"><rect x="0" width="30" y="0" height="9"/></clipPath><clipPath id="cdf05e4ca6"><path d="M 2.21875 12.574219 L 7.300781 12.574219 L 7.300781 16.203125 L 2.21875 16.203125 Z M 2.21875 12.574219 " clip-rule="nonzero"/></clipPath></defs><g clip-path="url(#b2dcca8899)"><g clip-path="url(#8f532c178f)"><g transform="matrix(1, 0, 0, 1, 0, 10)"><g clip-path="url(#518c49b127)"><g clip-path="url(#2dee4513e1)"><g clip-path="url(#fa56223a39)"><path fill="#feefff" d="M 0.484375 0.613281 L 29.503906 0.613281 L 29.503906 8.417969 L 0.484375 8.417969 Z M 0.484375 0.613281 " fill-opacity="1" fill-rule="nonzero"/></g></g></g></g></g></g><g fill="#000000" fill-opacity="1"><g transform="translate(3.523185, 14.24341)"><g/></g></g><g fill="#000000" fill-opacity="1"><g transform="translate(4.172342, 14.24341)"><g/></g></g><g fill="#000000" fill-opacity="1"><g transform="translate(4.821499, 14.24341)"><g/></g></g><g fill="#000000" fill-opacity="1"><g transform="translate(5.470656, 14.24341)"><g/></g></g><g fill="#000000" fill-opacity="1"><g transform="translate(6.119812, 14.24341)"><g/></g></g><g fill="#000000" fill-opacity="1"><g transform="translate(6.768969, 14.24341)"><g/></g></g><g fill="#000000" fill-opacity="1"><g transform="translate(7.418126, 14.24341)"><g/></g></g><g fill="#000000" fill-opacity="1"><g transform="translate(8.067283, 14.24341)"><g/></g></g><g fill="#000000" fill-opacity="1"><g transform="translate(8.71644, 14.24341)"><g/></g></g><g fill="#000000" fill-opacity="1"><g transform="translate(9.374999, 14.24341)"><g><path d="M 0.734375 0.03125 C 0.609375 0.03125 0.5 0.0078125 0.40625 -0.03125 C 0.3125 -0.0820312 0.238281 -0.148438 0.1875 -0.234375 C 0.132812 -0.316406 0.109375 -0.410156 0.109375 -0.515625 L 0.328125 -0.515625 C 0.328125 -0.453125 0.34375 -0.390625 0.375 -0.328125 C 0.40625 -0.273438 0.445312 -0.226562 0.5 -0.1875 C 0.5625 -0.15625 0.640625 -0.140625 0.734375 -0.140625 C 0.847656 -0.140625 0.9375 -0.164062 1 -0.21875 C 1.0625 -0.28125 1.09375 -0.351562 1.09375 -0.4375 C 1.09375 -0.507812 1.078125 -0.566406 1.046875 -0.609375 C 1.015625 -0.648438 0.972656 -0.679688 0.921875 -0.703125 C 0.878906 -0.734375 0.820312 -0.753906 0.75 -0.765625 C 0.6875 -0.785156 0.625 -0.8125 0.5625 -0.84375 C 0.425781 -0.882812 0.328125 -0.9375 0.265625 -1 C 0.203125 -1.070312 0.171875 -1.164062 0.171875 -1.28125 C 0.171875 -1.363281 0.191406 -1.441406 0.234375 -1.515625 C 0.273438 -1.585938 0.335938 -1.644531 0.421875 -1.6875 C 0.503906 -1.726562 0.597656 -1.75 0.703125 -1.75 C 0.816406 -1.75 0.910156 -1.726562 0.984375 -1.6875 C 1.066406 -1.644531 1.128906 -1.585938 1.171875 -1.515625 C 1.222656 -1.441406 1.25 -1.359375 1.25 -1.265625 L 1.03125 -1.265625 C 1.03125 -1.316406 1.019531 -1.363281 1 -1.40625 C 0.976562 -1.457031 0.941406 -1.492188 0.890625 -1.515625 C 0.835938 -1.546875 0.773438 -1.5625 0.703125 -1.5625 C 0.609375 -1.570312 0.53125 -1.550781 0.46875 -1.5 C 0.40625 -1.445312 0.375 -1.378906 0.375 -1.296875 C 0.375 -1.222656 0.394531 -1.164062 0.4375 -1.125 C 0.476562 -1.082031 0.535156 -1.046875 0.609375 -1.015625 C 0.691406 -0.992188 0.78125 -0.96875 0.875 -0.9375 C 0.957031 -0.90625 1.03125 -0.867188 1.09375 -0.828125 C 1.164062 -0.796875 1.21875 -0.75 1.25 -0.6875 C 1.289062 -0.625 1.3125 -0.546875 1.3125 -0.453125 C 1.3125 -0.367188 1.289062 -0.289062 1.25 -0.21875 C 1.207031 -0.144531 1.140625 -0.0820312 1.046875 -0.03125 C 0.960938 0.0078125 0.859375 0.03125 0.734375 0.03125 Z M 0.734375 0.03125 "/></g></g></g><g fill="#000000" fill-opacity="1"><g transform="translate(10.790885, 14.24341)"><g><path d="M 0.421875 0 L 0.0625 -1.21875 L 0.265625 -1.21875 L 0.515625 -0.265625 L 0.8125 -1.21875 L 1.046875 -1.21875 L 1.328125 -0.265625 L 1.578125 -1.21875 L 1.796875 -1.21875 L 1.4375 0 L 1.21875 0 L 0.921875 -1 L 0.625 0 Z M 0.421875 0 "/></g></g></g><g fill="#000000" fill-opacity="1"><g transform="translate(12.637906, 14.24341)"><g><path d="M 0.296875 -1.484375 C 0.253906 -1.484375 0.21875 -1.492188 0.1875 -1.515625 C 0.164062 -1.546875 0.15625 -1.582031 0.15625 -1.625 C 0.15625 -1.664062 0.164062 -1.695312 0.1875 -1.71875 C 0.21875 -1.75 0.253906 -1.765625 0.296875 -1.765625 C 0.335938 -1.765625 0.367188 -1.75 0.390625 -1.71875 C 0.421875 -1.695312 0.4375 -1.664062 0.4375 -1.625 C 0.4375 -1.582031 0.421875 -1.546875 0.390625 -1.515625 C 0.367188 -1.492188 0.335938 -1.484375 0.296875 -1.484375 Z M 0.1875 0 L 0.1875 -1.21875 L 0.390625 -1.21875 L 0.390625 0 Z M 0.1875 0 "/></g></g></g><g fill="#000000" fill-opacity="1"><g transform="translate(13.223371, 14.24341)"><g><path d="M 0.65625 0 C 0.539062 0 0.453125 -0.0234375 0.390625 -0.078125 C 0.328125 -0.128906 0.296875 -0.226562 0.296875 -0.375 L 0.296875 -1.046875 L 0.078125 -1.046875 L 0.078125 -1.21875 L 0.296875 -1.21875 L 0.3125 -1.515625 L 0.5 -1.515625 L 0.5 -1.21875 L 0.859375 -1.21875 L 0.859375 -1.046875 L 0.5 -1.046875 L 0.5 -0.375 C 0.5 -0.289062 0.515625 -0.234375 0.546875 -0.203125 C 0.578125 -0.179688 0.628906 -0.171875 0.703125 -0.171875 L 0.84375 -0.171875 L 0.84375 0 Z M 0.65625 0 "/></g></g></g><g fill="#000000" fill-opacity="1"><g transform="translate(14.137041, 14.24341)"><g><path d="M 0.734375 0.03125 C 0.609375 0.03125 0.5 0.00390625 0.40625 -0.046875 C 0.320312 -0.0976562 0.253906 -0.171875 0.203125 -0.265625 C 0.148438 -0.367188 0.125 -0.484375 0.125 -0.609375 C 0.125 -0.734375 0.148438 -0.84375 0.203125 -0.9375 C 0.253906 -1.039062 0.320312 -1.117188 0.40625 -1.171875 C 0.5 -1.222656 0.609375 -1.25 0.734375 -1.25 C 0.867188 -1.25 0.984375 -1.207031 1.078125 -1.125 C 1.179688 -1.050781 1.25 -0.953125 1.28125 -0.828125 L 1.0625 -0.828125 C 1.050781 -0.898438 1.015625 -0.957031 0.953125 -1 C 0.890625 -1.039062 0.8125 -1.0625 0.71875 -1.0625 C 0.65625 -1.0625 0.59375 -1.046875 0.53125 -1.015625 C 0.46875 -0.984375 0.414062 -0.929688 0.375 -0.859375 C 0.34375 -0.796875 0.328125 -0.710938 0.328125 -0.609375 C 0.328125 -0.503906 0.34375 -0.414062 0.375 -0.34375 C 0.414062 -0.28125 0.46875 -0.226562 0.53125 -0.1875 C 0.59375 -0.15625 0.65625 -0.140625 0.71875 -0.140625 C 0.8125 -0.140625 0.890625 -0.160156 0.953125 -0.203125 C 1.015625 -0.242188 1.050781 -0.304688 1.0625 -0.390625 L 1.28125 -0.390625 C 1.257812 -0.265625 1.195312 -0.160156 1.09375 -0.078125 C 0.988281 -0.00390625 0.867188 0.03125 0.734375 0.03125 Z M 0.734375 0.03125 "/></g></g></g><g fill="#000000" fill-opacity="1"><g transform="translate(15.533335, 14.24341)"><g><path d="M 0.171875 0 L 0.171875 -1.765625 L 0.375 -1.765625 L 0.375 -1.015625 C 0.414062 -1.085938 0.472656 -1.144531 0.546875 -1.1875 C 0.617188 -1.226562 0.703125 -1.25 0.796875 -1.25 C 0.929688 -1.25 1.039062 -1.203125 1.125 -1.109375 C 1.21875 -1.023438 1.265625 -0.894531 1.265625 -0.71875 L 1.265625 0 L 1.0625 0 L 1.0625 -0.6875 C 1.0625 -0.9375 0.957031 -1.0625 0.75 -1.0625 C 0.644531 -1.0625 0.554688 -1.023438 0.484375 -0.953125 C 0.410156 -0.878906 0.375 -0.769531 0.375 -0.625 L 0.375 0 Z M 0.171875 0 "/></g></g></g><g fill="#000000" fill-opacity="1"><g transform="translate(16.934523, 14.24341)"><g/></g></g><g fill="#000000" fill-opacity="1"><g transform="translate(17.58368, 14.24341)"><g><path d="M 0.9375 0.03125 C 0.769531 0.03125 0.625 -0.00390625 0.5 -0.078125 C 0.375 -0.148438 0.273438 -0.253906 0.203125 -0.390625 C 0.140625 -0.523438 0.109375 -0.679688 0.109375 -0.859375 C 0.109375 -1.035156 0.140625 -1.1875 0.203125 -1.3125 C 0.273438 -1.445312 0.375 -1.550781 0.5 -1.625 C 0.625 -1.707031 0.769531 -1.75 0.9375 -1.75 C 1.132812 -1.75 1.289062 -1.703125 1.40625 -1.609375 C 1.53125 -1.515625 1.613281 -1.382812 1.65625 -1.21875 L 1.421875 -1.21875 C 1.398438 -1.320312 1.347656 -1.40625 1.265625 -1.46875 C 1.179688 -1.53125 1.070312 -1.5625 0.9375 -1.5625 C 0.8125 -1.5625 0.703125 -1.53125 0.609375 -1.46875 C 0.515625 -1.414062 0.441406 -1.335938 0.390625 -1.234375 C 0.347656 -1.128906 0.328125 -1.003906 0.328125 -0.859375 C 0.328125 -0.710938 0.347656 -0.585938 0.390625 -0.484375 C 0.441406 -0.378906 0.515625 -0.296875 0.609375 -0.234375 C 0.703125 -0.179688 0.8125 -0.15625 0.9375 -0.15625 C 1.070312 -0.15625 1.179688 -0.1875 1.265625 -0.25 C 1.347656 -0.3125 1.398438 -0.394531 1.421875 -0.5 L 1.65625 -0.5 C 1.613281 -0.332031 1.53125 -0.203125 1.40625 -0.109375 C 1.289062 -0.015625 1.132812 0.03125 0.9375 0.03125 Z M 0.9375 0.03125 "/></g></g></g><g fill="#000000" fill-opacity="1"><g transform="translate(19.347418, 14.24341)"><g><path d="M 0.578125 0.03125 C 0.472656 0.03125 0.382812 0.015625 0.3125 -0.015625 C 0.25 -0.0546875 0.203125 -0.101562 0.171875 -0.15625 C 0.140625 -0.21875 0.125 -0.28125 0.125 -0.34375 C 0.125 -0.46875 0.171875 -0.5625 0.265625 -0.625 C 0.359375 -0.695312 0.488281 -0.734375 0.65625 -0.734375 L 0.984375 -0.734375 L 0.984375 -0.75 C 0.984375 -0.851562 0.953125 -0.929688 0.890625 -0.984375 C 0.835938 -1.046875 0.765625 -1.078125 0.671875 -1.078125 C 0.585938 -1.078125 0.515625 -1.054688 0.453125 -1.015625 C 0.398438 -0.972656 0.367188 -0.914062 0.359375 -0.84375 L 0.140625 -0.84375 C 0.148438 -0.925781 0.179688 -1 0.234375 -1.0625 C 0.285156 -1.125 0.347656 -1.171875 0.421875 -1.203125 C 0.503906 -1.234375 0.585938 -1.25 0.671875 -1.25 C 0.847656 -1.25 0.976562 -1.203125 1.0625 -1.109375 C 1.144531 -1.015625 1.1875 -0.894531 1.1875 -0.75 L 1.1875 0 L 1 0 L 0.984375 -0.21875 C 0.953125 -0.144531 0.898438 -0.0820312 0.828125 -0.03125 C 0.765625 0.0078125 0.679688 0.03125 0.578125 0.03125 Z M 0.609375 -0.140625 C 0.679688 -0.140625 0.742188 -0.160156 0.796875 -0.203125 C 0.859375 -0.242188 0.90625 -0.296875 0.9375 -0.359375 C 0.96875 -0.429688 0.984375 -0.503906 0.984375 -0.578125 L 0.671875 -0.578125 C 0.546875 -0.578125 0.457031 -0.554688 0.40625 -0.515625 C 0.363281 -0.472656 0.34375 -0.421875 0.34375 -0.359375 C 0.34375 -0.296875 0.363281 -0.242188 0.40625 -0.203125 C 0.457031 -0.160156 0.523438 -0.140625 0.609375 -0.140625 Z M 0.609375 -0.140625 "/></g></g></g><g fill="#000000" fill-opacity="1"><g transform="translate(20.672666, 14.24341)"><g><path d="M 0.171875 0 L 0.171875 -1.21875 L 0.359375 -1.21875 L 0.375 -1.046875 C 0.40625 -1.109375 0.453125 -1.15625 0.515625 -1.1875 C 0.585938 -1.226562 0.664062 -1.25 0.75 -1.25 C 0.84375 -1.25 0.921875 -1.226562 0.984375 -1.1875 C 1.054688 -1.144531 1.113281 -1.085938 1.15625 -1.015625 C 1.195312 -1.085938 1.253906 -1.144531 1.328125 -1.1875 C 1.398438 -1.226562 1.484375 -1.25 1.578125 -1.25 C 1.722656 -1.25 1.835938 -1.203125 1.921875 -1.109375 C 2.003906 -1.023438 2.046875 -0.894531 2.046875 -0.71875 L 2.046875 0 L 1.84375 0 L 1.84375 -0.6875 C 1.84375 -0.8125 1.816406 -0.90625 1.765625 -0.96875 C 1.722656 -1.03125 1.65625 -1.0625 1.5625 -1.0625 C 1.457031 -1.0625 1.375 -1.023438 1.3125 -0.953125 C 1.25 -0.878906 1.21875 -0.769531 1.21875 -0.625 L 1.21875 0 L 1.015625 0 L 1.015625 -0.6875 C 1.015625 -0.8125 0.988281 -0.90625 0.9375 -0.96875 C 0.882812 -1.03125 0.8125 -1.0625 0.71875 -1.0625 C 0.613281 -1.0625 0.53125 -1.023438 0.46875 -0.953125 C 0.40625 -0.878906 0.375 -0.769531 0.375 -0.625 L 0.375 0 Z M 0.171875 0 "/></g></g></g><g fill="#000000" fill-opacity="1"><g transform="translate(22.865092, 14.24341)"><g><path d="M 0.71875 0.03125 C 0.601562 0.03125 0.5 0.00390625 0.40625 -0.046875 C 0.3125 -0.0976562 0.238281 -0.171875 0.1875 -0.265625 C 0.144531 -0.367188 0.125 -0.484375 0.125 -0.609375 C 0.125 -0.734375 0.144531 -0.84375 0.1875 -0.9375 C 0.238281 -1.039062 0.3125 -1.117188 0.40625 -1.171875 C 0.5 -1.222656 0.601562 -1.25 0.71875 -1.25 C 0.832031 -1.25 0.929688 -1.222656 1.015625 -1.171875 C 1.109375 -1.117188 1.175781 -1.046875 1.21875 -0.953125 C 1.269531 -0.867188 1.296875 -0.773438 1.296875 -0.671875 C 1.296875 -0.660156 1.296875 -0.644531 1.296875 -0.625 C 1.296875 -0.601562 1.296875 -0.582031 1.296875 -0.5625 L 0.328125 -0.5625 C 0.328125 -0.46875 0.34375 -0.390625 0.375 -0.328125 C 0.414062 -0.265625 0.46875 -0.21875 0.53125 -0.1875 C 0.59375 -0.15625 0.65625 -0.140625 0.71875 -0.140625 C 0.800781 -0.140625 0.867188 -0.160156 0.921875 -0.203125 C 0.984375 -0.242188 1.03125 -0.296875 1.0625 -0.359375 L 1.265625 -0.359375 C 1.222656 -0.242188 1.15625 -0.148438 1.0625 -0.078125 C 0.976562 -0.00390625 0.863281 0.03125 0.71875 0.03125 Z M 0.71875 -1.078125 C 0.613281 -1.078125 0.523438 -1.046875 0.453125 -0.984375 C 0.378906 -0.921875 0.335938 -0.832031 0.328125 -0.71875 L 1.09375 -0.71875 C 1.082031 -0.832031 1.039062 -0.921875 0.96875 -0.984375 C 0.90625 -1.046875 0.820312 -1.078125 0.71875 -1.078125 Z M 0.71875 -1.078125 "/></g></g></g><g fill="#000000" fill-opacity="1"><g transform="translate(24.258938, 14.24341)"><g><path d="M 0.171875 0 L 0.171875 -1.21875 L 0.359375 -1.21875 L 0.375 -0.984375 C 0.40625 -1.066406 0.457031 -1.128906 0.53125 -1.171875 C 0.613281 -1.222656 0.710938 -1.25 0.828125 -1.25 L 0.828125 -1.03125 L 0.765625 -1.03125 C 0.703125 -1.03125 0.640625 -1.015625 0.578125 -0.984375 C 0.515625 -0.960938 0.460938 -0.921875 0.421875 -0.859375 C 0.390625 -0.796875 0.375 -0.710938 0.375 -0.609375 L 0.375 0 Z M 0.171875 0 "/></g></g></g><g fill="#000000" fill-opacity="1"><g transform="translate(25.148155, 14.24341)"><g><path d="M 0.578125 0.03125 C 0.472656 0.03125 0.382812 0.015625 0.3125 -0.015625 C 0.25 -0.0546875 0.203125 -0.101562 0.171875 -0.15625 C 0.140625 -0.21875 0.125 -0.28125 0.125 -0.34375 C 0.125 -0.46875 0.171875 -0.5625 0.265625 -0.625 C 0.359375 -0.695312 0.488281 -0.734375 0.65625 -0.734375 L 0.984375 -0.734375 L 0.984375 -0.75 C 0.984375 -0.851562 0.953125 -0.929688 0.890625 -0.984375 C 0.835938 -1.046875 0.765625 -1.078125 0.671875 -1.078125 C 0.585938 -1.078125 0.515625 -1.054688 0.453125 -1.015625 C 0.398438 -0.972656 0.367188 -0.914062 0.359375 -0.84375 L 0.140625 -0.84375 C 0.148438 -0.925781 0.179688 -1 0.234375 -1.0625 C 0.285156 -1.125 0.347656 -1.171875 0.421875 -1.203125 C 0.503906 -1.234375 0.585938 -1.25 0.671875 -1.25 C 0.847656 -1.25 0.976562 -1.203125 1.0625 -1.109375 C 1.144531 -1.015625 1.1875 -0.894531 1.1875 -0.75 L 1.1875 0 L 1 0 L 0.984375 -0.21875 C 0.953125 -0.144531 0.898438 -0.0820312 0.828125 -0.03125 C 0.765625 0.0078125 0.679688 0.03125 0.578125 0.03125 Z M 0.609375 -0.140625 C 0.679688 -0.140625 0.742188 -0.160156 0.796875 -0.203125 C 0.859375 -0.242188 0.90625 -0.296875 0.9375 -0.359375 C 0.96875 -0.429688 0.984375 -0.503906 0.984375 -0.578125 L 0.671875 -0.578125 C 0.546875 -0.578125 0.457031 -0.554688 0.40625 -0.515625 C 0.363281 -0.472656 0.34375 -0.421875 0.34375 -0.359375 C 0.34375 -0.296875 0.363281 -0.242188 0.40625 -0.203125 C 0.457031 -0.160156 0.523438 -0.140625 0.609375 -0.140625 Z M 0.609375 -0.140625 "/></g></g></g><g clip-path="url(#cdf05e4ca6)"><path fill="#000000" d="M 6.84375 13.359375 L 5.949219 13.359375 L 5.636719 12.796875 C 5.5625 12.65625 5.441406 12.589844 5.28125 12.585938 L 4.246094 12.585938 C 4.082031 12.585938 3.960938 12.660156 3.886719 12.800781 L 3.585938 13.359375 L 3.390625 13.359375 C 3.386719 13.28125 3.34375 13.242188 3.261719 13.242188 L 3.191406 13.242188 C 3.179688 13.210938 3.15625 13.195312 3.121094 13.195312 L 2.9375 13.195312 C 2.902344 13.195312 2.878906 13.210938 2.867188 13.242188 L 2.800781 13.242188 C 2.71875 13.242188 2.675781 13.28125 2.671875 13.359375 C 2.546875 13.363281 2.441406 13.40625 2.351562 13.492188 C 2.265625 13.578125 2.21875 13.683594 2.21875 13.808594 L 2.21875 15.746094 C 2.21875 15.871094 2.265625 15.976562 2.355469 16.0625 C 2.445312 16.152344 2.550781 16.195312 2.679688 16.195312 L 6.84375 16.195312 C 6.96875 16.195312 7.078125 16.152344 7.167969 16.0625 C 7.257812 15.976562 7.300781 15.871094 7.300781 15.746094 L 7.300781 13.804688 C 7.300781 13.679688 7.253906 13.578125 7.167969 13.488281 C 7.078125 13.402344 6.96875 13.359375 6.84375 13.359375 Z M 4.761719 15.84375 C 4.597656 15.84375 4.4375 15.8125 4.285156 15.75 C 4.132812 15.6875 4 15.601562 3.882812 15.488281 C 3.765625 15.375 3.675781 15.242188 3.613281 15.09375 C 3.550781 14.945312 3.519531 14.789062 3.519531 14.628906 C 3.519531 14.46875 3.550781 14.3125 3.613281 14.164062 C 3.675781 14.015625 3.765625 13.882812 3.882812 13.769531 C 4 13.65625 4.132812 13.570312 4.285156 13.507812 C 4.4375 13.445312 4.59375 13.414062 4.761719 13.414062 C 4.925781 13.414062 5.082031 13.445312 5.234375 13.507812 C 5.386719 13.570312 5.523438 13.65625 5.640625 13.769531 C 5.753906 13.882812 5.84375 14.015625 5.90625 14.164062 C 5.972656 14.3125 6.003906 14.46875 6.003906 14.628906 C 6.003906 14.789062 5.972656 14.945312 5.90625 15.09375 C 5.84375 15.242188 5.753906 15.375 5.640625 15.488281 C 5.523438 15.601562 5.386719 15.6875 5.234375 15.75 C 5.085938 15.8125 4.925781 15.84375 4.761719 15.84375 Z M 6.832031 14.058594 C 6.691406 14.058594 6.625 13.992188 6.621094 13.855469 C 6.621094 13.722656 6.691406 13.652344 6.832031 13.652344 C 6.96875 13.652344 7.039062 13.722656 7.039062 13.855469 C 7.039062 13.992188 6.96875 14.058594 6.832031 14.058594 Z M 6.832031 14.058594 " fill-opacity="1" fill-rule="nonzero"/></g><path fill="#000000" d="M 5.625 14.628906 C 5.625 14.863281 5.542969 15.0625 5.375 15.226562 C 5.203125 15.390625 5 15.476562 4.761719 15.476562 C 4.523438 15.476562 4.316406 15.390625 4.148438 15.226562 C 3.980469 15.0625 3.894531 14.863281 3.894531 14.628906 C 3.894531 14.394531 3.980469 14.195312 4.148438 14.03125 C 4.316406 13.867188 4.523438 13.78125 4.761719 13.78125 C 5 13.78125 5.203125 13.867188 5.375 14.03125 C 5.542969 14.195312 5.625 14.394531 5.625 14.628906 Z M 5.625 14.628906 " fill-opacity="1" fill-rule="nonzero"/></svg>