<svg xmlns="http://www.w3.org/2000/svg" xmlns:xlink="http://www.w3.org/1999/xlink" width="40" zoomAndPan="magnify" viewBox="0 0 30 30.000001" height="40" preserveAspectRatio="xMidYMid meet" version="1.0"><defs><clipPath id="cbc9e8a885"><path d="M 1.597656 0.410156 L 28.453125 0.410156 L 28.453125 28.714844 L 1.597656 28.714844 Z M 1.597656 0.410156 " clip-rule="nonzero"/></clipPath></defs><g clip-path="url(#cbc9e8a885)"><path fill="#000000" d="M 12.992188 0.632812 C 12.328125 0.632812 11.757812 1.101562 11.628906 1.757812 L 11.164062 4.148438 C 10.023438 4.578125 8.964844 5.183594 8.039062 5.945312 L 5.75 5.15625 C 5.121094 4.9375 4.425781 5.199219 4.09375 5.777344 L 1.996094 9.417969 C 1.664062 9.996094 1.785156 10.730469 2.285156 11.167969 L 4.121094 12.761719 C 4.023438 13.351562 3.964844 13.949219 3.964844 14.5625 C 3.964844 15.175781 4.023438 15.773438 4.121094 16.359375 L 2.285156 17.957031 C 1.785156 18.394531 1.664062 19.128906 1.996094 19.707031 L 4.09375 23.347656 C 4.425781 23.925781 5.121094 24.183594 5.75 23.96875 L 8.039062 23.179688 C 8.964844 23.941406 10.023438 24.542969 11.164062 24.976562 L 11.628906 27.363281 C 11.757812 28.019531 12.328125 28.492188 12.992188 28.492188 L 17.195312 28.492188 C 17.863281 28.492188 18.429688 28.019531 18.558594 27.363281 L 19.023438 24.976562 C 20.167969 24.542969 21.222656 23.941406 22.148438 23.175781 L 24.4375 23.964844 C 25.066406 24.183594 25.761719 23.925781 26.09375 23.347656 L 28.195312 19.703125 C 28.527344 19.125 28.40625 18.394531 27.902344 17.957031 L 26.070312 16.359375 C 26.164062 15.773438 26.226562 15.175781 26.226562 14.5625 C 26.226562 13.949219 26.164062 13.351562 26.070312 12.761719 L 27.902344 11.167969 C 28.40625 10.730469 28.527344 9.996094 28.195312 9.417969 L 26.09375 5.777344 C 25.761719 5.199219 25.066406 4.9375 24.4375 5.152344 L 22.148438 5.941406 C 21.222656 5.179688 20.164062 4.578125 19.023438 4.148438 L 18.558594 1.757812 C 18.429688 1.101562 17.863281 0.632812 17.195312 0.632812 Z M 15.09375 8.988281 C 18.167969 8.988281 20.660156 11.484375 20.660156 14.5625 C 20.660156 17.636719 18.167969 20.132812 15.09375 20.132812 C 12.019531 20.132812 9.527344 17.636719 9.527344 14.5625 C 9.527344 11.484375 12.019531 8.988281 15.09375 8.988281 Z M 15.09375 8.988281 " fill-opacity="1" fill-rule="nonzero"/></g></svg>