<svg xmlns="http://www.w3.org/2000/svg" xmlns:xlink="http://www.w3.org/1999/xlink" width="40" zoomAndPan="magnify" viewBox="0 0 30 30.000001" height="40" preserveAspectRatio="xMidYMid meet" version="1.0"><defs><g/><clipPath id="adb21758b0"><path d="M 0.484375 10.234375 L 29.515625 10.234375 L 29.515625 18.800781 L 0.484375 18.800781 Z M 0.484375 10.234375 " clip-rule="nonzero"/></clipPath><clipPath id="7417846787"><path d="M 2.660156 10.234375 L 27.339844 10.234375 C 27.917969 10.234375 28.46875 10.460938 28.878906 10.871094 C 29.285156 11.277344 29.515625 11.832031 29.515625 12.410156 L 29.515625 16.621094 C 29.515625 17.199219 29.285156 17.753906 28.878906 18.160156 C 28.46875 18.570312 27.917969 18.800781 27.339844 18.800781 L 2.660156 18.800781 C 2.082031 18.800781 1.53125 18.570312 1.121094 18.160156 C 0.714844 17.753906 0.484375 17.199219 0.484375 16.621094 L 0.484375 12.410156 C 0.484375 11.832031 0.714844 11.277344 1.121094 10.871094 C 1.53125 10.460938 2.082031 10.234375 2.660156 10.234375 Z M 2.660156 10.234375 " clip-rule="nonzero"/></clipPath><clipPath id="143ea5e5a0"><path d="M 0.484375 0.234375 L 29.515625 0.234375 L 29.515625 8.800781 L 0.484375 8.800781 Z M 0.484375 0.234375 " clip-rule="nonzero"/></clipPath><clipPath id="a49acde3f7"><path d="M 2.660156 0.234375 L 27.339844 0.234375 C 27.917969 0.234375 28.46875 0.460938 28.878906 0.871094 C 29.285156 1.277344 29.515625 1.832031 29.515625 2.410156 L 29.515625 6.621094 C 29.515625 7.199219 29.285156 7.753906 28.878906 8.160156 C 28.46875 8.570312 27.917969 8.800781 27.339844 8.800781 L 2.660156 8.800781 C 2.082031 8.800781 1.53125 8.570312 1.121094 8.160156 C 0.714844 7.753906 0.484375 7.199219 0.484375 6.621094 L 0.484375 2.410156 C 0.484375 1.832031 0.714844 1.277344 1.121094 0.871094 C 1.53125 0.460938 2.082031 0.234375 2.660156 0.234375 Z M 2.660156 0.234375 " clip-rule="nonzero"/></clipPath><clipPath id="5d729af8e8"><rect x="0" width="30" y="0" height="9"/></clipPath><clipPath id="9ea9a80348"><path d="M 0.484375 14 L 1 14 L 1 15 L 0.484375 15 Z M 0.484375 14 " clip-rule="nonzero"/></clipPath><clipPath id="42fa0c37cb"><path d="M 4 12.453125 L 7.757812 12.453125 L 7.757812 16 L 4 16 Z M 4 12.453125 " clip-rule="nonzero"/></clipPath><clipPath id="b0d084a6ed"><path d="M 3.402344 12.453125 L 5 12.453125 L 5 13 L 3.402344 13 Z M 3.402344 12.453125 " clip-rule="nonzero"/></clipPath><clipPath id="97baac5b80"><path d="M 3.402344 15 L 5 15 L 5 16 L 3.402344 16 Z M 3.402344 15 " clip-rule="nonzero"/></clipPath><clipPath id="f6367b696b"><path d="M 3.402344 12.453125 L 4 12.453125 L 4 16 L 3.402344 16 Z M 3.402344 12.453125 " clip-rule="nonzero"/></clipPath><clipPath id="9e8d20d32d"><path d="M 4 15 L 5 15 L 5 16.808594 L 4 16.808594 Z M 4 15 " clip-rule="nonzero"/></clipPath><clipPath id="5ae8848cfb"><path d="M 7 15 L 7.757812 15 L 7.757812 16.808594 L 7 16.808594 Z M 7 15 " clip-rule="nonzero"/></clipPath><clipPath id="3c4c7f36ef"><path d="M 4 16 L 7.757812 16 L 7.757812 16.808594 L 4 16.808594 Z M 4 16 " clip-rule="nonzero"/></clipPath><clipPath id="4ef93bc7a7"><path d="M 24.3125 13.953125 L 26.488281 13.953125 L 26.488281 15.269531 L 24.3125 15.269531 Z M 24.3125 13.953125 " clip-rule="nonzero"/></clipPath></defs><g clip-path="url(#adb21758b0)"><g clip-path="url(#7417846787)"><g transform="matrix(1, 0, 0, 1, 0, 10)"><g clip-path="url(#5d729af8e8)"><g clip-path="url(#143ea5e5a0)"><g clip-path="url(#a49acde3f7)"><path fill="#f9d7e2" d="M 0.484375 0.234375 L 29.53125 0.234375 L 29.53125 8.800781 L 0.484375 8.800781 Z M 0.484375 0.234375 " fill-opacity="1" fill-rule="nonzero"/></g></g></g></g></g></g><g clip-path="url(#9ea9a80348)"><g fill="#000000" fill-opacity="1"><g transform="translate(0.982862, 14.587262)"><g/></g></g></g><g fill="#000000" fill-opacity="1"><g transform="translate(1.695113, 14.587262)"><g/></g></g><g fill="#000000" fill-opacity="1"><g transform="translate(2.407364, 14.587262)"><g/></g></g><g fill="#000000" fill-opacity="1"><g transform="translate(3.119615, 14.587262)"><g/></g></g><g fill="#000000" fill-opacity="1"><g transform="translate(3.831865, 14.587262)"><g/></g></g><g fill="#000000" fill-opacity="1"><g transform="translate(4.544116, 14.587262)"><g/></g></g><g fill="#000000" fill-opacity="1"><g transform="translate(5.256367, 14.587262)"><g/></g></g><g fill="#000000" fill-opacity="1"><g transform="translate(5.968618, 14.587262)"><g/></g></g><g fill="#000000" fill-opacity="1"><g transform="translate(6.680868, 14.587262)"><g/></g></g><g fill="#000000" fill-opacity="1"><g transform="translate(7.393119, 14.587262)"><g/></g></g><g fill="#000000" fill-opacity="1"><g transform="translate(8.10537, 14.587262)"><g/></g></g><g fill="#000000" fill-opacity="1"><g transform="translate(8.81762, 14.587262)"><g/></g></g><g fill="#000000" fill-opacity="1"><g transform="translate(9.53377, 14.587262)"><g><path d="M 0.203125 0 L 0.203125 -1.875 L 1.34375 -1.875 L 1.34375 -1.703125 L 0.421875 -1.703125 L 0.421875 -1.03125 L 1.203125 -1.03125 L 1.203125 -0.859375 L 0.421875 -0.859375 L 0.421875 0 Z M 0.203125 0 "/></g></g></g><g fill="#000000" fill-opacity="1"><g transform="translate(10.969025, 14.587262)"><g><path d="M 0.1875 0 L 0.1875 -1.328125 L 0.390625 -1.328125 L 0.40625 -1.078125 C 0.445312 -1.160156 0.507812 -1.226562 0.59375 -1.28125 C 0.675781 -1.332031 0.78125 -1.359375 0.90625 -1.359375 L 0.90625 -1.125 L 0.84375 -1.125 C 0.769531 -1.125 0.695312 -1.109375 0.625 -1.078125 C 0.5625 -1.054688 0.507812 -1.007812 0.46875 -0.9375 C 0.425781 -0.875 0.40625 -0.785156 0.40625 -0.671875 L 0.40625 0 Z M 0.1875 0 "/></g></g></g><g fill="#000000" fill-opacity="1"><g transform="translate(11.944682, 14.587262)"><g><path d="M 0.625 0.03125 C 0.519531 0.03125 0.425781 0.015625 0.34375 -0.015625 C 0.269531 -0.0546875 0.21875 -0.109375 0.1875 -0.171875 C 0.15625 -0.234375 0.140625 -0.300781 0.140625 -0.375 C 0.140625 -0.507812 0.191406 -0.613281 0.296875 -0.6875 C 0.398438 -0.757812 0.539062 -0.796875 0.71875 -0.796875 L 1.078125 -0.796875 L 1.078125 -0.8125 C 1.078125 -0.9375 1.046875 -1.023438 0.984375 -1.078125 C 0.921875 -1.140625 0.835938 -1.171875 0.734375 -1.171875 C 0.648438 -1.171875 0.578125 -1.148438 0.515625 -1.109375 C 0.453125 -1.066406 0.410156 -1.003906 0.390625 -0.921875 L 0.15625 -0.921875 C 0.164062 -1.015625 0.195312 -1.09375 0.25 -1.15625 C 0.3125 -1.226562 0.382812 -1.28125 0.46875 -1.3125 C 0.550781 -1.34375 0.640625 -1.359375 0.734375 -1.359375 C 0.921875 -1.359375 1.0625 -1.304688 1.15625 -1.203125 C 1.25 -1.109375 1.296875 -0.976562 1.296875 -0.8125 L 1.296875 0 L 1.09375 0 L 1.078125 -0.234375 C 1.046875 -0.160156 0.992188 -0.0976562 0.921875 -0.046875 C 0.847656 0.00390625 0.75 0.03125 0.625 0.03125 Z M 0.65625 -0.15625 C 0.75 -0.15625 0.828125 -0.175781 0.890625 -0.21875 C 0.953125 -0.269531 1 -0.332031 1.03125 -0.40625 C 1.0625 -0.476562 1.078125 -0.550781 1.078125 -0.625 L 0.734375 -0.625 C 0.597656 -0.625 0.503906 -0.597656 0.453125 -0.546875 C 0.398438 -0.503906 0.375 -0.453125 0.375 -0.390625 C 0.375 -0.316406 0.398438 -0.257812 0.453125 -0.21875 C 0.503906 -0.175781 0.570312 -0.15625 0.65625 -0.15625 Z M 0.65625 -0.15625 "/></g></g></g><g fill="#000000" fill-opacity="1"><g transform="translate(13.398753, 14.587262)"><g><path d="M 0.1875 0 L 0.1875 -1.328125 L 0.390625 -1.328125 L 0.40625 -1.140625 C 0.445312 -1.210938 0.503906 -1.265625 0.578125 -1.296875 C 0.648438 -1.335938 0.726562 -1.359375 0.8125 -1.359375 C 0.925781 -1.359375 1.019531 -1.335938 1.09375 -1.296875 C 1.164062 -1.253906 1.222656 -1.191406 1.265625 -1.109375 C 1.316406 -1.179688 1.378906 -1.238281 1.453125 -1.28125 C 1.535156 -1.332031 1.625 -1.359375 1.71875 -1.359375 C 1.882812 -1.359375 2.015625 -1.3125 2.109375 -1.21875 C 2.203125 -1.125 2.25 -0.976562 2.25 -0.78125 L 2.25 0 L 2.03125 0 L 2.03125 -0.75 C 2.03125 -0.894531 2 -1 1.9375 -1.0625 C 1.882812 -1.132812 1.804688 -1.171875 1.703125 -1.171875 C 1.597656 -1.171875 1.507812 -1.128906 1.4375 -1.046875 C 1.363281 -0.960938 1.328125 -0.84375 1.328125 -0.6875 L 1.328125 0 L 1.109375 0 L 1.109375 -0.75 C 1.109375 -0.894531 1.078125 -1 1.015625 -1.0625 C 0.960938 -1.132812 0.882812 -1.171875 0.78125 -1.171875 C 0.675781 -1.171875 0.585938 -1.128906 0.515625 -1.046875 C 0.441406 -0.960938 0.40625 -0.84375 0.40625 -0.6875 L 0.40625 0 Z M 0.1875 0 "/></g></g></g><g fill="#000000" fill-opacity="1"><g transform="translate(15.804283, 14.587262)"><g><path d="M 0.78125 0.03125 C 0.65625 0.03125 0.539062 0.00390625 0.4375 -0.046875 C 0.34375 -0.109375 0.265625 -0.191406 0.203125 -0.296875 C 0.148438 -0.398438 0.125 -0.523438 0.125 -0.671875 C 0.125 -0.804688 0.148438 -0.925781 0.203125 -1.03125 C 0.265625 -1.132812 0.34375 -1.210938 0.4375 -1.265625 C 0.539062 -1.328125 0.660156 -1.359375 0.796875 -1.359375 C 0.921875 -1.359375 1.03125 -1.328125 1.125 -1.265625 C 1.21875 -1.210938 1.289062 -1.140625 1.34375 -1.046875 C 1.394531 -0.953125 1.421875 -0.847656 1.421875 -0.734375 C 1.421875 -0.722656 1.414062 -0.707031 1.40625 -0.6875 C 1.40625 -0.664062 1.40625 -0.640625 1.40625 -0.609375 L 0.359375 -0.609375 C 0.359375 -0.515625 0.378906 -0.429688 0.421875 -0.359375 C 0.460938 -0.296875 0.515625 -0.242188 0.578125 -0.203125 C 0.640625 -0.171875 0.707031 -0.15625 0.78125 -0.15625 C 0.875 -0.15625 0.953125 -0.175781 1.015625 -0.21875 C 1.078125 -0.257812 1.125 -0.316406 1.15625 -0.390625 L 1.375 -0.390625 C 1.34375 -0.273438 1.273438 -0.175781 1.171875 -0.09375 C 1.066406 -0.0078125 0.9375 0.03125 0.78125 0.03125 Z M 0.78125 -1.171875 C 0.675781 -1.171875 0.582031 -1.140625 0.5 -1.078125 C 0.414062 -1.015625 0.367188 -0.921875 0.359375 -0.796875 L 1.1875 -0.796875 C 1.1875 -0.910156 1.144531 -1 1.0625 -1.0625 C 0.988281 -1.132812 0.894531 -1.171875 0.78125 -1.171875 Z M 0.78125 -1.171875 "/></g></g></g><g fill="#000000" fill-opacity="1"><g transform="translate(17.333608, 14.587262)"><g/></g></g><g fill="#000000" fill-opacity="1"><g transform="translate(18.045859, 14.587262)"><g><path d="M 0.796875 0.03125 C 0.660156 0.03125 0.539062 0.00390625 0.4375 -0.046875 C 0.332031 -0.0976562 0.253906 -0.164062 0.203125 -0.25 C 0.148438 -0.34375 0.125 -0.445312 0.125 -0.5625 L 0.359375 -0.5625 C 0.359375 -0.488281 0.375 -0.421875 0.40625 -0.359375 C 0.4375 -0.296875 0.484375 -0.242188 0.546875 -0.203125 C 0.617188 -0.171875 0.703125 -0.15625 0.796875 -0.15625 C 0.921875 -0.15625 1.019531 -0.1875 1.09375 -0.25 C 1.164062 -0.3125 1.203125 -0.390625 1.203125 -0.484375 C 1.203125 -0.554688 1.1875 -0.613281 1.15625 -0.65625 C 1.125 -0.707031 1.078125 -0.742188 1.015625 -0.765625 C 0.960938 -0.796875 0.898438 -0.820312 0.828125 -0.84375 C 0.753906 -0.863281 0.679688 -0.890625 0.609375 -0.921875 C 0.460938 -0.972656 0.351562 -1.035156 0.28125 -1.109375 C 0.21875 -1.179688 0.1875 -1.273438 0.1875 -1.390625 C 0.1875 -1.492188 0.207031 -1.582031 0.25 -1.65625 C 0.300781 -1.738281 0.367188 -1.800781 0.453125 -1.84375 C 0.546875 -1.882812 0.65625 -1.90625 0.78125 -1.90625 C 0.894531 -1.90625 0.992188 -1.882812 1.078125 -1.84375 C 1.171875 -1.800781 1.242188 -1.738281 1.296875 -1.65625 C 1.347656 -1.582031 1.375 -1.492188 1.375 -1.390625 L 1.140625 -1.390625 C 1.140625 -1.441406 1.125 -1.492188 1.09375 -1.546875 C 1.0625 -1.597656 1.019531 -1.640625 0.96875 -1.671875 C 0.914062 -1.703125 0.847656 -1.71875 0.765625 -1.71875 C 0.660156 -1.71875 0.578125 -1.691406 0.515625 -1.640625 C 0.453125 -1.585938 0.421875 -1.515625 0.421875 -1.421875 C 0.421875 -1.335938 0.441406 -1.273438 0.484375 -1.234375 C 0.523438 -1.191406 0.585938 -1.15625 0.671875 -1.125 C 0.753906 -1.09375 0.851562 -1.0625 0.96875 -1.03125 C 1.050781 -1 1.128906 -0.960938 1.203125 -0.921875 C 1.273438 -0.878906 1.332031 -0.820312 1.375 -0.75 C 1.414062 -0.6875 1.4375 -0.597656 1.4375 -0.484375 C 1.4375 -0.398438 1.410156 -0.316406 1.359375 -0.234375 C 1.316406 -0.160156 1.25 -0.0976562 1.15625 -0.046875 C 1.0625 0.00390625 0.941406 0.03125 0.796875 0.03125 Z M 0.796875 0.03125 "/></g></g></g><g fill="#000000" fill-opacity="1"><g transform="translate(19.599373, 14.587262)"><g><path d="M 0.328125 -1.625 C 0.273438 -1.625 0.234375 -1.640625 0.203125 -1.671875 C 0.179688 -1.703125 0.171875 -1.738281 0.171875 -1.78125 C 0.171875 -1.820312 0.179688 -1.859375 0.203125 -1.890625 C 0.234375 -1.921875 0.273438 -1.9375 0.328125 -1.9375 C 0.367188 -1.9375 0.40625 -1.921875 0.4375 -1.890625 C 0.46875 -1.859375 0.484375 -1.820312 0.484375 -1.78125 C 0.484375 -1.738281 0.46875 -1.703125 0.4375 -1.671875 C 0.40625 -1.640625 0.367188 -1.625 0.328125 -1.625 Z M 0.203125 0 L 0.203125 -1.328125 L 0.4375 -1.328125 L 0.4375 0 Z M 0.203125 0 "/></g></g></g><g fill="#000000" fill-opacity="1"><g transform="translate(20.24174, 14.587262)"><g><path d="M 0.09375 0 L 0.09375 -0.1875 L 0.828125 -1.140625 L 0.109375 -1.140625 L 0.109375 -1.328125 L 1.09375 -1.328125 L 1.09375 -1.140625 L 0.34375 -0.1875 L 1.109375 -0.1875 L 1.109375 0 Z M 0.09375 0 "/></g></g></g><g fill="#000000" fill-opacity="1"><g transform="translate(21.456605, 14.587262)"><g><path d="M 0.78125 0.03125 C 0.65625 0.03125 0.539062 0.00390625 0.4375 -0.046875 C 0.34375 -0.109375 0.265625 -0.191406 0.203125 -0.296875 C 0.148438 -0.398438 0.125 -0.523438 0.125 -0.671875 C 0.125 -0.804688 0.148438 -0.925781 0.203125 -1.03125 C 0.265625 -1.132812 0.34375 -1.210938 0.4375 -1.265625 C 0.539062 -1.328125 0.660156 -1.359375 0.796875 -1.359375 C 0.921875 -1.359375 1.03125 -1.328125 1.125 -1.265625 C 1.21875 -1.210938 1.289062 -1.140625 1.34375 -1.046875 C 1.394531 -0.953125 1.421875 -0.847656 1.421875 -0.734375 C 1.421875 -0.722656 1.414062 -0.707031 1.40625 -0.6875 C 1.40625 -0.664062 1.40625 -0.640625 1.40625 -0.609375 L 0.359375 -0.609375 C 0.359375 -0.515625 0.378906 -0.429688 0.421875 -0.359375 C 0.460938 -0.296875 0.515625 -0.242188 0.578125 -0.203125 C 0.640625 -0.171875 0.707031 -0.15625 0.78125 -0.15625 C 0.875 -0.15625 0.953125 -0.175781 1.015625 -0.21875 C 1.078125 -0.257812 1.125 -0.316406 1.15625 -0.390625 L 1.375 -0.390625 C 1.34375 -0.273438 1.273438 -0.175781 1.171875 -0.09375 C 1.066406 -0.0078125 0.9375 0.03125 0.78125 0.03125 Z M 0.78125 -1.171875 C 0.675781 -1.171875 0.582031 -1.140625 0.5 -1.078125 C 0.414062 -1.015625 0.367188 -0.921875 0.359375 -0.796875 L 1.1875 -0.796875 C 1.1875 -0.910156 1.144531 -1 1.0625 -1.0625 C 0.988281 -1.132812 0.894531 -1.171875 0.78125 -1.171875 Z M 0.78125 -1.171875 "/></g></g></g><g clip-path="url(#42fa0c37cb)"><path fill="#000000" d="M 7.546875 15.722656 L 4.535156 15.722656 C 4.492188 15.722656 4.472656 15.703125 4.472656 15.664062 L 4.472656 12.660156 C 4.472656 12.617188 4.492188 12.597656 4.535156 12.597656 L 7.546875 12.597656 C 7.585938 12.597656 7.605469 12.617188 7.605469 12.660156 L 7.605469 15.664062 C 7.605469 15.703125 7.585938 15.722656 7.546875 15.722656 Z M 4.59375 15.601562 L 7.484375 15.601562 L 7.484375 12.71875 L 4.59375 12.71875 Z M 4.59375 15.601562 " fill-opacity="1" fill-rule="nonzero"/></g><g clip-path="url(#b0d084a6ed)"><path fill="#000000" d="M 4.210938 12.941406 C 4.191406 12.941406 4.179688 12.933594 4.167969 12.921875 L 3.839844 12.597656 L 3.511719 12.921875 C 3.484375 12.949219 3.457031 12.949219 3.425781 12.921875 C 3.398438 12.894531 3.398438 12.867188 3.425781 12.839844 L 3.796875 12.46875 C 3.824219 12.441406 3.851562 12.441406 3.882812 12.46875 L 4.25 12.839844 C 4.269531 12.855469 4.273438 12.878906 4.265625 12.902344 C 4.253906 12.929688 4.234375 12.941406 4.210938 12.941406 Z M 4.210938 12.941406 " fill-opacity="1" fill-rule="nonzero"/></g><g clip-path="url(#97baac5b80)"><path fill="#000000" d="M 3.839844 15.871094 C 3.824219 15.871094 3.808594 15.863281 3.796875 15.851562 L 3.425781 15.484375 C 3.398438 15.453125 3.398438 15.425781 3.425781 15.398438 C 3.457031 15.371094 3.484375 15.371094 3.511719 15.398438 L 3.839844 15.726562 L 4.167969 15.398438 C 4.195312 15.371094 4.222656 15.371094 4.25 15.398438 C 4.28125 15.425781 4.28125 15.453125 4.25 15.484375 L 3.882812 15.851562 C 3.871094 15.863281 3.855469 15.871094 3.839844 15.871094 Z M 3.839844 15.871094 " fill-opacity="1" fill-rule="nonzero"/></g><g clip-path="url(#f6367b696b)"><path fill="#000000" d="M 3.839844 15.757812 C 3.800781 15.757812 3.78125 15.738281 3.78125 15.699219 L 3.78125 12.542969 C 3.78125 12.503906 3.800781 12.484375 3.839844 12.484375 C 3.878906 12.484375 3.898438 12.503906 3.898438 12.542969 L 3.898438 15.699219 C 3.898438 15.738281 3.878906 15.757812 3.839844 15.757812 Z M 3.839844 15.757812 " fill-opacity="1" fill-rule="nonzero"/></g><g clip-path="url(#9e8d20d32d)"><path fill="#000000" d="M 4.757812 16.804688 C 4.738281 16.804688 4.726562 16.800781 4.714844 16.789062 L 4.34375 16.421875 C 4.316406 16.390625 4.316406 16.363281 4.34375 16.335938 L 4.714844 15.96875 C 4.742188 15.9375 4.769531 15.9375 4.796875 15.96875 C 4.828125 15.996094 4.828125 16.023438 4.796875 16.050781 L 4.46875 16.378906 L 4.796875 16.703125 C 4.816406 16.722656 4.820312 16.746094 4.8125 16.769531 C 4.800781 16.792969 4.78125 16.804688 4.757812 16.804688 Z M 4.757812 16.804688 " fill-opacity="1" fill-rule="nonzero"/></g><g clip-path="url(#5ae8848cfb)"><path fill="#000000" d="M 7.324219 16.804688 C 7.296875 16.804688 7.277344 16.792969 7.265625 16.769531 C 7.257812 16.746094 7.261719 16.722656 7.28125 16.703125 L 7.609375 16.378906 L 7.28125 16.050781 C 7.253906 16.023438 7.253906 15.996094 7.28125 15.96875 C 7.308594 15.9375 7.335938 15.9375 7.363281 15.96875 L 7.734375 16.335938 C 7.761719 16.363281 7.761719 16.390625 7.734375 16.421875 L 7.363281 16.789062 C 7.351562 16.800781 7.339844 16.804688 7.324219 16.804688 Z M 7.324219 16.804688 " fill-opacity="1" fill-rule="nonzero"/></g><g clip-path="url(#3c4c7f36ef)"><path fill="#000000" d="M 7.582031 16.4375 L 4.417969 16.4375 C 4.378906 16.4375 4.359375 16.417969 4.359375 16.378906 C 4.359375 16.339844 4.378906 16.316406 4.417969 16.316406 L 7.582031 16.316406 C 7.621094 16.316406 7.640625 16.339844 7.640625 16.378906 C 7.640625 16.417969 7.621094 16.4375 7.582031 16.4375 Z M 7.582031 16.4375 " fill-opacity="1" fill-rule="nonzero"/></g><g clip-path="url(#4ef93bc7a7)"><path fill="#000000" d="M 25.464844 15.269531 C 25.425781 15.269531 25.382812 15.253906 25.351562 15.222656 L 24.359375 14.226562 C 24.296875 14.164062 24.296875 14.0625 24.359375 14 C 24.421875 13.9375 24.523438 13.9375 24.585938 14 L 25.464844 14.878906 L 26.34375 14 C 26.410156 13.9375 26.511719 13.9375 26.574219 14 C 26.636719 14.0625 26.636719 14.164062 26.574219 14.226562 L 25.582031 15.222656 C 25.550781 15.253906 25.507812 15.269531 25.464844 15.269531 Z M 25.464844 15.269531 " fill-opacity="1" fill-rule="nonzero"/></g></svg>