<svg xmlns="http://www.w3.org/2000/svg" xmlns:xlink="http://www.w3.org/1999/xlink" width="40" zoomAndPan="magnify" viewBox="0 0 30 30.000001" height="40" preserveAspectRatio="xMidYMid meet" version="1.0"><defs><clipPath id="47b753bb9e"><path d="M 4.058594 0.402344 L 25.832031 0.402344 L 25.832031 28.707031 L 4.058594 28.707031 Z M 4.058594 0.402344 " clip-rule="nonzero"/></clipPath></defs><g clip-path="url(#47b753bb9e)"><path fill="#000000" d="M 25.832031 26.566406 C 25.832031 19.015625 20.953125 12.898438 14.945312 12.898438 C 8.9375 12.898438 4.058594 19.015625 4.058594 26.566406 C 4.058594 27.746094 8.9375 28.703125 14.945312 28.703125 C 20.953125 28.703125 25.832031 27.746094 25.832031 26.566406 Z M 14.945312 0.40625 C 18.222656 0.40625 20.878906 3.082031 20.878906 6.382812 C 20.878906 9.683594 18.222656 12.359375 14.945312 12.359375 C 11.667969 12.359375 9.011719 9.683594 9.011719 6.382812 C 9.011719 3.082031 11.667969 0.40625 14.945312 0.40625 Z M 14.945312 0.40625 " fill-opacity="1" fill-rule="evenodd"/></g></svg>