<svg xmlns="http://www.w3.org/2000/svg" xmlns:xlink="http://www.w3.org/1999/xlink" width="40" zoomAndPan="magnify" viewBox="0 0 30 30.000001" height="40" preserveAspectRatio="xMidYMid meet" version="1.0"><defs><clipPath id="3f286de4a3"><path d="M 1.289062 0.808594 L 28.871094 0.808594 L 28.871094 28.386719 L 1.289062 28.386719 Z M 1.289062 0.808594 " clip-rule="nonzero"/></clipPath></defs><g clip-path="url(#3f286de4a3)"><path fill="#000000" d="M 15.082031 0.808594 C 11.308594 0.808594 7.800781 2.320312 5.230469 4.929688 L 5.230469 1.792969 C 5.230469 1.246094 4.789062 0.808594 4.246094 0.808594 C 3.703125 0.808594 3.261719 1.246094 3.261719 1.792969 L 3.261719 7.703125 C 3.261719 7.738281 3.277344 7.769531 3.28125 7.800781 C 3.289062 7.867188 3.296875 7.925781 3.316406 7.984375 C 3.339844 8.054688 3.367188 8.117188 3.402344 8.179688 C 3.425781 8.222656 3.453125 8.261719 3.484375 8.300781 C 3.535156 8.367188 3.59375 8.425781 3.664062 8.476562 C 3.683594 8.488281 3.695312 8.511719 3.714844 8.523438 C 3.730469 8.535156 3.75 8.535156 3.765625 8.542969 C 3.839844 8.589844 3.921875 8.617188 4.007812 8.640625 C 4.050781 8.648438 4.09375 8.660156 4.136719 8.664062 C 4.171875 8.667969 4.207031 8.6875 4.246094 8.6875 L 10.15625 8.6875 C 10.699219 8.6875 11.140625 8.246094 11.140625 7.703125 C 11.140625 7.15625 10.699219 6.71875 10.15625 6.71875 L 6.246094 6.71875 C 8.476562 4.230469 11.652344 2.777344 15.082031 2.777344 C 21.601562 2.777344 26.902344 8.078125 26.902344 14.597656 C 26.902344 21.117188 21.601562 26.417969 15.082031 26.417969 C 8.5625 26.417969 3.261719 21.117188 3.261719 14.597656 C 3.261719 14.054688 2.820312 13.613281 2.277344 13.613281 C 1.730469 13.613281 1.289062 14.054688 1.289062 14.597656 C 1.289062 22.199219 7.476562 28.386719 15.082031 28.386719 C 22.683594 28.386719 28.871094 22.199219 28.871094 14.597656 C 28.871094 6.992188 22.683594 0.808594 15.082031 0.808594 Z M 15.082031 0.808594 " fill-opacity="1" fill-rule="nonzero"/></g><path fill="#000000" d="M 14.117188 6.71875 C 13.574219 6.71875 13.132812 7.15625 13.132812 7.703125 L 13.132812 15.582031 C 13.132812 16.125 13.574219 16.566406 14.117188 16.566406 L 21.976562 16.566406 C 22.519531 16.566406 22.960938 16.125 22.960938 15.582031 C 22.960938 15.039062 22.519531 14.597656 21.976562 14.597656 L 15.101562 14.597656 L 15.101562 7.703125 C 15.101562 7.15625 14.660156 6.71875 14.117188 6.71875 Z M 14.117188 6.71875 " fill-opacity="1" fill-rule="nonzero"/></svg>