<svg xmlns="http://www.w3.org/2000/svg" xmlns:xlink="http://www.w3.org/1999/xlink" width="40" zoomAndPan="magnify" viewBox="0 0 30 30.000001" height="40" preserveAspectRatio="xMidYMid meet" version="1.0"><defs><clipPath id="406a263af7"><path d="M 1.414062 1.453125 L 28.269531 1.453125 L 28.269531 27.582031 L 1.414062 27.582031 Z M 1.414062 1.453125 " clip-rule="nonzero"/></clipPath></defs><g clip-path="url(#406a263af7)"><path fill="#000000" d="M 28.203125 26.796875 L 26.160156 19.789062 C 26.886719 18.125 27.253906 16.351562 27.253906 14.515625 C 27.253906 11.027344 25.910156 7.746094 23.472656 5.277344 C 21.03125 2.808594 17.789062 1.449219 14.335938 1.449219 C 10.886719 1.449219 7.640625 2.808594 5.203125 5.277344 C 2.761719 7.746094 1.417969 11.027344 1.417969 14.515625 C 1.417969 18.007812 2.761719 21.289062 5.203125 23.753906 C 7.640625 26.222656 10.886719 27.582031 14.335938 27.582031 C 15.992188 27.582031 17.605469 27.269531 19.128906 26.652344 C 19.65625 26.4375 20.175781 26.1875 20.675781 25.902344 L 27.484375 27.566406 C 27.53125 27.574219 27.578125 27.582031 27.625 27.582031 C 27.789062 27.582031 27.949219 27.515625 28.0625 27.390625 C 28.210938 27.234375 28.265625 27.007812 28.203125 26.796875 Z M 20.726562 24.660156 C 20.566406 24.621094 20.40625 24.648438 20.277344 24.726562 C 20.273438 24.726562 20.269531 24.730469 20.265625 24.734375 C 19.757812 25.035156 19.226562 25.300781 18.679688 25.519531 C 17.296875 26.078125 15.835938 26.359375 14.335938 26.359375 C 11.207031 26.359375 8.265625 25.128906 6.054688 22.890625 C 3.84375 20.65625 2.625 17.679688 2.625 14.515625 C 2.625 11.351562 3.84375 8.378906 6.054688 6.140625 C 8.265625 3.902344 11.207031 2.671875 14.335938 2.671875 C 17.464844 2.671875 20.40625 3.902344 22.617188 6.140625 C 24.828125 8.378906 26.046875 11.351562 26.046875 14.515625 C 26.046875 16.25 25.6875 17.921875 24.972656 19.484375 C 24.96875 19.484375 24.96875 19.484375 24.96875 19.488281 C 24.910156 19.617188 24.894531 19.769531 24.9375 19.917969 L 26.75 26.128906 Z M 20.726562 24.660156 " fill-opacity="1" fill-rule="nonzero"/></g></svg>