<svg xmlns="http://www.w3.org/2000/svg" xmlns:xlink="http://www.w3.org/1999/xlink" width="40" zoomAndPan="magnify" viewBox="0 0 30 30.000001" height="40" preserveAspectRatio="xMidYMid meet" version="1.0"><defs><clipPath id="f654f79183"><path d="M 0.484375 0 L 29.515625 0 L 29.515625 29.03125 L 0.484375 29.03125 Z M 0.484375 0 " clip-rule="nonzero"/></clipPath><clipPath id="7e348590dd"><path d="M 15 0 C 6.984375 0 0.484375 6.5 0.484375 14.515625 C 0.484375 22.53125 6.984375 29.03125 15 29.03125 C 23.015625 29.03125 29.515625 22.53125 29.515625 14.515625 C 29.515625 6.5 23.015625 0 15 0 Z M 15 0 " clip-rule="nonzero"/></clipPath><clipPath id="328f3b8828"><path d="M 0.484375 0 L 29.515625 0 L 29.515625 29.03125 L 0.484375 29.03125 Z M 0.484375 0 " clip-rule="nonzero"/></clipPath><clipPath id="0fc434a63f"><path d="M 15 0 C 6.984375 0 0.484375 6.5 0.484375 14.515625 C 0.484375 22.53125 6.984375 29.03125 15 29.03125 C 23.015625 29.03125 29.515625 22.53125 29.515625 14.515625 C 29.515625 6.5 23.015625 0 15 0 Z M 15 0 " clip-rule="nonzero"/></clipPath><clipPath id="a849d89263"><rect x="0" width="30" y="0" height="30"/></clipPath><clipPath id="189856f7f2"><path d="M 10 5.515625 L 20 5.515625 L 20 19 L 10 19 Z M 10 5.515625 " clip-rule="nonzero"/></clipPath><clipPath id="7ea7f265cc"><path d="M 6.621094 15 L 23.316406 15 L 23.316406 22.210938 L 6.621094 22.210938 Z M 6.621094 15 " clip-rule="nonzero"/></clipPath></defs><g clip-path="url(#f654f79183)"><g clip-path="url(#7e348590dd)"><g transform="matrix(1, 0, 0, 1, 0, 0.000000000000005692)"><g clip-path="url(#a849d89263)"><g clip-path="url(#328f3b8828)"><g clip-path="url(#0fc434a63f)"><path fill="#feefff" d="M 0.484375 0 L 29.515625 0 L 29.515625 29.03125 L 0.484375 29.03125 Z M 0.484375 0 " fill-opacity="1" fill-rule="nonzero"/></g></g></g></g><path stroke-linecap="butt" transform="matrix(0.725806, 0, 0, 0.725806, 0.48387, 0.00000193548)" fill="none" stroke-linejoin="miter" d="M 20.000001 -0.00000266667 C 8.956251 -0.00000266667 0.000695111 8.955553 0.000695111 19.999303 C 0.000695111 31.043053 8.956251 39.998609 20.000001 39.998609 C 31.043751 39.998609 39.999307 31.043053 39.999307 19.999303 C 39.999307 8.955553 31.043751 -0.00000266667 20.000001 -0.00000266667 Z M 20.000001 -0.00000266667 " stroke="#dd3d93" stroke-width="4" stroke-opacity="1" stroke-miterlimit="4"/></g></g><g clip-path="url(#189856f7f2)"><path fill="#dd3d93" d="M 15.734375 15.910156 L 15.734375 6.253906 C 15.734375 6.058594 15.660156 5.871094 15.519531 5.730469 C 15.378906 5.597656 15.191406 5.515625 14.996094 5.515625 C 14.800781 5.515625 14.613281 5.597656 14.472656 5.730469 C 14.335938 5.871094 14.257812 6.058594 14.257812 6.253906 L 14.257812 15.910156 C 14.257812 15.910156 12.851562 14.503906 12.066406 13.714844 C 11.925781 13.578125 11.738281 13.5 11.542969 13.5 C 11.347656 13.5 11.160156 13.578125 11.019531 13.714844 C 10.734375 14.003906 10.734375 14.46875 11.019531 14.757812 L 14.503906 18.238281 C 14.632812 18.371094 14.808594 18.441406 14.996094 18.441406 C 15.183594 18.441406 15.359375 18.371094 15.492188 18.238281 L 18.972656 14.757812 C 19.261719 14.46875 19.261719 14.003906 18.972656 13.714844 C 18.832031 13.578125 18.644531 13.5 18.449219 13.5 C 18.253906 13.5 18.066406 13.578125 17.929688 13.714844 C 17.136719 14.503906 15.734375 15.910156 15.734375 15.910156 Z M 15.734375 15.910156 " fill-opacity="1" fill-rule="evenodd"/></g><g clip-path="url(#7ea7f265cc)"><path fill="#dd3d93" d="M 6.621094 20.871094 C 6.621094 21.242188 6.769531 21.597656 7.03125 21.855469 C 7.296875 22.121094 7.652344 22.265625 8.015625 22.265625 L 21.976562 22.265625 C 22.347656 22.265625 22.703125 22.121094 22.960938 21.855469 C 23.222656 21.59375 23.371094 21.238281 23.371094 20.871094 L 23.371094 16.648438 C 23.371094 16.242188 23.039062 15.910156 22.632812 15.910156 C 22.4375 15.910156 22.25 15.988281 22.113281 16.125 C 21.972656 16.265625 21.894531 16.453125 21.894531 16.648438 L 21.894531 20.097656 C 21.894531 20.484375 21.585938 20.796875 21.199219 20.796875 L 8.796875 20.796875 C 8.40625 20.796875 8.097656 20.484375 8.097656 20.097656 L 8.097656 16.648438 C 8.097656 16.453125 8.015625 16.265625 7.882812 16.125 C 7.742188 15.984375 7.554688 15.910156 7.359375 15.910156 C 6.953125 15.910156 6.621094 16.242188 6.621094 16.648438 Z M 6.621094 20.871094 " fill-opacity="1" fill-rule="evenodd"/></g></svg>