<svg xmlns="http://www.w3.org/2000/svg" xmlns:xlink="http://www.w3.org/1999/xlink" width="40" zoomAndPan="magnify" viewBox="0 0 30 30.000001" height="40" preserveAspectRatio="xMidYMid meet" version="1.0"><defs><clipPath id="bcfa145307"><path d="M 17 1.453125 L 25 1.453125 L 25 10 L 17 10 Z M 17 1.453125 " clip-rule="nonzero"/></clipPath><clipPath id="cf4f737193"><path d="M 4.761719 21 L 10 21 L 10 27.582031 L 4.761719 27.582031 Z M 4.761719 21 " clip-rule="nonzero"/></clipPath></defs><path fill="#000000" d="M 21.351562 12.933594 C 21.113281 12.933594 20.910156 12.851562 20.742188 12.679688 L 14.058594 5.949219 C 13.890625 5.777344 13.808594 5.574219 13.808594 5.335938 C 13.808594 5.097656 13.890625 4.894531 14.058594 4.722656 L 15.273438 3.5 C 15.441406 3.332031 15.644531 3.246094 15.882812 3.246094 C 16.117188 3.246094 16.320312 3.332031 16.488281 3.5 L 23.171875 10.230469 C 23.339844 10.402344 23.425781 10.605469 23.425781 10.84375 C 23.425781 11.082031 23.339844 11.285156 23.175781 11.457031 L 21.957031 12.679688 C 21.789062 12.851562 21.589844 12.933594 21.351562 12.933594 Z M 15.882812 4.113281 L 14.667969 5.335938 L 21.351562 12.066406 L 21.351562 12.070312 L 22.566406 10.84375 Z M 15.882812 4.113281 " fill-opacity="1" fill-rule="nonzero"/><g clip-path="url(#bcfa145307)"><path fill="#000000" d="M 21.046875 9.136719 C 20.929688 9.136719 20.828125 9.09375 20.742188 9.007812 L 17.703125 5.949219 C 17.625 5.867188 17.582031 5.769531 17.578125 5.65625 C 17.574219 5.542969 17.609375 5.445312 17.683594 5.359375 L 19.945312 2.730469 C 20.203125 2.429688 20.507812 2.195312 20.863281 2.027344 C 21.21875 1.855469 21.589844 1.761719 21.984375 1.75 C 22.375 1.734375 22.753906 1.800781 23.121094 1.945312 C 23.484375 2.089844 23.808594 2.300781 24.085938 2.582031 C 24.363281 2.863281 24.574219 3.183594 24.71875 3.554688 C 24.859375 3.921875 24.925781 4.304688 24.914062 4.699219 C 24.898438 5.09375 24.804688 5.46875 24.636719 5.828125 C 24.46875 6.183594 24.234375 6.492188 23.9375 6.75 L 21.328125 9.027344 C 21.246094 9.101562 21.152344 9.136719 21.046875 9.136719 Z M 18.59375 5.621094 L 21.066406 8.109375 L 23.375 6.097656 C 23.582031 5.917969 23.742188 5.703125 23.863281 5.453125 C 23.980469 5.207031 24.042969 4.945312 24.054688 4.667969 C 24.0625 4.394531 24.019531 4.128906 23.917969 3.871094 C 23.816406 3.613281 23.671875 3.390625 23.476562 3.195312 C 23.285156 3 23.058594 2.851562 22.804688 2.75 C 22.550781 2.648438 22.285156 2.605469 22.011719 2.613281 C 21.742188 2.625 21.480469 2.6875 21.234375 2.808594 C 20.988281 2.925781 20.773438 3.089844 20.59375 3.296875 Z M 18.59375 5.621094 " fill-opacity="1" fill-rule="nonzero"/></g><path fill="#000000" d="M 7.8125 20.46875 C 7.542969 20.472656 7.292969 20.402344 7.0625 20.261719 C 6.832031 20.121094 6.652344 19.929688 6.527344 19.6875 C 6.402344 19.445312 6.351562 19.191406 6.367188 18.917969 C 6.386719 18.648438 6.472656 18.402344 6.628906 18.179688 L 7.429688 17.03125 C 7.511719 16.894531 7.554688 16.75 7.554688 16.589844 L 7.554688 15.726562 C 7.550781 15.207031 7.734375 14.765625 8.101562 14.398438 L 15.578125 6.867188 C 15.664062 6.78125 15.761719 6.738281 15.882812 6.738281 C 16 6.738281 16.101562 6.78125 16.1875 6.867188 L 19.832031 10.539062 C 19.914062 10.621094 19.957031 10.726562 19.957031 10.84375 C 19.957031 10.964844 19.914062 11.066406 19.832031 11.148438 L 12.351562 18.683594 C 11.988281 19.050781 11.550781 19.234375 11.035156 19.234375 L 10.203125 19.234375 C 10.027344 19.234375 9.871094 19.285156 9.726562 19.386719 L 8.679688 20.179688 C 8.421875 20.375 8.132812 20.472656 7.8125 20.46875 Z M 15.882812 7.785156 L 8.707031 15.011719 C 8.511719 15.210938 8.414062 15.449219 8.414062 15.726562 L 8.414062 16.589844 C 8.414062 16.925781 8.324219 17.230469 8.144531 17.511719 L 7.332031 18.675781 C 7.25 18.796875 7.214844 18.925781 7.226562 19.074219 C 7.242188 19.21875 7.300781 19.339844 7.402344 19.441406 C 7.507812 19.542969 7.632812 19.597656 7.773438 19.605469 C 7.917969 19.613281 8.046875 19.574219 8.164062 19.488281 L 9.222656 18.683594 C 9.515625 18.472656 9.84375 18.367188 10.203125 18.367188 L 11.035156 18.367188 C 11.3125 18.367188 11.546875 18.269531 11.746094 18.070312 L 18.921875 10.84375 Z M 15.882812 7.785156 " fill-opacity="1" fill-rule="nonzero"/><path fill="#000000" d="M 7.8125 20.472656 C 7.621094 20.472656 7.4375 20.433594 7.261719 20.363281 C 7.082031 20.289062 6.925781 20.183594 6.789062 20.046875 C 6.65625 19.910156 6.550781 19.753906 6.476562 19.574219 C 6.402344 19.394531 6.367188 19.210938 6.367188 19.015625 C 6.367188 18.710938 6.453125 18.429688 6.632812 18.179688 L 7.429688 17.027344 C 7.511719 16.894531 7.554688 16.75 7.554688 16.59375 L 7.554688 15.726562 C 7.550781 15.207031 7.734375 14.761719 8.101562 14.398438 L 10.519531 11.960938 C 10.617188 11.863281 10.734375 11.820312 10.867188 11.835938 C 12.324219 11.976562 13.777344 11.953125 15.230469 11.773438 C 16.1875 11.667969 17.128906 11.753906 18.050781 12.027344 C 18.125 12.046875 18.1875 12.082031 18.242188 12.136719 C 18.296875 12.191406 18.332031 12.257812 18.351562 12.332031 C 18.375 12.40625 18.371094 12.480469 18.351562 12.554688 C 18.332031 12.628906 18.296875 12.695312 18.242188 12.75 L 12.351562 18.683594 C 11.988281 19.050781 11.550781 19.238281 11.035156 19.234375 L 10.203125 19.234375 C 10.027344 19.234375 9.867188 19.285156 9.71875 19.386719 L 8.679688 20.179688 C 8.425781 20.375 8.136719 20.472656 7.8125 20.472656 Z M 10.984375 12.71875 L 8.707031 15.011719 C 8.507812 15.207031 8.410156 15.449219 8.414062 15.726562 L 8.414062 16.59375 C 8.414062 16.929688 8.324219 17.234375 8.140625 17.515625 L 7.335938 18.675781 C 7.261719 18.777344 7.226562 18.890625 7.226562 19.015625 C 7.226562 19.257812 7.335938 19.4375 7.550781 19.542969 C 7.765625 19.652344 7.96875 19.636719 8.164062 19.488281 L 9.21875 18.683594 C 9.515625 18.476562 9.84375 18.371094 10.203125 18.367188 L 11.035156 18.367188 C 11.3125 18.371094 11.546875 18.269531 11.742188 18.074219 L 17.082031 12.691406 C 16.507812 12.582031 15.925781 12.5625 15.34375 12.628906 C 13.894531 12.8125 12.441406 12.84375 10.984375 12.71875 Z M 10.984375 12.71875 " fill-opacity="1" fill-rule="nonzero"/><g clip-path="url(#cf4f737193)"><path fill="#000000" d="M 7.125 27.457031 C 6.808594 27.457031 6.507812 27.394531 6.21875 27.273438 C 5.929688 27.152344 5.675781 26.980469 5.453125 26.757812 C 5.230469 26.535156 5.0625 26.277344 4.941406 25.984375 C 4.820312 25.695312 4.761719 25.390625 4.761719 25.074219 C 4.761719 23.894531 6.460938 21.925781 6.804688 21.539062 C 6.890625 21.449219 6.996094 21.402344 7.125 21.402344 C 7.25 21.402344 7.355469 21.449219 7.445312 21.539062 C 7.785156 21.925781 9.488281 23.894531 9.488281 25.074219 C 9.488281 25.390625 9.425781 25.695312 9.304688 25.984375 C 9.1875 26.277344 9.015625 26.535156 8.792969 26.757812 C 8.574219 26.980469 8.316406 27.152344 8.027344 27.273438 C 7.738281 27.394531 7.4375 27.457031 7.125 27.457031 Z M 7.125 22.492188 C 6.417969 23.351562 5.621094 24.535156 5.621094 25.074219 C 5.621094 25.277344 5.660156 25.46875 5.734375 25.65625 C 5.8125 25.839844 5.917969 26.003906 6.0625 26.144531 C 6.203125 26.289062 6.363281 26.398438 6.546875 26.472656 C 6.734375 26.550781 6.925781 26.589844 7.125 26.589844 C 7.324219 26.589844 7.515625 26.550781 7.699219 26.472656 C 7.882812 26.398438 8.046875 26.289062 8.1875 26.144531 C 8.328125 26.003906 8.4375 25.839844 8.511719 25.65625 C 8.589844 25.46875 8.628906 25.277344 8.628906 25.074219 C 8.628906 24.535156 7.828125 23.351562 7.125 22.492188 Z M 7.125 22.492188 " fill-opacity="1" fill-rule="nonzero"/></g></svg>