<svg xmlns="http://www.w3.org/2000/svg" xmlns:xlink="http://www.w3.org/1999/xlink" width="40" zoomAndPan="magnify" viewBox="0 0 30 30.000001" height="40" preserveAspectRatio="xMidYMid meet" version="1.0"><defs><g/><clipPath id="61b6eaa85e"><path d="M 0.484375 10.039062 L 29.515625 10.039062 L 29.515625 18.996094 L 0.484375 18.996094 Z M 0.484375 10.039062 " clip-rule="nonzero"/></clipPath><clipPath id="4a5b8602a4"><path d="M 2.660156 10.039062 L 27.339844 10.039062 C 27.917969 10.039062 28.46875 10.265625 28.878906 10.675781 C 29.285156 11.082031 29.515625 11.636719 29.515625 12.214844 L 29.515625 16.816406 C 29.515625 17.394531 29.285156 17.949219 28.878906 18.355469 C 28.46875 18.765625 27.917969 18.996094 27.339844 18.996094 L 2.660156 18.996094 C 2.082031 18.996094 1.53125 18.765625 1.121094 18.355469 C 0.714844 17.949219 0.484375 17.394531 0.484375 16.816406 L 0.484375 12.214844 C 0.484375 11.636719 0.714844 11.082031 1.121094 10.675781 C 1.53125 10.265625 2.082031 10.039062 2.660156 10.039062 Z M 2.660156 10.039062 " clip-rule="nonzero"/></clipPath><clipPath id="56da7b15e6"><path d="M 0.484375 0.0390625 L 29.515625 0.0390625 L 29.515625 8.996094 L 0.484375 8.996094 Z M 0.484375 0.0390625 " clip-rule="nonzero"/></clipPath><clipPath id="49f74c3261"><path d="M 2.660156 0.0390625 L 27.339844 0.0390625 C 27.917969 0.0390625 28.46875 0.265625 28.878906 0.675781 C 29.285156 1.082031 29.515625 1.636719 29.515625 2.214844 L 29.515625 6.816406 C 29.515625 7.394531 29.285156 7.949219 28.878906 8.355469 C 28.46875 8.765625 27.917969 8.996094 27.339844 8.996094 L 2.660156 8.996094 C 2.082031 8.996094 1.53125 8.765625 1.121094 8.355469 C 0.714844 7.949219 0.484375 7.394531 0.484375 6.816406 L 0.484375 2.214844 C 0.484375 1.636719 0.714844 1.082031 1.121094 0.675781 C 1.53125 0.265625 2.082031 0.0390625 2.660156 0.0390625 Z M 2.660156 0.0390625 " clip-rule="nonzero"/></clipPath><clipPath id="ccfbdb6716"><rect x="0" width="30" y="0" height="9"/></clipPath><clipPath id="75bfbe7e62"><path d="M 0.5 10.039062 L 29.515625 10.039062 L 29.515625 18.746094 L 0.5 18.746094 Z M 0.5 10.039062 " clip-rule="nonzero"/></clipPath><clipPath id="05e74f6d5d"><path d="M 2.675781 10.039062 L 27.324219 10.039062 C 27.902344 10.039062 28.457031 10.265625 28.863281 10.675781 C 29.273438 11.082031 29.5 11.636719 29.5 12.210938 L 29.5 16.808594 C 29.5 17.386719 29.273438 17.941406 28.863281 18.347656 C 28.457031 18.757812 27.902344 18.984375 27.324219 18.984375 L 2.675781 18.984375 C 2.097656 18.984375 1.542969 18.757812 1.136719 18.347656 C 0.726562 17.941406 0.5 17.386719 0.5 16.808594 L 0.5 12.210938 C 0.5 11.636719 0.726562 11.082031 1.136719 10.675781 C 1.542969 10.265625 2.097656 10.039062 2.675781 10.039062 Z M 2.675781 10.039062 " clip-rule="nonzero"/></clipPath><clipPath id="2d93803ba5"><path d="M 4.164062 12.246094 L 8.519531 12.246094 L 8.519531 16.601562 L 4.164062 16.601562 Z M 4.164062 12.246094 " clip-rule="nonzero"/></clipPath></defs><g clip-path="url(#61b6eaa85e)"><g clip-path="url(#4a5b8602a4)"><g transform="matrix(1, 0, 0, 1, 0, 10)"><g clip-path="url(#ccfbdb6716)"><g clip-path="url(#56da7b15e6)"><g clip-path="url(#49f74c3261)"><path fill="#f4efe6" d="M 0.484375 0.0390625 L 29.523438 0.0390625 L 29.523438 8.996094 L 0.484375 8.996094 Z M 0.484375 0.0390625 " fill-opacity="1" fill-rule="nonzero"/></g></g></g></g></g></g><g clip-path="url(#75bfbe7e62)"><g clip-path="url(#05e74f6d5d)"><path stroke-linecap="butt" transform="matrix(0.725806, 0, 0, 0.725806, 0.498732, 10.037629)" fill="none" stroke-linejoin="miter" d="M 2.99949 0.00197547 L 36.959557 0.00197547 C 37.756085 0.00197547 38.520321 0.314128 39.080043 0.879232 C 39.645147 1.438955 39.9573 2.203191 39.9573 2.994336 L 39.9573 9.328885 C 39.9573 10.125412 39.645147 10.889648 39.080043 11.449371 C 38.520321 12.014475 37.756085 12.326628 36.959557 12.326628 L 2.99949 12.326628 C 2.202962 12.326628 1.438726 12.014475 0.879004 11.449371 C 0.313899 10.889648 0.00174666 10.125412 0.00174666 9.328885 L 0.00174666 2.994336 C 0.00174666 2.203191 0.313899 1.438955 0.879004 0.879232 C 1.438726 0.314128 2.202962 0.00197547 2.99949 0.00197547 Z M 2.99949 0.00197547 " stroke="#d6c9b0" stroke-width="2" stroke-opacity="1" stroke-miterlimit="4"/></g></g><g fill="#000000" fill-opacity="1"><g transform="translate(4.056199, 14.392467)"><g/></g></g><g fill="#000000" fill-opacity="1"><g transform="translate(4.903686, 14.392467)"><g/></g></g><g fill="#000000" fill-opacity="1"><g transform="translate(5.751172, 14.392467)"><g/></g></g><g fill="#000000" fill-opacity="1"><g transform="translate(6.598659, 14.392467)"><g/></g></g><g fill="#000000" fill-opacity="1"><g transform="translate(7.446146, 14.392467)"><g/></g></g><g fill="#000000" fill-opacity="1"><g transform="translate(8.293632, 14.392467)"><g/></g></g><g fill="#000000" fill-opacity="1"><g transform="translate(9.141119, 14.392467)"><g/></g></g><g fill="#000000" fill-opacity="1"><g transform="translate(9.998739, 14.392467)"><g><path d="M 0.234375 0 L 0.234375 -2.25 L 1.625 -2.25 L 1.625 -2.015625 L 0.5 -2.015625 L 0.5 -1.234375 L 1.53125 -1.234375 L 1.53125 -1.015625 L 0.5 -1.015625 L 0.5 -0.21875 L 1.625 -0.21875 L 1.625 0 Z M 0.234375 0 "/></g></g></g><g fill="#000000" fill-opacity="1"><g transform="translate(11.802446, 14.392467)"><g><path d="M 0.9375 0.03125 C 0.78125 0.03125 0.640625 0 0.515625 -0.0625 C 0.398438 -0.132812 0.3125 -0.234375 0.25 -0.359375 C 0.1875 -0.492188 0.15625 -0.640625 0.15625 -0.796875 C 0.15625 -0.953125 0.1875 -1.09375 0.25 -1.21875 C 0.320312 -1.34375 0.414062 -1.441406 0.53125 -1.515625 C 0.644531 -1.585938 0.78125 -1.625 0.9375 -1.625 C 1.070312 -1.625 1.1875 -1.597656 1.28125 -1.546875 C 1.382812 -1.492188 1.46875 -1.421875 1.53125 -1.328125 L 1.53125 -2.3125 L 1.796875 -2.3125 L 1.796875 0 L 1.546875 0 L 1.53125 -0.265625 C 1.476562 -0.179688 1.398438 -0.109375 1.296875 -0.046875 C 1.203125 0.00390625 1.082031 0.03125 0.9375 0.03125 Z M 0.96875 -0.203125 C 1.070312 -0.203125 1.164062 -0.222656 1.25 -0.265625 C 1.332031 -0.316406 1.394531 -0.382812 1.4375 -0.46875 C 1.488281 -0.5625 1.515625 -0.671875 1.515625 -0.796875 C 1.515625 -0.910156 1.488281 -1.015625 1.4375 -1.109375 C 1.394531 -1.203125 1.332031 -1.269531 1.25 -1.3125 C 1.164062 -1.363281 1.070312 -1.390625 0.96875 -1.390625 C 0.863281 -1.390625 0.769531 -1.363281 0.6875 -1.3125 C 0.601562 -1.269531 0.535156 -1.203125 0.484375 -1.109375 C 0.441406 -1.015625 0.421875 -0.910156 0.421875 -0.796875 C 0.421875 -0.671875 0.441406 -0.5625 0.484375 -0.46875 C 0.535156 -0.382812 0.601562 -0.316406 0.6875 -0.265625 C 0.769531 -0.222656 0.863281 -0.203125 0.96875 -0.203125 Z M 0.96875 -0.203125 "/></g></g></g><g fill="#000000" fill-opacity="1"><g transform="translate(13.810829, 14.392467)"><g><path d="M 0.390625 -1.9375 C 0.328125 -1.9375 0.28125 -1.953125 0.25 -1.984375 C 0.21875 -2.023438 0.203125 -2.070312 0.203125 -2.125 C 0.203125 -2.175781 0.21875 -2.21875 0.25 -2.25 C 0.28125 -2.289062 0.328125 -2.3125 0.390625 -2.3125 C 0.441406 -2.3125 0.484375 -2.289062 0.515625 -2.25 C 0.546875 -2.21875 0.5625 -2.175781 0.5625 -2.125 C 0.5625 -2.070312 0.546875 -2.023438 0.515625 -1.984375 C 0.484375 -1.953125 0.441406 -1.9375 0.390625 -1.9375 Z M 0.25 0 L 0.25 -1.59375 L 0.515625 -1.59375 L 0.515625 0 Z M 0.25 0 "/></g></g></g><g fill="#000000" fill-opacity="1"><g transform="translate(14.575165, 14.392467)"><g><path d="M 0.84375 0 C 0.695312 0 0.582031 -0.0351562 0.5 -0.109375 C 0.414062 -0.179688 0.375 -0.304688 0.375 -0.484375 L 0.375 -1.359375 L 0.109375 -1.359375 L 0.109375 -1.59375 L 0.375 -1.59375 L 0.421875 -1.96875 L 0.65625 -1.96875 L 0.65625 -1.59375 L 1.125 -1.59375 L 1.125 -1.359375 L 0.65625 -1.359375 L 0.65625 -0.484375 C 0.65625 -0.390625 0.671875 -0.320312 0.703125 -0.28125 C 0.742188 -0.25 0.816406 -0.234375 0.921875 -0.234375 L 1.09375 -0.234375 L 1.09375 0 Z M 0.84375 0 "/></g></g></g><g fill="#000000" fill-opacity="1"><g transform="translate(15.81281, 14.392467)"><g/></g></g><g fill="#000000" fill-opacity="1"><g transform="translate(16.660297, 14.392467)"><g><path d="M 0.234375 0 L 0.234375 -2.25 L 0.96875 -2.25 C 1.144531 -2.25 1.289062 -2.21875 1.40625 -2.15625 C 1.519531 -2.09375 1.601562 -2.015625 1.65625 -1.921875 C 1.707031 -1.828125 1.734375 -1.71875 1.734375 -1.59375 C 1.734375 -1.46875 1.707031 -1.351562 1.65625 -1.25 C 1.601562 -1.15625 1.519531 -1.078125 1.40625 -1.015625 C 1.289062 -0.960938 1.144531 -0.9375 0.96875 -0.9375 L 0.5 -0.9375 L 0.5 0 Z M 0.5 -1.15625 L 0.96875 -1.15625 C 1.144531 -1.15625 1.269531 -1.191406 1.34375 -1.265625 C 1.425781 -1.347656 1.46875 -1.457031 1.46875 -1.59375 C 1.46875 -1.726562 1.425781 -1.832031 1.34375 -1.90625 C 1.269531 -1.976562 1.144531 -2.015625 0.96875 -2.015625 L 0.5 -2.015625 Z M 0.5 -1.15625 "/></g></g></g><g fill="#000000" fill-opacity="1"><g transform="translate(18.51197, 14.392467)"><g><path d="M 0.21875 0 L 0.21875 -1.59375 L 0.46875 -1.59375 L 0.484375 -1.28125 C 0.535156 -1.382812 0.609375 -1.46875 0.703125 -1.53125 C 0.804688 -1.59375 0.929688 -1.625 1.078125 -1.625 L 1.078125 -1.34375 L 1.015625 -1.34375 C 0.921875 -1.34375 0.832031 -1.328125 0.75 -1.296875 C 0.664062 -1.265625 0.597656 -1.207031 0.546875 -1.125 C 0.503906 -1.050781 0.484375 -0.941406 0.484375 -0.796875 L 0.484375 0 Z M 0.21875 0 "/></g></g></g><g fill="#000000" fill-opacity="1"><g transform="translate(19.672866, 14.392467)"><g><path d="M 0.9375 0.03125 C 0.789062 0.03125 0.65625 0 0.53125 -0.0625 C 0.414062 -0.132812 0.320312 -0.234375 0.25 -0.359375 C 0.1875 -0.484375 0.15625 -0.628906 0.15625 -0.796875 C 0.15625 -0.960938 0.1875 -1.109375 0.25 -1.234375 C 0.320312 -1.359375 0.421875 -1.453125 0.546875 -1.515625 C 0.671875 -1.585938 0.804688 -1.625 0.953125 -1.625 C 1.097656 -1.625 1.226562 -1.585938 1.34375 -1.515625 C 1.46875 -1.453125 1.566406 -1.359375 1.640625 -1.234375 C 1.710938 -1.109375 1.75 -0.960938 1.75 -0.796875 C 1.75 -0.628906 1.710938 -0.484375 1.640625 -0.359375 C 1.566406 -0.234375 1.46875 -0.132812 1.34375 -0.0625 C 1.226562 0 1.09375 0.03125 0.9375 0.03125 Z M 0.9375 -0.1875 C 1.03125 -0.1875 1.113281 -0.207031 1.1875 -0.25 C 1.269531 -0.300781 1.335938 -0.367188 1.390625 -0.453125 C 1.441406 -0.546875 1.46875 -0.660156 1.46875 -0.796875 C 1.46875 -0.929688 1.441406 -1.039062 1.390625 -1.125 C 1.347656 -1.21875 1.285156 -1.285156 1.203125 -1.328125 C 1.117188 -1.367188 1.035156 -1.390625 0.953125 -1.390625 C 0.859375 -1.390625 0.769531 -1.367188 0.6875 -1.328125 C 0.613281 -1.285156 0.550781 -1.21875 0.5 -1.125 C 0.445312 -1.039062 0.421875 -0.929688 0.421875 -0.796875 C 0.421875 -0.660156 0.445312 -0.546875 0.5 -0.453125 C 0.550781 -0.367188 0.613281 -0.300781 0.6875 -0.25 C 0.769531 -0.207031 0.851562 -0.1875 0.9375 -0.1875 Z M 0.9375 -0.1875 "/></g></g></g><g fill="#000000" fill-opacity="1"><g transform="translate(21.566113, 14.392467)"><g><path d="M 0.3125 0 L 0.3125 -1.359375 L 0.0625 -1.359375 L 0.0625 -1.59375 L 0.3125 -1.59375 L 0.3125 -1.859375 C 0.3125 -2.015625 0.347656 -2.128906 0.421875 -2.203125 C 0.492188 -2.273438 0.609375 -2.3125 0.765625 -2.3125 L 0.921875 -2.3125 L 0.921875 -2.078125 L 0.796875 -2.078125 C 0.710938 -2.078125 0.65625 -2.054688 0.625 -2.015625 C 0.59375 -1.984375 0.578125 -1.929688 0.578125 -1.859375 L 0.578125 -1.59375 L 0.96875 -1.59375 L 0.96875 -1.359375 L 0.578125 -1.359375 L 0.578125 0 Z M 0.3125 0 "/></g></g></g><g fill="#000000" fill-opacity="1"><g transform="translate(22.631067, 14.392467)"><g><path d="M 0.390625 -1.9375 C 0.328125 -1.9375 0.28125 -1.953125 0.25 -1.984375 C 0.21875 -2.023438 0.203125 -2.070312 0.203125 -2.125 C 0.203125 -2.175781 0.21875 -2.21875 0.25 -2.25 C 0.28125 -2.289062 0.328125 -2.3125 0.390625 -2.3125 C 0.441406 -2.3125 0.484375 -2.289062 0.515625 -2.25 C 0.546875 -2.21875 0.5625 -2.175781 0.5625 -2.125 C 0.5625 -2.070312 0.546875 -2.023438 0.515625 -1.984375 C 0.484375 -1.953125 0.441406 -1.9375 0.390625 -1.9375 Z M 0.25 0 L 0.25 -1.59375 L 0.515625 -1.59375 L 0.515625 0 Z M 0.25 0 "/></g></g></g><g fill="#000000" fill-opacity="1"><g transform="translate(23.395403, 14.392467)"><g><path d="M 0.21875 0 L 0.21875 -2.3125 L 0.484375 -2.3125 L 0.484375 0 Z M 0.21875 0 "/></g></g></g><g fill="#000000" fill-opacity="1"><g transform="translate(24.105373, 14.392467)"><g><path d="M 0.9375 0.03125 C 0.78125 0.03125 0.644531 0 0.53125 -0.0625 C 0.414062 -0.132812 0.320312 -0.234375 0.25 -0.359375 C 0.1875 -0.484375 0.15625 -0.628906 0.15625 -0.796875 C 0.15625 -0.960938 0.1875 -1.109375 0.25 -1.234375 C 0.320312 -1.359375 0.414062 -1.453125 0.53125 -1.515625 C 0.644531 -1.585938 0.78125 -1.625 0.9375 -1.625 C 1.09375 -1.625 1.226562 -1.585938 1.34375 -1.515625 C 1.457031 -1.453125 1.539062 -1.363281 1.59375 -1.25 C 1.65625 -1.132812 1.6875 -1.015625 1.6875 -0.890625 C 1.6875 -0.859375 1.6875 -0.832031 1.6875 -0.8125 C 1.6875 -0.789062 1.6875 -0.765625 1.6875 -0.734375 L 0.421875 -0.734375 C 0.421875 -0.609375 0.445312 -0.503906 0.5 -0.421875 C 0.550781 -0.347656 0.613281 -0.289062 0.6875 -0.25 C 0.769531 -0.207031 0.851562 -0.1875 0.9375 -0.1875 C 1.050781 -0.1875 1.144531 -0.210938 1.21875 -0.265625 C 1.289062 -0.316406 1.34375 -0.382812 1.375 -0.46875 L 1.640625 -0.46875 C 1.597656 -0.320312 1.515625 -0.203125 1.390625 -0.109375 C 1.273438 -0.015625 1.125 0.03125 0.9375 0.03125 Z M 0.9375 -1.40625 C 0.8125 -1.40625 0.695312 -1.363281 0.59375 -1.28125 C 0.488281 -1.207031 0.429688 -1.09375 0.421875 -0.9375 L 1.421875 -0.9375 C 1.410156 -1.082031 1.359375 -1.195312 1.265625 -1.28125 C 1.179688 -1.363281 1.070312 -1.40625 0.9375 -1.40625 Z M 0.9375 -1.40625 "/></g></g></g><g clip-path="url(#2d93803ba5)"><path fill="#000000" d="M 4.78125 16.558594 L 5.363281 16.386719 C 5.460938 16.359375 5.542969 16.308594 5.613281 16.238281 L 8.292969 13.554688 C 8.5 13.347656 8.523438 13.03125 8.339844 12.847656 L 7.929688 12.4375 C 7.746094 12.253906 7.429688 12.277344 7.222656 12.484375 L 4.539062 15.164062 C 4.46875 15.234375 4.417969 15.316406 4.390625 15.414062 L 4.21875 15.996094 C 4.164062 16.167969 4.199219 16.320312 4.324219 16.453125 C 4.410156 16.539062 4.515625 16.578125 4.636719 16.578125 C 4.6875 16.578125 4.734375 16.570312 4.78125 16.558594 Z M 7.472656 12.734375 C 7.511719 12.691406 7.558594 12.671875 7.617188 12.667969 C 7.640625 12.667969 7.660156 12.675781 7.675781 12.6875 L 8.085938 13.101562 C 8.125 13.136719 8.113281 13.234375 8.042969 13.304688 L 7.632812 13.714844 L 7.0625 13.144531 Z M 4.5625 16.09375 L 4.730469 15.511719 C 4.742188 15.476562 4.761719 15.441406 4.792969 15.414062 L 6.808594 13.398438 L 7.378906 13.96875 L 5.363281 15.984375 C 5.332031 16.011719 5.300781 16.035156 5.265625 16.046875 L 4.683594 16.214844 C 4.644531 16.230469 4.609375 16.226562 4.574219 16.203125 C 4.550781 16.167969 4.546875 16.132812 4.5625 16.09375 Z M 4.5625 16.09375 " fill-opacity="1" fill-rule="nonzero"/></g></svg>