<svg xmlns="http://www.w3.org/2000/svg" xmlns:xlink="http://www.w3.org/1999/xlink" width="40" zoomAndPan="magnify" viewBox="0 0 30 30.000001" height="40" preserveAspectRatio="xMidYMid meet" version="1.0"><defs><clipPath id="19ce83e20b"><path d="M 0.871094 1 L 29.179688 1 L 29.179688 28.457031 L 0.871094 28.457031 Z M 0.871094 1 " clip-rule="nonzero"/></clipPath></defs><g clip-path="url(#19ce83e20b)"><path fill="#000000" d="M 1.011719 11.390625 C 0.902344 11.734375 0.992188 12.109375 1.25 12.363281 L 7.480469 18.492188 L 6.007812 27.144531 C 5.949219 27.5 6.09375 27.859375 6.382812 28.070312 C 6.675781 28.285156 7.058594 28.3125 7.375 28.144531 L 15.074219 24.058594 L 22.769531 28.144531 C 22.910156 28.214844 23.058594 28.253906 23.210938 28.253906 C 23.402344 28.253906 23.597656 28.191406 23.761719 28.070312 C 24.050781 27.859375 24.195312 27.5 24.136719 27.144531 L 22.664062 18.492188 L 28.894531 12.363281 C 29.152344 12.109375 29.242188 11.734375 29.132812 11.390625 C 29.023438 11.046875 28.726562 10.796875 28.375 10.746094 L 19.765625 9.480469 L 15.914062 1.609375 C 15.601562 0.960938 14.546875 0.960938 14.230469 1.609375 L 10.378906 9.480469 L 1.773438 10.746094 C 1.417969 10.796875 1.125 11.046875 1.011719 11.390625 Z M 11.140625 11.289062 C 11.445312 11.246094 11.710938 11.050781 11.847656 10.769531 L 15.074219 4.175781 L 18.296875 10.769531 C 18.433594 11.050781 18.699219 11.246094 19.007812 11.289062 L 26.21875 12.347656 L 21 17.480469 C 20.777344 17.699219 20.675781 18.011719 20.730469 18.320312 L 21.960938 25.566406 L 15.511719 22.144531 C 15.371094 22.074219 15.222656 22.035156 15.074219 22.035156 C 14.921875 22.035156 14.773438 22.074219 14.632812 22.144531 L 8.183594 25.566406 L 9.417969 18.320312 C 9.46875 18.011719 9.367188 17.699219 9.144531 17.480469 L 3.929688 12.347656 Z M 11.140625 11.289062 " fill-opacity="1" fill-rule="nonzero"/></g></svg>