<svg xmlns="http://www.w3.org/2000/svg" xmlns:xlink="http://www.w3.org/1999/xlink" width="40" zoomAndPan="magnify" viewBox="0 0 30 30.000001" height="40" preserveAspectRatio="xMidYMid meet" version="1.0"><defs><clipPath id="007c978f76"><path d="M 6.875 0.636719 L 22.84375 0.636719 L 22.84375 28.21875 L 6.875 28.21875 Z M 6.875 0.636719 " clip-rule="nonzero"/></clipPath></defs><g clip-path="url(#007c978f76)"><path fill="#000000" d="M 21.21875 0.636719 L 8.5 0.636719 C 7.609375 0.636719 6.886719 1.371094 6.886719 2.269531 L 6.886719 26.585938 C 6.886719 27.488281 7.609375 28.21875 8.5 28.21875 L 21.21875 28.21875 C 22.109375 28.21875 22.832031 27.488281 22.832031 26.585938 L 22.832031 2.269531 C 22.832031 1.371094 22.109375 0.636719 21.21875 0.636719 Z M 21.664062 24.964844 C 21.664062 25.984375 20.746094 26.757812 19.753906 26.570312 L 11.644531 25.039062 C 10.878906 24.898438 10.324219 24.222656 10.324219 23.4375 L 10.324219 5.421875 C 10.324219 4.636719 10.878906 3.960938 11.644531 3.816406 L 19.753906 2.289062 C 20.746094 2.101562 21.664062 2.871094 21.664062 3.894531 Z M 12.179688 14.058594 C 12.179688 14.46875 11.925781 14.796875 11.609375 14.796875 C 11.296875 14.796875 11.039062 14.46875 11.039062 14.058594 C 11.039062 13.652344 11.296875 13.320312 11.609375 13.320312 C 11.925781 13.320312 12.179688 13.652344 12.179688 14.058594 Z M 12.179688 14.058594 " fill-opacity="1" fill-rule="nonzero"/></g></svg>