<svg xmlns="http://www.w3.org/2000/svg" xmlns:xlink="http://www.w3.org/1999/xlink" width="40" zoomAndPan="magnify" viewBox="0 0 30 30.000001" height="40" preserveAspectRatio="xMidYMid meet" version="1.0"><defs><clipPath id="8a39b4bfcf"><path d="M 4.367188 1.453125 L 25.417969 1.453125 L 25.417969 27.582031 L 4.367188 27.582031 Z M 4.367188 1.453125 " clip-rule="nonzero"/></clipPath></defs><g clip-path="url(#8a39b4bfcf)"><path fill="#000000" d="M 24.828125 27.539062 C 24.671875 27.539062 24.519531 27.476562 24.40625 27.363281 L 14.894531 17.699219 L 5.378906 27.363281 C 5.210938 27.53125 4.957031 27.585938 4.734375 27.492188 C 4.511719 27.398438 4.367188 27.183594 4.367188 26.941406 L 4.367188 2.050781 C 4.367188 1.71875 4.632812 1.453125 4.960938 1.453125 L 24.828125 1.453125 C 25.152344 1.453125 25.417969 1.71875 25.417969 2.050781 L 25.417969 26.941406 C 25.417969 27.183594 25.273438 27.398438 25.050781 27.492188 C 24.976562 27.523438 24.902344 27.539062 24.828125 27.539062 Z M 5.550781 2.644531 L 5.550781 25.496094 L 14.472656 16.429688 C 14.585938 16.320312 14.734375 16.253906 14.894531 16.253906 C 15.050781 16.253906 15.199219 16.320312 15.3125 16.429688 L 24.234375 25.496094 L 24.234375 2.644531 Z M 5.550781 2.644531 " fill-opacity="1" fill-rule="nonzero"/></g></svg>