<svg xmlns="http://www.w3.org/2000/svg" xmlns:xlink="http://www.w3.org/1999/xlink" width="40" zoomAndPan="magnify" viewBox="0 0 30 30.000001" height="40" preserveAspectRatio="xMidYMid meet" version="1.0"><defs><clipPath id="f8599037c6"><path d="M 0.484375 0 L 29.515625 0 L 29.515625 29.03125 L 0.484375 29.03125 Z M 0.484375 0 " clip-rule="nonzero"/></clipPath><clipPath id="aaa0bbbfac"><path d="M 15 0 C 6.984375 0 0.484375 6.5 0.484375 14.515625 C 0.484375 22.53125 6.984375 29.03125 15 29.03125 C 23.015625 29.03125 29.515625 22.53125 29.515625 14.515625 C 29.515625 6.5 23.015625 0 15 0 Z M 15 0 " clip-rule="nonzero"/></clipPath><clipPath id="2a44503a9c"><path d="M 0.484375 0 L 29.515625 0 L 29.515625 29.03125 L 0.484375 29.03125 Z M 0.484375 0 " clip-rule="nonzero"/></clipPath><clipPath id="396ad053d1"><path d="M 15 0 C 6.984375 0 0.484375 6.5 0.484375 14.515625 C 0.484375 22.53125 6.984375 29.03125 15 29.03125 C 23.015625 29.03125 29.515625 22.53125 29.515625 14.515625 C 29.515625 6.5 23.015625 0 15 0 Z M 15 0 " clip-rule="nonzero"/></clipPath><clipPath id="f7ae17c39a"><rect x="0" width="30" y="0" height="30"/></clipPath><clipPath id="12d5443d02"><path d="M 8.695312 7.050781 L 21.035156 7.050781 L 21.035156 22 L 8.695312 22 Z M 8.695312 7.050781 " clip-rule="nonzero"/></clipPath></defs><g clip-path="url(#f8599037c6)"><g clip-path="url(#aaa0bbbfac)"><g transform="matrix(1, 0, 0, 1, 0, 0.000000000000005692)"><g clip-path="url(#f7ae17c39a)"><g clip-path="url(#2a44503a9c)"><g clip-path="url(#396ad053d1)"><path fill="#feefff" d="M 0.484375 0 L 29.515625 0 L 29.515625 29.03125 L 0.484375 29.03125 Z M 0.484375 0 " fill-opacity="1" fill-rule="nonzero"/></g></g></g></g><path stroke-linecap="butt" transform="matrix(0.725806, 0, 0, 0.725806, 0.48387, 0.00000193548)" fill="none" stroke-linejoin="miter" d="M 20.000001 -0.00000266667 C 8.956251 -0.00000266667 0.000695111 8.955553 0.000695111 19.999303 C 0.000695111 31.043053 8.956251 39.998609 20.000001 39.998609 C 31.043751 39.998609 39.999307 31.043053 39.999307 19.999303 C 39.999307 8.955553 31.043751 -0.00000266667 20.000001 -0.00000266667 Z M 20.000001 -0.00000266667 " stroke="#dd3d93" stroke-width="4" stroke-opacity="1" stroke-miterlimit="4"/></g></g><g clip-path="url(#12d5443d02)"><path fill="#dd3d93" d="M 20.019531 7.054688 L 9.96875 7.054688 C 9.265625 7.054688 8.695312 7.625 8.695312 8.328125 L 8.695312 20.730469 C 8.695312 21.167969 8.9375 21.566406 9.324219 21.769531 C 9.492188 21.855469 9.679688 21.902344 9.863281 21.902344 C 10.101562 21.902344 10.332031 21.832031 10.535156 21.691406 L 14.992188 18.574219 L 19.453125 21.691406 C 19.8125 21.941406 20.277344 21.972656 20.664062 21.769531 C 21.054688 21.570312 21.292969 21.171875 21.292969 20.734375 L 21.292969 8.328125 C 21.292969 7.625 20.726562 7.054688 20.019531 7.054688 Z M 20.445312 20.730469 C 20.445312 20.902344 20.324219 20.984375 20.273438 21.011719 C 20.222656 21.039062 20.085938 21.089844 19.945312 20.992188 L 15.238281 17.703125 C 15.089844 17.601562 14.894531 17.601562 14.75 17.703125 L 10.046875 20.988281 C 9.90625 21.089844 9.769531 21.039062 9.71875 21.011719 C 9.667969 20.984375 9.546875 20.902344 9.546875 20.730469 L 9.546875 8.328125 C 9.546875 8.09375 9.738281 7.90625 9.96875 7.90625 L 20.019531 7.90625 C 20.253906 7.90625 20.441406 8.09375 20.441406 8.328125 L 20.441406 20.730469 Z M 20.445312 20.730469 " fill-opacity="1" fill-rule="nonzero"/></g></svg>