<svg xmlns="http://www.w3.org/2000/svg" xmlns:xlink="http://www.w3.org/1999/xlink" width="40" zoomAndPan="magnify" viewBox="0 0 30 30.000001" height="40" preserveAspectRatio="xMidYMid meet" version="1.0"><defs><clipPath id="09cc1809be"><path d="M 0.484375 0 L 29.515625 0 L 29.515625 29.03125 L 0.484375 29.03125 Z M 0.484375 0 " clip-rule="nonzero"/></clipPath><clipPath id="aff9f34293"><path d="M 15 0 C 6.984375 0 0.484375 6.5 0.484375 14.515625 C 0.484375 22.53125 6.984375 29.03125 15 29.03125 C 23.015625 29.03125 29.515625 22.53125 29.515625 14.515625 C 29.515625 6.5 23.015625 0 15 0 Z M 15 0 " clip-rule="nonzero"/></clipPath><clipPath id="52f2c81bb4"><path d="M 0.484375 0 L 29.515625 0 L 29.515625 29.03125 L 0.484375 29.03125 Z M 0.484375 0 " clip-rule="nonzero"/></clipPath><clipPath id="71ccc92583"><path d="M 15 0 C 6.984375 0 0.484375 6.5 0.484375 14.515625 C 0.484375 22.53125 6.984375 29.03125 15 29.03125 C 23.015625 29.03125 29.515625 22.53125 29.515625 14.515625 C 29.515625 6.5 23.015625 0 15 0 Z M 15 0 " clip-rule="nonzero"/></clipPath><clipPath id="50312982de"><rect x="0" width="30" y="0" height="30"/></clipPath><clipPath id="cf3a3d33bb"><path d="M 4.730469 6.441406 L 22.875 6.441406 L 22.875 24.585938 L 4.730469 24.585938 Z M 4.730469 6.441406 " clip-rule="nonzero"/></clipPath><clipPath id="4c31ca6607"><path d="M 11 6.441406 L 22.875 6.441406 L 22.875 18 L 11 18 Z M 11 6.441406 " clip-rule="nonzero"/></clipPath></defs><g clip-path="url(#09cc1809be)"><g clip-path="url(#aff9f34293)"><g transform="matrix(1, 0, 0, 1, 0, 0.000000000000005692)"><g clip-path="url(#50312982de)"><g clip-path="url(#52f2c81bb4)"><g clip-path="url(#71ccc92583)"><path fill="#dd3d93" d="M 0.484375 0 L 29.515625 0 L 29.515625 29.03125 L 0.484375 29.03125 Z M 0.484375 0 " fill-opacity="1" fill-rule="nonzero"/></g></g></g></g><path stroke-linecap="butt" transform="matrix(0.725806, 0, 0, 0.725806, 0.48387, 0.00000193548)" fill="none" stroke-linejoin="miter" d="M 20.000001 -0.00000266667 C 8.956251 -0.00000266667 0.000695111 8.955553 0.000695111 19.999303 C 0.000695111 31.043053 8.956251 39.998609 20.000001 39.998609 C 31.043751 39.998609 39.999307 31.043053 39.999307 19.999303 C 39.999307 8.955553 31.043751 -0.00000266667 20.000001 -0.00000266667 Z M 20.000001 -0.00000266667 " stroke="#feefff" stroke-width="4" stroke-opacity="1" stroke-miterlimit="4"/></g></g><g clip-path="url(#cf3a3d33bb)"><path fill="#feefff" d="M 16.371094 24.445312 C 16.199219 24.445312 16.042969 24.355469 15.960938 24.203125 L 12.09375 17.113281 L 5 13.242188 C 4.839844 13.15625 4.746094 12.980469 4.761719 12.796875 C 4.773438 12.613281 4.898438 12.457031 5.070312 12.398438 L 22.121094 6.496094 C 22.289062 6.4375 22.472656 6.480469 22.597656 6.605469 C 22.722656 6.730469 22.765625 6.917969 22.710938 7.085938 L 16.808594 24.132812 C 16.746094 24.308594 16.589844 24.429688 16.40625 24.445312 C 16.394531 24.445312 16.382812 24.445312 16.371094 24.445312 Z M 6.363281 12.929688 L 12.65625 16.363281 C 12.734375 16.40625 12.800781 16.46875 12.84375 16.546875 L 16.273438 22.839844 L 21.519531 7.683594 Z M 6.363281 12.929688 " fill-opacity="1" fill-rule="nonzero"/></g><g clip-path="url(#4c31ca6607)"><path fill="#feefff" d="M 12.433594 17.234375 C 12.316406 17.234375 12.199219 17.1875 12.105469 17.097656 C 11.925781 16.917969 11.925781 16.621094 12.105469 16.441406 L 21.617188 6.933594 C 21.796875 6.753906 22.089844 6.753906 22.269531 6.933594 C 22.453125 7.113281 22.453125 7.410156 22.269531 7.589844 L 12.761719 17.097656 C 12.671875 17.1875 12.554688 17.234375 12.433594 17.234375 Z M 12.433594 17.234375 " fill-opacity="1" fill-rule="nonzero"/></g></svg>