<svg xmlns="http://www.w3.org/2000/svg" xmlns:xlink="http://www.w3.org/1999/xlink" width="40" zoomAndPan="magnify" viewBox="0 0 30 30.000001" height="40" preserveAspectRatio="xMidYMid meet" version="1.0"><defs><clipPath id="091262236f"><path d="M 1.832031 1.945312 L 15 1.945312 L 15 15 L 1.832031 15 Z M 1.832031 1.945312 " clip-rule="nonzero"/></clipPath><clipPath id="3d35895184"><path d="M 1.832031 15 L 15 15 L 15 27.347656 L 1.832031 27.347656 Z M 1.832031 15 " clip-rule="nonzero"/></clipPath><clipPath id="ccb55f665d"><path d="M 15 1.945312 L 27.960938 1.945312 L 27.960938 15 L 15 15 Z M 15 1.945312 " clip-rule="nonzero"/></clipPath><clipPath id="c1e7515a60"><path d="M 15 15 L 27.960938 15 L 27.960938 27.347656 L 15 27.347656 Z M 15 15 " clip-rule="nonzero"/></clipPath></defs><g clip-path="url(#091262236f)"><path fill="#000000" d="M 1.832031 3.15625 C 1.832031 2.488281 2.363281 1.949219 3.019531 1.949219 L 13.113281 1.949219 C 13.769531 1.949219 14.300781 2.488281 14.300781 3.15625 L 14.300781 12.832031 C 14.300781 13.5 13.769531 14.042969 13.113281 14.042969 L 3.019531 14.042969 C 2.363281 14.042969 1.832031 13.5 1.832031 12.832031 Z M 4.207031 4.367188 L 4.207031 11.621094 L 11.925781 11.621094 L 11.925781 4.367188 Z M 4.207031 4.367188 " fill-opacity="1" fill-rule="evenodd"/></g><g clip-path="url(#3d35895184)"><path fill="#000000" d="M 1.832031 16.460938 C 1.832031 15.792969 2.363281 15.25 3.019531 15.25 L 13.113281 15.25 C 13.769531 15.25 14.300781 15.792969 14.300781 16.460938 L 14.300781 26.136719 C 14.300781 26.804688 13.769531 27.34375 13.113281 27.34375 L 3.019531 27.34375 C 2.363281 27.34375 1.832031 26.804688 1.832031 26.136719 Z M 4.207031 17.667969 L 4.207031 24.925781 L 11.925781 24.925781 L 11.925781 17.667969 Z M 4.207031 17.667969 " fill-opacity="1" fill-rule="evenodd"/></g><g clip-path="url(#ccb55f665d)"><path fill="#000000" d="M 15.488281 3.15625 C 15.488281 2.488281 16.019531 1.949219 16.675781 1.949219 L 26.769531 1.949219 C 27.425781 1.949219 27.960938 2.488281 27.960938 3.15625 L 27.960938 12.832031 C 27.960938 13.5 27.425781 14.042969 26.769531 14.042969 L 16.675781 14.042969 C 16.019531 14.042969 15.488281 13.5 15.488281 12.832031 Z M 17.863281 4.367188 L 17.863281 11.621094 L 25.582031 11.621094 L 25.582031 4.367188 Z M 17.863281 4.367188 " fill-opacity="1" fill-rule="evenodd"/></g><g clip-path="url(#c1e7515a60)"><path fill="#000000" d="M 15.488281 16.460938 C 15.488281 15.792969 16.019531 15.25 16.675781 15.25 L 26.769531 15.25 C 27.425781 15.25 27.960938 15.792969 27.960938 16.460938 L 27.960938 26.136719 C 27.960938 26.804688 27.425781 27.34375 26.769531 27.34375 L 16.675781 27.34375 C 16.019531 27.34375 15.488281 26.804688 15.488281 26.136719 Z M 17.863281 17.667969 L 17.863281 24.925781 L 25.582031 24.925781 L 25.582031 17.667969 Z M 17.863281 17.667969 " fill-opacity="1" fill-rule="evenodd"/></g></svg>