<svg xmlns="http://www.w3.org/2000/svg" xmlns:xlink="http://www.w3.org/1999/xlink" width="40" zoomAndPan="magnify" viewBox="0 0 30 30.000001" height="40" preserveAspectRatio="xMidYMid meet" version="1.0"><defs><g/><clipPath id="624e1223d5"><path d="M 0.484375 8.324219 L 29.515625 8.324219 L 29.515625 20.707031 L 0.484375 20.707031 Z M 0.484375 8.324219 " clip-rule="nonzero"/></clipPath><clipPath id="4418c6246a"><path d="M 2.660156 8.324219 L 27.339844 8.324219 C 28.542969 8.324219 29.515625 9.300781 29.515625 10.503906 L 29.515625 18.53125 C 29.515625 19.730469 28.542969 20.707031 27.339844 20.707031 L 2.660156 20.707031 C 1.457031 20.707031 0.484375 19.730469 0.484375 18.53125 L 0.484375 10.503906 C 0.484375 9.300781 1.457031 8.324219 2.660156 8.324219 Z M 2.660156 8.324219 " clip-rule="nonzero"/></clipPath><clipPath id="ba626b7a57"><path d="M 0.484375 0.324219 L 29.515625 0.324219 L 29.515625 12.707031 L 0.484375 12.707031 Z M 0.484375 0.324219 " clip-rule="nonzero"/></clipPath><clipPath id="66f99184f3"><path d="M 2.660156 0.324219 L 27.339844 0.324219 C 28.542969 0.324219 29.515625 1.300781 29.515625 2.503906 L 29.515625 10.53125 C 29.515625 11.730469 28.542969 12.707031 27.339844 12.707031 L 2.660156 12.707031 C 1.457031 12.707031 0.484375 11.730469 0.484375 10.53125 L 0.484375 2.503906 C 0.484375 1.300781 1.457031 0.324219 2.660156 0.324219 Z M 2.660156 0.324219 " clip-rule="nonzero"/></clipPath><clipPath id="2fd050bb1c"><rect x="0" width="30" y="0" height="13"/></clipPath><clipPath id="cabe50589c"><path d="M 0.496094 8.324219 L 29.515625 8.324219 L 29.515625 20.664062 L 0.496094 20.664062 Z M 0.496094 8.324219 " clip-rule="nonzero"/></clipPath><clipPath id="90c757e06d"><path d="M 2.671875 8.324219 L 27.328125 8.324219 C 28.53125 8.324219 29.503906 9.300781 29.503906 10.5 L 29.503906 18.523438 C 29.503906 19.722656 28.53125 20.699219 27.328125 20.699219 L 2.671875 20.699219 C 1.46875 20.699219 0.496094 19.722656 0.496094 18.523438 L 0.496094 10.5 C 0.496094 9.300781 1.46875 8.324219 2.671875 8.324219 Z M 2.671875 8.324219 " clip-rule="nonzero"/></clipPath><clipPath id="143009cc95"><path d="M 4.230469 11.570312 L 12.214844 11.570312 L 12.214844 17.375 L 4.230469 17.375 Z M 4.230469 11.570312 " clip-rule="nonzero"/></clipPath></defs><g clip-path="url(#624e1223d5)"><g clip-path="url(#4418c6246a)"><g transform="matrix(1, 0, 0, 1, 0, 8)"><g clip-path="url(#2fd050bb1c)"><g clip-path="url(#ba626b7a57)"><g clip-path="url(#66f99184f3)"><path fill="#feefff" d="M 0.484375 0.324219 L 29.503906 0.324219 L 29.503906 12.707031 L 0.484375 12.707031 Z M 0.484375 0.324219 " fill-opacity="1" fill-rule="nonzero"/></g></g></g></g></g></g><g clip-path="url(#cabe50589c)"><g clip-path="url(#90c757e06d)"><path stroke-linecap="butt" transform="matrix(0.725806, 0, 0, 0.725806, 0.494144, 8.325385)" fill="none" stroke-linejoin="miter" d="M 3.00043 -0.00160632 L 36.971266 -0.00160632 C 38.628905 -0.00160632 39.969009 1.34388 39.969009 2.996137 L 39.969009 14.050652 C 39.969009 15.702909 38.628905 17.048395 36.971266 17.048395 L 3.00043 17.048395 C 1.342791 17.048395 0.00268686 15.702909 0.00268686 14.050652 L 0.00268686 2.996137 C 0.00268686 1.34388 1.342791 -0.00160632 3.00043 -0.00160632 Z M 3.00043 -0.00160632 " stroke="#dd3d93" stroke-width="2" stroke-opacity="1" stroke-miterlimit="4"/></g></g><g fill="#000000" fill-opacity="1"><g transform="translate(4.600554, 16.309256)"><g/></g></g><g fill="#000000" fill-opacity="1"><g transform="translate(5.736576, 16.309256)"><g/></g></g><g fill="#000000" fill-opacity="1"><g transform="translate(6.872597, 16.309256)"><g/></g></g><g fill="#000000" fill-opacity="1"><g transform="translate(8.008619, 16.309256)"><g/></g></g><g fill="#000000" fill-opacity="1"><g transform="translate(9.144641, 16.309256)"><g/></g></g><g fill="#000000" fill-opacity="1"><g transform="translate(10.280663, 16.309256)"><g/></g></g><g fill="#000000" fill-opacity="1"><g transform="translate(11.416684, 16.309256)"><g/></g></g><g fill="#000000" fill-opacity="1"><g transform="translate(12.552706, 16.309256)"><g/></g></g><g fill="#dd3d93" fill-opacity="1"><g transform="translate(13.695816, 16.309256)"><g><path d="M 0.3125 0 L 0.3125 -3 L 1.375 -3 C 1.582031 -3 1.753906 -2.96875 1.890625 -2.90625 C 2.035156 -2.84375 2.140625 -2.75 2.203125 -2.625 C 2.273438 -2.507812 2.3125 -2.382812 2.3125 -2.25 C 2.3125 -2.050781 2.257812 -1.894531 2.15625 -1.78125 C 2.050781 -1.664062 1.925781 -1.585938 1.78125 -1.546875 C 1.894531 -1.523438 1.992188 -1.476562 2.078125 -1.40625 C 2.171875 -1.34375 2.242188 -1.257812 2.296875 -1.15625 C 2.359375 -1.050781 2.390625 -0.941406 2.390625 -0.828125 C 2.390625 -0.671875 2.347656 -0.53125 2.265625 -0.40625 C 2.191406 -0.28125 2.082031 -0.179688 1.9375 -0.109375 C 1.789062 -0.0351562 1.613281 0 1.40625 0 Z M 0.671875 -1.6875 L 1.34375 -1.6875 C 1.539062 -1.6875 1.691406 -1.734375 1.796875 -1.828125 C 1.898438 -1.921875 1.953125 -2.046875 1.953125 -2.203125 C 1.953125 -2.359375 1.898438 -2.476562 1.796875 -2.5625 C 1.691406 -2.65625 1.539062 -2.703125 1.34375 -2.703125 L 0.671875 -2.703125 Z M 0.671875 -0.296875 L 1.375 -0.296875 C 1.582031 -0.296875 1.738281 -0.34375 1.84375 -0.4375 C 1.957031 -0.539062 2.015625 -0.675781 2.015625 -0.84375 C 2.015625 -1.007812 1.953125 -1.144531 1.828125 -1.25 C 1.710938 -1.351562 1.554688 -1.40625 1.359375 -1.40625 L 0.671875 -1.40625 Z M 0.671875 -0.296875 "/></g></g></g><g fill="#dd3d93" fill-opacity="1"><g transform="translate(16.276507, 16.309256)"><g><path d="M 1.265625 0.046875 C 1.066406 0.046875 0.882812 0.00390625 0.71875 -0.078125 C 0.5625 -0.171875 0.4375 -0.300781 0.34375 -0.46875 C 0.25 -0.632812 0.203125 -0.832031 0.203125 -1.0625 C 0.203125 -1.289062 0.25 -1.488281 0.34375 -1.65625 C 0.4375 -1.820312 0.5625 -1.953125 0.71875 -2.046875 C 0.882812 -2.140625 1.070312 -2.1875 1.28125 -2.1875 C 1.476562 -2.1875 1.65625 -2.140625 1.8125 -2.046875 C 1.976562 -1.953125 2.109375 -1.820312 2.203125 -1.65625 C 2.296875 -1.488281 2.34375 -1.289062 2.34375 -1.0625 C 2.34375 -0.832031 2.289062 -0.632812 2.1875 -0.46875 C 2.09375 -0.300781 1.960938 -0.171875 1.796875 -0.078125 C 1.640625 0.00390625 1.460938 0.046875 1.265625 0.046875 Z M 1.265625 -0.25 C 1.390625 -0.25 1.503906 -0.28125 1.609375 -0.34375 C 1.710938 -0.40625 1.796875 -0.492188 1.859375 -0.609375 C 1.929688 -0.734375 1.96875 -0.882812 1.96875 -1.0625 C 1.96875 -1.238281 1.9375 -1.382812 1.875 -1.5 C 1.8125 -1.625 1.722656 -1.71875 1.609375 -1.78125 C 1.503906 -1.84375 1.394531 -1.875 1.28125 -1.875 C 1.15625 -1.875 1.035156 -1.84375 0.921875 -1.78125 C 0.816406 -1.71875 0.734375 -1.625 0.671875 -1.5 C 0.609375 -1.382812 0.578125 -1.238281 0.578125 -1.0625 C 0.578125 -0.882812 0.609375 -0.734375 0.671875 -0.609375 C 0.734375 -0.492188 0.816406 -0.40625 0.921875 -0.34375 C 1.035156 -0.28125 1.148438 -0.25 1.265625 -0.25 Z M 1.265625 -0.25 "/></g></g></g><g fill="#dd3d93" fill-opacity="1"><g transform="translate(18.814326, 16.309256)"><g><path d="M 1.265625 0.046875 C 1.066406 0.046875 0.882812 0.00390625 0.71875 -0.078125 C 0.5625 -0.171875 0.4375 -0.300781 0.34375 -0.46875 C 0.25 -0.632812 0.203125 -0.832031 0.203125 -1.0625 C 0.203125 -1.289062 0.25 -1.488281 0.34375 -1.65625 C 0.4375 -1.820312 0.5625 -1.953125 0.71875 -2.046875 C 0.882812 -2.140625 1.070312 -2.1875 1.28125 -2.1875 C 1.476562 -2.1875 1.65625 -2.140625 1.8125 -2.046875 C 1.976562 -1.953125 2.109375 -1.820312 2.203125 -1.65625 C 2.296875 -1.488281 2.34375 -1.289062 2.34375 -1.0625 C 2.34375 -0.832031 2.289062 -0.632812 2.1875 -0.46875 C 2.09375 -0.300781 1.960938 -0.171875 1.796875 -0.078125 C 1.640625 0.00390625 1.460938 0.046875 1.265625 0.046875 Z M 1.265625 -0.25 C 1.390625 -0.25 1.503906 -0.28125 1.609375 -0.34375 C 1.710938 -0.40625 1.796875 -0.492188 1.859375 -0.609375 C 1.929688 -0.734375 1.96875 -0.882812 1.96875 -1.0625 C 1.96875 -1.238281 1.9375 -1.382812 1.875 -1.5 C 1.8125 -1.625 1.722656 -1.71875 1.609375 -1.78125 C 1.503906 -1.84375 1.394531 -1.875 1.28125 -1.875 C 1.15625 -1.875 1.035156 -1.84375 0.921875 -1.78125 C 0.816406 -1.71875 0.734375 -1.625 0.671875 -1.5 C 0.609375 -1.382812 0.578125 -1.238281 0.578125 -1.0625 C 0.578125 -0.882812 0.609375 -0.734375 0.671875 -0.609375 C 0.734375 -0.492188 0.816406 -0.40625 0.921875 -0.34375 C 1.035156 -0.28125 1.148438 -0.25 1.265625 -0.25 Z M 1.265625 -0.25 "/></g></g></g><g fill="#dd3d93" fill-opacity="1"><g transform="translate(21.266359, 16.309256)"><g><path d="M 1.140625 0 C 0.941406 0 0.785156 -0.046875 0.671875 -0.140625 C 0.566406 -0.234375 0.515625 -0.40625 0.515625 -0.65625 L 0.515625 -1.828125 L 0.140625 -1.828125 L 0.140625 -2.125 L 0.515625 -2.125 L 0.5625 -2.640625 L 0.875 -2.640625 L 0.875 -2.125 L 1.5 -2.125 L 1.5 -1.828125 L 0.875 -1.828125 L 0.875 -0.65625 C 0.875 -0.519531 0.898438 -0.425781 0.953125 -0.375 C 1.003906 -0.332031 1.097656 -0.3125 1.234375 -0.3125 L 1.46875 -0.3125 L 1.46875 0 Z M 1.140625 0 "/></g></g></g><g fill="#dd3d93" fill-opacity="1"><g transform="translate(22.925372, 16.309256)"><g><path d="M 0.296875 0 L 0.296875 -3.09375 L 0.65625 -3.09375 L 0.65625 -1.765625 C 0.726562 -1.898438 0.828125 -2.003906 0.953125 -2.078125 C 1.085938 -2.148438 1.234375 -2.1875 1.390625 -2.1875 C 1.640625 -2.1875 1.835938 -2.109375 1.984375 -1.953125 C 2.128906 -1.796875 2.203125 -1.5625 2.203125 -1.25 L 2.203125 0 L 1.859375 0 L 1.859375 -1.203125 C 1.859375 -1.648438 1.675781 -1.875 1.3125 -1.875 C 1.125 -1.875 0.96875 -1.804688 0.84375 -1.671875 C 0.71875 -1.535156 0.65625 -1.347656 0.65625 -1.109375 L 0.65625 0 Z M 0.296875 0 "/></g></g></g><g clip-path="url(#143009cc95)"><path fill="#dd3d93" d="M 11.570312 12.839844 L 10.152344 12.839844 L 9.65625 11.925781 C 9.535156 11.699219 9.34375 11.585938 9.089844 11.585938 L 7.445312 11.585938 C 7.183594 11.585938 6.992188 11.703125 6.871094 11.933594 L 6.398438 12.839844 L 6.085938 12.839844 C 6.082031 12.710938 6.011719 12.644531 5.882812 12.644531 L 5.773438 12.644531 C 5.753906 12.597656 5.71875 12.570312 5.664062 12.570312 L 5.367188 12.570312 C 5.3125 12.570312 5.277344 12.597656 5.257812 12.644531 L 5.152344 12.644531 C 5.019531 12.644531 4.953125 12.710938 4.949219 12.839844 C 4.75 12.84375 4.582031 12.914062 4.441406 13.054688 C 4.300781 13.199219 4.230469 13.367188 4.230469 13.566406 L 4.230469 16.71875 C 4.230469 16.917969 4.300781 17.089844 4.445312 17.230469 C 4.585938 17.371094 4.757812 17.441406 4.957031 17.441406 L 11.570312 17.441406 C 11.769531 17.441406 11.941406 17.371094 12.082031 17.230469 C 12.222656 17.089844 12.292969 16.917969 12.292969 16.71875 L 12.292969 13.5625 C 12.292969 13.363281 12.222656 13.191406 12.082031 13.050781 C 11.9375 12.910156 11.769531 12.839844 11.570312 12.839844 Z M 8.261719 16.871094 C 8 16.871094 7.75 16.824219 7.507812 16.722656 C 7.265625 16.621094 7.054688 16.480469 6.867188 16.296875 C 6.683594 16.109375 6.542969 15.898438 6.441406 15.65625 C 6.339844 15.414062 6.289062 15.164062 6.289062 14.902344 C 6.289062 14.640625 6.339844 14.386719 6.441406 14.148438 C 6.539062 13.90625 6.683594 13.691406 6.867188 13.507812 C 7.050781 13.320312 7.265625 13.179688 7.507812 13.078125 C 7.75 12.980469 8 12.929688 8.261719 12.929688 C 8.523438 12.929688 8.773438 12.980469 9.015625 13.078125 C 9.257812 13.179688 9.472656 13.320312 9.65625 13.507812 C 9.839844 13.691406 9.984375 13.90625 10.082031 14.144531 C 10.183594 14.386719 10.234375 14.640625 10.234375 14.902344 C 10.234375 15.164062 10.183594 15.414062 10.082031 15.65625 C 9.984375 15.898438 9.839844 16.109375 9.65625 16.292969 C 9.472656 16.480469 9.257812 16.621094 9.015625 16.722656 C 8.777344 16.820312 8.523438 16.871094 8.261719 16.871094 Z M 11.546875 13.976562 C 11.457031 13.976562 11.378906 13.945312 11.316406 13.878906 C 11.25 13.816406 11.21875 13.738281 11.21875 13.644531 C 11.21875 13.554688 11.25 13.476562 11.316406 13.414062 C 11.378906 13.347656 11.457031 13.316406 11.546875 13.316406 C 11.636719 13.316406 11.714844 13.347656 11.78125 13.414062 C 11.84375 13.476562 11.875 13.554688 11.875 13.648438 C 11.875 13.738281 11.84375 13.816406 11.78125 13.878906 C 11.714844 13.941406 11.636719 13.976562 11.546875 13.976562 Z M 11.546875 13.976562 " fill-opacity="1" fill-rule="nonzero"/></g><path fill="#dd3d93" d="M 9.636719 14.902344 C 9.636719 15.082031 9.601562 15.257812 9.53125 15.425781 C 9.460938 15.59375 9.363281 15.742188 9.234375 15.871094 C 9.105469 16 8.957031 16.101562 8.789062 16.171875 C 8.621094 16.238281 8.445312 16.273438 8.261719 16.273438 C 8.082031 16.273438 7.90625 16.238281 7.738281 16.171875 C 7.570312 16.101562 7.421875 16 7.292969 15.871094 C 7.164062 15.742188 7.0625 15.59375 6.992188 15.425781 C 6.925781 15.257812 6.890625 15.082031 6.890625 14.902344 C 6.890625 14.71875 6.925781 14.542969 6.992188 14.375 C 7.0625 14.207031 7.164062 14.058594 7.292969 13.929688 C 7.421875 13.800781 7.570312 13.699219 7.738281 13.632812 C 7.90625 13.5625 8.082031 13.527344 8.261719 13.527344 C 8.445312 13.527344 8.621094 13.5625 8.789062 13.632812 C 8.957031 13.699219 9.105469 13.800781 9.234375 13.929688 C 9.363281 14.058594 9.460938 14.207031 9.53125 14.375 C 9.601562 14.542969 9.636719 14.71875 9.636719 14.902344 Z M 9.636719 14.902344 " fill-opacity="1" fill-rule="nonzero"/></svg>