<svg xmlns="http://www.w3.org/2000/svg" xmlns:xlink="http://www.w3.org/1999/xlink" width="40" zoomAndPan="magnify" viewBox="0 0 30 30.000001" height="40" preserveAspectRatio="xMidYMid meet" version="1.0"><defs><g/><clipPath id="a8ea63be63"><path d="M 0.484375 10.671875 L 29.515625 10.671875 L 29.515625 18.359375 L 0.484375 18.359375 Z M 0.484375 10.671875 " clip-rule="nonzero"/></clipPath><clipPath id="a0ff1c9e7e"><path d="M 4.328125 10.671875 L 25.671875 10.671875 C 26.691406 10.671875 27.667969 11.078125 28.390625 11.796875 C 29.109375 12.519531 29.515625 13.496094 29.515625 14.515625 C 29.515625 15.535156 29.109375 16.511719 28.390625 17.234375 C 27.667969 17.953125 26.691406 18.359375 25.671875 18.359375 L 4.328125 18.359375 C 3.308594 18.359375 2.332031 17.953125 1.609375 17.234375 C 0.890625 16.511719 0.484375 15.535156 0.484375 14.515625 C 0.484375 13.496094 0.890625 12.519531 1.609375 11.796875 C 2.332031 11.078125 3.308594 10.671875 4.328125 10.671875 Z M 4.328125 10.671875 " clip-rule="nonzero"/></clipPath><clipPath id="37715e8792"><path d="M 0.484375 0.671875 L 29.515625 0.671875 L 29.515625 8.359375 L 0.484375 8.359375 Z M 0.484375 0.671875 " clip-rule="nonzero"/></clipPath><clipPath id="9fd7e90ae6"><path d="M 4.328125 0.671875 L 25.671875 0.671875 C 26.691406 0.671875 27.667969 1.078125 28.390625 1.796875 C 29.109375 2.519531 29.515625 3.496094 29.515625 4.515625 C 29.515625 5.535156 29.109375 6.511719 28.390625 7.234375 C 27.667969 7.953125 26.691406 8.359375 25.671875 8.359375 L 4.328125 8.359375 C 3.308594 8.359375 2.332031 7.953125 1.609375 7.234375 C 0.890625 6.511719 0.484375 5.535156 0.484375 4.515625 C 0.484375 3.496094 0.890625 2.519531 1.609375 1.796875 C 2.332031 1.078125 3.308594 0.671875 4.328125 0.671875 Z M 4.328125 0.671875 " clip-rule="nonzero"/></clipPath><linearGradient x1="0.00512695" gradientTransform="matrix(0.0300237, 0, 0, 0.0300237, 0.483717, 0.673106)" y1="128" x2="966.979" gradientUnits="userSpaceOnUse" y2="128" id="a937bafa68"><stop stop-opacity="1" stop-color="rgb(100%, 39.99939%, 76.858521%)" offset="0"/><stop stop-opacity="1" stop-color="rgb(100%, 40.182495%, 76.693726%)" offset="0.0078125"/><stop stop-opacity="1" stop-color="rgb(100%, 40.550232%, 76.367188%)" offset="0.015625"/><stop stop-opacity="1" stop-color="rgb(100%, 40.917969%, 76.039124%)" offset="0.0234375"/><stop stop-opacity="1" stop-color="rgb(100%, 41.285706%, 75.71106%)" offset="0.03125"/><stop stop-opacity="1" stop-color="rgb(100%, 41.653442%, 75.382996%)" offset="0.0390625"/><stop stop-opacity="1" stop-color="rgb(100%, 42.021179%, 75.054932%)" offset="0.046875"/><stop stop-opacity="1" stop-color="rgb(100%, 42.388916%, 74.726868%)" offset="0.0546875"/><stop stop-opacity="1" stop-color="rgb(100%, 42.756653%, 74.40033%)" offset="0.0625"/><stop stop-opacity="1" stop-color="rgb(100%, 43.12439%, 74.072266%)" offset="0.0703125"/><stop stop-opacity="1" stop-color="rgb(100%, 43.492126%, 73.744202%)" offset="0.078125"/><stop stop-opacity="1" stop-color="rgb(100%, 43.859863%, 73.416138%)" offset="0.0859375"/><stop stop-opacity="1" stop-color="rgb(100%, 44.226074%, 73.088074%)" offset="0.09375"/><stop stop-opacity="1" stop-color="rgb(100%, 44.593811%, 72.76001%)" offset="0.101563"/><stop stop-opacity="1" stop-color="rgb(100%, 44.961548%, 72.433472%)" offset="0.109375"/><stop stop-opacity="1" stop-color="rgb(100%, 45.329285%, 72.105408%)" offset="0.117188"/><stop stop-opacity="1" stop-color="rgb(100%, 45.697021%, 71.777344%)" offset="0.125"/><stop stop-opacity="1" stop-color="rgb(100%, 46.064758%, 71.44928%)" offset="0.132813"/><stop stop-opacity="1" stop-color="rgb(100%, 46.432495%, 71.121216%)" offset="0.140625"/><stop stop-opacity="1" stop-color="rgb(100%, 46.800232%, 70.793152%)" offset="0.148438"/><stop stop-opacity="1" stop-color="rgb(100%, 47.167969%, 70.466614%)" offset="0.15625"/><stop stop-opacity="1" stop-color="rgb(100%, 47.535706%, 70.13855%)" offset="0.164063"/><stop stop-opacity="1" stop-color="rgb(100%, 47.903442%, 69.810486%)" offset="0.171875"/><stop stop-opacity="1" stop-color="rgb(100%, 48.271179%, 69.482422%)" offset="0.179688"/><stop stop-opacity="1" stop-color="rgb(100%, 48.638916%, 69.154358%)" offset="0.1875"/><stop stop-opacity="1" stop-color="rgb(100%, 49.006653%, 68.826294%)" offset="0.195313"/><stop stop-opacity="1" stop-color="rgb(100%, 49.37439%, 68.499756%)" offset="0.203125"/><stop stop-opacity="1" stop-color="rgb(100%, 49.742126%, 68.171692%)" offset="0.210938"/><stop stop-opacity="1" stop-color="rgb(100%, 50.109863%, 67.843628%)" offset="0.21875"/><stop stop-opacity="1" stop-color="rgb(100%, 50.4776%, 67.515564%)" offset="0.226563"/><stop stop-opacity="1" stop-color="rgb(100%, 50.843811%, 67.1875%)" offset="0.234375"/><stop stop-opacity="1" stop-color="rgb(100%, 51.211548%, 66.859436%)" offset="0.242188"/><stop stop-opacity="1" stop-color="rgb(100%, 51.579285%, 66.532898%)" offset="0.25"/><stop stop-opacity="1" stop-color="rgb(100%, 51.947021%, 66.204834%)" offset="0.257813"/><stop stop-opacity="1" stop-color="rgb(100%, 52.314758%, 65.87677%)" offset="0.265625"/><stop stop-opacity="1" stop-color="rgb(100%, 52.682495%, 65.548706%)" offset="0.273438"/><stop stop-opacity="1" stop-color="rgb(100%, 53.050232%, 65.220642%)" offset="0.28125"/><stop stop-opacity="1" stop-color="rgb(100%, 53.417969%, 64.892578%)" offset="0.289063"/><stop stop-opacity="1" stop-color="rgb(100%, 53.785706%, 64.56604%)" offset="0.296875"/><stop stop-opacity="1" stop-color="rgb(100%, 54.153442%, 64.237976%)" offset="0.304688"/><stop stop-opacity="1" stop-color="rgb(100%, 54.521179%, 63.909912%)" offset="0.3125"/><stop stop-opacity="1" stop-color="rgb(100%, 54.888916%, 63.581848%)" offset="0.320312"/><stop stop-opacity="1" stop-color="rgb(100%, 55.256653%, 63.253784%)" offset="0.328125"/><stop stop-opacity="1" stop-color="rgb(100%, 55.62439%, 62.92572%)" offset="0.335938"/><stop stop-opacity="1" stop-color="rgb(100%, 55.992126%, 62.599182%)" offset="0.34375"/><stop stop-opacity="1" stop-color="rgb(100%, 56.359863%, 62.271118%)" offset="0.351563"/><stop stop-opacity="1" stop-color="rgb(100%, 56.7276%, 61.943054%)" offset="0.359375"/><stop stop-opacity="1" stop-color="rgb(100%, 57.095337%, 61.61499%)" offset="0.367188"/><stop stop-opacity="1" stop-color="rgb(100%, 57.463074%, 61.286926%)" offset="0.375"/><stop stop-opacity="1" stop-color="rgb(100%, 57.829285%, 60.958862%)" offset="0.382813"/><stop stop-opacity="1" stop-color="rgb(100%, 58.197021%, 60.632324%)" offset="0.390625"/><stop stop-opacity="1" stop-color="rgb(100%, 58.564758%, 60.30426%)" offset="0.398438"/><stop stop-opacity="1" stop-color="rgb(100%, 58.932495%, 59.976196%)" offset="0.40625"/><stop stop-opacity="1" stop-color="rgb(100%, 59.300232%, 59.648132%)" offset="0.414062"/><stop stop-opacity="1" stop-color="rgb(100%, 59.667969%, 59.320068%)" offset="0.421875"/><stop stop-opacity="1" stop-color="rgb(100%, 60.035706%, 58.992004%)" offset="0.429688"/><stop stop-opacity="1" stop-color="rgb(100%, 60.403442%, 58.665466%)" offset="0.4375"/><stop stop-opacity="1" stop-color="rgb(100%, 60.771179%, 58.337402%)" offset="0.445313"/><stop stop-opacity="1" stop-color="rgb(100%, 61.138916%, 58.009338%)" offset="0.453125"/><stop stop-opacity="1" stop-color="rgb(100%, 61.506653%, 57.681274%)" offset="0.460938"/><stop stop-opacity="1" stop-color="rgb(100%, 61.87439%, 57.35321%)" offset="0.46875"/><stop stop-opacity="1" stop-color="rgb(100%, 62.242126%, 57.025146%)" offset="0.476563"/><stop stop-opacity="1" stop-color="rgb(100%, 62.609863%, 56.698608%)" offset="0.484375"/><stop stop-opacity="1" stop-color="rgb(100%, 62.9776%, 56.370544%)" offset="0.492188"/><stop stop-opacity="1" stop-color="rgb(100%, 63.345337%, 56.04248%)" offset="0.5"/><stop stop-opacity="1" stop-color="rgb(100%, 63.713074%, 55.714417%)" offset="0.507812"/><stop stop-opacity="1" stop-color="rgb(100%, 64.080811%, 55.386353%)" offset="0.515625"/><stop stop-opacity="1" stop-color="rgb(100%, 64.447021%, 55.058289%)" offset="0.523438"/><stop stop-opacity="1" stop-color="rgb(100%, 64.814758%, 54.73175%)" offset="0.53125"/><stop stop-opacity="1" stop-color="rgb(100%, 65.182495%, 54.403687%)" offset="0.539062"/><stop stop-opacity="1" stop-color="rgb(100%, 65.550232%, 54.075623%)" offset="0.546875"/><stop stop-opacity="1" stop-color="rgb(100%, 65.917969%, 53.747559%)" offset="0.554687"/><stop stop-opacity="1" stop-color="rgb(100%, 66.285706%, 53.419495%)" offset="0.5625"/><stop stop-opacity="1" stop-color="rgb(100%, 66.653442%, 53.091431%)" offset="0.570313"/><stop stop-opacity="1" stop-color="rgb(100%, 67.021179%, 52.764893%)" offset="0.578125"/><stop stop-opacity="1" stop-color="rgb(100%, 67.388916%, 52.436829%)" offset="0.585938"/><stop stop-opacity="1" stop-color="rgb(100%, 67.756653%, 52.108765%)" offset="0.59375"/><stop stop-opacity="1" stop-color="rgb(100%, 68.12439%, 51.780701%)" offset="0.601562"/><stop stop-opacity="1" stop-color="rgb(100%, 68.492126%, 51.452637%)" offset="0.609375"/><stop stop-opacity="1" stop-color="rgb(100%, 68.859863%, 51.124573%)" offset="0.617188"/><stop stop-opacity="1" stop-color="rgb(100%, 69.2276%, 50.798035%)" offset="0.625"/><stop stop-opacity="1" stop-color="rgb(100%, 69.595337%, 50.469971%)" offset="0.632812"/><stop stop-opacity="1" stop-color="rgb(100%, 69.963074%, 50.141907%)" offset="0.640625"/><stop stop-opacity="1" stop-color="rgb(100%, 70.330811%, 49.813843%)" offset="0.648437"/><stop stop-opacity="1" stop-color="rgb(100%, 70.698547%, 49.485779%)" offset="0.65625"/><stop stop-opacity="1" stop-color="rgb(100%, 71.066284%, 49.157715%)" offset="0.664063"/><stop stop-opacity="1" stop-color="rgb(100%, 71.432495%, 48.831177%)" offset="0.671875"/><stop stop-opacity="1" stop-color="rgb(100%, 71.800232%, 48.503113%)" offset="0.679688"/><stop stop-opacity="1" stop-color="rgb(100%, 72.167969%, 48.175049%)" offset="0.6875"/><stop stop-opacity="1" stop-color="rgb(100%, 72.535706%, 47.846985%)" offset="0.695312"/><stop stop-opacity="1" stop-color="rgb(100%, 72.903442%, 47.518921%)" offset="0.703125"/><stop stop-opacity="1" stop-color="rgb(100%, 73.271179%, 47.190857%)" offset="0.710938"/><stop stop-opacity="1" stop-color="rgb(100%, 73.638916%, 46.864319%)" offset="0.71875"/><stop stop-opacity="1" stop-color="rgb(100%, 74.006653%, 46.536255%)" offset="0.726562"/><stop stop-opacity="1" stop-color="rgb(100%, 74.37439%, 46.208191%)" offset="0.734375"/><stop stop-opacity="1" stop-color="rgb(100%, 74.742126%, 45.880127%)" offset="0.742187"/><stop stop-opacity="1" stop-color="rgb(100%, 75.109863%, 45.552063%)" offset="0.75"/><stop stop-opacity="1" stop-color="rgb(100%, 75.4776%, 45.223999%)" offset="0.757813"/><stop stop-opacity="1" stop-color="rgb(100%, 75.845337%, 44.897461%)" offset="0.765625"/><stop stop-opacity="1" stop-color="rgb(100%, 76.213074%, 44.569397%)" offset="0.773438"/><stop stop-opacity="1" stop-color="rgb(100%, 76.580811%, 44.241333%)" offset="0.78125"/><stop stop-opacity="1" stop-color="rgb(100%, 76.948547%, 43.913269%)" offset="0.789062"/><stop stop-opacity="1" stop-color="rgb(100%, 77.316284%, 43.585205%)" offset="0.796875"/><stop stop-opacity="1" stop-color="rgb(100%, 77.684021%, 43.257141%)" offset="0.804688"/><stop stop-opacity="1" stop-color="rgb(100%, 78.050232%, 42.930603%)" offset="0.8125"/><stop stop-opacity="1" stop-color="rgb(100%, 78.417969%, 42.602539%)" offset="0.820312"/><stop stop-opacity="1" stop-color="rgb(100%, 78.785706%, 42.274475%)" offset="0.828125"/><stop stop-opacity="1" stop-color="rgb(100%, 79.153442%, 41.946411%)" offset="0.835937"/><stop stop-opacity="1" stop-color="rgb(100%, 79.521179%, 41.618347%)" offset="0.84375"/><stop stop-opacity="1" stop-color="rgb(100%, 79.888916%, 41.290283%)" offset="0.851563"/><stop stop-opacity="1" stop-color="rgb(100%, 80.256653%, 40.963745%)" offset="0.859375"/><stop stop-opacity="1" stop-color="rgb(100%, 80.62439%, 40.635681%)" offset="0.867188"/><stop stop-opacity="1" stop-color="rgb(100%, 80.992126%, 40.307617%)" offset="0.875"/><stop stop-opacity="1" stop-color="rgb(100%, 81.359863%, 39.979553%)" offset="0.882812"/><stop stop-opacity="1" stop-color="rgb(100%, 81.7276%, 39.651489%)" offset="0.890625"/><stop stop-opacity="1" stop-color="rgb(100%, 82.095337%, 39.323425%)" offset="0.898438"/><stop stop-opacity="1" stop-color="rgb(100%, 82.463074%, 38.996887%)" offset="0.90625"/><stop stop-opacity="1" stop-color="rgb(100%, 82.830811%, 38.668823%)" offset="0.914062"/><stop stop-opacity="1" stop-color="rgb(100%, 83.198547%, 38.340759%)" offset="0.921875"/><stop stop-opacity="1" stop-color="rgb(100%, 83.566284%, 38.012695%)" offset="0.929687"/><stop stop-opacity="1" stop-color="rgb(100%, 83.934021%, 37.684631%)" offset="0.9375"/><stop stop-opacity="1" stop-color="rgb(100%, 84.301758%, 37.356567%)" offset="0.945313"/><stop stop-opacity="1" stop-color="rgb(100%, 84.669495%, 37.030029%)" offset="0.953125"/><stop stop-opacity="1" stop-color="rgb(100%, 85.035706%, 36.701965%)" offset="0.960938"/><stop stop-opacity="1" stop-color="rgb(100%, 85.403442%, 36.373901%)" offset="0.96875"/><stop stop-opacity="1" stop-color="rgb(100%, 85.771179%, 36.045837%)" offset="0.976562"/><stop stop-opacity="1" stop-color="rgb(100%, 86.138916%, 35.717773%)" offset="0.984375"/><stop stop-opacity="1" stop-color="rgb(100%, 86.506653%, 35.389709%)" offset="0.992188"/><stop stop-opacity="1" stop-color="rgb(100%, 86.87439%, 35.063171%)" offset="1"/></linearGradient><clipPath id="f4773bff0b"><rect x="0" width="30" y="0" height="9"/></clipPath><clipPath id="1d37bbd1b2"><path d="M 6.113281 12.757812 L 11 12.757812 L 11 16.386719 L 6.113281 16.386719 Z M 6.113281 12.757812 " clip-rule="nonzero"/></clipPath></defs><g clip-path="url(#a8ea63be63)"><g clip-path="url(#a0ff1c9e7e)"><g transform="matrix(1, 0, 0, 1, 0, 10)"><g clip-path="url(#f4773bff0b)"><g clip-path="url(#37715e8792)"><g clip-path="url(#9fd7e90ae6)"><path fill="url(#a937bafa68)" d="M 0.484375 0.671875 L 0.484375 8.359375 L 29.515625 8.359375 L 29.515625 0.671875 Z M 0.484375 0.671875 " fill-rule="nonzero"/></g></g></g></g></g></g><g fill="#ffffff" fill-opacity="1"><g transform="translate(6.284045, 14.302138)"><g/></g></g><g fill="#ffffff" fill-opacity="1"><g transform="translate(7.346385, 14.302138)"><g/></g></g><g fill="#ffffff" fill-opacity="1"><g transform="translate(8.408725, 14.302138)"><g/></g></g><g fill="#ffffff" fill-opacity="1"><g transform="translate(9.471066, 14.302138)"><g/></g></g><g fill="#ffffff" fill-opacity="1"><g transform="translate(10.533406, 14.302138)"><g/></g></g><g fill="#ffffff" fill-opacity="1"><g transform="translate(11.595746, 14.302138)"><g/></g></g><g fill="#ffffff" fill-opacity="1"><g transform="translate(12.668873, 14.302138)"><g><path d="M 1 0.046875 C 0.832031 0.046875 0.6875 0.015625 0.5625 -0.046875 C 0.4375 -0.109375 0.332031 -0.191406 0.25 -0.296875 C 0.175781 -0.398438 0.140625 -0.53125 0.140625 -0.6875 L 0.578125 -0.6875 C 0.585938 -0.582031 0.628906 -0.492188 0.703125 -0.421875 C 0.773438 -0.347656 0.875 -0.3125 1 -0.3125 C 1.113281 -0.3125 1.203125 -0.335938 1.265625 -0.390625 C 1.335938 -0.441406 1.375 -0.515625 1.375 -0.609375 C 1.375 -0.703125 1.34375 -0.773438 1.28125 -0.828125 C 1.21875 -0.878906 1.140625 -0.921875 1.046875 -0.953125 C 0.953125 -0.984375 0.847656 -1.019531 0.734375 -1.0625 C 0.554688 -1.125 0.421875 -1.203125 0.328125 -1.296875 C 0.242188 -1.390625 0.203125 -1.519531 0.203125 -1.6875 C 0.191406 -1.820312 0.21875 -1.9375 0.28125 -2.03125 C 0.351562 -2.125 0.445312 -2.195312 0.5625 -2.25 C 0.675781 -2.3125 0.8125 -2.34375 0.96875 -2.34375 C 1.125 -2.34375 1.257812 -2.3125 1.375 -2.25 C 1.488281 -2.195312 1.578125 -2.117188 1.640625 -2.015625 C 1.710938 -1.921875 1.75 -1.804688 1.75 -1.671875 L 1.3125 -1.671875 C 1.300781 -1.753906 1.265625 -1.828125 1.203125 -1.890625 C 1.148438 -1.953125 1.070312 -1.984375 0.96875 -1.984375 C 0.875 -1.984375 0.796875 -1.957031 0.734375 -1.90625 C 0.671875 -1.863281 0.640625 -1.796875 0.640625 -1.703125 C 0.640625 -1.628906 0.660156 -1.566406 0.703125 -1.515625 C 0.753906 -1.472656 0.820312 -1.4375 0.90625 -1.40625 C 0.988281 -1.382812 1.082031 -1.351562 1.1875 -1.3125 C 1.300781 -1.269531 1.40625 -1.222656 1.5 -1.171875 C 1.59375 -1.117188 1.664062 -1.050781 1.71875 -0.96875 C 1.78125 -0.882812 1.8125 -0.773438 1.8125 -0.640625 C 1.8125 -0.515625 1.78125 -0.398438 1.71875 -0.296875 C 1.65625 -0.191406 1.5625 -0.109375 1.4375 -0.046875 C 1.320312 0.015625 1.175781 0.046875 1 0.046875 Z M 1 0.046875 "/></g></g></g><g fill="#ffffff" fill-opacity="1"><g transform="translate(14.87831, 14.302138)"><g><path d="M 0.765625 0 L 0.765625 -1.953125 L 0.09375 -1.953125 L 0.09375 -2.296875 L 1.84375 -2.296875 L 1.84375 -1.953125 L 1.171875 -1.953125 L 1.171875 0 Z M 0.765625 0 "/></g></g></g><g fill="#ffffff" fill-opacity="1"><g transform="translate(16.854842, 14.302138)"><g><path d="M 0.078125 0 L 0.921875 -2.296875 L 1.390625 -2.296875 L 2.234375 0 L 1.78125 0 L 1.59375 -0.53125 L 0.703125 -0.53125 L 0.515625 0 Z M 0.8125 -0.859375 L 1.484375 -0.859375 L 1.15625 -1.8125 Z M 0.8125 -0.859375 "/></g></g></g><g fill="#ffffff" fill-opacity="1"><g transform="translate(19.434657, 14.302138)"><g><path d="M 0.21875 0 L 0.21875 -2.296875 L 1.0625 -2.296875 C 1.25 -2.296875 1.398438 -2.265625 1.515625 -2.203125 C 1.640625 -2.140625 1.726562 -2.054688 1.78125 -1.953125 C 1.84375 -1.847656 1.875 -1.726562 1.875 -1.59375 C 1.875 -1.457031 1.835938 -1.332031 1.765625 -1.21875 C 1.691406 -1.101562 1.578125 -1.019531 1.421875 -0.96875 L 1.90625 0 L 1.421875 0 L 0.984375 -0.90625 L 0.640625 -0.90625 L 0.640625 0 Z M 0.640625 -1.21875 L 1.046875 -1.21875 C 1.179688 -1.21875 1.28125 -1.25 1.34375 -1.3125 C 1.414062 -1.382812 1.453125 -1.472656 1.453125 -1.578125 C 1.453125 -1.691406 1.414062 -1.78125 1.34375 -1.84375 C 1.28125 -1.914062 1.175781 -1.953125 1.03125 -1.953125 L 0.640625 -1.953125 Z M 0.640625 -1.21875 "/></g></g></g><g fill="#ffffff" fill-opacity="1"><g transform="translate(21.758831, 14.302138)"><g><path d="M 0.765625 0 L 0.765625 -1.953125 L 0.09375 -1.953125 L 0.09375 -2.296875 L 1.84375 -2.296875 L 1.84375 -1.953125 L 1.171875 -1.953125 L 1.171875 0 Z M 0.765625 0 "/></g></g></g><g clip-path="url(#1d37bbd1b2)"><path fill="#f9d7e2" d="M 10.5 13.515625 L 9.652344 13.515625 L 9.355469 12.964844 C 9.285156 12.832031 9.171875 12.765625 9.019531 12.765625 L 8.035156 12.765625 C 7.878906 12.765625 7.765625 12.832031 7.691406 12.972656 L 7.410156 13.515625 L 7.222656 13.515625 C 7.21875 13.4375 7.179688 13.398438 7.101562 13.398438 L 7.035156 13.398438 C 7.023438 13.367188 7.003906 13.351562 6.96875 13.351562 L 6.792969 13.351562 C 6.761719 13.351562 6.738281 13.367188 6.726562 13.398438 L 6.664062 13.398438 C 6.585938 13.398438 6.546875 13.4375 6.542969 13.515625 C 6.425781 13.515625 6.324219 13.558594 6.238281 13.644531 C 6.15625 13.726562 6.113281 13.828125 6.113281 13.949219 L 6.113281 15.832031 C 6.113281 15.953125 6.15625 16.054688 6.242188 16.136719 C 6.324219 16.222656 6.429688 16.265625 6.546875 16.265625 L 10.5 16.265625 C 10.621094 16.265625 10.722656 16.222656 10.808594 16.136719 C 10.890625 16.054688 10.933594 15.953125 10.933594 15.832031 L 10.933594 13.945312 C 10.933594 13.828125 10.890625 13.726562 10.804688 13.640625 C 10.722656 13.554688 10.621094 13.515625 10.5 13.515625 Z M 8.523438 15.925781 C 8.367188 15.925781 8.21875 15.894531 8.074219 15.835938 C 7.929688 15.773438 7.800781 15.691406 7.691406 15.578125 C 7.578125 15.46875 7.496094 15.339844 7.433594 15.195312 C 7.375 15.054688 7.34375 14.902344 7.34375 14.746094 C 7.34375 14.589844 7.375 14.441406 7.433594 14.296875 C 7.496094 14.152344 7.578125 14.023438 7.691406 13.914062 C 7.800781 13.800781 7.929688 13.71875 8.074219 13.65625 C 8.21875 13.597656 8.367188 13.566406 8.523438 13.566406 C 8.679688 13.566406 8.828125 13.597656 8.972656 13.65625 C 9.117188 13.71875 9.246094 13.800781 9.355469 13.914062 C 9.46875 14.023438 9.550781 14.152344 9.613281 14.292969 C 9.671875 14.4375 9.703125 14.589844 9.703125 14.746094 C 9.703125 14.902344 9.671875 15.050781 9.613281 15.195312 C 9.550781 15.339844 9.46875 15.46875 9.355469 15.578125 C 9.246094 15.6875 9.121094 15.773438 8.976562 15.835938 C 8.832031 15.894531 8.679688 15.925781 8.523438 15.925781 Z M 10.488281 14.191406 C 10.355469 14.191406 10.289062 14.128906 10.289062 13.996094 C 10.289062 13.863281 10.355469 13.800781 10.488281 13.800781 C 10.617188 13.800781 10.683594 13.863281 10.683594 13.996094 C 10.683594 14.128906 10.617188 14.191406 10.488281 14.191406 Z M 10.488281 14.191406 " fill-opacity="1" fill-rule="nonzero"/></g><path fill="#f9d7e2" d="M 9.34375 14.746094 C 9.34375 14.972656 9.265625 15.167969 9.105469 15.328125 C 8.945312 15.488281 8.75 15.566406 8.523438 15.566406 C 8.296875 15.566406 8.105469 15.488281 7.941406 15.328125 C 7.78125 15.167969 7.703125 14.972656 7.703125 14.746094 C 7.703125 14.519531 7.78125 14.324219 7.941406 14.164062 C 8.105469 14.003906 8.296875 13.925781 8.523438 13.925781 C 8.75 13.925781 8.945312 14.003906 9.105469 14.164062 C 9.265625 14.324219 9.34375 14.519531 9.34375 14.746094 Z M 9.34375 14.746094 " fill-opacity="1" fill-rule="nonzero"/></svg>