<svg xmlns="http://www.w3.org/2000/svg" xmlns:xlink="http://www.w3.org/1999/xlink" width="40" zoomAndPan="magnify" viewBox="0 0 30 30.000001" height="40" preserveAspectRatio="xMidYMid meet" version="1.0"><defs><g/><clipPath id="da260b65b6"><path d="M 0.484375 10.671875 L 29.515625 10.671875 L 29.515625 18.359375 L 0.484375 18.359375 Z M 0.484375 10.671875 " clip-rule="nonzero"/></clipPath><clipPath id="2a1e69b06e"><path d="M 4.328125 10.671875 L 25.671875 10.671875 C 26.691406 10.671875 27.667969 11.078125 28.390625 11.796875 C 29.109375 12.519531 29.515625 13.496094 29.515625 14.515625 C 29.515625 15.535156 29.109375 16.511719 28.390625 17.234375 C 27.667969 17.953125 26.691406 18.359375 25.671875 18.359375 L 4.328125 18.359375 C 3.308594 18.359375 2.332031 17.953125 1.609375 17.234375 C 0.890625 16.511719 0.484375 15.535156 0.484375 14.515625 C 0.484375 13.496094 0.890625 12.519531 1.609375 11.796875 C 2.332031 11.078125 3.308594 10.671875 4.328125 10.671875 Z M 4.328125 10.671875 " clip-rule="nonzero"/></clipPath><clipPath id="9fa1def03d"><path d="M 0.484375 0.671875 L 29.515625 0.671875 L 29.515625 8.359375 L 0.484375 8.359375 Z M 0.484375 0.671875 " clip-rule="nonzero"/></clipPath><clipPath id="e2830eb4ab"><path d="M 4.328125 0.671875 L 25.671875 0.671875 C 26.691406 0.671875 27.667969 1.078125 28.390625 1.796875 C 29.109375 2.519531 29.515625 3.496094 29.515625 4.515625 C 29.515625 5.535156 29.109375 6.511719 28.390625 7.234375 C 27.667969 7.953125 26.691406 8.359375 25.671875 8.359375 L 4.328125 8.359375 C 3.308594 8.359375 2.332031 7.953125 1.609375 7.234375 C 0.890625 6.511719 0.484375 5.535156 0.484375 4.515625 C 0.484375 3.496094 0.890625 2.519531 1.609375 1.796875 C 2.332031 1.078125 3.308594 0.671875 4.328125 0.671875 Z M 4.328125 0.671875 " clip-rule="nonzero"/></clipPath><radialGradient gradientTransform="matrix(1, 0, 0, 1, 0.483717, 0.673102)" gradientUnits="userSpaceOnUse" r="15.016216" cx="14.516141" id="e4a3eeb516" cy="3.843029" fx="14.516141" fy="3.843029"><stop stop-opacity="1" stop-color="rgb(99.952698%, 30.725098%, 67.74292%)" offset="0"/><stop stop-opacity="1" stop-color="rgb(99.861145%, 30.995178%, 67.552185%)" offset="0.00390625"/><stop stop-opacity="1" stop-color="rgb(99.769592%, 31.266785%, 67.359924%)" offset="0.0078125"/><stop stop-opacity="1" stop-color="rgb(99.67804%, 31.538391%, 67.169189%)" offset="0.0117188"/><stop stop-opacity="1" stop-color="rgb(99.584961%, 31.808472%, 66.976929%)" offset="0.015625"/><stop stop-opacity="1" stop-color="rgb(99.493408%, 32.080078%, 66.786194%)" offset="0.0195312"/><stop stop-opacity="1" stop-color="rgb(99.401855%, 32.351685%, 66.593933%)" offset="0.0234375"/><stop stop-opacity="1" stop-color="rgb(99.310303%, 32.621765%, 66.403198%)" offset="0.0273438"/><stop stop-opacity="1" stop-color="rgb(99.217224%, 32.893372%, 66.210938%)" offset="0.03125"/><stop stop-opacity="1" stop-color="rgb(99.125671%, 33.164978%, 66.020203%)" offset="0.0351562"/><stop stop-opacity="1" stop-color="rgb(99.034119%, 33.436584%, 65.827942%)" offset="0.0390625"/><stop stop-opacity="1" stop-color="rgb(98.942566%, 33.706665%, 65.637207%)" offset="0.0429688"/><stop stop-opacity="1" stop-color="rgb(98.849487%, 33.978271%, 65.444946%)" offset="0.046875"/><stop stop-opacity="1" stop-color="rgb(98.757935%, 34.249878%, 65.254211%)" offset="0.0507812"/><stop stop-opacity="1" stop-color="rgb(98.666382%, 34.519958%, 65.061951%)" offset="0.0546875"/><stop stop-opacity="1" stop-color="rgb(98.574829%, 34.791565%, 64.871216%)" offset="0.0585938"/><stop stop-opacity="1" stop-color="rgb(98.48175%, 35.063171%, 64.678955%)" offset="0.0625"/><stop stop-opacity="1" stop-color="rgb(98.390198%, 35.333252%, 64.48822%)" offset="0.0664062"/><stop stop-opacity="1" stop-color="rgb(98.298645%, 35.604858%, 64.295959%)" offset="0.0703125"/><stop stop-opacity="1" stop-color="rgb(98.207092%, 35.876465%, 64.105225%)" offset="0.0742188"/><stop stop-opacity="1" stop-color="rgb(98.11554%, 36.146545%, 63.912964%)" offset="0.078125"/><stop stop-opacity="1" stop-color="rgb(98.022461%, 36.418152%, 63.722229%)" offset="0.0820312"/><stop stop-opacity="1" stop-color="rgb(97.930908%, 36.689758%, 63.529968%)" offset="0.0859375"/><stop stop-opacity="1" stop-color="rgb(97.839355%, 36.961365%, 63.339233%)" offset="0.0898438"/><stop stop-opacity="1" stop-color="rgb(97.747803%, 37.231445%, 63.146973%)" offset="0.09375"/><stop stop-opacity="1" stop-color="rgb(97.654724%, 37.503052%, 62.956238%)" offset="0.0976562"/><stop stop-opacity="1" stop-color="rgb(97.563171%, 37.774658%, 62.763977%)" offset="0.101562"/><stop stop-opacity="1" stop-color="rgb(97.471619%, 38.044739%, 62.573242%)" offset="0.105469"/><stop stop-opacity="1" stop-color="rgb(97.380066%, 38.316345%, 62.380981%)" offset="0.109375"/><stop stop-opacity="1" stop-color="rgb(97.286987%, 38.587952%, 62.190247%)" offset="0.113281"/><stop stop-opacity="1" stop-color="rgb(97.195435%, 38.858032%, 61.997986%)" offset="0.117188"/><stop stop-opacity="1" stop-color="rgb(97.103882%, 39.129639%, 61.807251%)" offset="0.121094"/><stop stop-opacity="1" stop-color="rgb(97.012329%, 39.401245%, 61.61499%)" offset="0.125"/><stop stop-opacity="1" stop-color="rgb(96.91925%, 39.671326%, 61.424255%)" offset="0.128906"/><stop stop-opacity="1" stop-color="rgb(96.827698%, 39.942932%, 61.231995%)" offset="0.132812"/><stop stop-opacity="1" stop-color="rgb(96.736145%, 40.214539%, 61.04126%)" offset="0.136719"/><stop stop-opacity="1" stop-color="rgb(96.644592%, 40.484619%, 60.848999%)" offset="0.140625"/><stop stop-opacity="1" stop-color="rgb(96.55304%, 40.756226%, 60.658264%)" offset="0.144531"/><stop stop-opacity="1" stop-color="rgb(96.459961%, 41.027832%, 60.466003%)" offset="0.148438"/><stop stop-opacity="1" stop-color="rgb(96.368408%, 41.299438%, 60.275269%)" offset="0.152344"/><stop stop-opacity="1" stop-color="rgb(96.276855%, 41.569519%, 60.083008%)" offset="0.15625"/><stop stop-opacity="1" stop-color="rgb(96.185303%, 41.841125%, 59.892273%)" offset="0.160156"/><stop stop-opacity="1" stop-color="rgb(96.092224%, 42.112732%, 59.700012%)" offset="0.164062"/><stop stop-opacity="1" stop-color="rgb(96.000671%, 42.382812%, 59.509277%)" offset="0.167969"/><stop stop-opacity="1" stop-color="rgb(95.909119%, 42.654419%, 59.318542%)" offset="0.171875"/><stop stop-opacity="1" stop-color="rgb(95.817566%, 42.926025%, 59.126282%)" offset="0.175781"/><stop stop-opacity="1" stop-color="rgb(95.724487%, 43.196106%, 58.935547%)" offset="0.179688"/><stop stop-opacity="1" stop-color="rgb(95.632935%, 43.467712%, 58.743286%)" offset="0.183594"/><stop stop-opacity="1" stop-color="rgb(95.541382%, 43.739319%, 58.552551%)" offset="0.1875"/><stop stop-opacity="1" stop-color="rgb(95.449829%, 44.009399%, 58.360291%)" offset="0.191406"/><stop stop-opacity="1" stop-color="rgb(95.35675%, 44.281006%, 58.169556%)" offset="0.195312"/><stop stop-opacity="1" stop-color="rgb(95.265198%, 44.552612%, 57.977295%)" offset="0.199219"/><stop stop-opacity="1" stop-color="rgb(95.173645%, 44.824219%, 57.78656%)" offset="0.203125"/><stop stop-opacity="1" stop-color="rgb(95.082092%, 45.094299%, 57.594299%)" offset="0.207031"/><stop stop-opacity="1" stop-color="rgb(94.989014%, 45.365906%, 57.403564%)" offset="0.210938"/><stop stop-opacity="1" stop-color="rgb(94.897461%, 45.637512%, 57.211304%)" offset="0.214844"/><stop stop-opacity="1" stop-color="rgb(94.805908%, 45.907593%, 57.020569%)" offset="0.21875"/><stop stop-opacity="1" stop-color="rgb(94.714355%, 46.179199%, 56.828308%)" offset="0.222656"/><stop stop-opacity="1" stop-color="rgb(94.622803%, 46.450806%, 56.637573%)" offset="0.226562"/><stop stop-opacity="1" stop-color="rgb(94.529724%, 46.720886%, 56.445312%)" offset="0.230469"/><stop stop-opacity="1" stop-color="rgb(94.438171%, 46.992493%, 56.254578%)" offset="0.234375"/><stop stop-opacity="1" stop-color="rgb(94.346619%, 47.264099%, 56.062317%)" offset="0.238281"/><stop stop-opacity="1" stop-color="rgb(94.255066%, 47.53418%, 55.871582%)" offset="0.242188"/><stop stop-opacity="1" stop-color="rgb(94.161987%, 47.805786%, 55.679321%)" offset="0.246094"/><stop stop-opacity="1" stop-color="rgb(94.070435%, 48.077393%, 55.488586%)" offset="0.25"/><stop stop-opacity="1" stop-color="rgb(93.978882%, 48.347473%, 55.296326%)" offset="0.253906"/><stop stop-opacity="1" stop-color="rgb(93.887329%, 48.61908%, 55.105591%)" offset="0.257812"/><stop stop-opacity="1" stop-color="rgb(93.79425%, 48.890686%, 54.91333%)" offset="0.261719"/><stop stop-opacity="1" stop-color="rgb(93.702698%, 49.162292%, 54.722595%)" offset="0.265625"/><stop stop-opacity="1" stop-color="rgb(93.611145%, 49.432373%, 54.530334%)" offset="0.269531"/><stop stop-opacity="1" stop-color="rgb(93.519592%, 49.703979%, 54.3396%)" offset="0.273438"/><stop stop-opacity="1" stop-color="rgb(93.426514%, 49.975586%, 54.147339%)" offset="0.277344"/><stop stop-opacity="1" stop-color="rgb(93.334961%, 50.245667%, 53.956604%)" offset="0.28125"/><stop stop-opacity="1" stop-color="rgb(93.243408%, 50.517273%, 53.764343%)" offset="0.285156"/><stop stop-opacity="1" stop-color="rgb(93.151855%, 50.788879%, 53.573608%)" offset="0.289062"/><stop stop-opacity="1" stop-color="rgb(93.060303%, 51.05896%, 53.381348%)" offset="0.292969"/><stop stop-opacity="1" stop-color="rgb(92.967224%, 51.330566%, 53.190613%)" offset="0.296875"/><stop stop-opacity="1" stop-color="rgb(92.875671%, 51.602173%, 52.998352%)" offset="0.300781"/><stop stop-opacity="1" stop-color="rgb(92.784119%, 51.872253%, 52.807617%)" offset="0.304688"/><stop stop-opacity="1" stop-color="rgb(92.692566%, 52.14386%, 52.615356%)" offset="0.308594"/><stop stop-opacity="1" stop-color="rgb(92.599487%, 52.415466%, 52.424622%)" offset="0.3125"/><stop stop-opacity="1" stop-color="rgb(92.507935%, 52.687073%, 52.232361%)" offset="0.316406"/><stop stop-opacity="1" stop-color="rgb(92.416382%, 52.957153%, 52.041626%)" offset="0.320312"/><stop stop-opacity="1" stop-color="rgb(92.324829%, 53.22876%, 51.849365%)" offset="0.324219"/><stop stop-opacity="1" stop-color="rgb(92.23175%, 53.500366%, 51.65863%)" offset="0.328125"/><stop stop-opacity="1" stop-color="rgb(92.140198%, 53.770447%, 51.46637%)" offset="0.332031"/><stop stop-opacity="1" stop-color="rgb(92.048645%, 54.042053%, 51.275635%)" offset="0.335938"/><stop stop-opacity="1" stop-color="rgb(91.957092%, 54.31366%, 51.083374%)" offset="0.339844"/><stop stop-opacity="1" stop-color="rgb(91.864014%, 54.58374%, 50.892639%)" offset="0.34375"/><stop stop-opacity="1" stop-color="rgb(91.772461%, 54.855347%, 50.700378%)" offset="0.347656"/><stop stop-opacity="1" stop-color="rgb(91.680908%, 55.126953%, 50.509644%)" offset="0.351562"/><stop stop-opacity="1" stop-color="rgb(91.589355%, 55.397034%, 50.317383%)" offset="0.355469"/><stop stop-opacity="1" stop-color="rgb(91.496277%, 55.66864%, 50.126648%)" offset="0.359375"/><stop stop-opacity="1" stop-color="rgb(91.404724%, 55.940247%, 49.934387%)" offset="0.363281"/><stop stop-opacity="1" stop-color="rgb(91.313171%, 56.210327%, 49.743652%)" offset="0.367188"/><stop stop-opacity="1" stop-color="rgb(91.221619%, 56.481934%, 49.551392%)" offset="0.371094"/><stop stop-opacity="1" stop-color="rgb(91.130066%, 56.75354%, 49.360657%)" offset="0.375"/><stop stop-opacity="1" stop-color="rgb(91.036987%, 57.025146%, 49.168396%)" offset="0.378906"/><stop stop-opacity="1" stop-color="rgb(90.945435%, 57.295227%, 48.977661%)" offset="0.382812"/><stop stop-opacity="1" stop-color="rgb(90.853882%, 57.566833%, 48.7854%)" offset="0.386719"/><stop stop-opacity="1" stop-color="rgb(90.762329%, 57.83844%, 48.594666%)" offset="0.390625"/><stop stop-opacity="1" stop-color="rgb(90.66925%, 58.108521%, 48.403931%)" offset="0.394531"/><stop stop-opacity="1" stop-color="rgb(90.577698%, 58.380127%, 48.21167%)" offset="0.398438"/><stop stop-opacity="1" stop-color="rgb(90.486145%, 58.651733%, 48.020935%)" offset="0.402344"/><stop stop-opacity="1" stop-color="rgb(90.394592%, 58.921814%, 47.828674%)" offset="0.40625"/><stop stop-opacity="1" stop-color="rgb(90.301514%, 59.19342%, 47.637939%)" offset="0.410156"/><stop stop-opacity="1" stop-color="rgb(90.209961%, 59.465027%, 47.445679%)" offset="0.414062"/><stop stop-opacity="1" stop-color="rgb(90.118408%, 59.735107%, 47.254944%)" offset="0.417969"/><stop stop-opacity="1" stop-color="rgb(90.026855%, 60.006714%, 47.062683%)" offset="0.421875"/><stop stop-opacity="1" stop-color="rgb(89.933777%, 60.27832%, 46.871948%)" offset="0.425781"/><stop stop-opacity="1" stop-color="rgb(89.842224%, 60.549927%, 46.679688%)" offset="0.429688"/><stop stop-opacity="1" stop-color="rgb(89.750671%, 60.820007%, 46.488953%)" offset="0.433594"/><stop stop-opacity="1" stop-color="rgb(89.659119%, 61.091614%, 46.296692%)" offset="0.4375"/><stop stop-opacity="1" stop-color="rgb(89.567566%, 61.36322%, 46.105957%)" offset="0.441406"/><stop stop-opacity="1" stop-color="rgb(89.474487%, 61.633301%, 45.913696%)" offset="0.445312"/><stop stop-opacity="1" stop-color="rgb(89.382935%, 61.904907%, 45.722961%)" offset="0.449219"/><stop stop-opacity="1" stop-color="rgb(89.291382%, 62.176514%, 45.530701%)" offset="0.453125"/><stop stop-opacity="1" stop-color="rgb(89.199829%, 62.446594%, 45.339966%)" offset="0.457031"/><stop stop-opacity="1" stop-color="rgb(89.10675%, 62.718201%, 45.147705%)" offset="0.460938"/><stop stop-opacity="1" stop-color="rgb(89.015198%, 62.989807%, 44.95697%)" offset="0.464844"/><stop stop-opacity="1" stop-color="rgb(88.923645%, 63.259888%, 44.764709%)" offset="0.46875"/><stop stop-opacity="1" stop-color="rgb(88.832092%, 63.531494%, 44.573975%)" offset="0.472656"/><stop stop-opacity="1" stop-color="rgb(88.739014%, 63.803101%, 44.381714%)" offset="0.476562"/><stop stop-opacity="1" stop-color="rgb(88.647461%, 64.073181%, 44.190979%)" offset="0.480469"/><stop stop-opacity="1" stop-color="rgb(88.555908%, 64.344788%, 43.998718%)" offset="0.484375"/><stop stop-opacity="1" stop-color="rgb(88.464355%, 64.616394%, 43.807983%)" offset="0.488281"/><stop stop-opacity="1" stop-color="rgb(88.371277%, 64.888%, 43.615723%)" offset="0.492188"/><stop stop-opacity="1" stop-color="rgb(88.279724%, 65.158081%, 43.424988%)" offset="0.496094"/><stop stop-opacity="1" stop-color="rgb(88.188171%, 65.429688%, 43.232727%)" offset="0.5"/><stop stop-opacity="1" stop-color="rgb(88.096619%, 65.701294%, 43.041992%)" offset="0.503906"/><stop stop-opacity="1" stop-color="rgb(88.00354%, 65.971375%, 42.849731%)" offset="0.507812"/><stop stop-opacity="1" stop-color="rgb(87.911987%, 66.242981%, 42.658997%)" offset="0.511719"/><stop stop-opacity="1" stop-color="rgb(87.820435%, 66.514587%, 42.466736%)" offset="0.515625"/><stop stop-opacity="1" stop-color="rgb(87.728882%, 66.784668%, 42.276001%)" offset="0.519531"/><stop stop-opacity="1" stop-color="rgb(87.637329%, 67.056274%, 42.08374%)" offset="0.523438"/><stop stop-opacity="1" stop-color="rgb(87.54425%, 67.327881%, 41.893005%)" offset="0.527344"/><stop stop-opacity="1" stop-color="rgb(87.452698%, 67.597961%, 41.700745%)" offset="0.53125"/><stop stop-opacity="1" stop-color="rgb(87.361145%, 67.869568%, 41.51001%)" offset="0.535156"/><stop stop-opacity="1" stop-color="rgb(87.269592%, 68.141174%, 41.317749%)" offset="0.539062"/><stop stop-opacity="1" stop-color="rgb(87.176514%, 68.412781%, 41.127014%)" offset="0.542969"/><stop stop-opacity="1" stop-color="rgb(87.084961%, 68.682861%, 40.934753%)" offset="0.546875"/><stop stop-opacity="1" stop-color="rgb(86.993408%, 68.954468%, 40.744019%)" offset="0.550781"/><stop stop-opacity="1" stop-color="rgb(86.901855%, 69.226074%, 40.551758%)" offset="0.554688"/><stop stop-opacity="1" stop-color="rgb(86.808777%, 69.496155%, 40.361023%)" offset="0.558594"/><stop stop-opacity="1" stop-color="rgb(86.717224%, 69.767761%, 40.168762%)" offset="0.5625"/><stop stop-opacity="1" stop-color="rgb(86.625671%, 70.039368%, 39.978027%)" offset="0.566406"/><stop stop-opacity="1" stop-color="rgb(86.534119%, 70.309448%, 39.785767%)" offset="0.570312"/><stop stop-opacity="1" stop-color="rgb(86.44104%, 70.581055%, 39.595032%)" offset="0.574219"/><stop stop-opacity="1" stop-color="rgb(86.349487%, 70.852661%, 39.402771%)" offset="0.578125"/><stop stop-opacity="1" stop-color="rgb(86.257935%, 71.122742%, 39.212036%)" offset="0.582031"/><stop stop-opacity="1" stop-color="rgb(86.166382%, 71.394348%, 39.019775%)" offset="0.585938"/><stop stop-opacity="1" stop-color="rgb(86.074829%, 71.665955%, 38.829041%)" offset="0.589844"/><stop stop-opacity="1" stop-color="rgb(85.98175%, 71.936035%, 38.63678%)" offset="0.59375"/><stop stop-opacity="1" stop-color="rgb(85.890198%, 72.207642%, 38.446045%)" offset="0.597656"/><stop stop-opacity="1" stop-color="rgb(85.798645%, 72.479248%, 38.253784%)" offset="0.601562"/><stop stop-opacity="1" stop-color="rgb(85.707092%, 72.750854%, 38.063049%)" offset="0.605469"/><stop stop-opacity="1" stop-color="rgb(85.614014%, 73.020935%, 37.870789%)" offset="0.609375"/><stop stop-opacity="1" stop-color="rgb(85.522461%, 73.292542%, 37.680054%)" offset="0.613281"/><stop stop-opacity="1" stop-color="rgb(85.430908%, 73.564148%, 37.489319%)" offset="0.617188"/><stop stop-opacity="1" stop-color="rgb(85.339355%, 73.834229%, 37.297058%)" offset="0.621094"/><stop stop-opacity="1" stop-color="rgb(85.246277%, 74.105835%, 37.106323%)" offset="0.625"/><stop stop-opacity="1" stop-color="rgb(85.154724%, 74.377441%, 36.914062%)" offset="0.628906"/><stop stop-opacity="1" stop-color="rgb(85.063171%, 74.647522%, 36.723328%)" offset="0.632812"/><stop stop-opacity="1" stop-color="rgb(84.971619%, 74.919128%, 36.531067%)" offset="0.636719"/><stop stop-opacity="1" stop-color="rgb(84.87854%, 75.190735%, 36.340332%)" offset="0.640625"/><stop stop-opacity="1" stop-color="rgb(84.786987%, 75.460815%, 36.148071%)" offset="0.644531"/><stop stop-opacity="1" stop-color="rgb(84.695435%, 75.732422%, 35.957336%)" offset="0.648438"/><stop stop-opacity="1" stop-color="rgb(84.603882%, 76.004028%, 35.765076%)" offset="0.652344"/><stop stop-opacity="1" stop-color="rgb(84.510803%, 76.275635%, 35.574341%)" offset="0.65625"/><stop stop-opacity="1" stop-color="rgb(84.41925%, 76.545715%, 35.38208%)" offset="0.660156"/><stop stop-opacity="1" stop-color="rgb(84.327698%, 76.817322%, 35.191345%)" offset="0.664062"/><stop stop-opacity="1" stop-color="rgb(84.236145%, 77.088928%, 34.999084%)" offset="0.667969"/><stop stop-opacity="1" stop-color="rgb(84.144592%, 77.359009%, 34.80835%)" offset="0.671875"/><stop stop-opacity="1" stop-color="rgb(84.051514%, 77.630615%, 34.616089%)" offset="0.675781"/><stop stop-opacity="1" stop-color="rgb(83.959961%, 77.902222%, 34.425354%)" offset="0.679688"/><stop stop-opacity="1" stop-color="rgb(83.868408%, 78.172302%, 34.233093%)" offset="0.683594"/><stop stop-opacity="1" stop-color="rgb(83.776855%, 78.443909%, 34.042358%)" offset="0.6875"/><stop stop-opacity="1" stop-color="rgb(83.683777%, 78.715515%, 33.850098%)" offset="0.691406"/><stop stop-opacity="1" stop-color="rgb(83.592224%, 78.985596%, 33.659363%)" offset="0.695312"/><stop stop-opacity="1" stop-color="rgb(83.500671%, 79.257202%, 33.467102%)" offset="0.699219"/><stop stop-opacity="1" stop-color="rgb(83.409119%, 79.528809%, 33.276367%)" offset="0.703125"/><stop stop-opacity="1" stop-color="rgb(83.31604%, 79.798889%, 33.084106%)" offset="0.707031"/><stop stop-opacity="1" stop-color="rgb(83.224487%, 80.070496%, 32.893372%)" offset="0.710938"/><stop stop-opacity="1" stop-color="rgb(83.132935%, 80.342102%, 32.701111%)" offset="0.714844"/><stop stop-opacity="1" stop-color="rgb(83.041382%, 80.613708%, 32.510376%)" offset="0.71875"/><stop stop-opacity="1" stop-color="rgb(82.948303%, 80.883789%, 32.318115%)" offset="0.722656"/><stop stop-opacity="1" stop-color="rgb(82.85675%, 81.155396%, 32.12738%)" offset="0.726562"/><stop stop-opacity="1" stop-color="rgb(82.765198%, 81.427002%, 31.93512%)" offset="0.730469"/><stop stop-opacity="1" stop-color="rgb(82.673645%, 81.697083%, 31.744385%)" offset="0.734375"/><stop stop-opacity="1" stop-color="rgb(82.582092%, 81.968689%, 31.552124%)" offset="0.738281"/><stop stop-opacity="1" stop-color="rgb(82.489014%, 82.240295%, 31.361389%)" offset="0.742188"/><stop stop-opacity="1" stop-color="rgb(82.397461%, 82.510376%, 31.169128%)" offset="0.746094"/><stop stop-opacity="1" stop-color="rgb(82.305908%, 82.781982%, 30.978394%)" offset="0.75"/><stop stop-opacity="1" stop-color="rgb(82.214355%, 83.053589%, 30.786133%)" offset="0.753906"/><stop stop-opacity="1" stop-color="rgb(82.121277%, 83.323669%, 30.595398%)" offset="0.757812"/><stop stop-opacity="1" stop-color="rgb(82.029724%, 83.595276%, 30.403137%)" offset="0.761719"/><stop stop-opacity="1" stop-color="rgb(81.938171%, 83.866882%, 30.212402%)" offset="0.765625"/><stop stop-opacity="1" stop-color="rgb(81.846619%, 84.138489%, 30.020142%)" offset="0.769531"/><stop stop-opacity="1" stop-color="rgb(81.75354%, 84.408569%, 29.829407%)" offset="0.773438"/><stop stop-opacity="1" stop-color="rgb(81.661987%, 84.680176%, 29.637146%)" offset="0.777344"/><stop stop-opacity="1" stop-color="rgb(81.570435%, 84.951782%, 29.446411%)" offset="0.78125"/><stop stop-opacity="1" stop-color="rgb(81.478882%, 85.221863%, 29.25415%)" offset="0.785156"/><stop stop-opacity="1" stop-color="rgb(81.385803%, 85.493469%, 29.063416%)" offset="0.789062"/><stop stop-opacity="1" stop-color="rgb(81.29425%, 85.765076%, 28.871155%)" offset="0.792969"/><stop stop-opacity="1" stop-color="rgb(81.202698%, 86.035156%, 28.68042%)" offset="0.796875"/><stop stop-opacity="1" stop-color="rgb(81.111145%, 86.306763%, 28.488159%)" offset="0.800781"/><stop stop-opacity="1" stop-color="rgb(81.018066%, 86.578369%, 28.297424%)" offset="0.804688"/><stop stop-opacity="1" stop-color="rgb(80.926514%, 86.84845%, 28.105164%)" offset="0.808594"/><stop stop-opacity="1" stop-color="rgb(80.834961%, 87.120056%, 27.914429%)" offset="0.8125"/><stop stop-opacity="1" stop-color="rgb(80.743408%, 87.391663%, 27.722168%)" offset="0.816406"/><stop stop-opacity="1" stop-color="rgb(80.651855%, 87.661743%, 27.531433%)" offset="0.820312"/><stop stop-opacity="1" stop-color="rgb(80.558777%, 87.93335%, 27.339172%)" offset="0.824219"/><stop stop-opacity="1" stop-color="rgb(80.467224%, 88.204956%, 27.148438%)" offset="0.828125"/><stop stop-opacity="1" stop-color="rgb(80.375671%, 88.476562%, 26.956177%)" offset="0.832031"/><stop stop-opacity="1" stop-color="rgb(80.284119%, 88.746643%, 26.765442%)" offset="0.835938"/><stop stop-opacity="1" stop-color="rgb(80.19104%, 89.01825%, 26.574707%)" offset="0.839844"/><stop stop-opacity="1" stop-color="rgb(80.099487%, 89.289856%, 26.382446%)" offset="0.84375"/><stop stop-opacity="1" stop-color="rgb(80.007935%, 89.559937%, 26.191711%)" offset="0.847656"/><stop stop-opacity="1" stop-color="rgb(79.916382%, 89.831543%, 25.999451%)" offset="0.851562"/><stop stop-opacity="1" stop-color="rgb(79.823303%, 90.103149%, 25.808716%)" offset="0.855469"/><stop stop-opacity="1" stop-color="rgb(79.73175%, 90.37323%, 25.616455%)" offset="0.859375"/><stop stop-opacity="1" stop-color="rgb(79.640198%, 90.644836%, 25.42572%)" offset="0.863281"/><stop stop-opacity="1" stop-color="rgb(79.548645%, 90.916443%, 25.233459%)" offset="0.867188"/><stop stop-opacity="1" stop-color="rgb(79.455566%, 91.186523%, 25.042725%)" offset="0.871094"/><stop stop-opacity="1" stop-color="rgb(79.364014%, 91.45813%, 24.850464%)" offset="0.875"/><stop stop-opacity="1" stop-color="rgb(79.272461%, 91.729736%, 24.659729%)" offset="0.878906"/><stop stop-opacity="1" stop-color="rgb(79.180908%, 92.001343%, 24.467468%)" offset="0.882812"/><stop stop-opacity="1" stop-color="rgb(79.089355%, 92.271423%, 24.276733%)" offset="0.886719"/><stop stop-opacity="1" stop-color="rgb(78.996277%, 92.54303%, 24.084473%)" offset="0.890625"/><stop stop-opacity="1" stop-color="rgb(78.904724%, 92.814636%, 23.893738%)" offset="0.894531"/><stop stop-opacity="1" stop-color="rgb(78.813171%, 93.084717%, 23.701477%)" offset="0.898438"/><stop stop-opacity="1" stop-color="rgb(78.721619%, 93.356323%, 23.510742%)" offset="0.902344"/><stop stop-opacity="1" stop-color="rgb(78.62854%, 93.62793%, 23.318481%)" offset="0.90625"/><stop stop-opacity="1" stop-color="rgb(78.536987%, 93.89801%, 23.127747%)" offset="0.910156"/><stop stop-opacity="1" stop-color="rgb(78.445435%, 94.169617%, 22.935486%)" offset="0.914062"/><stop stop-opacity="1" stop-color="rgb(78.353882%, 94.441223%, 22.744751%)" offset="0.917969"/><stop stop-opacity="1" stop-color="rgb(78.260803%, 94.711304%, 22.55249%)" offset="0.921875"/><stop stop-opacity="1" stop-color="rgb(78.16925%, 94.98291%, 22.361755%)" offset="0.925781"/><stop stop-opacity="1" stop-color="rgb(78.077698%, 95.254517%, 22.169495%)" offset="0.929688"/><stop stop-opacity="1" stop-color="rgb(77.986145%, 95.524597%, 21.97876%)" offset="0.933594"/><stop stop-opacity="1" stop-color="rgb(77.893066%, 95.796204%, 21.786499%)" offset="0.9375"/><stop stop-opacity="1" stop-color="rgb(77.801514%, 96.06781%, 21.595764%)" offset="0.941406"/><stop stop-opacity="1" stop-color="rgb(77.709961%, 96.339417%, 21.403503%)" offset="0.945312"/><stop stop-opacity="1" stop-color="rgb(77.618408%, 96.609497%, 21.212769%)" offset="0.949219"/><stop stop-opacity="1" stop-color="rgb(77.52533%, 96.881104%, 21.020508%)" offset="0.953125"/><stop stop-opacity="1" stop-color="rgb(77.433777%, 97.15271%, 20.829773%)" offset="0.957031"/><stop stop-opacity="1" stop-color="rgb(77.342224%, 97.422791%, 20.637512%)" offset="0.960938"/><stop stop-opacity="1" stop-color="rgb(77.250671%, 97.694397%, 20.446777%)" offset="0.964844"/><stop stop-opacity="1" stop-color="rgb(77.159119%, 97.966003%, 20.254517%)" offset="0.96875"/><stop stop-opacity="1" stop-color="rgb(77.06604%, 98.236084%, 20.063782%)" offset="0.972656"/><stop stop-opacity="1" stop-color="rgb(76.974487%, 98.50769%, 19.871521%)" offset="0.976562"/><stop stop-opacity="1" stop-color="rgb(76.882935%, 98.779297%, 19.680786%)" offset="0.980469"/><stop stop-opacity="1" stop-color="rgb(76.791382%, 99.049377%, 19.488525%)" offset="0.984375"/><stop stop-opacity="1" stop-color="rgb(76.698303%, 99.320984%, 19.297791%)" offset="0.988281"/><stop stop-opacity="1" stop-color="rgb(76.60675%, 99.59259%, 19.10553%)" offset="0.992188"/><stop stop-opacity="1" stop-color="rgb(76.515198%, 99.864197%, 18.914795%)" offset="0.996094"/><stop stop-opacity="1" stop-color="rgb(76.469421%, 100%, 18.818665%)" offset="1"/></radialGradient><clipPath id="b40fe80adf"><rect x="0" width="30" y="0" height="9"/></clipPath><clipPath id="f05211f345"><path d="M 5.21875 13 L 8.847656 13 L 8.847656 16 L 5.21875 16 Z M 5.21875 13 " clip-rule="nonzero"/></clipPath><clipPath id="ece067d4d2"><path d="M 5.21875 13 L 7 13 L 7 14 L 5.21875 14 Z M 5.21875 13 " clip-rule="nonzero"/></clipPath><clipPath id="670020e141"><path d="M 5.21875 12.691406 L 8.847656 12.691406 L 8.847656 16.320312 L 5.21875 16.320312 Z M 5.21875 12.691406 " clip-rule="nonzero"/></clipPath></defs><g clip-path="url(#da260b65b6)"><g clip-path="url(#2a1e69b06e)"><g transform="matrix(1, 0, 0, 1, 0, 10)"><g clip-path="url(#b40fe80adf)"><g clip-path="url(#9fa1def03d)"><g clip-path="url(#e2830eb4ab)"><path fill="url(#e4a3eeb516)" d="M 0.484375 0.671875 L 0.484375 8.359375 L 29.515625 8.359375 L 29.515625 0.671875 Z M 0.484375 0.671875 " fill-rule="nonzero"/></g></g></g></g></g></g><g fill="#ffffff" fill-opacity="1"><g transform="translate(5.054323, 14.302134)"><g/></g></g><g fill="#ffffff" fill-opacity="1"><g transform="translate(6.106817, 14.302134)"><g/></g></g><g fill="#ffffff" fill-opacity="1"><g transform="translate(7.159312, 14.302134)"><g/></g></g><g fill="#ffffff" fill-opacity="1"><g transform="translate(8.211807, 14.302134)"><g/></g></g><g fill="#ffffff" fill-opacity="1"><g transform="translate(9.264301, 14.302134)"><g/></g></g><g fill="#ffffff" fill-opacity="1"><g transform="translate(10.32776, 14.302134)"><g><path d="M 1.109375 0.046875 C 0.941406 0.046875 0.789062 0.015625 0.65625 -0.046875 C 0.519531 -0.117188 0.410156 -0.222656 0.328125 -0.359375 C 0.242188 -0.492188 0.203125 -0.664062 0.203125 -0.875 L 0.203125 -2.296875 L 0.625 -2.296875 L 0.625 -0.875 C 0.625 -0.695312 0.664062 -0.5625 0.75 -0.46875 C 0.84375 -0.382812 0.96875 -0.34375 1.125 -0.34375 C 1.269531 -0.34375 1.382812 -0.382812 1.46875 -0.46875 C 1.5625 -0.5625 1.609375 -0.695312 1.609375 -0.875 L 1.609375 -2.296875 L 2.03125 -2.296875 L 2.03125 -0.875 C 2.03125 -0.664062 1.988281 -0.492188 1.90625 -0.359375 C 1.820312 -0.222656 1.707031 -0.117188 1.5625 -0.046875 C 1.425781 0.015625 1.273438 0.046875 1.109375 0.046875 Z M 1.109375 0.046875 "/></g></g></g><g fill="#ffffff" fill-opacity="1"><g transform="translate(12.832178, 14.302134)"><g><path d="M 0.21875 0 L 0.21875 -2.296875 L 1.078125 -2.296875 C 1.253906 -2.296875 1.398438 -2.265625 1.515625 -2.203125 C 1.640625 -2.140625 1.734375 -2.054688 1.796875 -1.953125 C 1.859375 -1.847656 1.890625 -1.726562 1.890625 -1.59375 C 1.890625 -1.46875 1.859375 -1.347656 1.796875 -1.234375 C 1.742188 -1.128906 1.65625 -1.046875 1.53125 -0.984375 C 1.414062 -0.921875 1.265625 -0.890625 1.078125 -0.890625 L 0.640625 -0.890625 L 0.640625 0 Z M 0.640625 -1.234375 L 1.046875 -1.234375 C 1.191406 -1.234375 1.296875 -1.265625 1.359375 -1.328125 C 1.421875 -1.390625 1.453125 -1.476562 1.453125 -1.59375 C 1.453125 -1.707031 1.421875 -1.796875 1.359375 -1.859375 C 1.296875 -1.921875 1.191406 -1.953125 1.046875 -1.953125 L 0.640625 -1.953125 Z M 0.640625 -1.234375 "/></g></g></g><g fill="#ffffff" fill-opacity="1"><g transform="translate(15.094066, 14.302134)"><g><path d="M 0.21875 0 L 0.21875 -2.296875 L 0.640625 -2.296875 L 0.640625 -0.328125 L 1.65625 -0.328125 L 1.65625 0 Z M 0.21875 0 "/></g></g></g><g fill="#ffffff" fill-opacity="1"><g transform="translate(17.17242, 14.302134)"><g><path d="M 1.296875 0.046875 C 1.066406 0.046875 0.863281 -0.00390625 0.6875 -0.109375 C 0.519531 -0.210938 0.382812 -0.351562 0.28125 -0.53125 C 0.1875 -0.707031 0.140625 -0.914062 0.140625 -1.15625 C 0.140625 -1.382812 0.1875 -1.585938 0.28125 -1.765625 C 0.382812 -1.941406 0.519531 -2.082031 0.6875 -2.1875 C 0.863281 -2.289062 1.066406 -2.34375 1.296875 -2.34375 C 1.523438 -2.34375 1.722656 -2.289062 1.890625 -2.1875 C 2.066406 -2.082031 2.203125 -1.941406 2.296875 -1.765625 C 2.398438 -1.585938 2.453125 -1.382812 2.453125 -1.15625 C 2.453125 -0.914062 2.398438 -0.707031 2.296875 -0.53125 C 2.203125 -0.351562 2.066406 -0.210938 1.890625 -0.109375 C 1.722656 -0.00390625 1.523438 0.046875 1.296875 0.046875 Z M 1.296875 -0.34375 C 1.515625 -0.34375 1.6875 -0.410156 1.8125 -0.546875 C 1.945312 -0.691406 2.015625 -0.894531 2.015625 -1.15625 C 2.015625 -1.40625 1.945312 -1.597656 1.8125 -1.734375 C 1.6875 -1.878906 1.515625 -1.953125 1.296875 -1.953125 C 1.078125 -1.953125 0.898438 -1.878906 0.765625 -1.734375 C 0.640625 -1.597656 0.578125 -1.40625 0.578125 -1.15625 C 0.578125 -0.894531 0.640625 -0.691406 0.765625 -0.546875 C 0.898438 -0.410156 1.078125 -0.34375 1.296875 -0.34375 Z M 1.296875 -0.34375 "/></g></g></g><g fill="#ffffff" fill-opacity="1"><g transform="translate(20.03737, 14.302134)"><g><path d="M 0.078125 0 L 0.921875 -2.296875 L 1.390625 -2.296875 L 2.234375 0 L 1.78125 0 L 1.59375 -0.53125 L 0.703125 -0.53125 L 0.515625 0 Z M 0.8125 -0.859375 L 1.484375 -0.859375 L 1.15625 -1.8125 Z M 0.8125 -0.859375 "/></g></g></g><g fill="#ffffff" fill-opacity="1"><g transform="translate(22.607341, 14.302134)"><g><path d="M 0.21875 0 L 0.21875 -2.296875 L 1 -2.296875 C 1.269531 -2.296875 1.492188 -2.25 1.671875 -2.15625 C 1.847656 -2.0625 1.976562 -1.925781 2.0625 -1.75 C 2.144531 -1.582031 2.1875 -1.382812 2.1875 -1.15625 C 2.1875 -0.914062 2.144531 -0.707031 2.0625 -0.53125 C 1.976562 -0.363281 1.847656 -0.234375 1.671875 -0.140625 C 1.492188 -0.046875 1.269531 0 1 0 Z M 0.640625 -0.359375 L 0.984375 -0.359375 C 1.179688 -0.359375 1.332031 -0.390625 1.4375 -0.453125 C 1.550781 -0.515625 1.628906 -0.601562 1.671875 -0.71875 C 1.722656 -0.84375 1.75 -0.988281 1.75 -1.15625 C 1.75 -1.3125 1.722656 -1.445312 1.671875 -1.5625 C 1.628906 -1.6875 1.550781 -1.78125 1.4375 -1.84375 C 1.332031 -1.90625 1.179688 -1.9375 0.984375 -1.9375 L 0.640625 -1.9375 Z M 0.640625 -0.359375 "/></g></g></g><g clip-path="url(#f05211f345)"><path fill="#ffffff" d="M 5.304688 15.539062 C 5.28125 15.539062 5.257812 15.53125 5.242188 15.511719 C 5.203125 15.46875 5.203125 15.429688 5.242188 15.386719 L 6.308594 14.347656 C 6.351562 14.308594 6.390625 14.308594 6.429688 14.347656 L 6.839844 14.753906 L 7.855469 13.820312 C 7.894531 13.785156 7.933594 13.785156 7.972656 13.820312 L 8.820312 14.605469 C 8.855469 14.644531 8.855469 14.683594 8.820312 14.722656 C 8.78125 14.761719 8.742188 14.765625 8.703125 14.730469 L 7.917969 14 L 6.902344 14.9375 C 6.863281 14.972656 6.824219 14.972656 6.785156 14.9375 L 6.375 14.523438 L 5.371094 15.507812 C 5.351562 15.527344 5.332031 15.539062 5.304688 15.539062 Z M 5.304688 15.539062 " fill-opacity="1" fill-rule="nonzero"/></g><g clip-path="url(#ece067d4d2)"><path fill="#ffffff" d="M 6.171875 13.964844 C 6.066406 13.964844 5.976562 13.929688 5.902344 13.855469 C 5.828125 13.78125 5.792969 13.695312 5.792969 13.589844 C 5.792969 13.484375 5.828125 13.398438 5.902344 13.324219 C 5.976562 13.25 6.066406 13.214844 6.167969 13.214844 C 6.273438 13.214844 6.363281 13.25 6.4375 13.324219 C 6.507812 13.398438 6.546875 13.488281 6.546875 13.589844 C 6.542969 13.695312 6.507812 13.78125 6.433594 13.855469 C 6.363281 13.929688 6.273438 13.964844 6.171875 13.964844 Z M 6.171875 13.386719 C 6.035156 13.386719 5.964844 13.453125 5.964844 13.589844 C 5.964844 13.726562 6.03125 13.792969 6.167969 13.792969 C 6.304688 13.792969 6.371094 13.726562 6.371094 13.589844 C 6.371094 13.457031 6.304688 13.390625 6.171875 13.386719 Z M 6.171875 13.386719 " fill-opacity="1" fill-rule="nonzero"/></g><g clip-path="url(#670020e141)"><path fill="#ffffff" d="M 8.25 16.335938 L 5.824219 16.335938 C 5.660156 16.335938 5.515625 16.277344 5.398438 16.160156 C 5.28125 16.042969 5.222656 15.902344 5.222656 15.734375 L 5.222656 13.308594 C 5.222656 13.144531 5.28125 13 5.398438 12.882812 C 5.515625 12.765625 5.660156 12.707031 5.824219 12.707031 L 8.25 12.707031 C 8.417969 12.707031 8.5625 12.765625 8.679688 12.882812 C 8.796875 13.003906 8.859375 13.144531 8.859375 13.3125 L 8.859375 15.734375 C 8.855469 15.902344 8.796875 16.042969 8.679688 16.160156 C 8.558594 16.277344 8.417969 16.335938 8.25 16.335938 Z M 5.824219 12.878906 C 5.703125 12.878906 5.601562 12.921875 5.515625 13.007812 C 5.433594 13.089844 5.390625 13.195312 5.390625 13.3125 L 5.390625 15.734375 C 5.390625 15.855469 5.433594 15.957031 5.515625 16.042969 C 5.601562 16.125 5.703125 16.167969 5.824219 16.167969 L 8.25 16.167969 C 8.371094 16.167969 8.472656 16.125 8.558594 16.042969 C 8.640625 15.957031 8.683594 15.855469 8.683594 15.734375 L 8.683594 13.308594 C 8.683594 13.1875 8.640625 13.085938 8.558594 13.003906 C 8.472656 12.917969 8.371094 12.875 8.25 12.875 Z M 5.824219 12.878906 " fill-opacity="1" fill-rule="nonzero"/></g></svg>