<svg xmlns="http://www.w3.org/2000/svg" xmlns:xlink="http://www.w3.org/1999/xlink" width="40" zoomAndPan="magnify" viewBox="0 0 30 30.000001" height="40" preserveAspectRatio="xMidYMid meet" version="1.0"><defs><g/><clipPath id="9f12ee3cdb"><path d="M 0.484375 10.671875 L 29.515625 10.671875 L 29.515625 18.359375 L 0.484375 18.359375 Z M 0.484375 10.671875 " clip-rule="nonzero"/></clipPath><clipPath id="cdd9cb6ac1"><path d="M 4.328125 10.671875 L 25.671875 10.671875 C 26.691406 10.671875 27.667969 11.078125 28.390625 11.796875 C 29.109375 12.519531 29.515625 13.496094 29.515625 14.515625 C 29.515625 15.535156 29.109375 16.511719 28.390625 17.234375 C 27.667969 17.953125 26.691406 18.359375 25.671875 18.359375 L 4.328125 18.359375 C 3.308594 18.359375 2.332031 17.953125 1.609375 17.234375 C 0.890625 16.511719 0.484375 15.535156 0.484375 14.515625 C 0.484375 13.496094 0.890625 12.519531 1.609375 11.796875 C 2.332031 11.078125 3.308594 10.671875 4.328125 10.671875 Z M 4.328125 10.671875 " clip-rule="nonzero"/></clipPath><clipPath id="3f2d74ca42"><path d="M 0.484375 0.671875 L 29.515625 0.671875 L 29.515625 8.359375 L 0.484375 8.359375 Z M 0.484375 0.671875 " clip-rule="nonzero"/></clipPath><clipPath id="67b58f54a7"><path d="M 4.328125 0.671875 L 25.671875 0.671875 C 26.691406 0.671875 27.667969 1.078125 28.390625 1.796875 C 29.109375 2.519531 29.515625 3.496094 29.515625 4.515625 C 29.515625 5.535156 29.109375 6.511719 28.390625 7.234375 C 27.667969 7.953125 26.691406 8.359375 25.671875 8.359375 L 4.328125 8.359375 C 3.308594 8.359375 2.332031 7.953125 1.609375 7.234375 C 0.890625 6.511719 0.484375 5.535156 0.484375 4.515625 C 0.484375 3.496094 0.890625 2.519531 1.609375 1.796875 C 2.332031 1.078125 3.308594 0.671875 4.328125 0.671875 Z M 4.328125 0.671875 " clip-rule="nonzero"/></clipPath><linearGradient x1="0.00512695" gradientTransform="matrix(0.0300237, 0, 0, 0.0300237, 0.483717, 0.673103)" y1="128" x2="966.979" gradientUnits="userSpaceOnUse" y2="128" id="d628c47b1b"><stop stop-opacity="1" stop-color="rgb(100%, 39.99939%, 76.858521%)" offset="0"/><stop stop-opacity="1" stop-color="rgb(100%, 40.182495%, 76.693726%)" offset="0.0078125"/><stop stop-opacity="1" stop-color="rgb(100%, 40.550232%, 76.367188%)" offset="0.015625"/><stop stop-opacity="1" stop-color="rgb(100%, 40.917969%, 76.039124%)" offset="0.0234375"/><stop stop-opacity="1" stop-color="rgb(100%, 41.285706%, 75.71106%)" offset="0.03125"/><stop stop-opacity="1" stop-color="rgb(100%, 41.653442%, 75.382996%)" offset="0.0390625"/><stop stop-opacity="1" stop-color="rgb(100%, 42.021179%, 75.054932%)" offset="0.046875"/><stop stop-opacity="1" stop-color="rgb(100%, 42.388916%, 74.726868%)" offset="0.0546875"/><stop stop-opacity="1" stop-color="rgb(100%, 42.756653%, 74.40033%)" offset="0.0625"/><stop stop-opacity="1" stop-color="rgb(100%, 43.12439%, 74.072266%)" offset="0.0703125"/><stop stop-opacity="1" stop-color="rgb(100%, 43.492126%, 73.744202%)" offset="0.078125"/><stop stop-opacity="1" stop-color="rgb(100%, 43.859863%, 73.416138%)" offset="0.0859375"/><stop stop-opacity="1" stop-color="rgb(100%, 44.226074%, 73.088074%)" offset="0.09375"/><stop stop-opacity="1" stop-color="rgb(100%, 44.593811%, 72.76001%)" offset="0.101563"/><stop stop-opacity="1" stop-color="rgb(100%, 44.961548%, 72.433472%)" offset="0.109375"/><stop stop-opacity="1" stop-color="rgb(100%, 45.329285%, 72.105408%)" offset="0.117188"/><stop stop-opacity="1" stop-color="rgb(100%, 45.697021%, 71.777344%)" offset="0.125"/><stop stop-opacity="1" stop-color="rgb(100%, 46.064758%, 71.44928%)" offset="0.132812"/><stop stop-opacity="1" stop-color="rgb(100%, 46.432495%, 71.121216%)" offset="0.140625"/><stop stop-opacity="1" stop-color="rgb(100%, 46.800232%, 70.793152%)" offset="0.148438"/><stop stop-opacity="1" stop-color="rgb(100%, 47.167969%, 70.466614%)" offset="0.15625"/><stop stop-opacity="1" stop-color="rgb(100%, 47.535706%, 70.13855%)" offset="0.164062"/><stop stop-opacity="1" stop-color="rgb(100%, 47.903442%, 69.810486%)" offset="0.171875"/><stop stop-opacity="1" stop-color="rgb(100%, 48.271179%, 69.482422%)" offset="0.179688"/><stop stop-opacity="1" stop-color="rgb(100%, 48.638916%, 69.154358%)" offset="0.1875"/><stop stop-opacity="1" stop-color="rgb(100%, 49.006653%, 68.826294%)" offset="0.195312"/><stop stop-opacity="1" stop-color="rgb(100%, 49.37439%, 68.499756%)" offset="0.203125"/><stop stop-opacity="1" stop-color="rgb(100%, 49.742126%, 68.171692%)" offset="0.210938"/><stop stop-opacity="1" stop-color="rgb(100%, 50.109863%, 67.843628%)" offset="0.21875"/><stop stop-opacity="1" stop-color="rgb(100%, 50.4776%, 67.515564%)" offset="0.226562"/><stop stop-opacity="1" stop-color="rgb(100%, 50.843811%, 67.1875%)" offset="0.234375"/><stop stop-opacity="1" stop-color="rgb(100%, 51.211548%, 66.859436%)" offset="0.242188"/><stop stop-opacity="1" stop-color="rgb(100%, 51.579285%, 66.532898%)" offset="0.25"/><stop stop-opacity="1" stop-color="rgb(100%, 51.947021%, 66.204834%)" offset="0.257812"/><stop stop-opacity="1" stop-color="rgb(100%, 52.314758%, 65.87677%)" offset="0.265625"/><stop stop-opacity="1" stop-color="rgb(100%, 52.682495%, 65.548706%)" offset="0.273437"/><stop stop-opacity="1" stop-color="rgb(100%, 53.050232%, 65.220642%)" offset="0.28125"/><stop stop-opacity="1" stop-color="rgb(100%, 53.417969%, 64.892578%)" offset="0.289062"/><stop stop-opacity="1" stop-color="rgb(100%, 53.785706%, 64.56604%)" offset="0.296875"/><stop stop-opacity="1" stop-color="rgb(100%, 54.153442%, 64.237976%)" offset="0.304688"/><stop stop-opacity="1" stop-color="rgb(100%, 54.521179%, 63.909912%)" offset="0.3125"/><stop stop-opacity="1" stop-color="rgb(100%, 54.888916%, 63.581848%)" offset="0.320312"/><stop stop-opacity="1" stop-color="rgb(100%, 55.256653%, 63.253784%)" offset="0.328125"/><stop stop-opacity="1" stop-color="rgb(100%, 55.62439%, 62.92572%)" offset="0.335937"/><stop stop-opacity="1" stop-color="rgb(100%, 55.992126%, 62.599182%)" offset="0.34375"/><stop stop-opacity="1" stop-color="rgb(100%, 56.359863%, 62.271118%)" offset="0.351562"/><stop stop-opacity="1" stop-color="rgb(100%, 56.7276%, 61.943054%)" offset="0.359375"/><stop stop-opacity="1" stop-color="rgb(100%, 57.095337%, 61.61499%)" offset="0.367188"/><stop stop-opacity="1" stop-color="rgb(100%, 57.463074%, 61.286926%)" offset="0.375"/><stop stop-opacity="1" stop-color="rgb(100%, 57.829285%, 60.958862%)" offset="0.382812"/><stop stop-opacity="1" stop-color="rgb(100%, 58.197021%, 60.632324%)" offset="0.390625"/><stop stop-opacity="1" stop-color="rgb(100%, 58.564758%, 60.30426%)" offset="0.398437"/><stop stop-opacity="1" stop-color="rgb(100%, 58.932495%, 59.976196%)" offset="0.40625"/><stop stop-opacity="1" stop-color="rgb(100%, 59.300232%, 59.648132%)" offset="0.414062"/><stop stop-opacity="1" stop-color="rgb(100%, 59.667969%, 59.320068%)" offset="0.421875"/><stop stop-opacity="1" stop-color="rgb(100%, 60.035706%, 58.992004%)" offset="0.429687"/><stop stop-opacity="1" stop-color="rgb(100%, 60.403442%, 58.665466%)" offset="0.4375"/><stop stop-opacity="1" stop-color="rgb(100%, 60.771179%, 58.337402%)" offset="0.445312"/><stop stop-opacity="1" stop-color="rgb(100%, 61.138916%, 58.009338%)" offset="0.453125"/><stop stop-opacity="1" stop-color="rgb(100%, 61.506653%, 57.681274%)" offset="0.460937"/><stop stop-opacity="1" stop-color="rgb(100%, 61.87439%, 57.35321%)" offset="0.46875"/><stop stop-opacity="1" stop-color="rgb(100%, 62.242126%, 57.025146%)" offset="0.476562"/><stop stop-opacity="1" stop-color="rgb(100%, 62.609863%, 56.698608%)" offset="0.484375"/><stop stop-opacity="1" stop-color="rgb(100%, 62.9776%, 56.370544%)" offset="0.492187"/><stop stop-opacity="1" stop-color="rgb(100%, 63.345337%, 56.04248%)" offset="0.5"/><stop stop-opacity="1" stop-color="rgb(100%, 63.713074%, 55.714417%)" offset="0.507812"/><stop stop-opacity="1" stop-color="rgb(100%, 64.080811%, 55.386353%)" offset="0.515625"/><stop stop-opacity="1" stop-color="rgb(100%, 64.447021%, 55.058289%)" offset="0.523438"/><stop stop-opacity="1" stop-color="rgb(100%, 64.814758%, 54.73175%)" offset="0.53125"/><stop stop-opacity="1" stop-color="rgb(100%, 65.182495%, 54.403687%)" offset="0.539062"/><stop stop-opacity="1" stop-color="rgb(100%, 65.550232%, 54.075623%)" offset="0.546875"/><stop stop-opacity="1" stop-color="rgb(100%, 65.917969%, 53.747559%)" offset="0.554688"/><stop stop-opacity="1" stop-color="rgb(100%, 66.285706%, 53.419495%)" offset="0.5625"/><stop stop-opacity="1" stop-color="rgb(100%, 66.653442%, 53.091431%)" offset="0.570312"/><stop stop-opacity="1" stop-color="rgb(100%, 67.021179%, 52.764893%)" offset="0.578125"/><stop stop-opacity="1" stop-color="rgb(100%, 67.388916%, 52.436829%)" offset="0.585937"/><stop stop-opacity="1" stop-color="rgb(100%, 67.756653%, 52.108765%)" offset="0.59375"/><stop stop-opacity="1" stop-color="rgb(100%, 68.12439%, 51.780701%)" offset="0.601563"/><stop stop-opacity="1" stop-color="rgb(100%, 68.492126%, 51.452637%)" offset="0.609375"/><stop stop-opacity="1" stop-color="rgb(100%, 68.859863%, 51.124573%)" offset="0.617188"/><stop stop-opacity="1" stop-color="rgb(100%, 69.2276%, 50.798035%)" offset="0.625"/><stop stop-opacity="1" stop-color="rgb(100%, 69.595337%, 50.469971%)" offset="0.632812"/><stop stop-opacity="1" stop-color="rgb(100%, 69.963074%, 50.141907%)" offset="0.640625"/><stop stop-opacity="1" stop-color="rgb(100%, 70.330811%, 49.813843%)" offset="0.648438"/><stop stop-opacity="1" stop-color="rgb(100%, 70.698547%, 49.485779%)" offset="0.65625"/><stop stop-opacity="1" stop-color="rgb(100%, 71.066284%, 49.157715%)" offset="0.664062"/><stop stop-opacity="1" stop-color="rgb(100%, 71.432495%, 48.831177%)" offset="0.671875"/><stop stop-opacity="1" stop-color="rgb(100%, 71.800232%, 48.503113%)" offset="0.679687"/><stop stop-opacity="1" stop-color="rgb(100%, 72.167969%, 48.175049%)" offset="0.6875"/><stop stop-opacity="1" stop-color="rgb(100%, 72.535706%, 47.846985%)" offset="0.695313"/><stop stop-opacity="1" stop-color="rgb(100%, 72.903442%, 47.518921%)" offset="0.703125"/><stop stop-opacity="1" stop-color="rgb(100%, 73.271179%, 47.190857%)" offset="0.710938"/><stop stop-opacity="1" stop-color="rgb(100%, 73.638916%, 46.864319%)" offset="0.71875"/><stop stop-opacity="1" stop-color="rgb(100%, 74.006653%, 46.536255%)" offset="0.726563"/><stop stop-opacity="1" stop-color="rgb(100%, 74.37439%, 46.208191%)" offset="0.734375"/><stop stop-opacity="1" stop-color="rgb(100%, 74.742126%, 45.880127%)" offset="0.742188"/><stop stop-opacity="1" stop-color="rgb(100%, 75.109863%, 45.552063%)" offset="0.75"/><stop stop-opacity="1" stop-color="rgb(100%, 75.4776%, 45.223999%)" offset="0.757812"/><stop stop-opacity="1" stop-color="rgb(100%, 75.845337%, 44.897461%)" offset="0.765625"/><stop stop-opacity="1" stop-color="rgb(100%, 76.213074%, 44.569397%)" offset="0.773438"/><stop stop-opacity="1" stop-color="rgb(100%, 76.580811%, 44.241333%)" offset="0.78125"/><stop stop-opacity="1" stop-color="rgb(100%, 76.948547%, 43.913269%)" offset="0.789062"/><stop stop-opacity="1" stop-color="rgb(100%, 77.316284%, 43.585205%)" offset="0.796875"/><stop stop-opacity="1" stop-color="rgb(100%, 77.684021%, 43.257141%)" offset="0.804687"/><stop stop-opacity="1" stop-color="rgb(100%, 78.050232%, 42.930603%)" offset="0.8125"/><stop stop-opacity="1" stop-color="rgb(100%, 78.417969%, 42.602539%)" offset="0.820313"/><stop stop-opacity="1" stop-color="rgb(100%, 78.785706%, 42.274475%)" offset="0.828125"/><stop stop-opacity="1" stop-color="rgb(100%, 79.153442%, 41.946411%)" offset="0.835938"/><stop stop-opacity="1" stop-color="rgb(100%, 79.521179%, 41.618347%)" offset="0.84375"/><stop stop-opacity="1" stop-color="rgb(100%, 79.888916%, 41.290283%)" offset="0.851563"/><stop stop-opacity="1" stop-color="rgb(100%, 80.256653%, 40.963745%)" offset="0.859375"/><stop stop-opacity="1" stop-color="rgb(100%, 80.62439%, 40.635681%)" offset="0.867188"/><stop stop-opacity="1" stop-color="rgb(100%, 80.992126%, 40.307617%)" offset="0.875"/><stop stop-opacity="1" stop-color="rgb(100%, 81.359863%, 39.979553%)" offset="0.882812"/><stop stop-opacity="1" stop-color="rgb(100%, 81.7276%, 39.651489%)" offset="0.890625"/><stop stop-opacity="1" stop-color="rgb(100%, 82.095337%, 39.323425%)" offset="0.898438"/><stop stop-opacity="1" stop-color="rgb(100%, 82.463074%, 38.996887%)" offset="0.90625"/><stop stop-opacity="1" stop-color="rgb(100%, 82.830811%, 38.668823%)" offset="0.914062"/><stop stop-opacity="1" stop-color="rgb(100%, 83.198547%, 38.340759%)" offset="0.921875"/><stop stop-opacity="1" stop-color="rgb(100%, 83.566284%, 38.012695%)" offset="0.929687"/><stop stop-opacity="1" stop-color="rgb(100%, 83.934021%, 37.684631%)" offset="0.9375"/><stop stop-opacity="1" stop-color="rgb(100%, 84.301758%, 37.356567%)" offset="0.945313"/><stop stop-opacity="1" stop-color="rgb(100%, 84.669495%, 37.030029%)" offset="0.953125"/><stop stop-opacity="1" stop-color="rgb(100%, 85.035706%, 36.701965%)" offset="0.960938"/><stop stop-opacity="1" stop-color="rgb(100%, 85.403442%, 36.373901%)" offset="0.96875"/><stop stop-opacity="1" stop-color="rgb(100%, 85.771179%, 36.045837%)" offset="0.976562"/><stop stop-opacity="1" stop-color="rgb(100%, 86.138916%, 35.717773%)" offset="0.984375"/><stop stop-opacity="1" stop-color="rgb(100%, 86.506653%, 35.389709%)" offset="0.992188"/><stop stop-opacity="1" stop-color="rgb(100%, 86.87439%, 35.063171%)" offset="1"/></linearGradient><clipPath id="1a3589c0c8"><rect x="0" width="30" y="0" height="9"/></clipPath><clipPath id="7ecc0ef839"><path d="M 4.882812 12.757812 L 9.964844 12.757812 L 9.964844 16.386719 L 4.882812 16.386719 Z M 4.882812 12.757812 " clip-rule="nonzero"/></clipPath></defs><g clip-path="url(#9f12ee3cdb)"><g clip-path="url(#cdd9cb6ac1)"><g transform="matrix(1, 0, 0, 1, 0, 10)"><g clip-path="url(#1a3589c0c8)"><g clip-path="url(#3f2d74ca42)"><g clip-path="url(#67b58f54a7)"><path fill="url(#d628c47b1b)" d="M 0.484375 0.671875 L 0.484375 8.359375 L 29.515625 8.359375 L 29.515625 0.671875 Z M 0.484375 0.671875 " fill-rule="nonzero"/></g></g></g></g></g></g><g fill="#ffffff" fill-opacity="1"><g transform="translate(5.138632, 14.302135)"><g/></g></g><g fill="#ffffff" fill-opacity="1"><g transform="translate(6.200972, 14.302135)"><g/></g></g><g fill="#ffffff" fill-opacity="1"><g transform="translate(7.263312, 14.302135)"><g/></g></g><g fill="#ffffff" fill-opacity="1"><g transform="translate(8.325652, 14.302135)"><g/></g></g><g fill="#ffffff" fill-opacity="1"><g transform="translate(9.387993, 14.302135)"><g/></g></g><g fill="#ffffff" fill-opacity="1"><g transform="translate(10.450333, 14.302135)"><g/></g></g><g fill="#ffffff" fill-opacity="1"><g transform="translate(11.52346, 14.302135)"><g><path d="M 0.21875 0 L 0.21875 -2.296875 L 1.0625 -2.296875 C 1.25 -2.296875 1.398438 -2.265625 1.515625 -2.203125 C 1.640625 -2.140625 1.726562 -2.054688 1.78125 -1.953125 C 1.84375 -1.847656 1.875 -1.726562 1.875 -1.59375 C 1.875 -1.457031 1.835938 -1.332031 1.765625 -1.21875 C 1.691406 -1.101562 1.578125 -1.019531 1.421875 -0.96875 L 1.90625 0 L 1.421875 0 L 0.984375 -0.90625 L 0.640625 -0.90625 L 0.640625 0 Z M 0.640625 -1.21875 L 1.046875 -1.21875 C 1.179688 -1.21875 1.28125 -1.25 1.34375 -1.3125 C 1.414062 -1.382812 1.453125 -1.472656 1.453125 -1.578125 C 1.453125 -1.691406 1.414062 -1.78125 1.34375 -1.84375 C 1.28125 -1.914062 1.175781 -1.953125 1.03125 -1.953125 L 0.640625 -1.953125 Z M 0.640625 -1.21875 "/></g></g></g><g fill="#ffffff" fill-opacity="1"><g transform="translate(13.847633, 14.302135)"><g><path d="M 0.21875 0 L 0.21875 -2.296875 L 1.71875 -2.296875 L 1.71875 -1.953125 L 0.640625 -1.953125 L 0.640625 -1.328125 L 1.625 -1.328125 L 1.625 -1 L 0.640625 -1 L 0.640625 -0.34375 L 1.71875 -0.34375 L 1.71875 0 Z M 0.21875 0 "/></g></g></g><g fill="#ffffff" fill-opacity="1"><g transform="translate(16.024322, 14.302135)"><g><path d="M 0.765625 0 L 0.765625 -1.953125 L 0.09375 -1.953125 L 0.09375 -2.296875 L 1.84375 -2.296875 L 1.84375 -1.953125 L 1.171875 -1.953125 L 1.171875 0 Z M 0.765625 0 "/></g></g></g><g fill="#ffffff" fill-opacity="1"><g transform="translate(18.000853, 14.302135)"><g><path d="M 0.078125 0 L 0.921875 -2.296875 L 1.390625 -2.296875 L 2.234375 0 L 1.78125 0 L 1.59375 -0.53125 L 0.703125 -0.53125 L 0.515625 0 Z M 0.8125 -0.859375 L 1.484375 -0.859375 L 1.15625 -1.8125 Z M 0.8125 -0.859375 "/></g></g></g><g fill="#ffffff" fill-opacity="1"><g transform="translate(20.580669, 14.302135)"><g><path d="M 0.21875 0 L 0.21875 -2.296875 L 0.640625 -2.296875 L 0.640625 -1.375 L 1.5 -2.296875 L 2.015625 -2.296875 L 1.171875 -1.390625 L 2.03125 0 L 1.515625 0 L 0.859375 -1.0625 L 0.640625 -0.828125 L 0.640625 0 Z M 0.21875 0 "/></g></g></g><g fill="#ffffff" fill-opacity="1"><g transform="translate(22.96056, 14.302135)"><g><path d="M 0.21875 0 L 0.21875 -2.296875 L 1.71875 -2.296875 L 1.71875 -1.953125 L 0.640625 -1.953125 L 0.640625 -1.328125 L 1.625 -1.328125 L 1.625 -1 L 0.640625 -1 L 0.640625 -0.34375 L 1.71875 -0.34375 L 1.71875 0 Z M 0.21875 0 "/></g></g></g><g clip-path="url(#7ecc0ef839)"><path fill="#f9d7e2" d="M 9.269531 13.515625 L 8.421875 13.515625 L 8.125 12.964844 C 8.050781 12.832031 7.941406 12.765625 7.789062 12.765625 L 6.804688 12.765625 C 6.648438 12.765625 6.535156 12.832031 6.460938 12.972656 L 6.179688 13.515625 L 5.992188 13.515625 C 5.988281 13.4375 5.949219 13.398438 5.871094 13.398438 L 5.804688 13.398438 C 5.792969 13.367188 5.773438 13.351562 5.738281 13.351562 L 5.5625 13.351562 C 5.53125 13.351562 5.507812 13.367188 5.496094 13.398438 L 5.433594 13.398438 C 5.355469 13.398438 5.316406 13.4375 5.3125 13.515625 C 5.191406 13.515625 5.09375 13.558594 5.007812 13.644531 C 4.925781 13.726562 4.882812 13.828125 4.882812 13.949219 L 4.882812 15.832031 C 4.882812 15.953125 4.925781 16.054688 5.011719 16.136719 C 5.09375 16.222656 5.195312 16.265625 5.316406 16.265625 L 9.269531 16.265625 C 9.390625 16.265625 9.492188 16.222656 9.574219 16.136719 C 9.660156 16.054688 9.703125 15.953125 9.703125 15.832031 L 9.703125 13.945312 C 9.703125 13.828125 9.660156 13.726562 9.574219 13.640625 C 9.492188 13.554688 9.386719 13.515625 9.269531 13.515625 Z M 7.292969 15.925781 C 7.136719 15.925781 6.988281 15.894531 6.84375 15.835938 C 6.699219 15.773438 6.570312 15.691406 6.460938 15.578125 C 6.347656 15.46875 6.265625 15.339844 6.203125 15.195312 C 6.144531 15.054688 6.113281 14.902344 6.113281 14.746094 C 6.113281 14.589844 6.144531 14.441406 6.203125 14.296875 C 6.261719 14.152344 6.347656 14.023438 6.460938 13.914062 C 6.570312 13.800781 6.695312 13.71875 6.839844 13.65625 C 6.984375 13.597656 7.136719 13.566406 7.292969 13.566406 C 7.449219 13.566406 7.597656 13.597656 7.742188 13.65625 C 7.886719 13.71875 8.015625 13.800781 8.125 13.914062 C 8.238281 14.023438 8.320312 14.152344 8.382812 14.292969 C 8.441406 14.4375 8.472656 14.589844 8.472656 14.746094 C 8.472656 14.902344 8.441406 15.050781 8.382812 15.195312 C 8.320312 15.339844 8.238281 15.46875 8.125 15.578125 C 8.015625 15.6875 7.886719 15.773438 7.742188 15.835938 C 7.597656 15.894531 7.449219 15.925781 7.292969 15.925781 Z M 9.257812 14.191406 C 9.125 14.191406 9.058594 14.128906 9.058594 13.996094 C 9.058594 13.863281 9.125 13.800781 9.257812 13.800781 C 9.386719 13.800781 9.453125 13.863281 9.453125 13.996094 C 9.453125 14.128906 9.386719 14.191406 9.257812 14.191406 Z M 9.257812 14.191406 " fill-opacity="1" fill-rule="nonzero"/></g><path fill="#f9d7e2" d="M 8.113281 14.746094 C 8.113281 14.972656 8.035156 15.167969 7.875 15.328125 C 7.714844 15.488281 7.519531 15.566406 7.292969 15.566406 C 7.066406 15.566406 6.871094 15.488281 6.710938 15.328125 C 6.550781 15.167969 6.472656 14.972656 6.472656 14.746094 C 6.472656 14.519531 6.550781 14.324219 6.710938 14.164062 C 6.871094 14.003906 7.066406 13.925781 7.292969 13.925781 C 7.519531 13.925781 7.714844 14.003906 7.875 14.164062 C 8.035156 14.324219 8.113281 14.519531 8.113281 14.746094 Z M 8.113281 14.746094 " fill-opacity="1" fill-rule="nonzero"/></svg>