<svg xmlns="http://www.w3.org/2000/svg" xmlns:xlink="http://www.w3.org/1999/xlink" width="40" zoomAndPan="magnify" viewBox="0 0 30 30.000001" height="40" preserveAspectRatio="xMidYMid meet" version="1.0"><defs><g/><clipPath id="388474c6e5"><path d="M 0.484375 10.671875 L 29.515625 10.671875 L 29.515625 18.359375 L 0.484375 18.359375 Z M 0.484375 10.671875 " clip-rule="nonzero"/></clipPath><clipPath id="bd27411fbc"><path d="M 4.328125 10.671875 L 25.671875 10.671875 C 26.691406 10.671875 27.667969 11.078125 28.390625 11.796875 C 29.109375 12.519531 29.515625 13.496094 29.515625 14.515625 C 29.515625 15.535156 29.109375 16.511719 28.390625 17.234375 C 27.667969 17.953125 26.691406 18.359375 25.671875 18.359375 L 4.328125 18.359375 C 3.308594 18.359375 2.332031 17.953125 1.609375 17.234375 C 0.890625 16.511719 0.484375 15.535156 0.484375 14.515625 C 0.484375 13.496094 0.890625 12.519531 1.609375 11.796875 C 2.332031 11.078125 3.308594 10.671875 4.328125 10.671875 Z M 4.328125 10.671875 " clip-rule="nonzero"/></clipPath><clipPath id="c331c7adfd"><path d="M 0.484375 0.671875 L 29.515625 0.671875 L 29.515625 8.359375 L 0.484375 8.359375 Z M 0.484375 0.671875 " clip-rule="nonzero"/></clipPath><clipPath id="7deb858f71"><path d="M 4.328125 0.671875 L 25.671875 0.671875 C 26.691406 0.671875 27.667969 1.078125 28.390625 1.796875 C 29.109375 2.519531 29.515625 3.496094 29.515625 4.515625 C 29.515625 5.535156 29.109375 6.511719 28.390625 7.234375 C 27.667969 7.953125 26.691406 8.359375 25.671875 8.359375 L 4.328125 8.359375 C 3.308594 8.359375 2.332031 7.953125 1.609375 7.234375 C 0.890625 6.511719 0.484375 5.535156 0.484375 4.515625 C 0.484375 3.496094 0.890625 2.519531 1.609375 1.796875 C 2.332031 1.078125 3.308594 0.671875 4.328125 0.671875 Z M 4.328125 0.671875 " clip-rule="nonzero"/></clipPath><radialGradient gradientTransform="matrix(1, 0, 0, 1, 0.483717, 0.673106)" gradientUnits="userSpaceOnUse" r="15.016216" cx="14.516141" id="f907f6a129" cy="3.843029" fx="14.516141" fy="3.843029"><stop stop-opacity="1" stop-color="rgb(100%, 40.182495%, 76.695251%)" offset="0"/><stop stop-opacity="1" stop-color="rgb(100%, 40.458679%, 76.449585%)" offset="0.0078125"/><stop stop-opacity="1" stop-color="rgb(100%, 40.641785%, 76.28479%)" offset="0.0117188"/><stop stop-opacity="1" stop-color="rgb(100%, 40.826416%, 76.121521%)" offset="0.015625"/><stop stop-opacity="1" stop-color="rgb(100%, 41.009521%, 75.956726%)" offset="0.0195312"/><stop stop-opacity="1" stop-color="rgb(100%, 41.194153%, 75.793457%)" offset="0.0234375"/><stop stop-opacity="1" stop-color="rgb(100%, 41.377258%, 75.630188%)" offset="0.0273438"/><stop stop-opacity="1" stop-color="rgb(100%, 41.56189%, 75.465393%)" offset="0.03125"/><stop stop-opacity="1" stop-color="rgb(100%, 41.744995%, 75.302124%)" offset="0.0351562"/><stop stop-opacity="1" stop-color="rgb(100%, 41.929626%, 75.137329%)" offset="0.0390625"/><stop stop-opacity="1" stop-color="rgb(100%, 42.112732%, 74.97406%)" offset="0.0429688"/><stop stop-opacity="1" stop-color="rgb(100%, 42.297363%, 74.809265%)" offset="0.046875"/><stop stop-opacity="1" stop-color="rgb(100%, 42.480469%, 74.645996%)" offset="0.0507812"/><stop stop-opacity="1" stop-color="rgb(100%, 42.6651%, 74.482727%)" offset="0.0546875"/><stop stop-opacity="1" stop-color="rgb(100%, 42.848206%, 74.317932%)" offset="0.0585938"/><stop stop-opacity="1" stop-color="rgb(100%, 43.031311%, 74.154663%)" offset="0.0625"/><stop stop-opacity="1" stop-color="rgb(100%, 43.215942%, 73.989868%)" offset="0.0664062"/><stop stop-opacity="1" stop-color="rgb(100%, 43.399048%, 73.826599%)" offset="0.0703125"/><stop stop-opacity="1" stop-color="rgb(100%, 43.583679%, 73.66333%)" offset="0.0742188"/><stop stop-opacity="1" stop-color="rgb(100%, 43.766785%, 73.498535%)" offset="0.078125"/><stop stop-opacity="1" stop-color="rgb(100%, 43.951416%, 73.335266%)" offset="0.0820312"/><stop stop-opacity="1" stop-color="rgb(100%, 44.134521%, 73.170471%)" offset="0.0859375"/><stop stop-opacity="1" stop-color="rgb(100%, 44.319153%, 73.007202%)" offset="0.0898438"/><stop stop-opacity="1" stop-color="rgb(100%, 44.502258%, 72.842407%)" offset="0.09375"/><stop stop-opacity="1" stop-color="rgb(100%, 44.68689%, 72.679138%)" offset="0.0976562"/><stop stop-opacity="1" stop-color="rgb(100%, 44.869995%, 72.515869%)" offset="0.101562"/><stop stop-opacity="1" stop-color="rgb(100%, 45.054626%, 72.351074%)" offset="0.105469"/><stop stop-opacity="1" stop-color="rgb(100%, 45.237732%, 72.187805%)" offset="0.109375"/><stop stop-opacity="1" stop-color="rgb(100%, 45.422363%, 72.02301%)" offset="0.113281"/><stop stop-opacity="1" stop-color="rgb(100%, 45.605469%, 71.859741%)" offset="0.117188"/><stop stop-opacity="1" stop-color="rgb(100%, 45.7901%, 71.696472%)" offset="0.121094"/><stop stop-opacity="1" stop-color="rgb(100%, 45.973206%, 71.531677%)" offset="0.125"/><stop stop-opacity="1" stop-color="rgb(100%, 46.157837%, 71.368408%)" offset="0.128906"/><stop stop-opacity="1" stop-color="rgb(100%, 46.340942%, 71.203613%)" offset="0.132812"/><stop stop-opacity="1" stop-color="rgb(100%, 46.524048%, 71.040344%)" offset="0.136719"/><stop stop-opacity="1" stop-color="rgb(100%, 46.708679%, 70.875549%)" offset="0.140625"/><stop stop-opacity="1" stop-color="rgb(100%, 46.891785%, 70.71228%)" offset="0.144531"/><stop stop-opacity="1" stop-color="rgb(100%, 47.076416%, 70.549011%)" offset="0.148438"/><stop stop-opacity="1" stop-color="rgb(100%, 47.259521%, 70.384216%)" offset="0.152344"/><stop stop-opacity="1" stop-color="rgb(100%, 47.444153%, 70.220947%)" offset="0.15625"/><stop stop-opacity="1" stop-color="rgb(100%, 47.627258%, 70.056152%)" offset="0.160156"/><stop stop-opacity="1" stop-color="rgb(100%, 47.81189%, 69.892883%)" offset="0.164062"/><stop stop-opacity="1" stop-color="rgb(100%, 47.994995%, 69.729614%)" offset="0.167969"/><stop stop-opacity="1" stop-color="rgb(100%, 48.179626%, 69.564819%)" offset="0.171875"/><stop stop-opacity="1" stop-color="rgb(100%, 48.362732%, 69.40155%)" offset="0.175781"/><stop stop-opacity="1" stop-color="rgb(100%, 48.547363%, 69.236755%)" offset="0.179688"/><stop stop-opacity="1" stop-color="rgb(100%, 48.730469%, 69.073486%)" offset="0.183594"/><stop stop-opacity="1" stop-color="rgb(100%, 48.9151%, 68.908691%)" offset="0.1875"/><stop stop-opacity="1" stop-color="rgb(100%, 49.098206%, 68.745422%)" offset="0.191406"/><stop stop-opacity="1" stop-color="rgb(100%, 49.282837%, 68.582153%)" offset="0.195312"/><stop stop-opacity="1" stop-color="rgb(100%, 49.465942%, 68.417358%)" offset="0.199219"/><stop stop-opacity="1" stop-color="rgb(100%, 49.650574%, 68.254089%)" offset="0.203125"/><stop stop-opacity="1" stop-color="rgb(100%, 49.833679%, 68.089294%)" offset="0.207031"/><stop stop-opacity="1" stop-color="rgb(100%, 50.016785%, 67.926025%)" offset="0.210938"/><stop stop-opacity="1" stop-color="rgb(100%, 50.201416%, 67.762756%)" offset="0.214844"/><stop stop-opacity="1" stop-color="rgb(100%, 50.384521%, 67.597961%)" offset="0.21875"/><stop stop-opacity="1" stop-color="rgb(100%, 50.569153%, 67.434692%)" offset="0.222656"/><stop stop-opacity="1" stop-color="rgb(100%, 50.752258%, 67.269897%)" offset="0.226562"/><stop stop-opacity="1" stop-color="rgb(100%, 50.93689%, 67.106628%)" offset="0.230469"/><stop stop-opacity="1" stop-color="rgb(100%, 51.119995%, 66.941833%)" offset="0.234375"/><stop stop-opacity="1" stop-color="rgb(100%, 51.304626%, 66.778564%)" offset="0.238281"/><stop stop-opacity="1" stop-color="rgb(100%, 51.487732%, 66.615295%)" offset="0.242188"/><stop stop-opacity="1" stop-color="rgb(100%, 51.672363%, 66.4505%)" offset="0.246094"/><stop stop-opacity="1" stop-color="rgb(100%, 51.855469%, 66.287231%)" offset="0.25"/><stop stop-opacity="1" stop-color="rgb(100%, 52.131653%, 66.040039%)" offset="0.253906"/><stop stop-opacity="1" stop-color="rgb(100%, 52.49939%, 65.713501%)" offset="0.261719"/><stop stop-opacity="1" stop-color="rgb(100%, 52.867126%, 65.385437%)" offset="0.269531"/><stop stop-opacity="1" stop-color="rgb(100%, 53.234863%, 65.057373%)" offset="0.277344"/><stop stop-opacity="1" stop-color="rgb(100%, 53.601074%, 64.729309%)" offset="0.285156"/><stop stop-opacity="1" stop-color="rgb(100%, 53.968811%, 64.401245%)" offset="0.292969"/><stop stop-opacity="1" stop-color="rgb(100%, 54.336548%, 64.073181%)" offset="0.300781"/><stop stop-opacity="1" stop-color="rgb(100%, 54.704285%, 63.746643%)" offset="0.308594"/><stop stop-opacity="1" stop-color="rgb(100%, 55.072021%, 63.418579%)" offset="0.316406"/><stop stop-opacity="1" stop-color="rgb(100%, 55.439758%, 63.090515%)" offset="0.324219"/><stop stop-opacity="1" stop-color="rgb(100%, 55.807495%, 62.762451%)" offset="0.332031"/><stop stop-opacity="1" stop-color="rgb(100%, 56.175232%, 62.434387%)" offset="0.339844"/><stop stop-opacity="1" stop-color="rgb(100%, 56.542969%, 62.106323%)" offset="0.347656"/><stop stop-opacity="1" stop-color="rgb(100%, 56.910706%, 61.779785%)" offset="0.355469"/><stop stop-opacity="1" stop-color="rgb(100%, 57.278442%, 61.451721%)" offset="0.363281"/><stop stop-opacity="1" stop-color="rgb(100%, 57.646179%, 61.123657%)" offset="0.371094"/><stop stop-opacity="1" stop-color="rgb(100%, 58.013916%, 60.795593%)" offset="0.378906"/><stop stop-opacity="1" stop-color="rgb(100%, 58.381653%, 60.467529%)" offset="0.386719"/><stop stop-opacity="1" stop-color="rgb(100%, 58.74939%, 60.139465%)" offset="0.394531"/><stop stop-opacity="1" stop-color="rgb(100%, 59.117126%, 59.812927%)" offset="0.402344"/><stop stop-opacity="1" stop-color="rgb(100%, 59.484863%, 59.484863%)" offset="0.410156"/><stop stop-opacity="1" stop-color="rgb(100%, 59.8526%, 59.156799%)" offset="0.417969"/><stop stop-opacity="1" stop-color="rgb(100%, 60.220337%, 58.828735%)" offset="0.425781"/><stop stop-opacity="1" stop-color="rgb(100%, 60.586548%, 58.500671%)" offset="0.433594"/><stop stop-opacity="1" stop-color="rgb(100%, 60.954285%, 58.172607%)" offset="0.441406"/><stop stop-opacity="1" stop-color="rgb(100%, 61.322021%, 57.846069%)" offset="0.449219"/><stop stop-opacity="1" stop-color="rgb(100%, 61.689758%, 57.518005%)" offset="0.457031"/><stop stop-opacity="1" stop-color="rgb(100%, 62.057495%, 57.189941%)" offset="0.464844"/><stop stop-opacity="1" stop-color="rgb(100%, 62.425232%, 56.861877%)" offset="0.472656"/><stop stop-opacity="1" stop-color="rgb(100%, 62.792969%, 56.533813%)" offset="0.480469"/><stop stop-opacity="1" stop-color="rgb(100%, 63.160706%, 56.20575%)" offset="0.488281"/><stop stop-opacity="1" stop-color="rgb(100%, 63.528442%, 55.879211%)" offset="0.496094"/><stop stop-opacity="1" stop-color="rgb(100%, 63.804626%, 55.633545%)" offset="0.503906"/><stop stop-opacity="1" stop-color="rgb(100%, 63.987732%, 55.46875%)" offset="0.507812"/><stop stop-opacity="1" stop-color="rgb(100%, 64.172363%, 55.305481%)" offset="0.511719"/><stop stop-opacity="1" stop-color="rgb(100%, 64.355469%, 55.140686%)" offset="0.515625"/><stop stop-opacity="1" stop-color="rgb(100%, 64.5401%, 54.977417%)" offset="0.519531"/><stop stop-opacity="1" stop-color="rgb(100%, 64.723206%, 54.814148%)" offset="0.523438"/><stop stop-opacity="1" stop-color="rgb(100%, 64.907837%, 54.649353%)" offset="0.527344"/><stop stop-opacity="1" stop-color="rgb(100%, 65.090942%, 54.486084%)" offset="0.53125"/><stop stop-opacity="1" stop-color="rgb(100%, 65.275574%, 54.321289%)" offset="0.535156"/><stop stop-opacity="1" stop-color="rgb(100%, 65.458679%, 54.15802%)" offset="0.539062"/><stop stop-opacity="1" stop-color="rgb(100%, 65.643311%, 53.993225%)" offset="0.542969"/><stop stop-opacity="1" stop-color="rgb(100%, 65.826416%, 53.829956%)" offset="0.546875"/><stop stop-opacity="1" stop-color="rgb(100%, 66.011047%, 53.666687%)" offset="0.550781"/><stop stop-opacity="1" stop-color="rgb(100%, 66.194153%, 53.501892%)" offset="0.554688"/><stop stop-opacity="1" stop-color="rgb(100%, 66.378784%, 53.338623%)" offset="0.558594"/><stop stop-opacity="1" stop-color="rgb(100%, 66.56189%, 53.173828%)" offset="0.5625"/><stop stop-opacity="1" stop-color="rgb(100%, 66.746521%, 53.010559%)" offset="0.566406"/><stop stop-opacity="1" stop-color="rgb(100%, 66.929626%, 52.84729%)" offset="0.570312"/><stop stop-opacity="1" stop-color="rgb(100%, 67.114258%, 52.682495%)" offset="0.574219"/><stop stop-opacity="1" stop-color="rgb(100%, 67.297363%, 52.519226%)" offset="0.578125"/><stop stop-opacity="1" stop-color="rgb(100%, 67.480469%, 52.354431%)" offset="0.582031"/><stop stop-opacity="1" stop-color="rgb(100%, 67.6651%, 52.191162%)" offset="0.585938"/><stop stop-opacity="1" stop-color="rgb(100%, 67.848206%, 52.026367%)" offset="0.589844"/><stop stop-opacity="1" stop-color="rgb(100%, 68.032837%, 51.863098%)" offset="0.59375"/><stop stop-opacity="1" stop-color="rgb(100%, 68.215942%, 51.699829%)" offset="0.597656"/><stop stop-opacity="1" stop-color="rgb(100%, 68.400574%, 51.535034%)" offset="0.601562"/><stop stop-opacity="1" stop-color="rgb(100%, 68.583679%, 51.371765%)" offset="0.605469"/><stop stop-opacity="1" stop-color="rgb(100%, 68.768311%, 51.20697%)" offset="0.609375"/><stop stop-opacity="1" stop-color="rgb(100%, 68.951416%, 51.043701%)" offset="0.613281"/><stop stop-opacity="1" stop-color="rgb(100%, 69.136047%, 50.878906%)" offset="0.617188"/><stop stop-opacity="1" stop-color="rgb(100%, 69.319153%, 50.715637%)" offset="0.621094"/><stop stop-opacity="1" stop-color="rgb(100%, 69.503784%, 50.552368%)" offset="0.625"/><stop stop-opacity="1" stop-color="rgb(100%, 69.778442%, 50.305176%)" offset="0.628906"/><stop stop-opacity="1" stop-color="rgb(100%, 70.146179%, 49.978638%)" offset="0.636719"/><stop stop-opacity="1" stop-color="rgb(100%, 70.513916%, 49.650574%)" offset="0.644531"/><stop stop-opacity="1" stop-color="rgb(100%, 70.881653%, 49.32251%)" offset="0.652344"/><stop stop-opacity="1" stop-color="rgb(100%, 71.24939%, 48.994446%)" offset="0.660156"/><stop stop-opacity="1" stop-color="rgb(100%, 71.617126%, 48.666382%)" offset="0.667969"/><stop stop-opacity="1" stop-color="rgb(100%, 71.984863%, 48.338318%)" offset="0.675781"/><stop stop-opacity="1" stop-color="rgb(100%, 72.3526%, 48.01178%)" offset="0.683594"/><stop stop-opacity="1" stop-color="rgb(100%, 72.720337%, 47.683716%)" offset="0.691406"/><stop stop-opacity="1" stop-color="rgb(100%, 73.088074%, 47.355652%)" offset="0.699219"/><stop stop-opacity="1" stop-color="rgb(100%, 73.455811%, 47.027588%)" offset="0.707031"/><stop stop-opacity="1" stop-color="rgb(100%, 73.823547%, 46.699524%)" offset="0.714844"/><stop stop-opacity="1" stop-color="rgb(100%, 74.191284%, 46.37146%)" offset="0.722656"/><stop stop-opacity="1" stop-color="rgb(100%, 74.557495%, 46.044922%)" offset="0.730469"/><stop stop-opacity="1" stop-color="rgb(100%, 74.925232%, 45.716858%)" offset="0.738281"/><stop stop-opacity="1" stop-color="rgb(100%, 75.292969%, 45.388794%)" offset="0.746094"/><stop stop-opacity="1" stop-color="rgb(100%, 75.569153%, 45.143127%)" offset="0.753906"/><stop stop-opacity="1" stop-color="rgb(100%, 75.753784%, 44.978333%)" offset="0.757812"/><stop stop-opacity="1" stop-color="rgb(100%, 75.93689%, 44.815063%)" offset="0.761719"/><stop stop-opacity="1" stop-color="rgb(100%, 76.121521%, 44.651794%)" offset="0.765625"/><stop stop-opacity="1" stop-color="rgb(100%, 76.304626%, 44.487%)" offset="0.769531"/><stop stop-opacity="1" stop-color="rgb(100%, 76.489258%, 44.32373%)" offset="0.773438"/><stop stop-opacity="1" stop-color="rgb(100%, 76.672363%, 44.158936%)" offset="0.777344"/><stop stop-opacity="1" stop-color="rgb(100%, 76.856995%, 43.995667%)" offset="0.78125"/><stop stop-opacity="1" stop-color="rgb(100%, 77.0401%, 43.832397%)" offset="0.785156"/><stop stop-opacity="1" stop-color="rgb(100%, 77.224731%, 43.667603%)" offset="0.789062"/><stop stop-opacity="1" stop-color="rgb(100%, 77.407837%, 43.504333%)" offset="0.792969"/><stop stop-opacity="1" stop-color="rgb(100%, 77.592468%, 43.339539%)" offset="0.796875"/><stop stop-opacity="1" stop-color="rgb(100%, 77.775574%, 43.17627%)" offset="0.800781"/><stop stop-opacity="1" stop-color="rgb(100%, 77.958679%, 43.011475%)" offset="0.804688"/><stop stop-opacity="1" stop-color="rgb(100%, 78.143311%, 42.848206%)" offset="0.808594"/><stop stop-opacity="1" stop-color="rgb(100%, 78.326416%, 42.684937%)" offset="0.8125"/><stop stop-opacity="1" stop-color="rgb(100%, 78.6026%, 42.437744%)" offset="0.816406"/><stop stop-opacity="1" stop-color="rgb(100%, 78.970337%, 42.111206%)" offset="0.824219"/><stop stop-opacity="1" stop-color="rgb(100%, 79.338074%, 41.783142%)" offset="0.832031"/><stop stop-opacity="1" stop-color="rgb(100%, 79.705811%, 41.455078%)" offset="0.839844"/><stop stop-opacity="1" stop-color="rgb(100%, 80.073547%, 41.127014%)" offset="0.847656"/><stop stop-opacity="1" stop-color="rgb(100%, 80.441284%, 40.79895%)" offset="0.855469"/><stop stop-opacity="1" stop-color="rgb(100%, 80.809021%, 40.470886%)" offset="0.863281"/><stop stop-opacity="1" stop-color="rgb(100%, 81.176758%, 40.144348%)" offset="0.871094"/><stop stop-opacity="1" stop-color="rgb(100%, 81.451416%, 39.898682%)" offset="0.878906"/><stop stop-opacity="1" stop-color="rgb(100%, 81.636047%, 39.733887%)" offset="0.882812"/><stop stop-opacity="1" stop-color="rgb(100%, 81.819153%, 39.570618%)" offset="0.886719"/><stop stop-opacity="1" stop-color="rgb(100%, 82.003784%, 39.405823%)" offset="0.890625"/><stop stop-opacity="1" stop-color="rgb(100%, 82.18689%, 39.242554%)" offset="0.894531"/><stop stop-opacity="1" stop-color="rgb(100%, 82.371521%, 39.077759%)" offset="0.898438"/><stop stop-opacity="1" stop-color="rgb(100%, 82.554626%, 38.91449%)" offset="0.902344"/><stop stop-opacity="1" stop-color="rgb(100%, 82.739258%, 38.751221%)" offset="0.90625"/><stop stop-opacity="1" stop-color="rgb(100%, 83.013916%, 38.504028%)" offset="0.910156"/><stop stop-opacity="1" stop-color="rgb(100%, 83.381653%, 38.175964%)" offset="0.917969"/><stop stop-opacity="1" stop-color="rgb(100%, 83.74939%, 37.849426%)" offset="0.925781"/><stop stop-opacity="1" stop-color="rgb(100%, 84.117126%, 37.521362%)" offset="0.933594"/><stop stop-opacity="1" stop-color="rgb(100%, 84.393311%, 37.275696%)" offset="0.941406"/><stop stop-opacity="1" stop-color="rgb(100%, 84.577942%, 37.110901%)" offset="0.945312"/><stop stop-opacity="1" stop-color="rgb(100%, 84.761047%, 36.947632%)" offset="0.949219"/><stop stop-opacity="1" stop-color="rgb(100%, 84.944153%, 36.784363%)" offset="0.953125"/><stop stop-opacity="1" stop-color="rgb(100%, 85.220337%, 36.53717%)" offset="0.957031"/><stop stop-opacity="1" stop-color="rgb(100%, 85.588074%, 36.209106%)" offset="0.964844"/><stop stop-opacity="1" stop-color="rgb(100%, 85.864258%, 35.96344%)" offset="0.972656"/><stop stop-opacity="1" stop-color="rgb(100%, 86.047363%, 35.800171%)" offset="0.976562"/><stop stop-opacity="1" stop-color="rgb(100%, 86.323547%, 35.554504%)" offset="0.980469"/><stop stop-opacity="1" stop-color="rgb(100%, 86.599731%, 35.308838%)" offset="0.988281"/><stop stop-opacity="1" stop-color="rgb(100%, 86.87439%, 35.063171%)" offset="0.992188"/><stop stop-opacity="1" stop-color="rgb(100%, 87.059021%, 34.899902%)" offset="1"/></radialGradient><clipPath id="50c1582933"><rect x="0" width="30" y="0" height="9"/></clipPath><clipPath id="c3ef001997"><path d="M 4.882812 12.757812 L 9.964844 12.757812 L 9.964844 16.386719 L 4.882812 16.386719 Z M 4.882812 12.757812 " clip-rule="nonzero"/></clipPath></defs><g clip-path="url(#388474c6e5)"><g clip-path="url(#bd27411fbc)"><g transform="matrix(1, 0, 0, 1, 0, 10)"><g clip-path="url(#50c1582933)"><g clip-path="url(#c331c7adfd)"><g clip-path="url(#7deb858f71)"><path fill="url(#f907f6a129)" d="M 0.484375 0.671875 L 0.484375 8.359375 L 29.515625 8.359375 L 29.515625 0.671875 Z M 0.484375 0.671875 " fill-rule="nonzero"/></g></g></g></g></g></g><g fill="#ffffff" fill-opacity="1"><g transform="translate(5.138632, 14.302138)"><g/></g></g><g fill="#ffffff" fill-opacity="1"><g transform="translate(6.200972, 14.302138)"><g/></g></g><g fill="#ffffff" fill-opacity="1"><g transform="translate(7.263312, 14.302138)"><g/></g></g><g fill="#ffffff" fill-opacity="1"><g transform="translate(8.325652, 14.302138)"><g/></g></g><g fill="#ffffff" fill-opacity="1"><g transform="translate(9.387993, 14.302138)"><g/></g></g><g fill="#ffffff" fill-opacity="1"><g transform="translate(10.450333, 14.302138)"><g/></g></g><g fill="#ffffff" fill-opacity="1"><g transform="translate(11.52346, 14.302138)"><g><path d="M 0.21875 0 L 0.21875 -2.296875 L 1.0625 -2.296875 C 1.25 -2.296875 1.398438 -2.265625 1.515625 -2.203125 C 1.640625 -2.140625 1.726562 -2.054688 1.78125 -1.953125 C 1.84375 -1.847656 1.875 -1.726562 1.875 -1.59375 C 1.875 -1.457031 1.835938 -1.332031 1.765625 -1.21875 C 1.691406 -1.101562 1.578125 -1.019531 1.421875 -0.96875 L 1.90625 0 L 1.421875 0 L 0.984375 -0.90625 L 0.640625 -0.90625 L 0.640625 0 Z M 0.640625 -1.21875 L 1.046875 -1.21875 C 1.179688 -1.21875 1.28125 -1.25 1.34375 -1.3125 C 1.414062 -1.382812 1.453125 -1.472656 1.453125 -1.578125 C 1.453125 -1.691406 1.414062 -1.78125 1.34375 -1.84375 C 1.28125 -1.914062 1.175781 -1.953125 1.03125 -1.953125 L 0.640625 -1.953125 Z M 0.640625 -1.21875 "/></g></g></g><g fill="#ffffff" fill-opacity="1"><g transform="translate(13.847633, 14.302138)"><g><path d="M 0.21875 0 L 0.21875 -2.296875 L 1.71875 -2.296875 L 1.71875 -1.953125 L 0.640625 -1.953125 L 0.640625 -1.328125 L 1.625 -1.328125 L 1.625 -1 L 0.640625 -1 L 0.640625 -0.34375 L 1.71875 -0.34375 L 1.71875 0 Z M 0.21875 0 "/></g></g></g><g fill="#ffffff" fill-opacity="1"><g transform="translate(16.024322, 14.302138)"><g><path d="M 0.765625 0 L 0.765625 -1.953125 L 0.09375 -1.953125 L 0.09375 -2.296875 L 1.84375 -2.296875 L 1.84375 -1.953125 L 1.171875 -1.953125 L 1.171875 0 Z M 0.765625 0 "/></g></g></g><g fill="#ffffff" fill-opacity="1"><g transform="translate(18.000853, 14.302138)"><g><path d="M 0.078125 0 L 0.921875 -2.296875 L 1.390625 -2.296875 L 2.234375 0 L 1.78125 0 L 1.59375 -0.53125 L 0.703125 -0.53125 L 0.515625 0 Z M 0.8125 -0.859375 L 1.484375 -0.859375 L 1.15625 -1.8125 Z M 0.8125 -0.859375 "/></g></g></g><g fill="#ffffff" fill-opacity="1"><g transform="translate(20.580669, 14.302138)"><g><path d="M 0.21875 0 L 0.21875 -2.296875 L 0.640625 -2.296875 L 0.640625 -1.375 L 1.5 -2.296875 L 2.015625 -2.296875 L 1.171875 -1.390625 L 2.03125 0 L 1.515625 0 L 0.859375 -1.0625 L 0.640625 -0.828125 L 0.640625 0 Z M 0.21875 0 "/></g></g></g><g fill="#ffffff" fill-opacity="1"><g transform="translate(22.96056, 14.302138)"><g><path d="M 0.21875 0 L 0.21875 -2.296875 L 1.71875 -2.296875 L 1.71875 -1.953125 L 0.640625 -1.953125 L 0.640625 -1.328125 L 1.625 -1.328125 L 1.625 -1 L 0.640625 -1 L 0.640625 -0.34375 L 1.71875 -0.34375 L 1.71875 0 Z M 0.21875 0 "/></g></g></g><g clip-path="url(#c3ef001997)"><path fill="#f9d7e2" d="M 9.269531 13.515625 L 8.421875 13.515625 L 8.125 12.964844 C 8.050781 12.832031 7.941406 12.765625 7.789062 12.765625 L 6.804688 12.765625 C 6.648438 12.765625 6.535156 12.832031 6.460938 12.972656 L 6.179688 13.515625 L 5.992188 13.515625 C 5.988281 13.4375 5.949219 13.398438 5.871094 13.398438 L 5.804688 13.398438 C 5.792969 13.367188 5.773438 13.351562 5.738281 13.351562 L 5.5625 13.351562 C 5.53125 13.351562 5.507812 13.367188 5.496094 13.398438 L 5.433594 13.398438 C 5.355469 13.398438 5.316406 13.4375 5.3125 13.515625 C 5.191406 13.515625 5.09375 13.558594 5.007812 13.644531 C 4.925781 13.726562 4.882812 13.828125 4.882812 13.949219 L 4.882812 15.832031 C 4.882812 15.953125 4.925781 16.054688 5.011719 16.136719 C 5.09375 16.222656 5.195312 16.265625 5.316406 16.265625 L 9.269531 16.265625 C 9.390625 16.265625 9.492188 16.222656 9.574219 16.136719 C 9.660156 16.054688 9.703125 15.953125 9.703125 15.832031 L 9.703125 13.945312 C 9.703125 13.828125 9.660156 13.726562 9.574219 13.640625 C 9.492188 13.554688 9.386719 13.515625 9.269531 13.515625 Z M 7.292969 15.925781 C 7.136719 15.925781 6.988281 15.894531 6.84375 15.835938 C 6.699219 15.773438 6.570312 15.691406 6.460938 15.578125 C 6.347656 15.46875 6.265625 15.339844 6.203125 15.195312 C 6.144531 15.054688 6.113281 14.902344 6.113281 14.746094 C 6.113281 14.589844 6.144531 14.441406 6.203125 14.296875 C 6.261719 14.152344 6.347656 14.023438 6.460938 13.914062 C 6.570312 13.800781 6.695312 13.71875 6.839844 13.65625 C 6.984375 13.597656 7.136719 13.566406 7.292969 13.566406 C 7.449219 13.566406 7.597656 13.597656 7.742188 13.65625 C 7.886719 13.71875 8.015625 13.800781 8.125 13.914062 C 8.238281 14.023438 8.320312 14.152344 8.382812 14.292969 C 8.441406 14.4375 8.472656 14.589844 8.472656 14.746094 C 8.472656 14.902344 8.441406 15.050781 8.382812 15.195312 C 8.320312 15.339844 8.238281 15.46875 8.125 15.578125 C 8.015625 15.6875 7.886719 15.773438 7.742188 15.835938 C 7.597656 15.894531 7.449219 15.925781 7.292969 15.925781 Z M 9.257812 14.191406 C 9.125 14.191406 9.058594 14.128906 9.058594 13.996094 C 9.058594 13.863281 9.125 13.800781 9.257812 13.800781 C 9.386719 13.800781 9.453125 13.863281 9.453125 13.996094 C 9.453125 14.128906 9.386719 14.191406 9.257812 14.191406 Z M 9.257812 14.191406 " fill-opacity="1" fill-rule="nonzero"/></g><path fill="#f9d7e2" d="M 8.113281 14.746094 C 8.113281 14.972656 8.035156 15.167969 7.875 15.328125 C 7.714844 15.488281 7.519531 15.566406 7.292969 15.566406 C 7.066406 15.566406 6.871094 15.488281 6.710938 15.328125 C 6.550781 15.167969 6.472656 14.972656 6.472656 14.746094 C 6.472656 14.519531 6.550781 14.324219 6.710938 14.164062 C 6.871094 14.003906 7.066406 13.925781 7.292969 13.925781 C 7.519531 13.925781 7.714844 14.003906 7.875 14.164062 C 8.035156 14.324219 8.113281 14.519531 8.113281 14.746094 Z M 8.113281 14.746094 " fill-opacity="1" fill-rule="nonzero"/></svg>