<svg xmlns="http://www.w3.org/2000/svg" xmlns:xlink="http://www.w3.org/1999/xlink" width="40" zoomAndPan="magnify" viewBox="0 0 30 30.000001" height="40" preserveAspectRatio="xMidYMid meet" version="1.0"><defs><g/><clipPath id="29f7be02f6"><path d="M 0.484375 9.710938 L 29.515625 9.710938 L 29.515625 19.324219 L 0.484375 19.324219 Z M 0.484375 9.710938 " clip-rule="nonzero"/></clipPath><clipPath id="e89b27d02d"><path d="M 3.386719 9.710938 L 26.613281 9.710938 C 27.382812 9.710938 28.121094 10.015625 28.664062 10.558594 C 29.210938 11.105469 29.515625 11.84375 29.515625 12.613281 L 29.515625 16.417969 C 29.515625 17.1875 29.210938 17.925781 28.664062 18.472656 C 28.121094 19.015625 27.382812 19.324219 26.613281 19.324219 L 3.386719 19.324219 C 2.617188 19.324219 1.878906 19.015625 1.335938 18.472656 C 0.789062 17.925781 0.484375 17.1875 0.484375 16.417969 L 0.484375 12.613281 C 0.484375 11.84375 0.789062 11.105469 1.335938 10.558594 C 1.878906 10.015625 2.617188 9.710938 3.386719 9.710938 Z M 3.386719 9.710938 " clip-rule="nonzero"/></clipPath><clipPath id="e7c4e42210"><path d="M 0.484375 0.710938 L 29.515625 0.710938 L 29.515625 10.324219 L 0.484375 10.324219 Z M 0.484375 0.710938 " clip-rule="nonzero"/></clipPath><clipPath id="2782b9aa69"><path d="M 3.386719 0.710938 L 26.613281 0.710938 C 27.382812 0.710938 28.121094 1.015625 28.664062 1.558594 C 29.210938 2.105469 29.515625 2.84375 29.515625 3.613281 L 29.515625 7.417969 C 29.515625 8.1875 29.210938 8.925781 28.664062 9.472656 C 28.121094 10.015625 27.382812 10.324219 26.613281 10.324219 L 3.386719 10.324219 C 2.617188 10.324219 1.878906 10.015625 1.335938 9.472656 C 0.789062 8.925781 0.484375 8.1875 0.484375 7.417969 L 0.484375 3.613281 C 0.484375 2.84375 0.789062 2.105469 1.335938 1.558594 C 1.878906 1.015625 2.617188 0.710938 3.386719 0.710938 Z M 3.386719 0.710938 " clip-rule="nonzero"/></clipPath><clipPath id="338417404a"><rect x="0" width="30" y="0" height="11"/></clipPath><clipPath id="f65996e2ba"><path d="M 23.613281 14.027344 L 26.507812 14.027344 L 26.507812 15.480469 L 23.613281 15.480469 Z M 23.613281 14.027344 " clip-rule="nonzero"/></clipPath><clipPath id="057f9ff8ba"><path d="M 5.9375 12.21875 L 11.019531 12.21875 L 11.019531 17.300781 L 5.9375 17.300781 Z M 5.9375 12.21875 " clip-rule="nonzero"/></clipPath></defs><g clip-path="url(#29f7be02f6)"><g clip-path="url(#e89b27d02d)"><g transform="matrix(1, 0, 0, 1, 0, 9)"><g clip-path="url(#338417404a)"><g clip-path="url(#e7c4e42210)"><g clip-path="url(#2782b9aa69)"><path fill="#f9d7e2" d="M 0.484375 0.710938 L 29.507812 0.710938 L 29.507812 10.324219 L 0.484375 10.324219 Z M 0.484375 0.710938 " fill-opacity="1" fill-rule="nonzero"/></g></g></g></g></g></g><g fill="#000000" fill-opacity="1"><g transform="translate(1.062247, 14.790484)"><g/></g></g><g fill="#000000" fill-opacity="1"><g transform="translate(1.86168, 14.790484)"><g/></g></g><g fill="#000000" fill-opacity="1"><g transform="translate(2.661113, 14.790484)"><g/></g></g><g fill="#000000" fill-opacity="1"><g transform="translate(3.460545, 14.790484)"><g/></g></g><g fill="#000000" fill-opacity="1"><g transform="translate(4.259978, 14.790484)"><g/></g></g><g fill="#000000" fill-opacity="1"><g transform="translate(5.05941, 14.790484)"><g/></g></g><g fill="#000000" fill-opacity="1"><g transform="translate(5.858843, 14.790484)"><g/></g></g><g fill="#000000" fill-opacity="1"><g transform="translate(6.658275, 14.790484)"><g/></g></g><g fill="#000000" fill-opacity="1"><g transform="translate(7.457708, 14.790484)"><g/></g></g><g fill="#000000" fill-opacity="1"><g transform="translate(8.257141, 14.790484)"><g/></g></g><g fill="#000000" fill-opacity="1"><g transform="translate(9.056573, 14.790484)"><g/></g></g><g fill="#000000" fill-opacity="1"><g transform="translate(9.856006, 14.790484)"><g/></g></g><g fill="#000000" fill-opacity="1"><g transform="translate(10.655438, 14.790484)"><g/></g></g><g fill="#000000" fill-opacity="1"><g transform="translate(11.454871, 14.790484)"><g/></g></g><g fill="#000000" fill-opacity="1"><g transform="translate(12.254303, 14.790484)"><g/></g></g><g fill="#000000" fill-opacity="1"><g transform="translate(13.060735, 14.790484)"><g><path d="M 0.90625 0.03125 C 0.75 0.03125 0.613281 0.00390625 0.5 -0.046875 C 0.382812 -0.109375 0.296875 -0.1875 0.234375 -0.28125 C 0.171875 -0.382812 0.140625 -0.503906 0.140625 -0.640625 L 0.40625 -0.640625 C 0.40625 -0.554688 0.421875 -0.476562 0.453125 -0.40625 C 0.492188 -0.332031 0.550781 -0.273438 0.625 -0.234375 C 0.695312 -0.191406 0.789062 -0.171875 0.90625 -0.171875 C 1.039062 -0.171875 1.148438 -0.207031 1.234375 -0.28125 C 1.316406 -0.351562 1.359375 -0.441406 1.359375 -0.546875 C 1.359375 -0.628906 1.335938 -0.695312 1.296875 -0.75 C 1.265625 -0.800781 1.21875 -0.84375 1.15625 -0.875 C 1.09375 -0.90625 1.019531 -0.929688 0.9375 -0.953125 C 0.851562 -0.972656 0.769531 -1 0.6875 -1.03125 C 0.519531 -1.09375 0.394531 -1.164062 0.3125 -1.25 C 0.238281 -1.332031 0.203125 -1.441406 0.203125 -1.578125 C 0.203125 -1.691406 0.226562 -1.789062 0.28125 -1.875 C 0.332031 -1.96875 0.410156 -2.035156 0.515625 -2.078125 C 0.617188 -2.128906 0.738281 -2.15625 0.875 -2.15625 C 1.007812 -2.15625 1.125 -2.128906 1.21875 -2.078125 C 1.320312 -2.023438 1.398438 -1.953125 1.453125 -1.859375 C 1.515625 -1.773438 1.546875 -1.675781 1.546875 -1.5625 L 1.28125 -1.5625 C 1.28125 -1.625 1.265625 -1.679688 1.234375 -1.734375 C 1.203125 -1.796875 1.15625 -1.84375 1.09375 -1.875 C 1.03125 -1.914062 0.953125 -1.9375 0.859375 -1.9375 C 0.742188 -1.9375 0.648438 -1.90625 0.578125 -1.84375 C 0.503906 -1.789062 0.46875 -1.707031 0.46875 -1.59375 C 0.46875 -1.507812 0.492188 -1.441406 0.546875 -1.390625 C 0.597656 -1.335938 0.671875 -1.296875 0.765625 -1.265625 C 0.859375 -1.234375 0.960938 -1.195312 1.078125 -1.15625 C 1.179688 -1.125 1.273438 -1.082031 1.359375 -1.03125 C 1.441406 -0.988281 1.503906 -0.925781 1.546875 -0.84375 C 1.585938 -0.769531 1.609375 -0.675781 1.609375 -0.5625 C 1.609375 -0.457031 1.582031 -0.359375 1.53125 -0.265625 C 1.476562 -0.179688 1.398438 -0.109375 1.296875 -0.046875 C 1.191406 0.00390625 1.0625 0.03125 0.90625 0.03125 Z M 0.90625 0.03125 "/></g></g></g><g fill="#000000" fill-opacity="1"><g transform="translate(14.804394, 14.790484)"><g><path d="M 0.203125 0 L 0.203125 -2.1875 L 0.46875 -2.1875 L 0.46875 -1.25 C 0.519531 -1.34375 0.585938 -1.414062 0.671875 -1.46875 C 0.765625 -1.519531 0.867188 -1.546875 0.984375 -1.546875 C 1.160156 -1.546875 1.300781 -1.488281 1.40625 -1.375 C 1.507812 -1.269531 1.5625 -1.101562 1.5625 -0.875 L 1.5625 0 L 1.3125 0 L 1.3125 -0.859375 C 1.3125 -1.171875 1.179688 -1.328125 0.921875 -1.328125 C 0.796875 -1.328125 0.6875 -1.28125 0.59375 -1.1875 C 0.507812 -1.09375 0.46875 -0.957031 0.46875 -0.78125 L 0.46875 0 Z M 0.203125 0 "/></g></g></g><g fill="#000000" fill-opacity="1"><g transform="translate(16.529945, 14.790484)"><g><path d="M 0.890625 0.03125 C 0.753906 0.03125 0.628906 0 0.515625 -0.0625 C 0.398438 -0.125 0.304688 -0.210938 0.234375 -0.328125 C 0.171875 -0.453125 0.140625 -0.59375 0.140625 -0.75 C 0.140625 -0.90625 0.171875 -1.039062 0.234375 -1.15625 C 0.304688 -1.28125 0.398438 -1.375 0.515625 -1.4375 C 0.628906 -1.507812 0.757812 -1.546875 0.90625 -1.546875 C 1.039062 -1.546875 1.164062 -1.507812 1.28125 -1.4375 C 1.394531 -1.375 1.484375 -1.28125 1.546875 -1.15625 C 1.617188 -1.039062 1.65625 -0.90625 1.65625 -0.75 C 1.65625 -0.59375 1.617188 -0.453125 1.546875 -0.328125 C 1.484375 -0.210938 1.394531 -0.125 1.28125 -0.0625 C 1.164062 0 1.035156 0.03125 0.890625 0.03125 Z M 0.890625 -0.1875 C 0.984375 -0.1875 1.066406 -0.207031 1.140625 -0.25 C 1.210938 -0.289062 1.269531 -0.351562 1.3125 -0.4375 C 1.363281 -0.519531 1.390625 -0.625 1.390625 -0.75 C 1.390625 -0.875 1.363281 -0.976562 1.3125 -1.0625 C 1.269531 -1.144531 1.210938 -1.207031 1.140625 -1.25 C 1.066406 -1.300781 0.988281 -1.328125 0.90625 -1.328125 C 0.8125 -1.328125 0.726562 -1.300781 0.65625 -1.25 C 0.582031 -1.207031 0.519531 -1.144531 0.46875 -1.0625 C 0.425781 -0.976562 0.40625 -0.875 0.40625 -0.75 C 0.40625 -0.625 0.425781 -0.519531 0.46875 -0.4375 C 0.519531 -0.351562 0.582031 -0.289062 0.65625 -0.25 C 0.726562 -0.207031 0.804688 -0.1875 0.890625 -0.1875 Z M 0.890625 -0.1875 "/></g></g></g><g fill="#000000" fill-opacity="1"><g transform="translate(18.315833, 14.790484)"><g><path d="M 0.796875 0 C 0.660156 0 0.550781 -0.03125 0.46875 -0.09375 C 0.394531 -0.164062 0.359375 -0.285156 0.359375 -0.453125 L 0.359375 -1.28125 L 0.09375 -1.28125 L 0.09375 -1.5 L 0.359375 -1.5 L 0.390625 -1.859375 L 0.609375 -1.859375 L 0.609375 -1.5 L 1.0625 -1.5 L 1.0625 -1.28125 L 0.609375 -1.28125 L 0.609375 -0.453125 C 0.609375 -0.359375 0.628906 -0.296875 0.671875 -0.265625 C 0.710938 -0.234375 0.78125 -0.21875 0.875 -0.21875 L 1.03125 -0.21875 L 1.03125 0 Z M 0.796875 0 "/></g></g></g><g fill="#000000" fill-opacity="1"><g transform="translate(19.483296, 14.790484)"><g><path d="M 0.78125 0.03125 C 0.601562 0.03125 0.453125 -0.0078125 0.328125 -0.09375 C 0.210938 -0.1875 0.144531 -0.3125 0.125 -0.46875 L 0.390625 -0.46875 C 0.398438 -0.394531 0.4375 -0.328125 0.5 -0.265625 C 0.570312 -0.203125 0.664062 -0.171875 0.78125 -0.171875 C 0.894531 -0.171875 0.972656 -0.191406 1.015625 -0.234375 C 1.066406 -0.285156 1.09375 -0.34375 1.09375 -0.40625 C 1.09375 -0.5 1.0625 -0.5625 1 -0.59375 C 0.9375 -0.625 0.84375 -0.648438 0.71875 -0.671875 C 0.644531 -0.691406 0.566406 -0.710938 0.484375 -0.734375 C 0.398438 -0.765625 0.332031 -0.804688 0.28125 -0.859375 C 0.226562 -0.921875 0.203125 -1 0.203125 -1.09375 C 0.203125 -1.21875 0.25 -1.320312 0.34375 -1.40625 C 0.4375 -1.5 0.570312 -1.546875 0.75 -1.546875 C 0.90625 -1.546875 1.03125 -1.503906 1.125 -1.421875 C 1.226562 -1.335938 1.289062 -1.222656 1.3125 -1.078125 L 1.0625 -1.078125 C 1.050781 -1.148438 1.015625 -1.207031 0.953125 -1.25 C 0.898438 -1.300781 0.828125 -1.328125 0.734375 -1.328125 C 0.648438 -1.328125 0.582031 -1.304688 0.53125 -1.265625 C 0.476562 -1.222656 0.453125 -1.171875 0.453125 -1.109375 C 0.453125 -1.054688 0.484375 -1.007812 0.546875 -0.96875 C 0.609375 -0.9375 0.695312 -0.910156 0.8125 -0.890625 C 0.90625 -0.867188 0.992188 -0.84375 1.078125 -0.8125 C 1.160156 -0.78125 1.226562 -0.734375 1.28125 -0.671875 C 1.332031 -0.617188 1.359375 -0.539062 1.359375 -0.4375 C 1.359375 -0.300781 1.304688 -0.1875 1.203125 -0.09375 C 1.097656 -0.0078125 0.957031 0.03125 0.78125 0.03125 Z M 0.78125 0.03125 "/></g></g></g><g clip-path="url(#f65996e2ba)"><path fill="#000000" d="M 25.054688 15.480469 C 25.003906 15.480469 24.949219 15.460938 24.910156 15.425781 L 23.671875 14.328125 C 23.59375 14.261719 23.59375 14.148438 23.671875 14.078125 C 23.75 14.007812 23.878906 14.007812 23.957031 14.078125 L 25.054688 15.046875 L 26.152344 14.078125 C 26.230469 14.007812 26.359375 14.007812 26.4375 14.078125 C 26.515625 14.148438 26.515625 14.261719 26.4375 14.328125 L 25.195312 15.425781 C 25.15625 15.460938 25.105469 15.480469 25.054688 15.480469 Z M 25.054688 15.480469 " fill-opacity="1" fill-rule="nonzero"/></g><g clip-path="url(#057f9ff8ba)"><path fill="#000000" d="M 11.019531 14.761719 C 11.019531 14.625 10.941406 14.511719 10.832031 14.453125 L 10.425781 14.242188 L 10.832031 14.03125 C 10.941406 13.972656 11.019531 13.859375 11.019531 13.722656 C 11.019531 13.589844 10.941406 13.476562 10.832031 13.417969 L 8.636719 12.261719 C 8.589844 12.234375 8.535156 12.21875 8.476562 12.21875 C 8.421875 12.21875 8.363281 12.234375 8.316406 12.261719 L 6.125 13.414062 C 6.015625 13.476562 5.9375 13.589844 5.9375 13.722656 C 5.9375 13.859375 6.015625 13.972656 6.125 14.03125 L 6.527344 14.242188 L 6.125 14.453125 C 6.015625 14.511719 5.9375 14.625 5.9375 14.761719 C 5.9375 14.894531 6.015625 15.007812 6.125 15.066406 L 6.527344 15.277344 L 6.125 15.492188 C 6.015625 15.554688 5.9375 15.667969 5.9375 15.796875 C 5.9375 15.933594 6.015625 16.046875 6.125 16.101562 L 8.316406 17.257812 C 8.363281 17.285156 8.421875 17.300781 8.476562 17.300781 C 8.535156 17.300781 8.589844 17.285156 8.636719 17.257812 L 10.832031 16.109375 C 10.941406 16.050781 11.019531 15.9375 11.019531 15.800781 C 11.019531 15.667969 10.941406 15.554688 10.832031 15.496094 L 10.425781 15.277344 L 10.832031 15.066406 C 10.941406 15.007812 11.019531 14.894531 11.019531 14.761719 Z M 6.226562 13.824219 C 6.191406 13.800781 6.164062 13.765625 6.164062 13.71875 C 6.164062 13.671875 6.195312 13.640625 6.234375 13.621094 L 8.425781 12.464844 C 8.441406 12.453125 8.457031 12.449219 8.476562 12.449219 C 8.5 12.449219 8.515625 12.453125 8.53125 12.464844 L 10.726562 13.621094 C 10.765625 13.640625 10.789062 13.675781 10.789062 13.71875 C 10.789062 13.761719 10.765625 13.800781 10.726562 13.816406 L 8.53125 14.976562 C 8.515625 14.988281 8.5 14.992188 8.476562 14.992188 C 8.457031 14.992188 8.441406 14.988281 8.425781 14.976562 Z M 10.726562 15.699219 C 10.765625 15.71875 10.789062 15.757812 10.789062 15.800781 C 10.789062 15.847656 10.765625 15.886719 10.726562 15.902344 L 8.53125 17.058594 C 8.515625 17.066406 8.5 17.074219 8.476562 17.074219 C 8.457031 17.074219 8.441406 17.066406 8.425781 17.058594 L 6.226562 15.902344 C 6.195312 15.878906 6.171875 15.84375 6.171875 15.796875 C 6.171875 15.75 6.195312 15.714844 6.234375 15.699219 L 6.777344 15.414062 L 8.316406 16.222656 C 8.363281 16.25 8.421875 16.265625 8.476562 16.265625 C 8.535156 16.265625 8.589844 16.25 8.636719 16.222656 L 10.179688 15.414062 Z M 10.722656 14.859375 L 8.53125 16.015625 C 8.515625 16.027344 8.5 16.03125 8.476562 16.03125 C 8.457031 16.03125 8.441406 16.027344 8.425781 16.015625 L 6.226562 14.863281 C 6.195312 14.84375 6.171875 14.808594 6.171875 14.761719 C 6.171875 14.714844 6.195312 14.675781 6.234375 14.664062 L 6.777344 14.378906 L 8.316406 15.1875 C 8.363281 15.210938 8.421875 15.226562 8.476562 15.226562 C 8.535156 15.226562 8.589844 15.210938 8.636719 15.1875 L 10.179688 14.378906 L 10.726562 14.65625 C 10.765625 14.675781 10.789062 14.714844 10.789062 14.753906 C 10.785156 14.808594 10.757812 14.84375 10.722656 14.859375 Z M 10.722656 14.859375 " fill-opacity="1" fill-rule="nonzero"/></g></svg>