<svg xmlns="http://www.w3.org/2000/svg" xmlns:xlink="http://www.w3.org/1999/xlink" width="40" zoomAndPan="magnify" viewBox="0 0 30 30.000001" height="40" preserveAspectRatio="xMidYMid meet" version="1.0"><defs><clipPath id="3a4a941174"><path d="M 0.5 6.296875 L 29.5 6.296875 L 29.5 22.988281 L 0.5 22.988281 Z M 0.5 6.296875 " clip-rule="nonzero"/></clipPath></defs><g clip-path="url(#3a4a941174)"><path fill="#000000" d="M 14.933594 22.988281 C 14.414062 22.988281 13.898438 22.789062 13.503906 22.390625 L 1.09375 9.78125 C 0.300781 8.976562 0.300781 7.675781 1.09375 6.875 C 1.882812 6.074219 3.164062 6.074219 3.953125 6.875 L 14.933594 18.03125 L 25.914062 6.878906 C 26.703125 6.074219 27.984375 6.074219 28.773438 6.878906 C 29.5625 7.679688 29.5625 8.980469 28.773438 9.78125 L 16.359375 22.390625 C 15.96875 22.789062 15.449219 22.988281 14.933594 22.988281 Z M 14.933594 22.988281 " fill-opacity="1" fill-rule="nonzero"/></g></svg>