<svg xmlns="http://www.w3.org/2000/svg" xmlns:xlink="http://www.w3.org/1999/xlink" width="40" zoomAndPan="magnify" viewBox="0 0 30 30.000001" height="40" preserveAspectRatio="xMidYMid meet" version="1.0"><defs><clipPath id="aead8f7b06"><path d="M 2.804688 0 L 27.484375 0 L 27.484375 29.03125 L 2.804688 29.03125 Z M 2.804688 0 " clip-rule="nonzero"/></clipPath></defs><g clip-path="url(#aead8f7b06)"><path fill="#100f0d" d="M 15.148438 27.152344 C 9.402344 27.152344 4.730469 22.53125 4.730469 16.859375 C 4.730469 11.183594 9.402344 6.5625 15.148438 6.5625 C 20.890625 6.5625 25.566406 11.183594 25.566406 16.859375 C 25.566406 22.53125 20.890625 27.152344 15.148438 27.152344 Z M 21.847656 6.640625 L 22.902344 5.121094 C 23.1875 4.710938 23.082031 4.144531 22.667969 3.863281 L 22.164062 3.519531 C 21.75 3.238281 21.175781 3.34375 20.890625 3.753906 L 19.660156 5.523438 C 18.613281 5.113281 17.496094 4.84375 16.332031 4.734375 L 16.332031 3.019531 L 16.902344 3.019531 C 17.40625 3.019531 17.820312 2.613281 17.820312 2.113281 L 17.820312 0.90625 C 17.820312 0.410156 17.40625 0.00390625 16.902344 0.00390625 L 13.394531 0.00390625 C 12.890625 0.00390625 12.476562 0.410156 12.476562 0.90625 L 12.476562 2.113281 C 12.476562 2.613281 12.890625 3.019531 13.394531 3.019531 L 13.964844 3.019531 L 13.964844 4.734375 C 7.722656 5.324219 2.824219 10.535156 2.824219 16.859375 C 2.824219 23.574219 8.351562 29.035156 15.148438 29.035156 C 21.945312 29.035156 27.472656 23.574219 27.472656 16.859375 C 27.472656 12.582031 25.230469 8.8125 21.847656 6.640625 " fill-opacity="1" fill-rule="nonzero"/></g><path fill="#100f0d" d="M 15.878906 15.6875 L 15.878906 9.101562 C 15.878906 8.726562 15.574219 8.421875 15.191406 8.421875 C 14.8125 8.421875 14.507812 8.726562 14.507812 9.101562 L 14.507812 15.652344 C 13.8125 15.90625 13.316406 16.570312 13.316406 17.347656 C 13.316406 18.347656 14.136719 19.15625 15.148438 19.15625 C 16.160156 19.15625 16.980469 18.347656 16.980469 17.347656 C 16.980469 16.605469 16.527344 15.964844 15.878906 15.6875 " fill-opacity="1" fill-rule="nonzero"/></svg>