<svg xmlns="http://www.w3.org/2000/svg" xmlns:xlink="http://www.w3.org/1999/xlink" width="40" zoomAndPan="magnify" viewBox="0 0 30 30.000001" height="40" preserveAspectRatio="xMidYMid meet" version="1.0"><defs><g/><clipPath id="b804bb965a"><path d="M 0.484375 8.324219 L 29.515625 8.324219 L 29.515625 20.707031 L 0.484375 20.707031 Z M 0.484375 8.324219 " clip-rule="nonzero"/></clipPath><clipPath id="5deef08e5a"><path d="M 2.660156 8.324219 L 27.339844 8.324219 C 28.542969 8.324219 29.515625 9.300781 29.515625 10.503906 L 29.515625 18.53125 C 29.515625 19.730469 28.542969 20.707031 27.339844 20.707031 L 2.660156 20.707031 C 1.457031 20.707031 0.484375 19.730469 0.484375 18.53125 L 0.484375 10.503906 C 0.484375 9.300781 1.457031 8.324219 2.660156 8.324219 Z M 2.660156 8.324219 " clip-rule="nonzero"/></clipPath><clipPath id="abfe2a1311"><path d="M 0.484375 0.324219 L 29.515625 0.324219 L 29.515625 12.707031 L 0.484375 12.707031 Z M 0.484375 0.324219 " clip-rule="nonzero"/></clipPath><clipPath id="d6ed0dc014"><path d="M 2.660156 0.324219 L 27.339844 0.324219 C 28.542969 0.324219 29.515625 1.300781 29.515625 2.503906 L 29.515625 10.53125 C 29.515625 11.730469 28.542969 12.707031 27.339844 12.707031 L 2.660156 12.707031 C 1.457031 12.707031 0.484375 11.730469 0.484375 10.53125 L 0.484375 2.503906 C 0.484375 1.300781 1.457031 0.324219 2.660156 0.324219 Z M 2.660156 0.324219 " clip-rule="nonzero"/></clipPath><clipPath id="44f0be08e6"><rect x="0" width="30" y="0" height="13"/></clipPath><clipPath id="eb3dc3552c"><path d="M 4.496094 11 L 11.03125 11 L 11.03125 18 L 4.496094 18 Z M 4.496094 11 " clip-rule="nonzero"/></clipPath></defs><g clip-path="url(#b804bb965a)"><g clip-path="url(#5deef08e5a)"><g transform="matrix(1, 0, 0, 1, 0, 8)"><g clip-path="url(#44f0be08e6)"><g clip-path="url(#abfe2a1311)"><g clip-path="url(#d6ed0dc014)"><path fill="#dd3d93" d="M 0.484375 0.324219 L 29.503906 0.324219 L 29.503906 12.707031 L 0.484375 12.707031 Z M 0.484375 0.324219 " fill-opacity="1" fill-rule="nonzero"/></g></g></g></g></g></g><g fill="#000000" fill-opacity="1"><g transform="translate(4.078881, 16.309255)"><g/></g></g><g fill="#000000" fill-opacity="1"><g transform="translate(5.214902, 16.309255)"><g/></g></g><g fill="#000000" fill-opacity="1"><g transform="translate(6.350924, 16.309255)"><g/></g></g><g fill="#000000" fill-opacity="1"><g transform="translate(7.486946, 16.309255)"><g/></g></g><g fill="#000000" fill-opacity="1"><g transform="translate(8.622968, 16.309255)"><g/></g></g><g fill="#000000" fill-opacity="1"><g transform="translate(9.758989, 16.309255)"><g/></g></g><g fill="#000000" fill-opacity="1"><g transform="translate(10.895011, 16.309255)"><g/></g></g><g fill="#000000" fill-opacity="1"><g transform="translate(12.031033, 16.309255)"><g/></g></g><g fill="#ffffff" fill-opacity="1"><g transform="translate(13.174143, 16.309255)"><g><path d="M 0.125 0 L 1.234375 -3 L 1.625 -3 L 2.71875 0 L 2.34375 0 L 2.0625 -0.765625 L 0.78125 -0.765625 L 0.5 0 Z M 0.890625 -1.0625 L 1.953125 -1.0625 L 1.421875 -2.546875 Z M 0.890625 -1.0625 "/></g></g></g><g fill="#ffffff" fill-opacity="1"><g transform="translate(15.904799, 16.309255)"><g><path d="M 1.265625 0.046875 C 1.046875 0.046875 0.859375 0 0.703125 -0.09375 C 0.546875 -0.1875 0.421875 -0.316406 0.328125 -0.484375 C 0.242188 -0.660156 0.203125 -0.851562 0.203125 -1.0625 C 0.203125 -1.28125 0.242188 -1.472656 0.328125 -1.640625 C 0.421875 -1.804688 0.546875 -1.9375 0.703125 -2.03125 C 0.859375 -2.132812 1.046875 -2.1875 1.265625 -2.1875 C 1.441406 -2.1875 1.597656 -2.148438 1.734375 -2.078125 C 1.867188 -2.003906 1.972656 -1.90625 2.046875 -1.78125 L 2.046875 -3.09375 L 2.40625 -3.09375 L 2.40625 0 L 2.078125 0 L 2.046875 -0.359375 C 1.972656 -0.253906 1.875 -0.160156 1.75 -0.078125 C 1.625 0.00390625 1.460938 0.046875 1.265625 0.046875 Z M 1.296875 -0.265625 C 1.441406 -0.265625 1.566406 -0.296875 1.671875 -0.359375 C 1.785156 -0.429688 1.875 -0.523438 1.9375 -0.640625 C 2 -0.765625 2.03125 -0.90625 2.03125 -1.0625 C 2.03125 -1.226562 2 -1.367188 1.9375 -1.484375 C 1.875 -1.609375 1.785156 -1.703125 1.671875 -1.765625 C 1.566406 -1.835938 1.441406 -1.875 1.296875 -1.875 C 1.160156 -1.875 1.035156 -1.835938 0.921875 -1.765625 C 0.816406 -1.703125 0.734375 -1.609375 0.671875 -1.484375 C 0.609375 -1.367188 0.578125 -1.226562 0.578125 -1.0625 C 0.578125 -0.90625 0.609375 -0.765625 0.671875 -0.640625 C 0.734375 -0.523438 0.816406 -0.429688 0.921875 -0.359375 C 1.035156 -0.296875 1.160156 -0.265625 1.296875 -0.265625 Z M 1.296875 -0.265625 "/></g></g></g><g fill="#ffffff" fill-opacity="1"><g transform="translate(18.596947, 16.309255)"><g><path d="M 0.296875 0 L 0.296875 -2.125 L 0.625 -2.125 L 0.65625 -1.828125 C 0.71875 -1.941406 0.804688 -2.03125 0.921875 -2.09375 C 1.035156 -2.15625 1.164062 -2.1875 1.3125 -2.1875 C 1.476562 -2.1875 1.617188 -2.148438 1.734375 -2.078125 C 1.859375 -2.003906 1.957031 -1.898438 2.03125 -1.765625 C 2.101562 -1.890625 2.203125 -1.988281 2.328125 -2.0625 C 2.460938 -2.144531 2.609375 -2.1875 2.765625 -2.1875 C 3.015625 -2.1875 3.210938 -2.109375 3.359375 -1.953125 C 3.515625 -1.796875 3.59375 -1.5625 3.59375 -1.25 L 3.59375 0 L 3.234375 0 L 3.234375 -1.203125 C 3.234375 -1.421875 3.1875 -1.585938 3.09375 -1.703125 C 3.007812 -1.816406 2.882812 -1.875 2.71875 -1.875 C 2.550781 -1.875 2.410156 -1.804688 2.296875 -1.671875 C 2.179688 -1.535156 2.125 -1.347656 2.125 -1.109375 L 2.125 0 L 1.765625 0 L 1.765625 -1.203125 C 1.765625 -1.421875 1.71875 -1.585938 1.625 -1.703125 C 1.539062 -1.816406 1.414062 -1.875 1.25 -1.875 C 1.082031 -1.875 0.941406 -1.804688 0.828125 -1.671875 C 0.710938 -1.535156 0.65625 -1.347656 0.65625 -1.109375 L 0.65625 0 Z M 0.296875 0 "/></g></g></g><g fill="#ffffff" fill-opacity="1"><g transform="translate(22.43369, 16.309255)"><g><path d="M 0.515625 -2.609375 C 0.441406 -2.609375 0.378906 -2.628906 0.328125 -2.671875 C 0.285156 -2.722656 0.265625 -2.785156 0.265625 -2.859375 C 0.265625 -2.921875 0.285156 -2.972656 0.328125 -3.015625 C 0.378906 -3.066406 0.441406 -3.09375 0.515625 -3.09375 C 0.585938 -3.09375 0.644531 -3.066406 0.6875 -3.015625 C 0.738281 -2.972656 0.765625 -2.921875 0.765625 -2.859375 C 0.765625 -2.785156 0.738281 -2.722656 0.6875 -2.671875 C 0.644531 -2.628906 0.585938 -2.609375 0.515625 -2.609375 Z M 0.328125 0 L 0.328125 -2.125 L 0.703125 -2.125 L 0.703125 0 Z M 0.328125 0 "/></g></g></g><g fill="#ffffff" fill-opacity="1"><g transform="translate(23.458254, 16.309255)"><g><path d="M 0.296875 0 L 0.296875 -2.125 L 0.625 -2.125 L 0.640625 -1.75 C 0.710938 -1.882812 0.8125 -1.988281 0.9375 -2.0625 C 1.070312 -2.144531 1.21875 -2.1875 1.375 -2.1875 C 1.625 -2.1875 1.820312 -2.109375 1.96875 -1.953125 C 2.125 -1.796875 2.203125 -1.5625 2.203125 -1.25 L 2.203125 0 L 1.84375 0 L 1.84375 -1.203125 C 1.84375 -1.648438 1.660156 -1.875 1.296875 -1.875 C 1.109375 -1.875 0.953125 -1.804688 0.828125 -1.671875 C 0.710938 -1.535156 0.65625 -1.347656 0.65625 -1.109375 L 0.65625 0 Z M 0.296875 0 "/></g></g></g><g clip-path="url(#eb3dc3552c)"><path fill="#f9d7e2" d="M 7.351562 11.027344 C 7.183594 11.027344 7.042969 11.144531 7.011719 11.308594 L 6.894531 11.90625 C 6.609375 12.015625 6.34375 12.164062 6.109375 12.355469 L 5.539062 12.15625 C 5.378906 12.105469 5.207031 12.167969 5.121094 12.3125 L 4.597656 13.222656 C 4.515625 13.367188 4.542969 13.550781 4.671875 13.660156 L 5.128906 14.0625 C 5.105469 14.207031 5.089844 14.355469 5.089844 14.511719 C 5.089844 14.664062 5.105469 14.8125 5.128906 14.960938 L 4.671875 15.359375 C 4.542969 15.46875 4.515625 15.652344 4.597656 15.796875 L 5.121094 16.707031 C 5.207031 16.851562 5.378906 16.917969 5.539062 16.863281 L 6.109375 16.667969 C 6.34375 16.855469 6.609375 17.007812 6.894531 17.117188 L 7.011719 17.714844 C 7.042969 17.878906 7.183594 17.996094 7.351562 17.996094 L 8.402344 17.996094 C 8.570312 17.996094 8.714844 17.878906 8.746094 17.714844 L 8.863281 17.117188 C 9.148438 17.007812 9.414062 16.855469 9.644531 16.667969 L 10.21875 16.863281 C 10.375 16.917969 10.550781 16.851562 10.632812 16.707031 L 11.15625 15.796875 C 11.242188 15.652344 11.210938 15.46875 11.085938 15.359375 L 10.625 14.960938 C 10.648438 14.8125 10.664062 14.664062 10.664062 14.511719 C 10.664062 14.355469 10.648438 14.207031 10.625 14.0625 L 11.085938 13.660156 C 11.210938 13.550781 11.242188 13.367188 11.15625 13.222656 L 10.632812 12.3125 C 10.550781 12.167969 10.375 12.101562 10.21875 12.15625 L 9.644531 12.355469 C 9.414062 12.164062 9.148438 12.015625 8.863281 11.90625 L 8.746094 11.308594 C 8.714844 11.144531 8.570312 11.027344 8.402344 11.027344 Z M 7.878906 13.117188 C 8.648438 13.117188 9.273438 13.742188 9.273438 14.511719 C 9.273438 15.28125 8.648438 15.90625 7.878906 15.90625 C 7.109375 15.90625 6.484375 15.28125 6.484375 14.511719 C 6.484375 13.742188 7.109375 13.117188 7.878906 13.117188 Z M 7.878906 13.117188 " fill-opacity="1" fill-rule="nonzero"/></g></svg>