<svg xmlns="http://www.w3.org/2000/svg" xmlns:xlink="http://www.w3.org/1999/xlink" width="40" zoomAndPan="magnify" viewBox="0 0 30 30.000001" height="40" preserveAspectRatio="xMidYMid meet" version="1.0"><defs><g/><clipPath id="9dc577aea9"><path d="M 0.484375 10.671875 L 29.515625 10.671875 L 29.515625 18.359375 L 0.484375 18.359375 Z M 0.484375 10.671875 " clip-rule="nonzero"/></clipPath><clipPath id="a21e8a4493"><path d="M 4.328125 10.671875 L 25.671875 10.671875 C 26.691406 10.671875 27.667969 11.078125 28.390625 11.796875 C 29.109375 12.519531 29.515625 13.496094 29.515625 14.515625 C 29.515625 15.535156 29.109375 16.511719 28.390625 17.234375 C 27.667969 17.953125 26.691406 18.359375 25.671875 18.359375 L 4.328125 18.359375 C 3.308594 18.359375 2.332031 17.953125 1.609375 17.234375 C 0.890625 16.511719 0.484375 15.535156 0.484375 14.515625 C 0.484375 13.496094 0.890625 12.519531 1.609375 11.796875 C 2.332031 11.078125 3.308594 10.671875 4.328125 10.671875 Z M 4.328125 10.671875 " clip-rule="nonzero"/></clipPath><clipPath id="7ad7c1a338"><path d="M 0.484375 0.671875 L 29.515625 0.671875 L 29.515625 8.359375 L 0.484375 8.359375 Z M 0.484375 0.671875 " clip-rule="nonzero"/></clipPath><clipPath id="69f3c86ec2"><path d="M 4.328125 0.671875 L 25.671875 0.671875 C 26.691406 0.671875 27.667969 1.078125 28.390625 1.796875 C 29.109375 2.519531 29.515625 3.496094 29.515625 4.515625 C 29.515625 5.535156 29.109375 6.511719 28.390625 7.234375 C 27.667969 7.953125 26.691406 8.359375 25.671875 8.359375 L 4.328125 8.359375 C 3.308594 8.359375 2.332031 7.953125 1.609375 7.234375 C 0.890625 6.511719 0.484375 5.535156 0.484375 4.515625 C 0.484375 3.496094 0.890625 2.519531 1.609375 1.796875 C 2.332031 1.078125 3.308594 0.671875 4.328125 0.671875 Z M 4.328125 0.671875 " clip-rule="nonzero"/></clipPath><radialGradient gradientTransform="matrix(1, 0, 0, 1, 0.483717, 0.673099)" gradientUnits="userSpaceOnUse" r="15.016216" cx="14.516141" id="617e1c5e69" cy="3.843029" fx="14.516141" fy="3.843029"><stop stop-opacity="1" stop-color="rgb(100%, 40.182495%, 76.695251%)" offset="0"/><stop stop-opacity="1" stop-color="rgb(100%, 40.458679%, 76.449585%)" offset="0.0078125"/><stop stop-opacity="1" stop-color="rgb(100%, 40.641785%, 76.28479%)" offset="0.0117188"/><stop stop-opacity="1" stop-color="rgb(100%, 40.826416%, 76.121521%)" offset="0.015625"/><stop stop-opacity="1" stop-color="rgb(100%, 41.009521%, 75.956726%)" offset="0.0195312"/><stop stop-opacity="1" stop-color="rgb(100%, 41.194153%, 75.793457%)" offset="0.0234375"/><stop stop-opacity="1" stop-color="rgb(100%, 41.377258%, 75.630188%)" offset="0.0273438"/><stop stop-opacity="1" stop-color="rgb(100%, 41.56189%, 75.465393%)" offset="0.03125"/><stop stop-opacity="1" stop-color="rgb(100%, 41.744995%, 75.302124%)" offset="0.0351562"/><stop stop-opacity="1" stop-color="rgb(100%, 41.929626%, 75.137329%)" offset="0.0390625"/><stop stop-opacity="1" stop-color="rgb(100%, 42.112732%, 74.97406%)" offset="0.0429688"/><stop stop-opacity="1" stop-color="rgb(100%, 42.297363%, 74.809265%)" offset="0.046875"/><stop stop-opacity="1" stop-color="rgb(100%, 42.480469%, 74.645996%)" offset="0.0507812"/><stop stop-opacity="1" stop-color="rgb(100%, 42.6651%, 74.482727%)" offset="0.0546875"/><stop stop-opacity="1" stop-color="rgb(100%, 42.848206%, 74.317932%)" offset="0.0585938"/><stop stop-opacity="1" stop-color="rgb(100%, 43.031311%, 74.154663%)" offset="0.0625"/><stop stop-opacity="1" stop-color="rgb(100%, 43.215942%, 73.989868%)" offset="0.0664062"/><stop stop-opacity="1" stop-color="rgb(100%, 43.399048%, 73.826599%)" offset="0.0703125"/><stop stop-opacity="1" stop-color="rgb(100%, 43.583679%, 73.66333%)" offset="0.0742188"/><stop stop-opacity="1" stop-color="rgb(100%, 43.766785%, 73.498535%)" offset="0.078125"/><stop stop-opacity="1" stop-color="rgb(100%, 43.951416%, 73.335266%)" offset="0.0820312"/><stop stop-opacity="1" stop-color="rgb(100%, 44.134521%, 73.170471%)" offset="0.0859375"/><stop stop-opacity="1" stop-color="rgb(100%, 44.319153%, 73.007202%)" offset="0.0898438"/><stop stop-opacity="1" stop-color="rgb(100%, 44.502258%, 72.842407%)" offset="0.09375"/><stop stop-opacity="1" stop-color="rgb(100%, 44.68689%, 72.679138%)" offset="0.0976562"/><stop stop-opacity="1" stop-color="rgb(100%, 44.869995%, 72.515869%)" offset="0.101562"/><stop stop-opacity="1" stop-color="rgb(100%, 45.054626%, 72.351074%)" offset="0.105469"/><stop stop-opacity="1" stop-color="rgb(100%, 45.237732%, 72.187805%)" offset="0.109375"/><stop stop-opacity="1" stop-color="rgb(100%, 45.422363%, 72.02301%)" offset="0.113281"/><stop stop-opacity="1" stop-color="rgb(100%, 45.605469%, 71.859741%)" offset="0.117188"/><stop stop-opacity="1" stop-color="rgb(100%, 45.7901%, 71.696472%)" offset="0.121094"/><stop stop-opacity="1" stop-color="rgb(100%, 45.973206%, 71.531677%)" offset="0.125"/><stop stop-opacity="1" stop-color="rgb(100%, 46.157837%, 71.368408%)" offset="0.128906"/><stop stop-opacity="1" stop-color="rgb(100%, 46.340942%, 71.203613%)" offset="0.132812"/><stop stop-opacity="1" stop-color="rgb(100%, 46.524048%, 71.040344%)" offset="0.136719"/><stop stop-opacity="1" stop-color="rgb(100%, 46.708679%, 70.875549%)" offset="0.140625"/><stop stop-opacity="1" stop-color="rgb(100%, 46.891785%, 70.71228%)" offset="0.144531"/><stop stop-opacity="1" stop-color="rgb(100%, 47.076416%, 70.549011%)" offset="0.148438"/><stop stop-opacity="1" stop-color="rgb(100%, 47.259521%, 70.384216%)" offset="0.152344"/><stop stop-opacity="1" stop-color="rgb(100%, 47.444153%, 70.220947%)" offset="0.15625"/><stop stop-opacity="1" stop-color="rgb(100%, 47.627258%, 70.056152%)" offset="0.160156"/><stop stop-opacity="1" stop-color="rgb(100%, 47.81189%, 69.892883%)" offset="0.164062"/><stop stop-opacity="1" stop-color="rgb(100%, 47.994995%, 69.729614%)" offset="0.167969"/><stop stop-opacity="1" stop-color="rgb(100%, 48.179626%, 69.564819%)" offset="0.171875"/><stop stop-opacity="1" stop-color="rgb(100%, 48.362732%, 69.40155%)" offset="0.175781"/><stop stop-opacity="1" stop-color="rgb(100%, 48.547363%, 69.236755%)" offset="0.179688"/><stop stop-opacity="1" stop-color="rgb(100%, 48.730469%, 69.073486%)" offset="0.183594"/><stop stop-opacity="1" stop-color="rgb(100%, 48.9151%, 68.908691%)" offset="0.1875"/><stop stop-opacity="1" stop-color="rgb(100%, 49.098206%, 68.745422%)" offset="0.191406"/><stop stop-opacity="1" stop-color="rgb(100%, 49.282837%, 68.582153%)" offset="0.195312"/><stop stop-opacity="1" stop-color="rgb(100%, 49.465942%, 68.417358%)" offset="0.199219"/><stop stop-opacity="1" stop-color="rgb(100%, 49.650574%, 68.254089%)" offset="0.203125"/><stop stop-opacity="1" stop-color="rgb(100%, 49.833679%, 68.089294%)" offset="0.207031"/><stop stop-opacity="1" stop-color="rgb(100%, 50.016785%, 67.926025%)" offset="0.210938"/><stop stop-opacity="1" stop-color="rgb(100%, 50.201416%, 67.762756%)" offset="0.214844"/><stop stop-opacity="1" stop-color="rgb(100%, 50.384521%, 67.597961%)" offset="0.21875"/><stop stop-opacity="1" stop-color="rgb(100%, 50.569153%, 67.434692%)" offset="0.222656"/><stop stop-opacity="1" stop-color="rgb(100%, 50.752258%, 67.269897%)" offset="0.226562"/><stop stop-opacity="1" stop-color="rgb(100%, 50.93689%, 67.106628%)" offset="0.230469"/><stop stop-opacity="1" stop-color="rgb(100%, 51.119995%, 66.941833%)" offset="0.234375"/><stop stop-opacity="1" stop-color="rgb(100%, 51.304626%, 66.778564%)" offset="0.238281"/><stop stop-opacity="1" stop-color="rgb(100%, 51.487732%, 66.615295%)" offset="0.242188"/><stop stop-opacity="1" stop-color="rgb(100%, 51.672363%, 66.4505%)" offset="0.246094"/><stop stop-opacity="1" stop-color="rgb(100%, 51.855469%, 66.287231%)" offset="0.25"/><stop stop-opacity="1" stop-color="rgb(100%, 52.131653%, 66.040039%)" offset="0.253906"/><stop stop-opacity="1" stop-color="rgb(100%, 52.49939%, 65.713501%)" offset="0.261719"/><stop stop-opacity="1" stop-color="rgb(100%, 52.867126%, 65.385437%)" offset="0.269531"/><stop stop-opacity="1" stop-color="rgb(100%, 53.234863%, 65.057373%)" offset="0.277344"/><stop stop-opacity="1" stop-color="rgb(100%, 53.601074%, 64.729309%)" offset="0.285156"/><stop stop-opacity="1" stop-color="rgb(100%, 53.968811%, 64.401245%)" offset="0.292969"/><stop stop-opacity="1" stop-color="rgb(100%, 54.336548%, 64.073181%)" offset="0.300781"/><stop stop-opacity="1" stop-color="rgb(100%, 54.704285%, 63.746643%)" offset="0.308594"/><stop stop-opacity="1" stop-color="rgb(100%, 55.072021%, 63.418579%)" offset="0.316406"/><stop stop-opacity="1" stop-color="rgb(100%, 55.439758%, 63.090515%)" offset="0.324219"/><stop stop-opacity="1" stop-color="rgb(100%, 55.807495%, 62.762451%)" offset="0.332031"/><stop stop-opacity="1" stop-color="rgb(100%, 56.175232%, 62.434387%)" offset="0.339844"/><stop stop-opacity="1" stop-color="rgb(100%, 56.542969%, 62.106323%)" offset="0.347656"/><stop stop-opacity="1" stop-color="rgb(100%, 56.910706%, 61.779785%)" offset="0.355469"/><stop stop-opacity="1" stop-color="rgb(100%, 57.278442%, 61.451721%)" offset="0.363281"/><stop stop-opacity="1" stop-color="rgb(100%, 57.646179%, 61.123657%)" offset="0.371094"/><stop stop-opacity="1" stop-color="rgb(100%, 58.013916%, 60.795593%)" offset="0.378906"/><stop stop-opacity="1" stop-color="rgb(100%, 58.381653%, 60.467529%)" offset="0.386719"/><stop stop-opacity="1" stop-color="rgb(100%, 58.74939%, 60.139465%)" offset="0.394531"/><stop stop-opacity="1" stop-color="rgb(100%, 59.117126%, 59.812927%)" offset="0.402344"/><stop stop-opacity="1" stop-color="rgb(100%, 59.484863%, 59.484863%)" offset="0.410156"/><stop stop-opacity="1" stop-color="rgb(100%, 59.8526%, 59.156799%)" offset="0.417969"/><stop stop-opacity="1" stop-color="rgb(100%, 60.220337%, 58.828735%)" offset="0.425781"/><stop stop-opacity="1" stop-color="rgb(100%, 60.586548%, 58.500671%)" offset="0.433594"/><stop stop-opacity="1" stop-color="rgb(100%, 60.954285%, 58.172607%)" offset="0.441406"/><stop stop-opacity="1" stop-color="rgb(100%, 61.322021%, 57.846069%)" offset="0.449219"/><stop stop-opacity="1" stop-color="rgb(100%, 61.689758%, 57.518005%)" offset="0.457031"/><stop stop-opacity="1" stop-color="rgb(100%, 62.057495%, 57.189941%)" offset="0.464844"/><stop stop-opacity="1" stop-color="rgb(100%, 62.425232%, 56.861877%)" offset="0.472656"/><stop stop-opacity="1" stop-color="rgb(100%, 62.792969%, 56.533813%)" offset="0.480469"/><stop stop-opacity="1" stop-color="rgb(100%, 63.160706%, 56.20575%)" offset="0.488281"/><stop stop-opacity="1" stop-color="rgb(100%, 63.528442%, 55.879211%)" offset="0.496094"/><stop stop-opacity="1" stop-color="rgb(100%, 63.804626%, 55.633545%)" offset="0.503906"/><stop stop-opacity="1" stop-color="rgb(100%, 63.987732%, 55.46875%)" offset="0.507812"/><stop stop-opacity="1" stop-color="rgb(100%, 64.172363%, 55.305481%)" offset="0.511719"/><stop stop-opacity="1" stop-color="rgb(100%, 64.355469%, 55.140686%)" offset="0.515625"/><stop stop-opacity="1" stop-color="rgb(100%, 64.5401%, 54.977417%)" offset="0.519531"/><stop stop-opacity="1" stop-color="rgb(100%, 64.723206%, 54.814148%)" offset="0.523438"/><stop stop-opacity="1" stop-color="rgb(100%, 64.907837%, 54.649353%)" offset="0.527344"/><stop stop-opacity="1" stop-color="rgb(100%, 65.090942%, 54.486084%)" offset="0.53125"/><stop stop-opacity="1" stop-color="rgb(100%, 65.275574%, 54.321289%)" offset="0.535156"/><stop stop-opacity="1" stop-color="rgb(100%, 65.458679%, 54.15802%)" offset="0.539062"/><stop stop-opacity="1" stop-color="rgb(100%, 65.643311%, 53.993225%)" offset="0.542969"/><stop stop-opacity="1" stop-color="rgb(100%, 65.826416%, 53.829956%)" offset="0.546875"/><stop stop-opacity="1" stop-color="rgb(100%, 66.011047%, 53.666687%)" offset="0.550781"/><stop stop-opacity="1" stop-color="rgb(100%, 66.194153%, 53.501892%)" offset="0.554688"/><stop stop-opacity="1" stop-color="rgb(100%, 66.378784%, 53.338623%)" offset="0.558594"/><stop stop-opacity="1" stop-color="rgb(100%, 66.56189%, 53.173828%)" offset="0.5625"/><stop stop-opacity="1" stop-color="rgb(100%, 66.746521%, 53.010559%)" offset="0.566406"/><stop stop-opacity="1" stop-color="rgb(100%, 66.929626%, 52.84729%)" offset="0.570312"/><stop stop-opacity="1" stop-color="rgb(100%, 67.114258%, 52.682495%)" offset="0.574219"/><stop stop-opacity="1" stop-color="rgb(100%, 67.297363%, 52.519226%)" offset="0.578125"/><stop stop-opacity="1" stop-color="rgb(100%, 67.480469%, 52.354431%)" offset="0.582031"/><stop stop-opacity="1" stop-color="rgb(100%, 67.6651%, 52.191162%)" offset="0.585938"/><stop stop-opacity="1" stop-color="rgb(100%, 67.848206%, 52.026367%)" offset="0.589844"/><stop stop-opacity="1" stop-color="rgb(100%, 68.032837%, 51.863098%)" offset="0.59375"/><stop stop-opacity="1" stop-color="rgb(100%, 68.215942%, 51.699829%)" offset="0.597656"/><stop stop-opacity="1" stop-color="rgb(100%, 68.400574%, 51.535034%)" offset="0.601562"/><stop stop-opacity="1" stop-color="rgb(100%, 68.583679%, 51.371765%)" offset="0.605469"/><stop stop-opacity="1" stop-color="rgb(100%, 68.768311%, 51.20697%)" offset="0.609375"/><stop stop-opacity="1" stop-color="rgb(100%, 68.951416%, 51.043701%)" offset="0.613281"/><stop stop-opacity="1" stop-color="rgb(100%, 69.136047%, 50.878906%)" offset="0.617188"/><stop stop-opacity="1" stop-color="rgb(100%, 69.319153%, 50.715637%)" offset="0.621094"/><stop stop-opacity="1" stop-color="rgb(100%, 69.503784%, 50.552368%)" offset="0.625"/><stop stop-opacity="1" stop-color="rgb(100%, 69.778442%, 50.305176%)" offset="0.628906"/><stop stop-opacity="1" stop-color="rgb(100%, 70.146179%, 49.978638%)" offset="0.636719"/><stop stop-opacity="1" stop-color="rgb(100%, 70.513916%, 49.650574%)" offset="0.644531"/><stop stop-opacity="1" stop-color="rgb(100%, 70.881653%, 49.32251%)" offset="0.652344"/><stop stop-opacity="1" stop-color="rgb(100%, 71.24939%, 48.994446%)" offset="0.660156"/><stop stop-opacity="1" stop-color="rgb(100%, 71.617126%, 48.666382%)" offset="0.667969"/><stop stop-opacity="1" stop-color="rgb(100%, 71.984863%, 48.338318%)" offset="0.675781"/><stop stop-opacity="1" stop-color="rgb(100%, 72.3526%, 48.01178%)" offset="0.683594"/><stop stop-opacity="1" stop-color="rgb(100%, 72.720337%, 47.683716%)" offset="0.691406"/><stop stop-opacity="1" stop-color="rgb(100%, 73.088074%, 47.355652%)" offset="0.699219"/><stop stop-opacity="1" stop-color="rgb(100%, 73.455811%, 47.027588%)" offset="0.707031"/><stop stop-opacity="1" stop-color="rgb(100%, 73.823547%, 46.699524%)" offset="0.714844"/><stop stop-opacity="1" stop-color="rgb(100%, 74.191284%, 46.37146%)" offset="0.722656"/><stop stop-opacity="1" stop-color="rgb(100%, 74.557495%, 46.044922%)" offset="0.730469"/><stop stop-opacity="1" stop-color="rgb(100%, 74.925232%, 45.716858%)" offset="0.738281"/><stop stop-opacity="1" stop-color="rgb(100%, 75.292969%, 45.388794%)" offset="0.746094"/><stop stop-opacity="1" stop-color="rgb(100%, 75.569153%, 45.143127%)" offset="0.753906"/><stop stop-opacity="1" stop-color="rgb(100%, 75.753784%, 44.978333%)" offset="0.757812"/><stop stop-opacity="1" stop-color="rgb(100%, 75.93689%, 44.815063%)" offset="0.761719"/><stop stop-opacity="1" stop-color="rgb(100%, 76.121521%, 44.651794%)" offset="0.765625"/><stop stop-opacity="1" stop-color="rgb(100%, 76.304626%, 44.487%)" offset="0.769531"/><stop stop-opacity="1" stop-color="rgb(100%, 76.489258%, 44.32373%)" offset="0.773438"/><stop stop-opacity="1" stop-color="rgb(100%, 76.672363%, 44.158936%)" offset="0.777344"/><stop stop-opacity="1" stop-color="rgb(100%, 76.856995%, 43.995667%)" offset="0.78125"/><stop stop-opacity="1" stop-color="rgb(100%, 77.0401%, 43.832397%)" offset="0.785156"/><stop stop-opacity="1" stop-color="rgb(100%, 77.224731%, 43.667603%)" offset="0.789062"/><stop stop-opacity="1" stop-color="rgb(100%, 77.407837%, 43.504333%)" offset="0.792969"/><stop stop-opacity="1" stop-color="rgb(100%, 77.592468%, 43.339539%)" offset="0.796875"/><stop stop-opacity="1" stop-color="rgb(100%, 77.775574%, 43.17627%)" offset="0.800781"/><stop stop-opacity="1" stop-color="rgb(100%, 77.958679%, 43.011475%)" offset="0.804688"/><stop stop-opacity="1" stop-color="rgb(100%, 78.143311%, 42.848206%)" offset="0.808594"/><stop stop-opacity="1" stop-color="rgb(100%, 78.326416%, 42.684937%)" offset="0.8125"/><stop stop-opacity="1" stop-color="rgb(100%, 78.6026%, 42.437744%)" offset="0.816406"/><stop stop-opacity="1" stop-color="rgb(100%, 78.970337%, 42.111206%)" offset="0.824219"/><stop stop-opacity="1" stop-color="rgb(100%, 79.338074%, 41.783142%)" offset="0.832031"/><stop stop-opacity="1" stop-color="rgb(100%, 79.705811%, 41.455078%)" offset="0.839844"/><stop stop-opacity="1" stop-color="rgb(100%, 80.073547%, 41.127014%)" offset="0.847656"/><stop stop-opacity="1" stop-color="rgb(100%, 80.441284%, 40.79895%)" offset="0.855469"/><stop stop-opacity="1" stop-color="rgb(100%, 80.809021%, 40.470886%)" offset="0.863281"/><stop stop-opacity="1" stop-color="rgb(100%, 81.176758%, 40.144348%)" offset="0.871094"/><stop stop-opacity="1" stop-color="rgb(100%, 81.451416%, 39.898682%)" offset="0.878906"/><stop stop-opacity="1" stop-color="rgb(100%, 81.636047%, 39.733887%)" offset="0.882812"/><stop stop-opacity="1" stop-color="rgb(100%, 81.819153%, 39.570618%)" offset="0.886719"/><stop stop-opacity="1" stop-color="rgb(100%, 82.003784%, 39.405823%)" offset="0.890625"/><stop stop-opacity="1" stop-color="rgb(100%, 82.18689%, 39.242554%)" offset="0.894531"/><stop stop-opacity="1" stop-color="rgb(100%, 82.371521%, 39.077759%)" offset="0.898438"/><stop stop-opacity="1" stop-color="rgb(100%, 82.554626%, 38.91449%)" offset="0.902344"/><stop stop-opacity="1" stop-color="rgb(100%, 82.739258%, 38.751221%)" offset="0.90625"/><stop stop-opacity="1" stop-color="rgb(100%, 83.013916%, 38.504028%)" offset="0.910156"/><stop stop-opacity="1" stop-color="rgb(100%, 83.381653%, 38.175964%)" offset="0.917969"/><stop stop-opacity="1" stop-color="rgb(100%, 83.74939%, 37.849426%)" offset="0.925781"/><stop stop-opacity="1" stop-color="rgb(100%, 84.117126%, 37.521362%)" offset="0.933594"/><stop stop-opacity="1" stop-color="rgb(100%, 84.393311%, 37.275696%)" offset="0.941406"/><stop stop-opacity="1" stop-color="rgb(100%, 84.577942%, 37.110901%)" offset="0.945312"/><stop stop-opacity="1" stop-color="rgb(100%, 84.761047%, 36.947632%)" offset="0.949219"/><stop stop-opacity="1" stop-color="rgb(100%, 84.944153%, 36.784363%)" offset="0.953125"/><stop stop-opacity="1" stop-color="rgb(100%, 85.220337%, 36.53717%)" offset="0.957031"/><stop stop-opacity="1" stop-color="rgb(100%, 85.588074%, 36.209106%)" offset="0.964844"/><stop stop-opacity="1" stop-color="rgb(100%, 85.864258%, 35.96344%)" offset="0.972656"/><stop stop-opacity="1" stop-color="rgb(100%, 86.047363%, 35.800171%)" offset="0.976562"/><stop stop-opacity="1" stop-color="rgb(100%, 86.323547%, 35.554504%)" offset="0.980469"/><stop stop-opacity="1" stop-color="rgb(100%, 86.599731%, 35.308838%)" offset="0.988281"/><stop stop-opacity="1" stop-color="rgb(100%, 86.87439%, 35.063171%)" offset="0.992188"/><stop stop-opacity="1" stop-color="rgb(100%, 87.059021%, 34.899902%)" offset="1"/></radialGradient><clipPath id="e7ffcd643f"><rect x="0" width="30" y="0" height="9"/></clipPath><clipPath id="fee88dcb51"><path d="M 6.113281 12.757812 L 11 12.757812 L 11 16.386719 L 6.113281 16.386719 Z M 6.113281 12.757812 " clip-rule="nonzero"/></clipPath></defs><g clip-path="url(#9dc577aea9)"><g clip-path="url(#a21e8a4493)"><g transform="matrix(1, 0, 0, 1, 0, 10)"><g clip-path="url(#e7ffcd643f)"><g clip-path="url(#7ad7c1a338)"><g clip-path="url(#69f3c86ec2)"><path fill="url(#617e1c5e69)" d="M 0.484375 0.671875 L 0.484375 8.359375 L 29.515625 8.359375 L 29.515625 0.671875 Z M 0.484375 0.671875 " fill-rule="nonzero"/></g></g></g></g></g></g><g fill="#ffffff" fill-opacity="1"><g transform="translate(6.284045, 14.302131)"><g/></g></g><g fill="#ffffff" fill-opacity="1"><g transform="translate(7.346385, 14.302131)"><g/></g></g><g fill="#ffffff" fill-opacity="1"><g transform="translate(8.408725, 14.302131)"><g/></g></g><g fill="#ffffff" fill-opacity="1"><g transform="translate(9.471066, 14.302131)"><g/></g></g><g fill="#ffffff" fill-opacity="1"><g transform="translate(10.533406, 14.302131)"><g/></g></g><g fill="#ffffff" fill-opacity="1"><g transform="translate(11.595746, 14.302131)"><g/></g></g><g fill="#ffffff" fill-opacity="1"><g transform="translate(12.668873, 14.302131)"><g><path d="M 1 0.046875 C 0.832031 0.046875 0.6875 0.015625 0.5625 -0.046875 C 0.4375 -0.109375 0.332031 -0.191406 0.25 -0.296875 C 0.175781 -0.398438 0.140625 -0.53125 0.140625 -0.6875 L 0.578125 -0.6875 C 0.585938 -0.582031 0.628906 -0.492188 0.703125 -0.421875 C 0.773438 -0.347656 0.875 -0.3125 1 -0.3125 C 1.113281 -0.3125 1.203125 -0.335938 1.265625 -0.390625 C 1.335938 -0.441406 1.375 -0.515625 1.375 -0.609375 C 1.375 -0.703125 1.34375 -0.773438 1.28125 -0.828125 C 1.21875 -0.878906 1.140625 -0.921875 1.046875 -0.953125 C 0.953125 -0.984375 0.847656 -1.019531 0.734375 -1.0625 C 0.554688 -1.125 0.421875 -1.203125 0.328125 -1.296875 C 0.242188 -1.390625 0.203125 -1.519531 0.203125 -1.6875 C 0.191406 -1.820312 0.21875 -1.9375 0.28125 -2.03125 C 0.351562 -2.125 0.445312 -2.195312 0.5625 -2.25 C 0.675781 -2.3125 0.8125 -2.34375 0.96875 -2.34375 C 1.125 -2.34375 1.257812 -2.3125 1.375 -2.25 C 1.488281 -2.195312 1.578125 -2.117188 1.640625 -2.015625 C 1.710938 -1.921875 1.75 -1.804688 1.75 -1.671875 L 1.3125 -1.671875 C 1.300781 -1.753906 1.265625 -1.828125 1.203125 -1.890625 C 1.148438 -1.953125 1.070312 -1.984375 0.96875 -1.984375 C 0.875 -1.984375 0.796875 -1.957031 0.734375 -1.90625 C 0.671875 -1.863281 0.640625 -1.796875 0.640625 -1.703125 C 0.640625 -1.628906 0.660156 -1.566406 0.703125 -1.515625 C 0.753906 -1.472656 0.820312 -1.4375 0.90625 -1.40625 C 0.988281 -1.382812 1.082031 -1.351562 1.1875 -1.3125 C 1.300781 -1.269531 1.40625 -1.222656 1.5 -1.171875 C 1.59375 -1.117188 1.664062 -1.050781 1.71875 -0.96875 C 1.78125 -0.882812 1.8125 -0.773438 1.8125 -0.640625 C 1.8125 -0.515625 1.78125 -0.398438 1.71875 -0.296875 C 1.65625 -0.191406 1.5625 -0.109375 1.4375 -0.046875 C 1.320312 0.015625 1.175781 0.046875 1 0.046875 Z M 1 0.046875 "/></g></g></g><g fill="#ffffff" fill-opacity="1"><g transform="translate(14.87831, 14.302131)"><g><path d="M 0.765625 0 L 0.765625 -1.953125 L 0.09375 -1.953125 L 0.09375 -2.296875 L 1.84375 -2.296875 L 1.84375 -1.953125 L 1.171875 -1.953125 L 1.171875 0 Z M 0.765625 0 "/></g></g></g><g fill="#ffffff" fill-opacity="1"><g transform="translate(16.854842, 14.302131)"><g><path d="M 0.078125 0 L 0.921875 -2.296875 L 1.390625 -2.296875 L 2.234375 0 L 1.78125 0 L 1.59375 -0.53125 L 0.703125 -0.53125 L 0.515625 0 Z M 0.8125 -0.859375 L 1.484375 -0.859375 L 1.15625 -1.8125 Z M 0.8125 -0.859375 "/></g></g></g><g fill="#ffffff" fill-opacity="1"><g transform="translate(19.434657, 14.302131)"><g><path d="M 0.21875 0 L 0.21875 -2.296875 L 1.0625 -2.296875 C 1.25 -2.296875 1.398438 -2.265625 1.515625 -2.203125 C 1.640625 -2.140625 1.726562 -2.054688 1.78125 -1.953125 C 1.84375 -1.847656 1.875 -1.726562 1.875 -1.59375 C 1.875 -1.457031 1.835938 -1.332031 1.765625 -1.21875 C 1.691406 -1.101562 1.578125 -1.019531 1.421875 -0.96875 L 1.90625 0 L 1.421875 0 L 0.984375 -0.90625 L 0.640625 -0.90625 L 0.640625 0 Z M 0.640625 -1.21875 L 1.046875 -1.21875 C 1.179688 -1.21875 1.28125 -1.25 1.34375 -1.3125 C 1.414062 -1.382812 1.453125 -1.472656 1.453125 -1.578125 C 1.453125 -1.691406 1.414062 -1.78125 1.34375 -1.84375 C 1.28125 -1.914062 1.175781 -1.953125 1.03125 -1.953125 L 0.640625 -1.953125 Z M 0.640625 -1.21875 "/></g></g></g><g fill="#ffffff" fill-opacity="1"><g transform="translate(21.758831, 14.302131)"><g><path d="M 0.765625 0 L 0.765625 -1.953125 L 0.09375 -1.953125 L 0.09375 -2.296875 L 1.84375 -2.296875 L 1.84375 -1.953125 L 1.171875 -1.953125 L 1.171875 0 Z M 0.765625 0 "/></g></g></g><g clip-path="url(#fee88dcb51)"><path fill="#f9d7e2" d="M 10.5 13.515625 L 9.652344 13.515625 L 9.355469 12.964844 C 9.285156 12.832031 9.171875 12.765625 9.019531 12.765625 L 8.035156 12.765625 C 7.878906 12.765625 7.765625 12.832031 7.691406 12.972656 L 7.410156 13.515625 L 7.222656 13.515625 C 7.21875 13.4375 7.179688 13.398438 7.101562 13.398438 L 7.035156 13.398438 C 7.023438 13.367188 7.003906 13.351562 6.96875 13.351562 L 6.792969 13.351562 C 6.761719 13.351562 6.738281 13.367188 6.726562 13.398438 L 6.664062 13.398438 C 6.585938 13.398438 6.546875 13.4375 6.542969 13.515625 C 6.425781 13.515625 6.324219 13.558594 6.238281 13.644531 C 6.15625 13.726562 6.113281 13.828125 6.113281 13.949219 L 6.113281 15.832031 C 6.113281 15.953125 6.15625 16.054688 6.242188 16.136719 C 6.324219 16.222656 6.429688 16.265625 6.546875 16.265625 L 10.5 16.265625 C 10.621094 16.265625 10.722656 16.222656 10.808594 16.136719 C 10.890625 16.054688 10.933594 15.953125 10.933594 15.832031 L 10.933594 13.945312 C 10.933594 13.828125 10.890625 13.726562 10.804688 13.640625 C 10.722656 13.554688 10.621094 13.515625 10.5 13.515625 Z M 8.523438 15.925781 C 8.367188 15.925781 8.21875 15.894531 8.074219 15.835938 C 7.929688 15.773438 7.800781 15.691406 7.691406 15.578125 C 7.578125 15.46875 7.496094 15.339844 7.433594 15.195312 C 7.375 15.054688 7.34375 14.902344 7.34375 14.746094 C 7.34375 14.589844 7.375 14.441406 7.433594 14.296875 C 7.496094 14.152344 7.578125 14.023438 7.691406 13.914062 C 7.800781 13.800781 7.929688 13.71875 8.074219 13.65625 C 8.21875 13.597656 8.367188 13.566406 8.523438 13.566406 C 8.679688 13.566406 8.828125 13.597656 8.972656 13.65625 C 9.117188 13.71875 9.246094 13.800781 9.355469 13.914062 C 9.46875 14.023438 9.550781 14.152344 9.613281 14.292969 C 9.671875 14.4375 9.703125 14.589844 9.703125 14.746094 C 9.703125 14.902344 9.671875 15.050781 9.613281 15.195312 C 9.550781 15.339844 9.46875 15.46875 9.355469 15.578125 C 9.246094 15.6875 9.121094 15.773438 8.976562 15.835938 C 8.832031 15.894531 8.679688 15.925781 8.523438 15.925781 Z M 10.488281 14.191406 C 10.355469 14.191406 10.289062 14.128906 10.289062 13.996094 C 10.289062 13.863281 10.355469 13.800781 10.488281 13.800781 C 10.617188 13.800781 10.683594 13.863281 10.683594 13.996094 C 10.683594 14.128906 10.617188 14.191406 10.488281 14.191406 Z M 10.488281 14.191406 " fill-opacity="1" fill-rule="nonzero"/></g><path fill="#f9d7e2" d="M 9.34375 14.746094 C 9.34375 14.972656 9.265625 15.167969 9.105469 15.328125 C 8.945312 15.488281 8.75 15.566406 8.523438 15.566406 C 8.296875 15.566406 8.105469 15.488281 7.941406 15.328125 C 7.78125 15.167969 7.703125 14.972656 7.703125 14.746094 C 7.703125 14.519531 7.78125 14.324219 7.941406 14.164062 C 8.105469 14.003906 8.296875 13.925781 8.523438 13.925781 C 8.75 13.925781 8.945312 14.003906 9.105469 14.164062 C 9.265625 14.324219 9.34375 14.519531 9.34375 14.746094 Z M 9.34375 14.746094 " fill-opacity="1" fill-rule="nonzero"/></svg>