<svg xmlns="http://www.w3.org/2000/svg" xmlns:xlink="http://www.w3.org/1999/xlink" width="40" zoomAndPan="magnify" viewBox="0 0 30 30.000001" height="40" preserveAspectRatio="xMidYMid meet" version="1.0"><defs><clipPath id="681020a7b6"><path d="M 1.160156 0.675781 L 28.738281 0.675781 L 28.738281 28.253906 L 1.160156 28.253906 Z M 1.160156 0.675781 " clip-rule="nonzero"/></clipPath></defs><g clip-path="url(#681020a7b6)"><path fill="#000000" d="M 28.738281 14.464844 C 28.738281 13.734375 28.316406 13.113281 27.726562 12.804688 L 25.53125 11.652344 L 27.726562 10.496094 C 28.316406 10.1875 28.738281 9.566406 28.738281 8.835938 C 28.738281 8.105469 28.316406 7.484375 27.726562 7.175781 L 15.820312 0.898438 C 15.566406 0.757812 15.257812 0.675781 14.949219 0.675781 C 14.640625 0.675781 14.328125 0.757812 14.078125 0.898438 L 2.171875 7.148438 C 1.582031 7.484375 1.160156 8.105469 1.160156 8.835938 C 1.160156 9.566406 1.582031 10.1875 2.171875 10.496094 L 4.367188 11.652344 L 2.171875 12.804688 C 1.582031 13.113281 1.160156 13.734375 1.160156 14.464844 C 1.160156 15.195312 1.582031 15.816406 2.171875 16.125 L 4.367188 17.277344 L 2.171875 18.433594 C 1.582031 18.769531 1.160156 19.390625 1.160156 20.09375 C 1.160156 20.824219 1.582031 21.445312 2.171875 21.753906 L 14.078125 28.03125 C 14.328125 28.171875 14.640625 28.253906 14.949219 28.253906 C 15.257812 28.253906 15.566406 28.171875 15.820312 28.03125 L 27.726562 21.78125 C 28.316406 21.472656 28.738281 20.851562 28.738281 20.121094 C 28.738281 19.390625 28.316406 18.769531 27.726562 18.460938 L 25.53125 17.277344 L 27.726562 16.125 C 28.316406 15.816406 28.738281 15.195312 28.738281 14.464844 Z M 2.734375 9.371094 C 2.539062 9.257812 2.398438 9.0625 2.398438 8.808594 C 2.398438 8.554688 2.566406 8.386719 2.761719 8.273438 L 14.667969 1.996094 C 14.75 1.941406 14.835938 1.914062 14.949219 1.914062 C 15.0625 1.914062 15.144531 1.941406 15.230469 1.996094 L 27.164062 8.273438 C 27.359375 8.386719 27.5 8.582031 27.5 8.808594 C 27.5 9.03125 27.359375 9.257812 27.164062 9.34375 L 15.230469 15.648438 C 15.144531 15.703125 15.0625 15.730469 14.949219 15.730469 C 14.835938 15.730469 14.75 15.703125 14.667969 15.648438 Z M 27.164062 19.558594 C 27.359375 19.671875 27.5 19.867188 27.5 20.121094 C 27.5 20.375 27.359375 20.570312 27.164062 20.65625 L 15.230469 26.933594 C 15.144531 26.988281 15.0625 27.015625 14.949219 27.015625 C 14.835938 27.015625 14.75 26.988281 14.667969 26.933594 L 2.734375 20.65625 C 2.566406 20.542969 2.425781 20.347656 2.425781 20.09375 C 2.425781 19.839844 2.566406 19.644531 2.761719 19.558594 L 5.71875 18.011719 L 14.078125 22.402344 C 14.328125 22.542969 14.640625 22.625 14.949219 22.625 C 15.257812 22.625 15.566406 22.542969 15.820312 22.402344 L 24.179688 18.011719 Z M 27.136719 15 L 15.230469 21.277344 C 15.144531 21.332031 15.0625 21.359375 14.949219 21.359375 C 14.835938 21.359375 14.75 21.332031 14.667969 21.277344 L 2.734375 15.027344 C 2.566406 14.914062 2.425781 14.71875 2.425781 14.464844 C 2.425781 14.210938 2.566406 14.015625 2.761719 13.929688 L 5.71875 12.382812 L 14.078125 16.773438 C 14.328125 16.914062 14.640625 16.996094 14.949219 16.996094 C 15.257812 16.996094 15.566406 16.914062 15.820312 16.773438 L 24.179688 12.382812 L 27.164062 13.902344 C 27.359375 14.015625 27.5 14.210938 27.5 14.4375 C 27.472656 14.71875 27.332031 14.914062 27.136719 15 Z M 27.136719 15 " fill-opacity="1" fill-rule="nonzero"/></g></svg>