<svg xmlns="http://www.w3.org/2000/svg" xmlns:xlink="http://www.w3.org/1999/xlink" width="40" zoomAndPan="magnify" viewBox="0 0 30 30.000001" height="40" preserveAspectRatio="xMidYMid meet" version="1.0"><defs><clipPath id="4331a1dc67"><path d="M 0.957031 0.472656 L 29.261719 0.472656 L 29.261719 28.777344 L 0.957031 28.777344 Z M 0.957031 0.472656 " clip-rule="nonzero"/></clipPath><clipPath id="1cb246f29e"><path d="M 8 5 L 22 5 L 22 28.777344 L 8 28.777344 Z M 8 5 " clip-rule="nonzero"/></clipPath></defs><g clip-path="url(#4331a1dc67)"><path fill="#0866ff" d="M 29.265625 14.628906 C 29.265625 6.808594 22.929688 0.472656 15.113281 0.472656 C 7.292969 0.472656 0.957031 6.808594 0.957031 14.628906 C 0.957031 21.265625 5.527344 26.835938 11.691406 28.367188 L 11.691406 18.953125 L 8.773438 18.953125 L 8.773438 14.628906 L 11.691406 14.628906 L 11.691406 12.765625 C 11.691406 7.945312 13.871094 5.710938 18.601562 5.710938 C 19.5 5.710938 21.046875 5.886719 21.679688 6.066406 L 21.679688 9.984375 C 21.34375 9.949219 20.765625 9.933594 20.042969 9.933594 C 17.722656 9.933594 16.824219 10.8125 16.824219 13.097656 L 16.824219 14.625 L 21.449219 14.625 L 20.65625 18.953125 L 16.824219 18.953125 L 16.824219 28.679688 C 23.835938 27.832031 29.265625 21.863281 29.265625 14.625 Z M 29.265625 14.628906 " fill-opacity="1" fill-rule="nonzero"/></g><g clip-path="url(#1cb246f29e)"><path fill="#ffffff" d="M 20.65625 18.953125 L 21.449219 14.625 L 16.828125 14.625 L 16.828125 13.097656 C 16.828125 10.8125 17.722656 9.933594 20.042969 9.933594 C 20.765625 9.933594 21.34375 9.949219 21.679688 9.984375 L 21.679688 6.066406 C 21.046875 5.890625 19.5 5.710938 18.601562 5.710938 C 13.871094 5.710938 11.691406 7.945312 11.691406 12.765625 L 11.691406 14.628906 L 8.773438 14.628906 L 8.773438 18.953125 L 11.691406 18.953125 L 11.691406 28.367188 C 12.789062 28.636719 13.933594 28.785156 15.113281 28.785156 C 15.691406 28.785156 16.265625 28.746094 16.828125 28.679688 L 16.828125 18.953125 Z M 20.65625 18.953125 " fill-opacity="1" fill-rule="nonzero"/></g></svg>