<svg xmlns="http://www.w3.org/2000/svg" xmlns:xlink="http://www.w3.org/1999/xlink" width="400" zoomAndPan="magnify" viewBox="0 0 300 374.999991" height="500" preserveAspectRatio="xMidYMid meet" version="1.0"><defs><clipPath id="00335298c1"><path d="M 4.320312 4.542969 L 295.320312 4.542969 L 295.320312 370.542969 L 4.320312 370.542969 Z M 4.320312 4.542969 " clip-rule="nonzero"/></clipPath></defs><path fill="#f9d7e2" d="M 119 354.867188 L 7.421875 348.667969 L 7.421875 106.910156 L 119 100.710938 Z M 119 354.867188 " fill-opacity="1" fill-rule="nonzero"/><path fill="#efb4c4" d="M 273.125 277.226562 L 270.875 274.28125 C 266.226562 268.082031 256.929688 268.082031 252.28125 274.28125 C 247.628906 280.480469 238.332031 280.480469 233.683594 274.28125 C 229.035156 268.082031 219.734375 268.082031 215.085938 274.28125 C 210.4375 280.480469 201.136719 280.480469 196.488281 274.28125 C 191.839844 268.082031 182.542969 268.082031 177.890625 274.28125 C 173.242188 280.480469 163.945312 280.480469 159.296875 274.28125 C 154.644531 268.082031 145.347656 268.082031 140.699219 274.28125 L 138.449219 277.226562 C 136.203125 280.25 131.398438 278.621094 131.398438 274.902344 L 131.398438 100.710938 L 280.175781 100.710938 L 280.175781 274.902344 C 280.175781 278.699219 275.371094 280.25 273.125 277.226562 Z M 273.125 277.226562 " fill-opacity="1" fill-rule="nonzero"/><path fill="#dd3d93" d="M 283.273438 367.265625 L 15.554688 367.265625 C 11.0625 367.265625 7.421875 363.625 7.421875 359.128906 L 7.421875 348.667969 L 283.273438 348.667969 C 288.386719 348.667969 292.574219 352.855469 292.574219 357.96875 C 292.574219 363.082031 288.386719 367.265625 283.273438 367.265625 Z M 283.273438 367.265625 " fill-opacity="1" fill-rule="nonzero"/><path fill="#dd3d93" d="M 46.085938 168.898438 L 30.820312 168.898438 C 28.1875 168.898438 26.09375 166.730469 26.09375 164.171875 L 26.09375 136.511719 C 26.09375 133.875 28.265625 131.785156 30.820312 131.785156 L 46.085938 131.785156 C 48.722656 131.785156 50.8125 133.953125 50.8125 136.511719 L 50.8125 164.171875 C 50.8125 166.730469 48.644531 168.898438 46.085938 168.898438 Z M 46.085938 168.898438 " fill-opacity="1" fill-rule="nonzero"/><path fill="#efb4c4" d="M 96.21875 156.5 L 67.394531 156.5 C 65.070312 156.5 63.210938 154.640625 63.210938 152.316406 L 63.210938 135.890625 C 63.210938 133.566406 65.070312 131.707031 67.394531 131.707031 L 96.21875 131.707031 C 98.546875 131.707031 100.40625 133.566406 100.40625 135.890625 L 100.40625 152.316406 C 100.40625 154.640625 98.546875 156.5 96.21875 156.5 Z M 96.21875 156.5 " fill-opacity="1" fill-rule="nonzero"/><path fill="#c7ef63" d="M 63.210938 199.894531 L 38.414062 199.894531 L 38.414062 183.699219 C 38.414062 182.382812 39.5 181.296875 40.816406 181.296875 L 63.210938 181.296875 Z M 63.210938 199.894531 " fill-opacity="1" fill-rule="nonzero"/><path fill="#efb4c4" d="M 63.210938 218.492188 L 40.816406 218.492188 C 39.5 218.492188 38.414062 217.40625 38.414062 216.089844 L 38.414062 199.894531 L 63.210938 199.894531 Z M 63.210938 218.492188 " fill-opacity="1" fill-rule="nonzero"/><path fill="#c7ef63" d="M 85.605469 218.492188 L 63.210938 218.492188 L 63.210938 199.894531 L 88.007812 199.894531 L 88.007812 216.089844 C 88.007812 217.40625 86.921875 218.492188 85.605469 218.492188 Z M 85.605469 218.492188 " fill-opacity="1" fill-rule="nonzero"/><path fill="#efb4c4" d="M 88.007812 199.894531 L 63.210938 199.894531 L 63.210938 181.296875 L 85.605469 181.296875 C 86.921875 181.296875 88.007812 182.382812 88.007812 183.699219 Z M 88.007812 199.894531 " fill-opacity="1" fill-rule="nonzero"/><path fill="#efb4c4" d="M 46.628906 261.882812 L 30.203125 261.882812 C 27.875 261.882812 26.015625 260.023438 26.015625 257.699219 L 26.015625 241.273438 C 26.015625 238.949219 27.875 237.089844 30.203125 237.089844 L 46.628906 237.089844 C 48.953125 237.089844 50.8125 238.949219 50.8125 241.273438 L 50.8125 257.699219 C 50.8125 260.023438 48.953125 261.882812 46.628906 261.882812 Z M 46.628906 261.882812 " fill-opacity="1" fill-rule="nonzero"/><path fill="#dd3d93" d="M 95.679688 261.882812 L 80.414062 261.882812 C 77.777344 261.882812 75.6875 259.714844 75.6875 257.15625 L 75.6875 241.890625 C 75.6875 239.257812 77.855469 237.164062 80.414062 237.164062 L 95.679688 237.164062 C 98.3125 237.164062 100.40625 239.335938 100.40625 241.890625 L 100.40625 257.15625 C 100.40625 259.714844 98.234375 261.882812 95.679688 261.882812 Z M 95.679688 261.882812 " fill-opacity="1" fill-rule="nonzero"/><path fill="#c7ef63" d="M 58.40625 311.476562 L 30.820312 311.476562 C 28.1875 311.476562 26.015625 309.304688 26.015625 306.671875 L 26.015625 291.484375 C 26.015625 288.851562 28.1875 286.679688 30.820312 286.679688 L 58.40625 286.679688 C 61.042969 286.679688 63.210938 288.851562 63.210938 291.484375 L 63.210938 306.671875 C 63.210938 309.304688 61.042969 311.476562 58.40625 311.476562 Z M 58.40625 311.476562 " fill-opacity="1" fill-rule="nonzero"/><path fill="#efb4c4" d="M 96.21875 317.675781 L 79.792969 317.675781 C 77.46875 317.675781 75.609375 315.816406 75.609375 313.492188 L 75.609375 284.664062 C 75.609375 282.339844 77.46875 280.480469 79.792969 280.480469 L 96.21875 280.480469 C 98.546875 280.480469 100.40625 282.339844 100.40625 284.664062 L 100.40625 313.492188 C 100.40625 315.816406 98.546875 317.675781 96.21875 317.675781 Z M 96.21875 317.675781 " fill-opacity="1" fill-rule="nonzero"/><path fill="#dd3d93" d="M 284.4375 106.910156 L 7.421875 106.910156 L 7.421875 71.652344 C 7.421875 67.160156 11.0625 63.515625 15.554688 63.515625 L 284.4375 63.515625 C 288.929688 63.515625 292.574219 67.160156 292.574219 71.652344 L 292.574219 98.773438 C 292.574219 103.269531 288.929688 106.910156 284.4375 106.910156 Z M 284.4375 106.910156 " fill-opacity="1" fill-rule="nonzero"/><path fill="#dd3d93" d="M 168.59375 20.125 L 149.996094 26.324219 L 131.398438 20.125 L 136.359375 10.285156 C 137.132812 8.734375 138.761719 7.726562 140.464844 7.726562 L 159.605469 7.726562 C 161.308594 7.726562 162.9375 8.734375 163.710938 10.285156 Z M 168.59375 20.125 " fill-opacity="1" fill-rule="nonzero"/><path fill="#f9d7e2" d="M 195.402344 82.113281 L 104.589844 82.113281 C 98.855469 82.113281 94.207031 77.464844 94.207031 71.730469 L 94.207031 30.507812 C 94.207031 24.773438 98.855469 20.125 104.589844 20.125 L 195.402344 20.125 C 201.136719 20.125 205.789062 24.773438 205.789062 30.507812 L 205.789062 71.730469 C 205.789062 77.464844 201.136719 82.113281 195.402344 82.113281 Z M 195.402344 82.113281 " fill-opacity="1" fill-rule="nonzero"/><path fill="#c7ef63" d="M 168.59375 51.121094 C 168.59375 51.726562 168.5625 52.335938 168.503906 52.941406 C 168.445312 53.546875 168.355469 54.148438 168.234375 54.746094 C 168.117188 55.34375 167.96875 55.933594 167.792969 56.519531 C 167.617188 57.101562 167.410156 57.671875 167.179688 58.234375 C 166.945312 58.796875 166.683594 59.347656 166.398438 59.886719 C 166.109375 60.421875 165.796875 60.945312 165.460938 61.449219 C 165.121094 61.957031 164.757812 62.445312 164.371094 62.917969 C 163.984375 63.386719 163.578125 63.839844 163.148438 64.269531 C 162.714844 64.699219 162.265625 65.109375 161.792969 65.496094 C 161.324219 65.882812 160.835938 66.242188 160.328125 66.582031 C 159.820312 66.921875 159.300781 67.234375 158.761719 67.519531 C 158.226562 67.808594 157.675781 68.066406 157.113281 68.300781 C 156.550781 68.535156 155.976562 68.738281 155.394531 68.914062 C 154.8125 69.09375 154.222656 69.238281 153.625 69.359375 C 153.027344 69.476562 152.425781 69.566406 151.820312 69.625 C 151.214844 69.6875 150.605469 69.714844 149.996094 69.714844 C 149.386719 69.714844 148.78125 69.6875 148.171875 69.625 C 147.566406 69.566406 146.964844 69.476562 146.367188 69.359375 C 145.769531 69.238281 145.179688 69.09375 144.597656 68.914062 C 144.015625 68.738281 143.441406 68.535156 142.878906 68.300781 C 142.316406 68.066406 141.765625 67.808594 141.230469 67.519531 C 140.691406 67.234375 140.171875 66.921875 139.664062 66.582031 C 139.160156 66.242188 138.667969 65.882812 138.199219 65.496094 C 137.726562 65.109375 137.277344 64.699219 136.847656 64.269531 C 136.414062 63.839844 136.007812 63.386719 135.621094 62.917969 C 135.234375 62.445312 134.871094 61.957031 134.535156 61.449219 C 134.195312 60.945312 133.882812 60.421875 133.59375 59.886719 C 133.308594 59.347656 133.046875 58.796875 132.816406 58.234375 C 132.582031 57.671875 132.378906 57.101562 132.199219 56.519531 C 132.023438 55.933594 131.875 55.34375 131.757812 54.746094 C 131.636719 54.148438 131.550781 53.546875 131.488281 52.941406 C 131.429688 52.335938 131.398438 51.726562 131.398438 51.121094 C 131.398438 50.511719 131.429688 49.902344 131.488281 49.296875 C 131.550781 48.691406 131.636719 48.089844 131.757812 47.492188 C 131.875 46.894531 132.023438 46.304688 132.199219 45.722656 C 132.378906 45.136719 132.582031 44.566406 132.816406 44.003906 C 133.046875 43.441406 133.308594 42.890625 133.59375 42.351562 C 133.882812 41.816406 134.195312 41.292969 134.535156 40.789062 C 134.871094 40.28125 135.234375 39.792969 135.621094 39.320312 C 136.007812 38.851562 136.414062 38.398438 136.847656 37.96875 C 137.277344 37.539062 137.726562 37.128906 138.199219 36.742188 C 138.667969 36.355469 139.160156 35.996094 139.664062 35.65625 C 140.171875 35.316406 140.691406 35.003906 141.230469 34.71875 C 141.765625 34.429688 142.316406 34.171875 142.878906 33.9375 C 143.441406 33.703125 144.015625 33.5 144.597656 33.324219 C 145.179688 33.144531 145.769531 33 146.367188 32.878906 C 146.964844 32.761719 147.566406 32.671875 148.171875 32.613281 C 148.78125 32.550781 149.386719 32.523438 149.996094 32.523438 C 150.605469 32.523438 151.214844 32.550781 151.820312 32.613281 C 152.425781 32.671875 153.027344 32.761719 153.625 32.878906 C 154.222656 33 154.8125 33.144531 155.394531 33.324219 C 155.976562 33.5 156.550781 33.703125 157.113281 33.9375 C 157.675781 34.171875 158.226562 34.429688 158.761719 34.71875 C 159.300781 35.003906 159.820312 35.316406 160.328125 35.65625 C 160.835938 35.996094 161.324219 36.355469 161.792969 36.742188 C 162.265625 37.128906 162.714844 37.539062 163.148438 37.96875 C 163.578125 38.398438 163.984375 38.851562 164.371094 39.320312 C 164.757812 39.792969 165.121094 40.28125 165.460938 40.789062 C 165.796875 41.292969 166.109375 41.816406 166.398438 42.351562 C 166.683594 42.890625 166.945312 43.441406 167.179688 44.003906 C 167.410156 44.566406 167.617188 45.136719 167.792969 45.722656 C 167.96875 46.304688 168.117188 46.894531 168.234375 47.492188 C 168.355469 48.089844 168.445312 48.691406 168.503906 49.296875 C 168.5625 49.902344 168.59375 50.511719 168.59375 51.121094 Z M 168.59375 51.121094 " fill-opacity="1" fill-rule="nonzero"/><path fill="#dd3d93" d="M 191.453125 44.921875 L 182.929688 44.921875 C 181.84375 44.921875 180.992188 44.066406 180.992188 42.984375 L 180.992188 34.460938 C 180.992188 33.375 181.84375 32.523438 182.929688 32.523438 L 191.453125 32.523438 C 192.535156 32.523438 193.390625 33.375 193.390625 34.460938 L 193.390625 42.984375 C 193.390625 44.066406 192.535156 44.921875 191.453125 44.921875 Z M 191.453125 44.921875 " fill-opacity="1" fill-rule="nonzero"/><path fill="#dd3d93" d="M 119 38.722656 C 119 39.128906 118.960938 39.53125 118.882812 39.929688 C 118.804688 40.328125 118.6875 40.71875 118.53125 41.09375 C 118.375 41.46875 118.183594 41.828125 117.957031 42.164062 C 117.730469 42.503906 117.472656 42.816406 117.1875 43.105469 C 116.898438 43.390625 116.585938 43.648438 116.246094 43.875 C 115.910156 44.101562 115.550781 44.292969 115.175781 44.449219 C 114.800781 44.605469 114.410156 44.722656 114.011719 44.800781 C 113.613281 44.878906 113.210938 44.921875 112.804688 44.921875 C 112.394531 44.921875 111.992188 44.878906 111.59375 44.800781 C 111.195312 44.722656 110.804688 44.605469 110.429688 44.449219 C 110.054688 44.292969 109.695312 44.101562 109.359375 43.875 C 109.019531 43.648438 108.707031 43.390625 108.417969 43.105469 C 108.132812 42.816406 107.875 42.503906 107.648438 42.164062 C 107.421875 41.828125 107.230469 41.46875 107.074219 41.09375 C 106.917969 40.71875 106.800781 40.328125 106.722656 39.929688 C 106.644531 39.53125 106.605469 39.128906 106.605469 38.722656 C 106.605469 38.3125 106.644531 37.910156 106.722656 37.511719 C 106.800781 37.113281 106.917969 36.726562 107.074219 36.347656 C 107.230469 35.972656 107.421875 35.617188 107.648438 35.277344 C 107.875 34.9375 108.132812 34.625 108.417969 34.339844 C 108.707031 34.050781 109.019531 33.792969 109.359375 33.566406 C 109.695312 33.339844 110.054688 33.148438 110.429688 32.996094 C 110.804688 32.839844 111.195312 32.722656 111.59375 32.640625 C 111.992188 32.5625 112.394531 32.523438 112.804688 32.523438 C 113.210938 32.523438 113.613281 32.5625 114.011719 32.640625 C 114.410156 32.722656 114.800781 32.839844 115.175781 32.996094 C 115.550781 33.148438 115.910156 33.339844 116.246094 33.566406 C 116.585938 33.792969 116.898438 34.050781 117.1875 34.339844 C 117.472656 34.625 117.730469 34.9375 117.957031 35.277344 C 118.183594 35.617188 118.375 35.972656 118.53125 36.347656 C 118.6875 36.726562 118.804688 37.113281 118.882812 37.511719 C 118.960938 37.910156 119 38.3125 119 38.722656 Z M 119 38.722656 " fill-opacity="1" fill-rule="nonzero"/><g clip-path="url(#00335298c1)"><path fill="#dd3d93" d="M 133.105469 281.566406 C 136.050781 282.574219 139.070312 281.566406 140.929688 279.085938 L 143.179688 276.140625 C 144.804688 273.972656 147.285156 272.730469 149.996094 272.730469 C 152.707031 272.730469 155.1875 273.972656 156.816406 276.140625 C 159.605469 279.859375 163.945312 282.03125 168.59375 282.03125 C 173.242188 282.03125 177.582031 279.859375 180.371094 276.140625 C 182 273.972656 184.476562 272.730469 187.191406 272.730469 C 189.902344 272.730469 192.382812 273.972656 194.007812 276.140625 C 196.796875 279.859375 201.136719 282.03125 205.789062 282.03125 C 210.4375 282.03125 214.777344 279.859375 217.566406 276.140625 C 219.191406 273.972656 221.671875 272.730469 224.382812 272.730469 C 227.097656 272.730469 229.574219 273.972656 231.203125 276.140625 C 233.992188 279.859375 238.332031 282.03125 242.980469 282.03125 C 247.628906 282.03125 251.96875 279.859375 254.757812 276.140625 C 256.386719 273.972656 258.867188 272.730469 261.578125 272.730469 C 264.289062 272.730469 266.769531 273.972656 268.398438 276.140625 L 270.644531 279.085938 C 272.503906 281.566406 275.601562 282.496094 278.46875 281.566406 C 281.414062 280.558594 283.273438 278 283.273438 274.902344 L 283.273438 110.007812 L 284.4375 110.007812 C 290.636719 110.007812 295.671875 104.972656 295.671875 98.773438 L 295.671875 71.652344 C 295.671875 65.453125 290.636719 60.417969 284.4375 60.417969 L 208.886719 60.417969 L 208.886719 30.507812 C 208.886719 23.070312 202.84375 17.023438 195.402344 17.023438 L 170.53125 17.023438 L 165.183594 6.332031 C 164.640625 5.246094 163.558594 4.628906 162.394531 4.628906 L 137.597656 4.628906 C 136.4375 4.628906 135.351562 5.324219 134.808594 6.332031 L 129.460938 17.023438 L 104.589844 17.023438 C 97.152344 17.023438 91.105469 23.070312 91.105469 30.507812 L 91.105469 60.417969 L 15.554688 60.417969 C 9.359375 60.417969 4.320312 65.453125 4.320312 71.652344 L 4.320312 359.128906 C 4.320312 365.328125 9.359375 370.367188 15.554688 370.367188 L 283.273438 370.367188 C 290.09375 370.367188 295.671875 364.785156 295.671875 357.96875 C 295.671875 351.148438 290.09375 345.570312 283.273438 345.570312 L 122.101562 345.570312 L 122.101562 110.007812 L 128.300781 110.007812 L 128.300781 274.902344 C 128.300781 278 130.160156 280.558594 133.105469 281.566406 Z M 277.074219 274.902344 C 277.074219 275.289062 276.921875 275.597656 276.53125 275.675781 C 276.144531 275.832031 275.835938 275.675781 275.601562 275.367188 L 273.355469 272.421875 C 270.566406 268.703125 266.226562 266.535156 261.578125 266.535156 C 256.929688 266.535156 252.589844 268.703125 249.800781 272.421875 C 248.171875 274.59375 245.691406 275.832031 242.980469 275.832031 C 240.269531 275.832031 237.789062 274.59375 236.164062 272.421875 C 233.371094 268.703125 229.035156 266.535156 224.382812 266.535156 C 219.734375 266.535156 215.394531 268.703125 212.605469 272.421875 C 210.980469 274.59375 208.5 275.832031 205.789062 275.832031 C 203.074219 275.832031 200.59375 274.59375 198.96875 272.421875 C 196.179688 268.703125 191.839844 266.535156 187.191406 266.535156 C 182.542969 266.535156 178.203125 268.703125 175.414062 272.421875 C 173.785156 274.59375 171.304688 275.832031 168.59375 275.832031 C 165.882812 275.832031 163.402344 274.59375 161.773438 272.421875 C 158.984375 268.703125 154.644531 266.535156 149.996094 266.535156 C 145.347656 266.535156 141.007812 268.703125 138.21875 272.421875 L 135.972656 275.367188 C 135.738281 275.675781 135.429688 275.753906 135.042969 275.675781 C 134.652344 275.523438 134.5 275.289062 134.5 274.902344 L 134.5 110.007812 L 165.492188 110.007812 L 165.492188 255.683594 C 165.492188 257.390625 166.890625 258.785156 168.59375 258.785156 C 170.296875 258.785156 171.691406 257.390625 171.691406 255.683594 L 171.691406 110.007812 L 202.6875 110.007812 L 202.6875 255.683594 C 202.6875 257.390625 204.082031 258.785156 205.789062 258.785156 C 207.492188 258.785156 208.886719 257.390625 208.886719 255.683594 L 208.886719 110.007812 L 239.882812 110.007812 L 239.882812 255.683594 C 239.882812 257.390625 241.277344 258.785156 242.980469 258.785156 C 244.6875 258.785156 246.082031 257.390625 246.082031 255.683594 L 246.082031 110.007812 L 277.074219 110.007812 Z M 139.535156 10.824219 L 160.535156 10.824219 L 163.632812 17.023438 L 136.4375 17.023438 Z M 97.304688 30.507812 C 97.304688 26.476562 100.558594 23.222656 104.589844 23.222656 L 195.402344 23.222656 C 199.433594 23.222656 202.6875 26.476562 202.6875 30.507812 L 202.6875 71.730469 C 202.6875 75.761719 199.433594 79.015625 195.402344 79.015625 L 104.589844 79.015625 C 100.558594 79.015625 97.304688 75.761719 97.304688 71.730469 Z M 10.519531 71.652344 C 10.519531 68.863281 12.765625 66.617188 15.554688 66.617188 L 91.105469 66.617188 L 91.105469 71.730469 C 91.105469 79.167969 97.152344 85.214844 104.589844 85.214844 L 195.402344 85.214844 C 202.84375 85.214844 208.886719 79.167969 208.886719 71.730469 L 208.886719 66.617188 L 284.4375 66.617188 C 287.226562 66.617188 289.472656 68.863281 289.472656 71.652344 L 289.472656 98.773438 C 289.472656 101.5625 287.226562 103.808594 284.4375 103.808594 L 10.519531 103.808594 Z M 289.472656 357.96875 C 289.472656 361.378906 286.683594 364.167969 283.273438 364.167969 L 15.554688 364.167969 C 12.765625 364.167969 10.519531 361.921875 10.519531 359.128906 L 10.519531 351.769531 L 283.273438 351.769531 C 286.683594 351.769531 289.472656 354.558594 289.472656 357.96875 Z M 115.902344 345.570312 L 10.519531 345.570312 L 10.519531 110.007812 L 115.902344 110.007812 Z M 115.902344 345.570312 " fill-opacity="1" fill-rule="nonzero"/></g><path fill="#dd3d93" d="M 26.015625 172 L 50.8125 172 C 52.519531 172 53.914062 170.605469 53.914062 168.898438 L 53.914062 131.707031 C 53.914062 130 52.519531 128.605469 50.8125 128.605469 L 26.015625 128.605469 C 24.3125 128.605469 22.917969 130 22.917969 131.707031 L 22.917969 168.898438 C 22.917969 170.605469 24.3125 172 26.015625 172 Z M 29.117188 134.804688 L 47.714844 134.804688 L 47.714844 165.800781 L 29.117188 165.800781 Z M 29.117188 134.804688 " fill-opacity="1" fill-rule="nonzero"/><path fill="#dd3d93" d="M 63.210938 159.601562 L 100.40625 159.601562 C 102.109375 159.601562 103.503906 158.207031 103.503906 156.5 L 103.503906 131.707031 C 103.503906 130 102.109375 128.605469 100.40625 128.605469 L 63.210938 128.605469 C 61.507812 128.605469 60.113281 130 60.113281 131.707031 L 60.113281 156.5 C 60.113281 158.207031 61.507812 159.601562 63.210938 159.601562 Z M 66.308594 134.804688 L 97.304688 134.804688 L 97.304688 153.402344 L 66.308594 153.402344 Z M 66.308594 134.804688 " fill-opacity="1" fill-rule="nonzero"/><path fill="#dd3d93" d="M 91.105469 218.492188 L 91.105469 181.296875 C 91.105469 179.59375 89.710938 178.199219 88.007812 178.199219 L 38.414062 178.199219 C 36.710938 178.199219 35.316406 179.59375 35.316406 181.296875 L 35.316406 218.492188 C 35.316406 220.195312 36.710938 221.589844 38.414062 221.589844 L 88.007812 221.589844 C 89.710938 221.589844 91.105469 220.195312 91.105469 218.492188 Z M 66.308594 184.398438 L 84.90625 184.398438 L 84.90625 196.796875 L 66.308594 196.796875 Z M 60.113281 184.398438 L 60.113281 196.796875 L 41.515625 196.796875 L 41.515625 184.398438 Z M 41.515625 202.992188 L 60.113281 202.992188 L 60.113281 215.390625 L 41.515625 215.390625 Z M 66.308594 215.390625 L 66.308594 202.992188 L 84.90625 202.992188 L 84.90625 215.390625 Z M 66.308594 215.390625 " fill-opacity="1" fill-rule="nonzero"/><path fill="#dd3d93" d="M 26.015625 264.984375 L 50.8125 264.984375 C 52.519531 264.984375 53.914062 263.589844 53.914062 261.882812 L 53.914062 237.089844 C 53.914062 235.382812 52.519531 233.988281 50.8125 233.988281 L 26.015625 233.988281 C 24.3125 233.988281 22.917969 235.382812 22.917969 237.089844 L 22.917969 261.882812 C 22.917969 263.589844 24.3125 264.984375 26.015625 264.984375 Z M 29.117188 240.1875 L 47.714844 240.1875 L 47.714844 258.785156 L 29.117188 258.785156 Z M 29.117188 240.1875 " fill-opacity="1" fill-rule="nonzero"/><path fill="#dd3d93" d="M 100.40625 233.988281 L 75.609375 233.988281 C 73.902344 233.988281 72.507812 235.382812 72.507812 237.089844 L 72.507812 261.882812 C 72.507812 263.589844 73.902344 264.984375 75.609375 264.984375 L 100.40625 264.984375 C 102.109375 264.984375 103.503906 263.589844 103.503906 261.882812 L 103.503906 237.089844 C 103.503906 235.382812 102.109375 233.988281 100.40625 233.988281 Z M 97.304688 258.785156 L 78.707031 258.785156 L 78.707031 240.1875 L 97.304688 240.1875 Z M 97.304688 258.785156 " fill-opacity="1" fill-rule="nonzero"/><path fill="#dd3d93" d="M 149.996094 72.816406 C 161.929688 72.816406 171.691406 63.050781 171.691406 51.121094 C 171.691406 39.1875 161.929688 29.421875 149.996094 29.421875 C 138.0625 29.421875 128.300781 39.1875 128.300781 51.121094 C 128.300781 63.050781 138.0625 72.816406 149.996094 72.816406 Z M 149.996094 35.621094 C 158.519531 35.621094 165.492188 42.59375 165.492188 51.121094 C 165.492188 59.644531 158.519531 66.617188 149.996094 66.617188 C 141.472656 66.617188 134.5 59.644531 134.5 51.121094 C 134.5 42.59375 141.472656 35.621094 149.996094 35.621094 Z M 149.996094 35.621094 " fill-opacity="1" fill-rule="nonzero"/><path fill="#dd3d93" d="M 180.992188 48.019531 L 193.390625 48.019531 C 195.09375 48.019531 196.488281 46.625 196.488281 44.921875 L 196.488281 32.523438 C 196.488281 30.816406 195.09375 29.421875 193.390625 29.421875 L 180.992188 29.421875 C 179.285156 29.421875 177.890625 30.816406 177.890625 32.523438 L 177.890625 44.921875 C 177.890625 46.625 179.285156 48.019531 180.992188 48.019531 Z M 184.089844 35.621094 L 190.289062 35.621094 L 190.289062 41.820312 L 184.089844 41.820312 Z M 184.089844 35.621094 " fill-opacity="1" fill-rule="nonzero"/><path fill="#dd3d93" d="M 112.804688 48.019531 C 117.917969 48.019531 122.101562 43.835938 122.101562 38.722656 C 122.101562 33.605469 117.917969 29.421875 112.804688 29.421875 C 107.6875 29.421875 103.503906 33.605469 103.503906 38.722656 C 103.503906 43.835938 107.6875 48.019531 112.804688 48.019531 Z M 112.804688 35.621094 C 114.507812 35.621094 115.902344 37.015625 115.902344 38.722656 C 115.902344 40.425781 114.507812 41.820312 112.804688 41.820312 C 111.097656 41.820312 109.703125 40.425781 109.703125 38.722656 C 109.703125 37.015625 111.097656 35.621094 112.804688 35.621094 Z M 112.804688 35.621094 " fill-opacity="1" fill-rule="nonzero"/><path fill="#dd3d93" d="M 26.015625 314.574219 L 63.210938 314.574219 C 64.914062 314.574219 66.308594 313.179688 66.308594 311.476562 L 66.308594 286.679688 C 66.308594 284.976562 64.914062 283.582031 63.210938 283.582031 L 26.015625 283.582031 C 24.3125 283.582031 22.917969 284.976562 22.917969 286.679688 L 22.917969 311.476562 C 22.917969 313.179688 24.3125 314.574219 26.015625 314.574219 Z M 29.117188 289.78125 L 60.113281 289.78125 L 60.113281 308.375 L 29.117188 308.375 Z M 29.117188 289.78125 " fill-opacity="1" fill-rule="nonzero"/><path fill="#dd3d93" d="M 100.40625 277.382812 L 75.609375 277.382812 C 73.902344 277.382812 72.507812 278.777344 72.507812 280.480469 L 72.507812 317.675781 C 72.507812 319.378906 73.902344 320.773438 75.609375 320.773438 L 100.40625 320.773438 C 102.109375 320.773438 103.503906 319.378906 103.503906 317.675781 L 103.503906 280.480469 C 103.503906 278.777344 102.109375 277.382812 100.40625 277.382812 Z M 97.304688 314.574219 L 78.707031 314.574219 L 78.707031 283.582031 L 97.304688 283.582031 Z M 97.304688 314.574219 " fill-opacity="1" fill-rule="nonzero"/></svg>