<svg xmlns="http://www.w3.org/2000/svg" xmlns:xlink="http://www.w3.org/1999/xlink" width="40" zoomAndPan="magnify" viewBox="0 0 30 30.000001" height="40" preserveAspectRatio="xMidYMid meet" version="1.0"><defs><clipPath id="13d14594c5"><path d="M 0.484375 0 L 29.515625 0 L 29.515625 29.03125 L 0.484375 29.03125 Z M 0.484375 0 " clip-rule="nonzero"/></clipPath><clipPath id="11c7e2889f"><path d="M 15 0 C 6.984375 0 0.484375 6.5 0.484375 14.515625 C 0.484375 22.53125 6.984375 29.03125 15 29.03125 C 23.015625 29.03125 29.515625 22.53125 29.515625 14.515625 C 29.515625 6.5 23.015625 0 15 0 Z M 15 0 " clip-rule="nonzero"/></clipPath><clipPath id="c0779468f6"><path d="M 0.484375 0 L 29.515625 0 L 29.515625 29.03125 L 0.484375 29.03125 Z M 0.484375 0 " clip-rule="nonzero"/></clipPath><clipPath id="3498acc862"><path d="M 15 0 C 6.984375 0 0.484375 6.5 0.484375 14.515625 C 0.484375 22.53125 6.984375 29.03125 15 29.03125 C 23.015625 29.03125 29.515625 22.53125 29.515625 14.515625 C 29.515625 6.5 23.015625 0 15 0 Z M 15 0 " clip-rule="nonzero"/></clipPath><clipPath id="f40141fc0d"><rect x="0" width="30" y="0" height="30"/></clipPath><clipPath id="6ed9653577"><path d="M 7.535156 8 L 22 8 L 22 22 L 7.535156 22 Z M 7.535156 8 " clip-rule="nonzero"/></clipPath><clipPath id="377399f44c"><path d="M 11 7.050781 L 22.777344 7.050781 L 22.777344 18 L 11 18 Z M 11 7.050781 " clip-rule="nonzero"/></clipPath></defs><g clip-path="url(#13d14594c5)"><g clip-path="url(#11c7e2889f)"><g transform="matrix(1, 0, 0, 1, 0, 0.000000000000005692)"><g clip-path="url(#f40141fc0d)"><g clip-path="url(#c0779468f6)"><g clip-path="url(#3498acc862)"><path fill="#dd3d93" d="M 0.484375 0 L 29.515625 0 L 29.515625 29.03125 L 0.484375 29.03125 Z M 0.484375 0 " fill-opacity="1" fill-rule="nonzero"/></g></g></g></g></g></g><g clip-path="url(#6ed9653577)"><path fill="#feefff" d="M 10.707031 8.367188 C 8.976562 8.367188 7.570312 9.777344 7.570312 11.507812 L 7.570312 18.828125 C 7.570312 20.558594 8.976562 21.96875 10.707031 21.96875 L 18.03125 21.96875 C 19.761719 21.96875 21.167969 20.558594 21.167969 18.828125 L 21.167969 15.691406 C 21.167969 15.402344 20.933594 15.167969 20.644531 15.167969 C 20.355469 15.167969 20.121094 15.402344 20.121094 15.691406 L 20.121094 18.828125 C 20.121094 19.996094 19.199219 20.921875 18.03125 20.921875 L 10.707031 20.921875 C 9.542969 20.921875 8.617188 19.996094 8.617188 18.828125 L 8.617188 11.507812 C 8.617188 10.339844 9.542969 9.414062 10.707031 9.414062 L 13.847656 9.414062 C 14.136719 9.414062 14.371094 9.179688 14.371094 8.890625 C 14.371094 8.601562 14.136719 8.367188 13.847656 8.367188 Z M 10.707031 8.367188 " fill-opacity="1" fill-rule="nonzero"/></g><g clip-path="url(#377399f44c)"><path fill="#feefff" d="M 18.199219 8.007812 L 12.128906 14.078125 C 12.046875 14.160156 11.996094 14.265625 11.984375 14.378906 L 11.585938 17.296875 C 11.539062 17.636719 11.824219 17.925781 12.164062 17.890625 L 15.144531 17.558594 C 15.265625 17.542969 15.375 17.492188 15.460938 17.40625 L 21.527344 11.339844 C 22.445312 10.421875 22.445312 8.925781 21.527344 8.007812 C 20.628906 7.070312 19.078125 7.15625 18.199219 8.007812 Z M 20.789062 8.75 C 21.304688 9.265625 21.304688 10.078125 20.789062 10.597656 L 20.230469 11.15625 L 18.386719 9.304688 L 18.9375 8.75 C 19.546875 8.140625 20.292969 8.257812 20.789062 8.75 Z M 17.644531 10.042969 L 19.492188 11.894531 L 14.847656 16.539062 L 12.714844 16.773438 L 12.992188 14.695312 Z M 17.644531 10.042969 " fill-opacity="1" fill-rule="nonzero"/></g></svg>