<svg xmlns="http://www.w3.org/2000/svg" xmlns:xlink="http://www.w3.org/1999/xlink" width="40" zoomAndPan="magnify" viewBox="0 0 30 30.000001" height="40" preserveAspectRatio="xMidYMid meet" version="1.0"><defs><clipPath id="008bfae723"><path d="M 3.175781 9 L 27 9 L 27 22 L 3.175781 22 Z M 3.175781 9 " clip-rule="nonzero"/></clipPath><clipPath id="eed237fe2b"><path d="M 3.175781 2.691406 L 27 2.691406 L 27 26.644531 L 3.175781 26.644531 Z M 3.175781 2.691406 " clip-rule="nonzero"/></clipPath></defs><g clip-path="url(#008bfae723)"><path fill="#000000" d="M 3.738281 21.167969 C 3.582031 21.171875 3.449219 21.113281 3.34375 21 C 3.234375 20.890625 3.179688 20.757812 3.179688 20.601562 C 3.179688 20.445312 3.234375 20.3125 3.34375 20.199219 L 10.269531 13.445312 C 10.378906 13.335938 10.511719 13.285156 10.664062 13.285156 C 10.816406 13.285156 10.949219 13.335938 11.058594 13.445312 L 13.726562 16.070312 L 20.3125 10.011719 C 20.421875 9.914062 20.550781 9.863281 20.695312 9.863281 C 20.84375 9.863281 20.96875 9.914062 21.078125 10.011719 L 26.574219 15.113281 C 26.675781 15.21875 26.726562 15.347656 26.726562 15.496094 C 26.726562 15.644531 26.675781 15.773438 26.574219 15.878906 C 26.472656 15.988281 26.347656 16.046875 26.203125 16.058594 C 26.054688 16.066406 25.921875 16.027344 25.808594 15.933594 L 20.730469 11.191406 L 14.132812 17.261719 C 14.023438 17.363281 13.890625 17.414062 13.742188 17.414062 C 13.59375 17.414062 13.464844 17.363281 13.355469 17.261719 L 10.699219 14.570312 L 4.167969 20.964844 C 4.054688 21.101562 3.914062 21.167969 3.738281 21.167969 Z M 3.738281 21.167969 " fill-opacity="1" fill-rule="nonzero"/></g><path fill="#000000" d="M 9.367188 10.957031 C 9.042969 10.957031 8.730469 10.898438 8.429688 10.773438 C 8.128906 10.652344 7.867188 10.476562 7.636719 10.246094 C 7.40625 10.015625 7.226562 9.753906 7.101562 9.453125 C 6.976562 9.152344 6.914062 8.839844 6.914062 8.515625 C 6.914062 8.191406 6.976562 7.878906 7.097656 7.578125 C 7.222656 7.28125 7.398438 7.015625 7.628906 6.785156 C 7.859375 6.554688 8.125 6.378906 8.425781 6.253906 C 8.722656 6.132812 9.035156 6.070312 9.359375 6.070312 C 9.6875 6.070312 9.996094 6.132812 10.296875 6.257812 C 10.597656 6.382812 10.863281 6.558594 11.089844 6.789062 C 11.320312 7.019531 11.496094 7.285156 11.617188 7.585938 C 11.742188 7.886719 11.800781 8.199219 11.800781 8.523438 C 11.800781 8.847656 11.738281 9.15625 11.613281 9.453125 C 11.488281 9.75 11.3125 10.011719 11.085938 10.242188 C 10.855469 10.46875 10.59375 10.644531 10.296875 10.769531 C 10 10.890625 9.691406 10.953125 9.367188 10.957031 Z M 9.367188 7.207031 C 9.195312 7.207031 9.023438 7.238281 8.863281 7.304688 C 8.699219 7.367188 8.558594 7.464844 8.433594 7.585938 C 8.308594 7.710938 8.210938 7.851562 8.144531 8.011719 C 8.074219 8.171875 8.039062 8.34375 8.039062 8.515625 C 8.039062 8.691406 8.070312 8.859375 8.136719 9.023438 C 8.203125 9.183594 8.296875 9.328125 8.421875 9.453125 C 8.546875 9.578125 8.6875 9.671875 8.847656 9.738281 C 9.011719 9.808594 9.179688 9.839844 9.355469 9.839844 C 9.527344 9.84375 9.695312 9.808594 9.859375 9.742188 C 10.019531 9.675781 10.164062 9.582031 10.289062 9.457031 C 10.410156 9.332031 10.507812 9.191406 10.574219 9.03125 C 10.640625 8.867188 10.675781 8.699219 10.675781 8.523438 C 10.675781 8.351562 10.640625 8.183594 10.574219 8.023438 C 10.507812 7.863281 10.414062 7.71875 10.292969 7.597656 C 10.171875 7.472656 10.03125 7.378906 9.871094 7.3125 C 9.710938 7.242188 9.542969 7.207031 9.367188 7.207031 Z M 9.367188 7.207031 " fill-opacity="1" fill-rule="nonzero"/><g clip-path="url(#eed237fe2b)"><path fill="#000000" d="M 22.878906 26.359375 L 7.117188 26.359375 C 6.601562 26.355469 6.101562 26.253906 5.625 26.054688 C 5.148438 25.855469 4.730469 25.570312 4.363281 25.207031 C 4 24.839844 3.714844 24.417969 3.515625 23.941406 C 3.316406 23.464844 3.214844 22.96875 3.210938 22.453125 L 3.210938 6.6875 C 3.214844 6.171875 3.316406 5.675781 3.515625 5.199219 C 3.714844 4.722656 4 4.300781 4.363281 3.9375 C 4.730469 3.570312 5.148438 3.289062 5.625 3.089844 C 6.101562 2.886719 6.601562 2.785156 7.117188 2.78125 L 22.878906 2.78125 C 23.140625 2.78125 23.394531 2.808594 23.648438 2.859375 C 23.902344 2.910156 24.148438 2.984375 24.386719 3.082031 C 24.628906 3.179688 24.855469 3.300781 25.070312 3.445312 C 25.285156 3.589844 25.484375 3.753906 25.667969 3.9375 C 25.851562 4.121094 26.011719 4.316406 26.15625 4.535156 C 26.300781 4.75 26.421875 4.976562 26.519531 5.214844 C 26.621094 5.453125 26.695312 5.699219 26.746094 5.953125 C 26.796875 6.207031 26.820312 6.464844 26.820312 6.722656 L 26.820312 22.453125 C 26.820312 22.710938 26.792969 22.964844 26.738281 23.214844 C 26.6875 23.46875 26.613281 23.714844 26.511719 23.949219 C 26.410156 24.1875 26.289062 24.414062 26.144531 24.625 C 26 24.839844 25.835938 25.035156 25.65625 25.21875 C 25.472656 25.398438 25.273438 25.558594 25.058594 25.703125 C 24.84375 25.84375 24.617188 25.964844 24.378906 26.0625 C 24.144531 26.160156 23.898438 26.234375 23.644531 26.285156 C 23.390625 26.335938 23.136719 26.359375 22.878906 26.359375 Z M 7.117188 3.90625 C 6.742188 3.90625 6.382812 3.980469 6.039062 4.121094 C 5.695312 4.265625 5.390625 4.46875 5.125 4.734375 C 4.863281 4.996094 4.660156 5.300781 4.515625 5.644531 C 4.375 5.992188 4.300781 6.351562 4.300781 6.722656 L 4.300781 22.453125 C 4.300781 22.824219 4.375 23.183594 4.515625 23.53125 C 4.660156 23.875 4.863281 24.179688 5.125 24.441406 C 5.390625 24.707031 5.695312 24.910156 6.039062 25.054688 C 6.382812 25.195312 6.742188 25.269531 7.117188 25.269531 L 22.878906 25.269531 C 23.253906 25.269531 23.613281 25.195312 23.957031 25.054688 C 24.300781 24.910156 24.605469 24.707031 24.871094 24.441406 C 25.132812 24.179688 25.339844 23.875 25.480469 23.53125 C 25.625 23.183594 25.695312 22.824219 25.695312 22.453125 L 25.695312 6.6875 C 25.695312 6.316406 25.625 5.957031 25.480469 5.613281 C 25.339844 5.265625 25.132812 4.960938 24.871094 4.699219 C 24.605469 4.433594 24.300781 4.230469 23.957031 4.089844 C 23.613281 3.945312 23.253906 3.875 22.878906 3.875 Z M 7.117188 3.90625 " fill-opacity="1" fill-rule="nonzero"/></g></svg>