<svg xmlns="http://www.w3.org/2000/svg" xmlns:xlink="http://www.w3.org/1999/xlink" width="40" zoomAndPan="magnify" viewBox="0 0 30 30.000001" height="40" preserveAspectRatio="xMidYMid meet" version="1.0"><defs><clipPath id="989483475b"><path d="M 0.484375 7 L 29.515625 7 L 29.515625 22 L 0.484375 22 Z M 0.484375 7 " clip-rule="nonzero"/></clipPath></defs><g clip-path="url(#989483475b)"><path fill="#000000" d="M 29.515625 14.515625 C 29.515625 18.523438 26.265625 21.773438 22.257812 21.773438 L 7.742188 21.773438 C 3.734375 21.773438 0.484375 18.523438 0.484375 14.515625 C 0.484375 10.507812 3.734375 7.257812 7.742188 7.257812 L 22.257812 7.257812 C 26.265625 7.257812 29.515625 10.507812 29.515625 14.515625 Z M 7.742188 9.675781 C 5.070312 9.675781 2.902344 11.84375 2.902344 14.515625 C 2.902344 17.1875 5.070312 19.355469 7.742188 19.355469 C 10.414062 19.355469 12.582031 17.1875 12.582031 14.515625 C 12.582031 11.84375 10.414062 9.675781 7.742188 9.675781 Z M 7.742188 9.675781 " fill-opacity="1" fill-rule="nonzero"/></g></svg>