<svg xmlns="http://www.w3.org/2000/svg" xmlns:xlink="http://www.w3.org/1999/xlink" width="40" zoomAndPan="magnify" viewBox="0 0 30 30.000001" height="40" preserveAspectRatio="xMidYMid meet" version="1.0"><defs><clipPath id="99b866a0c8"><path d="M 0.484375 0 L 29.515625 0 L 29.515625 29.03125 L 0.484375 29.03125 Z M 0.484375 0 " clip-rule="nonzero"/></clipPath><clipPath id="261bf0ff85"><path d="M 15 0 C 6.984375 0 0.484375 6.5 0.484375 14.515625 C 0.484375 22.53125 6.984375 29.03125 15 29.03125 C 23.015625 29.03125 29.515625 22.53125 29.515625 14.515625 C 29.515625 6.5 23.015625 0 15 0 Z M 15 0 " clip-rule="nonzero"/></clipPath><clipPath id="3681a230d4"><path d="M 0.484375 0 L 29.515625 0 L 29.515625 29.03125 L 0.484375 29.03125 Z M 0.484375 0 " clip-rule="nonzero"/></clipPath><clipPath id="32f58c1ab4"><path d="M 15 0 C 6.984375 0 0.484375 6.5 0.484375 14.515625 C 0.484375 22.53125 6.984375 29.03125 15 29.03125 C 23.015625 29.03125 29.515625 22.53125 29.515625 14.515625 C 29.515625 6.5 23.015625 0 15 0 Z M 15 0 " clip-rule="nonzero"/></clipPath><clipPath id="1cb0f60da7"><rect x="0" width="30" y="0" height="30"/></clipPath><clipPath id="fab3b91fd2"><path d="M 7.757812 6.582031 L 22.273438 6.582031 L 22.273438 22.550781 L 7.757812 22.550781 Z M 7.757812 6.582031 " clip-rule="nonzero"/></clipPath></defs><g clip-path="url(#99b866a0c8)"><g clip-path="url(#261bf0ff85)"><g transform="matrix(1, 0, 0, 1, 0, 0.000000000000005692)"><g clip-path="url(#1cb0f60da7)"><g clip-path="url(#3681a230d4)"><g clip-path="url(#32f58c1ab4)"><path fill="#dd3d93" d="M 0.484375 0 L 29.515625 0 L 29.515625 29.03125 L 0.484375 29.03125 Z M 0.484375 0 " fill-opacity="1" fill-rule="nonzero"/></g></g></g></g></g></g><g clip-path="url(#fab3b91fd2)"><path fill="#feefff" d="M 21.550781 9.34375 L 18.445312 9.34375 L 18.445312 8.855469 C 18.445312 8.554688 18.390625 8.265625 18.273438 7.988281 C 18.15625 7.707031 17.992188 7.464844 17.78125 7.25 C 17.566406 7.039062 17.320312 6.875 17.042969 6.757812 C 16.765625 6.640625 16.476562 6.585938 16.175781 6.582031 L 13.824219 6.582031 C 13.523438 6.585938 13.230469 6.640625 12.953125 6.757812 C 12.675781 6.875 12.429688 7.039062 12.21875 7.25 C 12.003906 7.464844 11.839844 7.707031 11.726562 7.988281 C 11.609375 8.265625 11.550781 8.554688 11.550781 8.855469 L 11.550781 9.34375 L 8.449219 9.34375 C 8.257812 9.34375 8.09375 9.410156 7.960938 9.542969 C 7.824219 9.679688 7.757812 9.839844 7.757812 10.03125 C 7.757812 10.222656 7.824219 10.386719 7.960938 10.519531 C 8.09375 10.652344 8.257812 10.722656 8.449219 10.722656 L 9.480469 10.722656 L 9.480469 20.164062 C 9.484375 20.464844 9.539062 20.757812 9.65625 21.035156 C 9.773438 21.316406 9.9375 21.5625 10.152344 21.777344 C 10.367188 21.992188 10.613281 22.15625 10.894531 22.269531 C 11.175781 22.386719 11.464844 22.445312 11.769531 22.445312 L 18.234375 22.445312 C 18.535156 22.445312 18.828125 22.386719 19.105469 22.269531 C 19.386719 22.15625 19.632812 21.988281 19.847656 21.777344 C 20.058594 21.5625 20.226562 21.316406 20.339844 21.035156 C 20.457031 20.757812 20.515625 20.464844 20.515625 20.164062 L 20.515625 10.722656 L 21.550781 10.722656 C 21.742188 10.722656 21.902344 10.652344 22.039062 10.519531 C 22.171875 10.386719 22.238281 10.222656 22.238281 10.03125 C 22.238281 9.839844 22.171875 9.679688 22.039062 9.542969 C 21.902344 9.410156 21.742188 9.34375 21.550781 9.34375 Z M 12.929688 8.855469 C 12.929688 8.609375 13.015625 8.398438 13.191406 8.222656 C 13.367188 8.050781 13.578125 7.964844 13.824219 7.964844 L 16.175781 7.964844 C 16.421875 7.964844 16.632812 8.050781 16.804688 8.222656 C 16.980469 8.398438 17.066406 8.609375 17.066406 8.855469 L 17.066406 9.34375 L 12.929688 9.34375 Z M 19.136719 20.164062 C 19.136719 20.410156 19.046875 20.625 18.871094 20.800781 C 18.695312 20.976562 18.480469 21.066406 18.234375 21.066406 L 11.769531 21.066406 C 11.519531 21.066406 11.304688 20.976562 11.128906 20.800781 C 10.949219 20.625 10.863281 20.414062 10.859375 20.164062 L 10.859375 10.722656 L 19.136719 10.722656 Z M 19.136719 20.164062 " fill-opacity="1" fill-rule="nonzero"/></g><path fill="#feefff" d="M 13.273438 12.269531 C 13.085938 12.269531 12.921875 12.335938 12.789062 12.472656 C 12.652344 12.605469 12.585938 12.769531 12.585938 12.960938 L 12.585938 19.164062 C 12.585938 19.355469 12.652344 19.519531 12.789062 19.652344 C 12.921875 19.789062 13.085938 19.855469 13.273438 19.855469 C 13.464844 19.855469 13.628906 19.789062 13.761719 19.652344 C 13.898438 19.519531 13.964844 19.355469 13.964844 19.164062 L 13.964844 12.960938 C 13.964844 12.769531 13.898438 12.605469 13.761719 12.472656 C 13.628906 12.335938 13.464844 12.269531 13.273438 12.269531 Z M 13.273438 12.269531 " fill-opacity="1" fill-rule="nonzero"/><path fill="#feefff" d="M 16.722656 12.269531 C 16.53125 12.269531 16.371094 12.335938 16.234375 12.472656 C 16.101562 12.605469 16.035156 12.769531 16.035156 12.960938 L 16.035156 19.164062 C 16.035156 19.355469 16.101562 19.519531 16.234375 19.652344 C 16.371094 19.789062 16.53125 19.855469 16.722656 19.855469 C 16.914062 19.855469 17.074219 19.789062 17.210938 19.652344 C 17.34375 19.519531 17.414062 19.355469 17.414062 19.164062 L 17.414062 12.960938 C 17.414062 12.769531 17.34375 12.605469 17.210938 12.472656 C 17.074219 12.335938 16.914062 12.269531 16.722656 12.269531 Z M 16.722656 12.269531 " fill-opacity="1" fill-rule="nonzero"/></svg>