<svg xmlns="http://www.w3.org/2000/svg" xmlns:xlink="http://www.w3.org/1999/xlink" width="40" zoomAndPan="magnify" viewBox="0 0 30 30.000001" height="40" preserveAspectRatio="xMidYMid meet" version="1.0"><defs><clipPath id="044b032cea"><path d="M 0.484375 0 L 29.515625 0 L 29.515625 29.03125 L 0.484375 29.03125 Z M 0.484375 0 " clip-rule="nonzero"/></clipPath><clipPath id="c5b643d72e"><path d="M 15 0 C 6.984375 0 0.484375 6.5 0.484375 14.515625 C 0.484375 22.53125 6.984375 29.03125 15 29.03125 C 23.015625 29.03125 29.515625 22.53125 29.515625 14.515625 C 29.515625 6.5 23.015625 0 15 0 Z M 15 0 " clip-rule="nonzero"/></clipPath><clipPath id="12ae2f01a7"><path d="M 0.484375 0 L 29.515625 0 L 29.515625 29.03125 L 0.484375 29.03125 Z M 0.484375 0 " clip-rule="nonzero"/></clipPath><clipPath id="b2e61c196c"><path d="M 15 0 C 6.984375 0 0.484375 6.5 0.484375 14.515625 C 0.484375 22.53125 6.984375 29.03125 15 29.03125 C 23.015625 29.03125 29.515625 22.53125 29.515625 14.515625 C 29.515625 6.5 23.015625 0 15 0 Z M 15 0 " clip-rule="nonzero"/></clipPath><clipPath id="a2ed9a8f45"><rect x="0" width="30" y="0" height="30"/></clipPath><clipPath id="50048c0f2f"><path d="M 5.535156 5.375 L 24.40625 5.375 L 24.40625 23.523438 L 5.535156 23.523438 Z M 5.535156 5.375 " clip-rule="nonzero"/></clipPath></defs><g clip-path="url(#044b032cea)"><g clip-path="url(#c5b643d72e)"><g transform="matrix(1, 0, 0, 1, 0, 0.000000000000005692)"><g clip-path="url(#a2ed9a8f45)"><g clip-path="url(#12ae2f01a7)"><g clip-path="url(#b2e61c196c)"><path fill="#feefff" d="M 0.484375 0 L 29.515625 0 L 29.515625 29.03125 L 0.484375 29.03125 Z M 0.484375 0 " fill-opacity="1" fill-rule="nonzero"/></g></g></g></g></g></g><g clip-path="url(#50048c0f2f)"><path fill="#dd3d93" d="M 5.628906 12.339844 C 5.554688 12.566406 5.613281 12.816406 5.785156 12.984375 L 9.953125 17.046875 L 8.96875 22.777344 C 8.929688 23.015625 9.023438 23.253906 9.21875 23.394531 C 9.414062 23.535156 9.667969 23.550781 9.882812 23.441406 L 15.027344 20.734375 L 20.175781 23.441406 C 20.269531 23.488281 20.371094 23.511719 20.46875 23.511719 C 20.601562 23.511719 20.730469 23.472656 20.839844 23.394531 C 21.03125 23.253906 21.128906 23.015625 21.089844 22.777344 L 20.105469 17.046875 L 24.273438 12.984375 C 24.441406 12.816406 24.503906 12.566406 24.429688 12.339844 C 24.355469 12.113281 24.160156 11.949219 23.921875 11.914062 L 18.167969 11.078125 L 15.59375 5.859375 C 15.382812 5.429688 14.675781 5.429688 14.464844 5.859375 L 11.890625 11.078125 L 6.136719 11.914062 C 5.898438 11.949219 5.703125 12.113281 5.628906 12.339844 Z M 12.398438 12.273438 C 12.605469 12.242188 12.78125 12.113281 12.871094 11.929688 L 15.027344 7.558594 L 17.1875 11.929688 C 17.277344 12.113281 17.453125 12.242188 17.660156 12.273438 L 22.480469 12.972656 L 18.992188 16.375 C 18.84375 16.519531 18.777344 16.726562 18.8125 16.933594 L 19.632812 21.734375 L 15.320312 19.46875 C 15.230469 19.417969 15.128906 19.394531 15.027344 19.394531 C 14.929688 19.394531 14.828125 19.417969 14.734375 19.46875 L 10.421875 21.734375 L 11.246094 16.933594 C 11.28125 16.726562 11.214844 16.519531 11.066406 16.375 L 7.578125 12.972656 Z M 12.398438 12.273438 " fill-opacity="1" fill-rule="nonzero"/></g></svg>