<svg xmlns="http://www.w3.org/2000/svg" xmlns:xlink="http://www.w3.org/1999/xlink" width="40" zoomAndPan="magnify" viewBox="0 0 30 30.000001" height="40" preserveAspectRatio="xMidYMid meet" version="1.0"><defs><clipPath id="340fd3145d"><path d="M 2.425781 2 L 27.832031 2 L 27.832031 27.347656 L 2.425781 27.347656 Z M 2.425781 2 " clip-rule="nonzero"/></clipPath></defs><g clip-path="url(#340fd3145d)"><path fill="#000000" d="M 6.042969 27.089844 L 9.433594 26.097656 C 9.992188 25.929688 10.476562 25.640625 10.886719 25.226562 L 26.523438 9.585938 C 27.734375 8.375 27.851562 6.523438 26.789062 5.460938 L 24.390625 3.0625 C 23.328125 2 21.476562 2.117188 20.265625 3.328125 L 4.628906 18.964844 C 4.214844 19.375 3.921875 19.859375 3.753906 20.417969 L 2.761719 23.808594 C 2.605469 24.277344 2.582031 24.75 2.691406 25.230469 C 2.800781 25.710938 3.027344 26.128906 3.367188 26.484375 C 3.871094 26.980469 4.476562 27.226562 5.1875 27.21875 C 5.476562 27.214844 5.761719 27.175781 6.042969 27.089844 Z M 21.730469 4.792969 C 21.957031 4.554688 22.238281 4.425781 22.570312 4.40625 C 22.703125 4.398438 22.824219 4.441406 22.925781 4.53125 L 25.320312 6.925781 C 25.539062 7.144531 25.472656 7.703125 25.058594 8.121094 L 22.65625 10.519531 L 19.332031 7.195312 Z M 4.75 24.394531 L 5.746094 21.003906 C 5.8125 20.785156 5.929688 20.59375 6.09375 20.433594 L 17.867188 8.660156 L 21.191406 11.988281 L 9.417969 23.757812 C 9.257812 23.921875 9.066406 24.039062 8.847656 24.105469 L 5.457031 25.101562 C 5.234375 25.195312 5.027344 25.167969 4.835938 25.015625 C 4.683594 24.828125 4.65625 24.617188 4.75 24.394531 Z M 4.75 24.394531 " fill-opacity="1" fill-rule="nonzero"/></g></svg>