<svg xmlns="http://www.w3.org/2000/svg" xmlns:xlink="http://www.w3.org/1999/xlink" width="40" zoomAndPan="magnify" viewBox="0 0 30 30.000001" height="40" preserveAspectRatio="xMidYMid meet" version="1.0"><defs><clipPath id="cbc963272a"><path d="M 1.933594 2.742188 L 28.066406 2.742188 L 28.066406 25.96875 L 1.933594 25.96875 Z M 1.933594 2.742188 " clip-rule="nonzero"/></clipPath></defs><g clip-path="url(#cbc963272a)"><path fill="#000000" d="M 15 25.96875 L 4.101562 15.144531 C 2.722656 13.773438 1.960938 11.949219 1.960938 10.007812 C 1.960938 8.066406 2.722656 6.246094 4.101562 4.871094 C 5.484375 3.5 7.320312 2.742188 9.273438 2.742188 C 11.226562 2.742188 13.0625 3.5 14.445312 4.871094 L 15 5.421875 L 15.554688 4.871094 C 16.933594 3.5 18.773438 2.746094 20.726562 2.746094 C 22.679688 2.746094 24.515625 3.5 25.898438 4.871094 L 26.0625 5.035156 L 26.0625 5.042969 C 27.339844 6.394531 28.039062 8.148438 28.039062 10.007812 C 28.039062 11.949219 27.277344 13.773438 25.898438 15.144531 Z M 9.273438 3.867188 C 7.625 3.867188 6.070312 4.507812 4.902344 5.667969 C 3.734375 6.828125 3.09375 8.367188 3.09375 10.007812 C 3.09375 11.648438 3.734375 13.191406 4.902344 14.351562 L 15 24.378906 L 25.097656 14.351562 C 26.265625 13.191406 26.90625 11.648438 26.90625 10.007812 C 26.90625 8.367188 26.265625 6.828125 25.097656 5.667969 L 25.0625 5.632812 C 23.898438 4.496094 22.359375 3.867188 20.726562 3.867188 C 19.074219 3.867188 17.523438 4.507812 16.355469 5.667969 L 15 7.011719 L 13.644531 5.667969 C 12.476562 4.507812 10.925781 3.867188 9.273438 3.867188 Z M 9.273438 3.867188 " fill-opacity="1" fill-rule="nonzero"/></g></svg>