<svg xmlns="http://www.w3.org/2000/svg" xmlns:xlink="http://www.w3.org/1999/xlink" width="40" zoomAndPan="magnify" viewBox="0 0 30 30.000001" height="40" preserveAspectRatio="xMidYMid meet" version="1.0"><defs><clipPath id="651f480605"><path d="M 1.136719 0.652344 L 28.71875 0.652344 L 28.71875 28.234375 L 1.136719 28.234375 Z M 1.136719 0.652344 " clip-rule="nonzero"/></clipPath></defs><g clip-path="url(#651f480605)"><path fill="#000000" d="M 5.070312 4.710938 C 7.910156 2.007812 11.125 0.65625 14.714844 0.65625 C 18.609375 0.65625 21.953125 2.007812 24.738281 4.710938 C 27.390625 7.550781 28.71875 10.796875 28.71875 14.441406 C 28.71875 15.050781 28.6875 15.550781 28.628906 15.933594 C 28.296875 18.804688 27.261719 21.269531 25.523438 23.328125 C 23.789062 25.382812 21.621094 26.808594 19.019531 27.605469 C 17.699219 28.023438 16.351562 28.230469 14.96875 28.226562 C 12.730469 28.226562 10.621094 27.734375 8.636719 26.742188 C 6.644531 25.71875 4.980469 24.277344 3.640625 22.414062 C 2.300781 20.550781 1.480469 18.390625 1.179688 15.933594 C 1.152344 15.738281 1.136719 15.242188 1.136719 14.441406 C 1.136719 13.644531 1.152344 13.144531 1.179688 12.949219 C 1.59375 9.746094 2.890625 7 5.070312 4.710938 Z M 22.167969 4.710938 C 20.097656 3.136719 17.574219 2.347656 14.59375 2.347656 C 13.820312 2.347656 13.113281 2.417969 12.480469 2.554688 C 9.777344 3.105469 7.480469 4.453125 5.589844 6.59375 C 3.695312 8.730469 2.75 11.335938 2.75 14.398438 C 2.75 16.855469 3.425781 19.105469 4.777344 21.152344 C 5.300781 21.980469 5.621094 22.398438 5.734375 22.398438 C 8.328125 19.824219 11.199219 16.96875 14.34375 13.820312 L 22.917969 5.289062 C 22.800781 5.210938 22.6875 5.121094 22.582031 5.023438 C 22.457031 4.90625 22.320312 4.800781 22.167969 4.710938 Z M 14.878906 26.539062 C 18.277344 26.539062 21.15625 25.371094 23.515625 23.035156 C 25.878906 20.699219 27.0625 17.835938 27.0625 14.441406 C 27.0625 11.378906 26.066406 8.726562 24.074219 6.488281 C 21.480469 9.058594 18.625 11.917969 15.5 15.0625 L 6.933594 23.59375 C 6.960938 23.621094 7.472656 24.007812 8.460938 24.75 C 10.371094 25.941406 12.511719 26.539062 14.878906 26.539062 Z M 14.878906 26.539062 " fill-opacity="1" fill-rule="nonzero"/></g></svg>