<svg xmlns="http://www.w3.org/2000/svg" xmlns:xlink="http://www.w3.org/1999/xlink" width="40" zoomAndPan="magnify" viewBox="0 0 30 30.000001" height="40" preserveAspectRatio="xMidYMid meet" version="1.0"><defs><clipPath id="fc66ca34ea"><path d="M 0.484375 0 L 29.515625 0 L 29.515625 29.03125 L 0.484375 29.03125 Z M 0.484375 0 " clip-rule="nonzero"/></clipPath><clipPath id="f39421bb17"><path d="M 0.484375 7 L 29.515625 7 L 29.515625 22 L 0.484375 22 Z M 0.484375 7 " clip-rule="nonzero"/></clipPath><clipPath id="970afd47e0"><rect x="0" width="30" y="0" height="30"/></clipPath></defs><g clip-path="url(#fc66ca34ea)"><g transform="matrix(1, 0, 0, 1, 0, 0.000000000000005692)"><g clip-path="url(#970afd47e0)"><g clip-path="url(#f39421bb17)"><path fill="#000000" d="M 0.484375 14.515625 C 0.484375 18.523438 3.734375 21.773438 7.742188 21.773438 L 22.257812 21.773438 C 26.265625 21.773438 29.515625 18.523438 29.515625 14.515625 C 29.515625 10.507812 26.265625 7.257812 22.257812 7.257812 L 7.742188 7.257812 C 3.734375 7.257812 0.484375 10.507812 0.484375 14.515625 Z M 22.257812 9.675781 C 24.929688 9.675781 27.097656 11.84375 27.097656 14.515625 C 27.097656 17.1875 24.929688 19.355469 22.257812 19.355469 C 19.585938 19.355469 17.417969 17.1875 17.417969 14.515625 C 17.417969 11.84375 19.585938 9.675781 22.257812 9.675781 Z M 22.257812 9.675781 " fill-opacity="1" fill-rule="nonzero"/></g></g></g></g></svg>