<svg xmlns="http://www.w3.org/2000/svg" xmlns:xlink="http://www.w3.org/1999/xlink" width="40" zoomAndPan="magnify" viewBox="0 0 30 30.000001" height="40" preserveAspectRatio="xMidYMid meet" version="1.0"><defs><clipPath id="fc3d3f7d5a"><path d="M 0.484375 2.792969 L 29.515625 2.792969 L 29.515625 26.019531 L 0.484375 26.019531 Z M 0.484375 2.792969 " clip-rule="nonzero"/></clipPath></defs><g clip-path="url(#fc3d3f7d5a)"><path fill="#000000" d="M 15 2.792969 C 12.742188 2.792969 10.476562 3.652344 8.753906 5.363281 C 7.476562 6.636719 6.699219 8.21875 6.371094 9.867188 C 3.03125 10.511719 0.5 13.414062 0.5 16.917969 C 0.5 20.894531 3.757812 24.136719 7.75 24.136719 L 11.21875 24.136719 C 11.34375 24.140625 11.464844 24.117188 11.582031 24.070312 C 11.699219 24.023438 11.804688 23.953125 11.894531 23.867188 C 11.984375 23.777344 12.054688 23.675781 12.101562 23.558594 C 12.152344 23.441406 12.175781 23.320312 12.175781 23.195312 C 12.175781 23.070312 12.152344 22.949219 12.101562 22.832031 C 12.054688 22.714844 11.984375 22.613281 11.894531 22.523438 C 11.804688 22.4375 11.699219 22.367188 11.582031 22.320312 C 11.464844 22.273438 11.34375 22.253906 11.21875 22.253906 L 7.75 22.253906 C 4.777344 22.253906 2.390625 19.875 2.390625 16.917969 C 2.390625 14.125 4.523438 11.847656 7.257812 11.601562 C 7.476562 11.582031 7.667969 11.492188 7.824219 11.339844 C 7.984375 11.183594 8.078125 10.996094 8.105469 10.777344 C 8.277344 9.285156 8.941406 7.835938 10.09375 6.6875 C 11.453125 5.335938 13.222656 4.675781 15 4.675781 C 16.777344 4.675781 18.539062 5.335938 19.894531 6.6875 C 21.464844 8.25 22.128906 10.375 21.886719 12.40625 C 21.871094 12.539062 21.878906 12.671875 21.921875 12.800781 C 21.960938 12.929688 22.023438 13.042969 22.113281 13.144531 C 22.203125 13.246094 22.308594 13.324219 22.433594 13.382812 C 22.558594 13.4375 22.6875 13.464844 22.820312 13.464844 L 23.195312 13.464844 C 25.65625 13.464844 27.609375 15.410156 27.609375 17.859375 C 27.609375 20.308594 25.65625 22.253906 23.195312 22.253906 L 18.78125 22.253906 C 18.65625 22.253906 18.535156 22.273438 18.417969 22.320312 C 18.300781 22.367188 18.195312 22.4375 18.105469 22.523438 C 18.015625 22.613281 17.945312 22.714844 17.898438 22.832031 C 17.847656 22.949219 17.824219 23.070312 17.824219 23.195312 C 17.824219 23.320312 17.847656 23.441406 17.898438 23.558594 C 17.945312 23.675781 18.015625 23.777344 18.105469 23.867188 C 18.195312 23.953125 18.300781 24.023438 18.417969 24.070312 C 18.535156 24.117188 18.65625 24.140625 18.78125 24.136719 L 23.195312 24.136719 C 26.671875 24.136719 29.5 21.320312 29.5 17.859375 C 29.5 14.59375 26.972656 11.933594 23.769531 11.640625 C 23.78125 9.371094 22.972656 7.09375 21.234375 5.363281 C 19.515625 3.652344 17.257812 2.792969 15 2.792969 Z M 15 12.839844 C 14.683594 12.839844 14.519531 12.9375 14.359375 13.082031 L 10.890625 16.222656 C 10.492188 16.589844 10.5 17.191406 10.832031 17.554688 C 11.167969 17.917969 11.804688 17.945312 12.171875 17.613281 L 14.054688 15.90625 L 14.054688 25.078125 C 14.054688 25.597656 14.476562 26.019531 15 26.019531 C 15.523438 26.019531 15.945312 25.597656 15.945312 25.078125 L 15.945312 15.90625 L 17.828125 17.613281 C 18.195312 17.945312 18.8125 17.902344 19.167969 17.554688 C 19.539062 17.191406 19.472656 16.554688 19.109375 16.222656 L 15.640625 13.082031 C 15.453125 12.914062 15.316406 12.839844 15 12.839844 Z M 15 12.839844 " fill-opacity="1" fill-rule="nonzero"/></g></svg>