<svg xmlns="http://www.w3.org/2000/svg" xmlns:xlink="http://www.w3.org/1999/xlink" width="40" zoomAndPan="magnify" viewBox="0 0 30 30.000001" height="40" preserveAspectRatio="xMidYMid meet" version="1.0"><defs><clipPath id="c3b36ea875"><path d="M 2.472656 0.792969 L 27.878906 0.792969 L 27.878906 28.375 L 2.472656 28.375 Z M 2.472656 0.792969 " clip-rule="nonzero"/></clipPath></defs><g clip-path="url(#c3b36ea875)"><path fill="#000000" d="M 26.667969 5.597656 L 21.222656 5.597656 L 21.222656 4.75 C 21.222656 4.492188 21.199219 4.234375 21.148438 3.980469 C 21.09375 3.726562 21.019531 3.480469 20.917969 3.242188 C 20.820312 3 20.695312 2.773438 20.550781 2.558594 C 20.40625 2.34375 20.242188 2.144531 20.054688 1.960938 C 19.871094 1.777344 19.667969 1.613281 19.453125 1.46875 C 19.234375 1.324219 19.003906 1.203125 18.761719 1.105469 C 18.523438 1.003906 18.273438 0.929688 18.015625 0.878906 C 17.757812 0.828125 17.5 0.804688 17.238281 0.804688 L 13.113281 0.804688 C 12.851562 0.804688 12.59375 0.828125 12.335938 0.878906 C 12.078125 0.929688 11.832031 1.003906 11.589844 1.105469 C 11.347656 1.203125 11.117188 1.324219 10.902344 1.46875 C 10.683594 1.613281 10.480469 1.777344 10.296875 1.960938 C 10.113281 2.144531 9.945312 2.34375 9.800781 2.558594 C 9.65625 2.773438 9.53125 3 9.433594 3.242188 C 9.332031 3.480469 9.257812 3.726562 9.207031 3.980469 C 9.152344 4.234375 9.128906 4.492188 9.128906 4.75 L 9.128906 5.597656 L 3.683594 5.597656 C 3.523438 5.597656 3.371094 5.625 3.222656 5.6875 C 3.074219 5.75 2.941406 5.835938 2.828125 5.945312 C 2.714844 6.058594 2.628906 6.1875 2.566406 6.335938 C 2.503906 6.484375 2.472656 6.636719 2.472656 6.792969 C 2.472656 6.953125 2.503906 7.105469 2.566406 7.253906 C 2.628906 7.398438 2.714844 7.53125 2.828125 7.640625 C 2.941406 7.753906 3.074219 7.839844 3.222656 7.902344 C 3.371094 7.960938 3.523438 7.992188 3.683594 7.992188 L 5.5 7.992188 L 5.5 24.398438 C 5.5 24.65625 5.523438 24.917969 5.578125 25.171875 C 5.628906 25.425781 5.703125 25.675781 5.804688 25.914062 C 5.90625 26.15625 6.03125 26.386719 6.175781 26.601562 C 6.324219 26.816406 6.488281 27.019531 6.675781 27.203125 C 6.863281 27.386719 7.0625 27.550781 7.28125 27.695312 C 7.5 27.839844 7.734375 27.960938 7.976562 28.0625 C 8.21875 28.160156 8.46875 28.238281 8.726562 28.289062 C 8.984375 28.339844 9.246094 28.363281 9.507812 28.363281 L 20.847656 28.363281 C 21.113281 28.363281 21.371094 28.335938 21.628906 28.285156 C 21.886719 28.234375 22.136719 28.160156 22.382812 28.058594 C 22.625 27.960938 22.855469 27.839844 23.074219 27.695312 C 23.292969 27.550781 23.492188 27.382812 23.679688 27.199219 C 23.863281 27.015625 24.03125 26.816406 24.175781 26.601562 C 24.324219 26.382812 24.445312 26.15625 24.546875 25.914062 C 24.648438 25.675781 24.722656 25.425781 24.777344 25.171875 C 24.828125 24.914062 24.851562 24.65625 24.855469 24.398438 L 24.855469 7.992188 L 26.667969 7.992188 C 26.828125 7.992188 26.984375 7.960938 27.132812 7.902344 C 27.277344 7.839844 27.410156 7.753906 27.523438 7.640625 C 27.636719 7.53125 27.722656 7.398438 27.785156 7.253906 C 27.847656 7.105469 27.878906 6.953125 27.878906 6.792969 C 27.878906 6.636719 27.847656 6.484375 27.785156 6.335938 C 27.722656 6.1875 27.636719 6.058594 27.523438 5.945312 C 27.410156 5.835938 27.277344 5.75 27.132812 5.6875 C 26.984375 5.625 26.828125 5.597656 26.667969 5.597656 Z M 11.546875 4.75 C 11.546875 4.546875 11.585938 4.347656 11.667969 4.15625 C 11.746094 3.96875 11.859375 3.800781 12.007812 3.652344 C 12.152344 3.507812 12.324219 3.394531 12.515625 3.316406 C 12.707031 3.238281 12.90625 3.199219 13.113281 3.199219 L 17.238281 3.199219 C 17.445312 3.199219 17.644531 3.238281 17.839844 3.316406 C 18.03125 3.394531 18.199219 3.507812 18.347656 3.652344 C 18.492188 3.800781 18.605469 3.96875 18.6875 4.15625 C 18.765625 4.347656 18.804688 4.546875 18.804688 4.75 L 18.804688 5.597656 L 11.546875 5.597656 Z M 22.433594 24.398438 C 22.433594 24.605469 22.394531 24.804688 22.3125 24.996094 C 22.230469 25.1875 22.117188 25.359375 21.96875 25.503906 C 21.820312 25.652344 21.648438 25.765625 21.457031 25.847656 C 21.261719 25.925781 21.058594 25.964844 20.847656 25.96875 L 9.507812 25.96875 C 9.296875 25.96875 9.097656 25.925781 8.902344 25.847656 C 8.707031 25.769531 8.535156 25.65625 8.386719 25.507812 C 8.238281 25.359375 8.121094 25.191406 8.039062 25 C 7.960938 24.804688 7.917969 24.605469 7.917969 24.398438 L 7.917969 7.992188 L 22.433594 7.992188 Z M 22.433594 24.398438 " fill-opacity="1" fill-rule="nonzero"/></g><path fill="#000000" d="M 12.152344 10.683594 C 11.992188 10.683594 11.835938 10.714844 11.6875 10.773438 C 11.539062 10.835938 11.410156 10.921875 11.296875 11.035156 C 11.183594 11.144531 11.097656 11.277344 11.035156 11.421875 C 10.972656 11.570312 10.941406 11.722656 10.941406 11.882812 L 10.941406 22.664062 C 10.941406 22.824219 10.972656 22.976562 11.035156 23.125 C 11.097656 23.269531 11.183594 23.402344 11.296875 23.511719 C 11.410156 23.625 11.539062 23.710938 11.6875 23.773438 C 11.835938 23.832031 11.992188 23.863281 12.152344 23.863281 C 12.3125 23.863281 12.464844 23.832031 12.613281 23.773438 C 12.761719 23.710938 12.894531 23.625 13.007812 23.511719 C 13.121094 23.402344 13.207031 23.269531 13.269531 23.125 C 13.332031 22.976562 13.363281 22.824219 13.363281 22.664062 L 13.363281 11.882812 C 13.363281 11.722656 13.332031 11.570312 13.269531 11.421875 C 13.207031 11.277344 13.121094 11.144531 13.007812 11.035156 C 12.894531 10.921875 12.761719 10.835938 12.613281 10.773438 C 12.464844 10.714844 12.3125 10.683594 12.152344 10.683594 Z M 12.152344 10.683594 " fill-opacity="1" fill-rule="nonzero"/><path fill="#000000" d="M 18.199219 10.683594 C 18.039062 10.683594 17.886719 10.714844 17.738281 10.773438 C 17.589844 10.835938 17.457031 10.921875 17.34375 11.035156 C 17.230469 11.144531 17.144531 11.277344 17.082031 11.421875 C 17.019531 11.570312 16.992188 11.722656 16.992188 11.882812 L 16.992188 22.664062 C 16.992188 22.824219 17.019531 22.976562 17.082031 23.125 C 17.144531 23.269531 17.230469 23.402344 17.34375 23.511719 C 17.457031 23.625 17.589844 23.710938 17.738281 23.773438 C 17.886719 23.832031 18.039062 23.863281 18.199219 23.863281 C 18.359375 23.863281 18.515625 23.832031 18.664062 23.773438 C 18.8125 23.710938 18.941406 23.625 19.054688 23.511719 C 19.167969 23.402344 19.257812 23.269531 19.316406 23.125 C 19.378906 22.976562 19.410156 22.824219 19.410156 22.664062 L 19.410156 11.882812 C 19.410156 11.722656 19.378906 11.570312 19.316406 11.421875 C 19.257812 11.277344 19.167969 11.144531 19.054688 11.035156 C 18.941406 10.921875 18.8125 10.835938 18.664062 10.773438 C 18.515625 10.714844 18.359375 10.683594 18.199219 10.683594 Z M 18.199219 10.683594 " fill-opacity="1" fill-rule="nonzero"/></svg>