<svg xmlns="http://www.w3.org/2000/svg" xmlns:xlink="http://www.w3.org/1999/xlink" width="40" zoomAndPan="magnify" viewBox="0 0 30 30.000001" height="40" preserveAspectRatio="xMidYMid meet" version="1.0"><defs><clipPath id="b1780a849a"><path d="M 0.484375 0 L 29.515625 0 L 29.515625 29.03125 L 0.484375 29.03125 Z M 0.484375 0 " clip-rule="nonzero"/></clipPath><clipPath id="0629b6bada"><path d="M 1.933594 4.066406 L 28.066406 4.066406 L 28.066406 12 L 1.933594 12 Z M 1.933594 4.066406 " clip-rule="nonzero"/></clipPath><clipPath id="0c8165b91f"><path d="M 1.933594 18 L 28.066406 18 L 28.066406 25.113281 L 1.933594 25.113281 Z M 1.933594 18 " clip-rule="nonzero"/></clipPath><clipPath id="f6b68a96c8"><path d="M 1.933594 11 L 28.066406 11 L 28.066406 19 L 1.933594 19 Z M 1.933594 11 " clip-rule="nonzero"/></clipPath></defs><g clip-path="url(#b1780a849a)"><path fill="#ffffff" d="M 0.484375 0 L 29.515625 0 L 29.515625 29.03125 L 0.484375 29.03125 Z M 0.484375 0 " fill-opacity="1" fill-rule="nonzero"/><path fill="#ffffff" d="M 0.484375 0 L 29.515625 0 L 29.515625 29.03125 L 0.484375 29.03125 Z M 0.484375 0 " fill-opacity="1" fill-rule="nonzero"/></g><g clip-path="url(#0629b6bada)"><path fill="#000000" d="M 27.191406 6.695312 L 11.394531 6.695312 C 11.296875 6.320312 11.144531 5.96875 10.933594 5.644531 C 10.722656 5.320312 10.464844 5.039062 10.160156 4.800781 C 9.855469 4.5625 9.523438 4.378906 9.15625 4.253906 C 8.792969 4.128906 8.417969 4.066406 8.03125 4.066406 C 7.648438 4.066406 7.273438 4.128906 6.910156 4.253906 C 6.542969 4.378906 6.210938 4.5625 5.90625 4.800781 C 5.601562 5.039062 5.34375 5.320312 5.132812 5.644531 C 4.921875 5.96875 4.769531 6.320312 4.671875 6.695312 L 2.808594 6.695312 C 2.566406 6.695312 2.363281 6.78125 2.191406 6.953125 C 2.023438 7.125 1.9375 7.332031 1.9375 7.574219 C 1.9375 7.816406 2.023438 8.019531 2.191406 8.191406 C 2.363281 8.363281 2.566406 8.449219 2.808594 8.449219 L 4.671875 8.449219 C 4.769531 8.824219 4.921875 9.175781 5.132812 9.5 C 5.34375 9.824219 5.601562 10.105469 5.90625 10.34375 C 6.210938 10.582031 6.542969 10.765625 6.910156 10.890625 C 7.273438 11.015625 7.648438 11.078125 8.03125 11.078125 C 8.417969 11.078125 8.792969 11.015625 9.15625 10.890625 C 9.523438 10.765625 9.855469 10.582031 10.160156 10.34375 C 10.464844 10.105469 10.722656 9.824219 10.933594 9.5 C 11.144531 9.175781 11.296875 8.824219 11.394531 8.449219 L 27.191406 8.449219 C 27.433594 8.449219 27.636719 8.363281 27.808594 8.191406 C 27.976562 8.019531 28.0625 7.816406 28.0625 7.574219 C 28.0625 7.332031 27.976562 7.125 27.808594 6.953125 C 27.636719 6.78125 27.433594 6.695312 27.191406 6.695312 Z M 8.03125 9.328125 C 7.800781 9.328125 7.578125 9.28125 7.367188 9.191406 C 7.152344 9.105469 6.964844 8.976562 6.800781 8.8125 C 6.636719 8.648438 6.511719 8.457031 6.425781 8.242188 C 6.335938 8.027344 6.292969 7.804688 6.292969 7.574219 C 6.292969 7.339844 6.335938 7.117188 6.425781 6.902344 C 6.511719 6.6875 6.636719 6.496094 6.800781 6.332031 C 6.964844 6.167969 7.152344 6.042969 7.367188 5.953125 C 7.578125 5.863281 7.800781 5.820312 8.03125 5.820312 C 8.265625 5.820312 8.484375 5.863281 8.699219 5.953125 C 8.914062 6.042969 9.101562 6.167969 9.265625 6.332031 C 9.429688 6.496094 9.554688 6.6875 9.640625 6.902344 C 9.730469 7.117188 9.773438 7.339844 9.773438 7.574219 C 9.773438 7.804688 9.730469 8.027344 9.640625 8.242188 C 9.554688 8.457031 9.429688 8.648438 9.265625 8.8125 C 9.101562 8.976562 8.914062 9.105469 8.699219 9.191406 C 8.484375 9.28125 8.265625 9.328125 8.03125 9.328125 Z M 8.03125 9.328125 " fill-opacity="1" fill-rule="nonzero"/></g><g clip-path="url(#0c8165b91f)"><path fill="#000000" d="M 27.191406 20.726562 L 15.746094 20.726562 C 15.652344 20.351562 15.5 20 15.289062 19.675781 C 15.078125 19.351562 14.820312 19.070312 14.515625 18.832031 C 14.210938 18.59375 13.875 18.414062 13.511719 18.285156 C 13.148438 18.160156 12.773438 18.097656 12.386719 18.097656 C 12.003906 18.097656 11.628906 18.160156 11.261719 18.285156 C 10.898438 18.414062 10.5625 18.59375 10.257812 18.832031 C 9.957031 19.070312 9.699219 19.351562 9.488281 19.675781 C 9.277344 20 9.121094 20.351562 9.027344 20.726562 L 2.808594 20.726562 C 2.566406 20.726562 2.363281 20.8125 2.191406 20.984375 C 2.023438 21.15625 1.9375 21.363281 1.9375 21.605469 C 1.9375 21.847656 2.023438 22.054688 2.191406 22.226562 C 2.363281 22.394531 2.566406 22.480469 2.808594 22.480469 L 9.027344 22.480469 C 9.121094 22.859375 9.277344 23.207031 9.488281 23.53125 C 9.699219 23.859375 9.957031 24.140625 10.257812 24.378906 C 10.5625 24.617188 10.898438 24.796875 11.261719 24.921875 C 11.628906 25.050781 12.003906 25.113281 12.386719 25.113281 C 12.773438 25.113281 13.148438 25.050781 13.511719 24.921875 C 13.875 24.796875 14.210938 24.617188 14.515625 24.378906 C 14.820312 24.140625 15.078125 23.859375 15.289062 23.53125 C 15.5 23.207031 15.652344 22.859375 15.746094 22.480469 L 27.191406 22.480469 C 27.433594 22.480469 27.636719 22.394531 27.808594 22.226562 C 27.976562 22.054688 28.0625 21.847656 28.0625 21.605469 C 28.0625 21.363281 27.976562 21.15625 27.808594 20.984375 C 27.636719 20.8125 27.433594 20.726562 27.191406 20.726562 Z M 12.386719 23.359375 C 12.15625 23.359375 11.933594 23.3125 11.722656 23.226562 C 11.507812 23.136719 11.320312 23.007812 11.15625 22.84375 C 10.992188 22.679688 10.867188 22.492188 10.777344 22.277344 C 10.691406 22.0625 10.644531 21.835938 10.644531 21.605469 C 10.644531 21.371094 10.691406 21.148438 10.777344 20.933594 C 10.867188 20.71875 10.992188 20.527344 11.15625 20.363281 C 11.320312 20.199219 11.507812 20.074219 11.722656 19.984375 C 11.933594 19.894531 12.15625 19.851562 12.386719 19.851562 C 12.617188 19.851562 12.839844 19.894531 13.054688 19.984375 C 13.265625 20.074219 13.457031 20.199219 13.617188 20.363281 C 13.78125 20.527344 13.90625 20.71875 13.996094 20.933594 C 14.085938 21.148438 14.128906 21.371094 14.128906 21.605469 C 14.128906 21.835938 14.085938 22.0625 13.996094 22.277344 C 13.90625 22.492188 13.78125 22.679688 13.617188 22.84375 C 13.457031 23.007812 13.265625 23.136719 13.054688 23.226562 C 12.839844 23.3125 12.617188 23.359375 12.386719 23.359375 Z M 12.386719 23.359375 " fill-opacity="1" fill-rule="nonzero"/></g><g clip-path="url(#f6b68a96c8)"><path fill="#000000" d="M 27.191406 13.710938 L 26.199219 13.710938 C 26.101562 13.335938 25.949219 12.984375 25.738281 12.660156 C 25.527344 12.335938 25.269531 12.054688 24.964844 11.816406 C 24.660156 11.578125 24.328125 11.394531 23.960938 11.269531 C 23.597656 11.144531 23.222656 11.082031 22.835938 11.082031 C 22.453125 11.082031 22.078125 11.144531 21.714844 11.269531 C 21.347656 11.394531 21.015625 11.578125 20.710938 11.816406 C 20.40625 12.054688 20.148438 12.335938 19.9375 12.660156 C 19.726562 12.984375 19.574219 13.335938 19.476562 13.710938 L 2.808594 13.710938 C 2.566406 13.710938 2.363281 13.796875 2.191406 13.96875 C 2.023438 14.140625 1.9375 14.347656 1.9375 14.589844 C 1.9375 14.832031 2.023438 15.039062 2.191406 15.207031 C 2.363281 15.378906 2.566406 15.464844 2.808594 15.464844 L 19.476562 15.464844 C 19.574219 15.839844 19.726562 16.191406 19.9375 16.515625 C 20.148438 16.839844 20.40625 17.121094 20.710938 17.359375 C 21.015625 17.597656 21.347656 17.78125 21.714844 17.90625 C 22.078125 18.03125 22.453125 18.097656 22.835938 18.097656 C 23.222656 18.097656 23.597656 18.03125 23.960938 17.90625 C 24.328125 17.78125 24.660156 17.597656 24.964844 17.359375 C 25.269531 17.121094 25.527344 16.839844 25.738281 16.515625 C 25.949219 16.191406 26.101562 15.839844 26.199219 15.464844 L 27.191406 15.464844 C 27.433594 15.464844 27.636719 15.378906 27.808594 15.207031 C 27.976562 15.039062 28.0625 14.832031 28.0625 14.589844 C 28.0625 14.347656 27.976562 14.140625 27.808594 13.96875 C 27.636719 13.796875 27.433594 13.710938 27.191406 13.710938 Z M 22.835938 16.34375 C 22.605469 16.34375 22.382812 16.296875 22.171875 16.210938 C 21.957031 16.121094 21.769531 15.992188 21.605469 15.828125 C 21.441406 15.664062 21.316406 15.476562 21.230469 15.261719 C 21.140625 15.046875 21.097656 14.820312 21.097656 14.589844 C 21.097656 14.355469 21.140625 14.132812 21.230469 13.917969 C 21.316406 13.703125 21.441406 13.511719 21.605469 13.347656 C 21.769531 13.183594 21.957031 13.058594 22.171875 12.96875 C 22.382812 12.878906 22.605469 12.835938 22.835938 12.835938 C 23.070312 12.835938 23.289062 12.878906 23.503906 12.96875 C 23.71875 13.058594 23.90625 13.183594 24.070312 13.347656 C 24.234375 13.511719 24.359375 13.703125 24.445312 13.917969 C 24.535156 14.132812 24.578125 14.355469 24.578125 14.589844 C 24.578125 14.820312 24.535156 15.046875 24.445312 15.261719 C 24.359375 15.476562 24.234375 15.664062 24.070312 15.828125 C 23.90625 15.992188 23.71875 16.121094 23.503906 16.210938 C 23.289062 16.296875 23.070312 16.34375 22.835938 16.34375 Z M 22.835938 16.34375 " fill-opacity="1" fill-rule="nonzero"/></g></svg>