<svg xmlns="http://www.w3.org/2000/svg" xmlns:xlink="http://www.w3.org/1999/xlink" width="40" zoomAndPan="magnify" viewBox="0 0 30 30.000001" height="40" preserveAspectRatio="xMidYMid meet" version="1.0"><defs><clipPath id="465c35f705"><path d="M 2.027344 5.671875 L 28.15625 5.671875 L 28.15625 23.089844 L 2.027344 23.089844 Z M 2.027344 5.671875 " clip-rule="nonzero"/></clipPath></defs><g clip-path="url(#465c35f705)"><path fill="#000000" d="M 15.09375 5.671875 C 9.15625 5.671875 4.085938 9.28125 2.03125 14.382812 C 4.085938 19.480469 9.15625 23.089844 15.09375 23.089844 C 21.027344 23.089844 26.101562 19.480469 28.152344 14.382812 C 26.101562 9.28125 21.035156 5.671875 15.09375 5.671875 Z M 15.09375 20.1875 C 11.816406 20.1875 9.15625 17.585938 9.15625 14.382812 C 9.15625 11.175781 11.816406 8.574219 15.09375 8.574219 C 18.371094 8.574219 21.027344 11.175781 21.027344 14.382812 C 21.027344 17.585938 18.371094 20.1875 15.09375 20.1875 Z M 15.09375 10.898438 C 13.125 10.898438 11.53125 12.460938 11.53125 14.382812 C 11.53125 16.304688 13.125 17.863281 15.09375 17.863281 C 17.058594 17.863281 18.65625 16.304688 18.65625 14.382812 C 18.65625 12.460938 17.058594 10.898438 15.09375 10.898438 Z M 15.09375 10.898438 " fill-opacity="1" fill-rule="nonzero"/></g></svg>