<svg xmlns="http://www.w3.org/2000/svg" xmlns:xlink="http://www.w3.org/1999/xlink" width="40" zoomAndPan="magnify" viewBox="0 0 30 30.000001" height="40" preserveAspectRatio="xMidYMid meet" version="1.0"><defs><clipPath id="5880dd49cd"><path d="M 0.484375 1.855469 L 29.515625 1.855469 L 29.515625 27.261719 L 0.484375 27.261719 Z M 0.484375 1.855469 " clip-rule="nonzero"/></clipPath></defs><path fill="#000000" d="M 15 19.597656 C 14.167969 19.597656 13.496094 20.273438 13.496094 21.109375 C 13.496094 21.945312 14.167969 22.621094 15 22.621094 C 15.832031 22.621094 16.507812 21.945312 16.507812 21.109375 C 16.507812 20.273438 15.832031 19.597656 15 19.597656 Z M 15 19.597656 " fill-opacity="1" fill-rule="nonzero"/><path fill="#000000" d="M 14.847656 9.328125 C 13.917969 9.414062 13.230469 10.238281 13.316406 11.171875 L 13.878906 17.371094 C 13.925781 17.90625 14.347656 18.347656 14.898438 18.398438 C 15.519531 18.453125 16.070312 17.996094 16.125 17.371094 L 16.6875 11.171875 C 16.695312 11.074219 16.695312 10.96875 16.6875 10.867188 C 16.601562 9.929688 15.78125 9.242188 14.847656 9.328125 Z M 14.847656 9.328125 " fill-opacity="1" fill-rule="nonzero"/><g clip-path="url(#5880dd49cd)"><path fill="#000000" d="M 28.707031 20.898438 L 18.597656 3.90625 C 17.835938 2.625 16.492188 1.855469 15 1.855469 C 13.511719 1.855469 12.167969 2.625 11.402344 3.90625 L 1.292969 20.898438 C 0.511719 22.21875 0.496094 23.796875 1.25 25.132812 C 2.003906 26.464844 3.363281 27.261719 4.890625 27.261719 L 25.109375 27.261719 C 26.640625 27.261719 28 26.464844 28.753906 25.132812 C 29.507812 23.796875 29.492188 22.214844 28.707031 20.898438 Z M 26.621094 23.917969 C 26.308594 24.46875 25.746094 24.800781 25.109375 24.800781 L 4.890625 24.800781 C 4.257812 24.800781 3.695312 24.46875 3.382812 23.917969 C 3.070312 23.363281 3.074219 22.707031 3.402344 22.164062 L 13.511719 5.167969 C 13.832031 4.628906 14.375 4.320312 15 4.320312 C 15.628906 4.320312 16.171875 4.628906 16.492188 5.167969 L 26.601562 22.164062 C 26.925781 22.707031 26.933594 23.363281 26.621094 23.917969 Z M 26.621094 23.917969 " fill-opacity="1" fill-rule="nonzero"/></g></svg>